<?xml version="1.0" standalone="no"?>
<!DOCTYPE svg PUBLIC "-//W3C//DTD SVG 1.1//EN" "http://www.w3.org/Graphics/SVG/1.1/DTD/svg11.dtd" >
<svg xmlns="http://www.w3.org/2000/svg" xmlns:xlink="http://www.w3.org/1999/xlink" version="1.1">
<metadata>
Created by FontForge 20170731 at Tue Mar 23 02:58:55 2021
 By Aleksey,,,
Copyright 2017 OMSE LTD. All rights reserved.
</metadata>
<defs>
<font id="Athletics-MediumItalic" horiz-adv-x="1228" >
  <font-face 
    font-family="Athletics"
    font-weight="500"
    font-style="italic"
    font-stretch="normal"
    units-per-em="2048"
    panose-1="2 0 0 0 0 0 0 0 0 0"
    ascent="1608"
    descent="-440"
    x-height="987"
    cap-height="1434"
    bbox="-537 -528 2515 1905"
    underline-thickness="188"
    underline-position="-358"
    slope="-10"
    unicode-range="U+000D-2B11"
  />
<missing-glyph horiz-adv-x="1722" 
d="M899 1464q148 3 287.5 -57t241 -161.5t162 -241t57.5 -287.5q3 -148 -57.5 -287.5t-162 -241t-241 -162t-287.5 -57.5q-148 -3 -287.5 57.5t-241 162t-161.5 241t-57 287.5q-2 119 35.5 233t108 207t163.5 163.5t207 108t233 35.5zM899 102q121 -3 236 46.5t199.5 133.5
t134.5 199t47 236q3 121 -47 235.5t-134.5 198t-199.5 133t-236 47.5q-121 2 -235.5 -47.5t-198.5 -133t-133.5 -198t-46.5 -235.5q-2 -97 29 -191t89 -170.5t134.5 -135t170.5 -89.5t191 -29zM670 969q52 0 88.5 -36.5t36.5 -90.5q0 -51 -37 -88t-88 -37t-89 37t-38 88
q0 53 37.5 90t89.5 37zM1128 969q54 0 90.5 -36.5t36.5 -90.5q0 -51 -38 -88t-89 -37t-87.5 37t-36.5 88q0 54 36.5 90.5t87.5 36.5z" />
    <glyph glyph-name=".notdef" horiz-adv-x="1722" 
d="M899 1464q148 3 287.5 -57t241 -161.5t162 -241t57.5 -287.5q3 -148 -57.5 -287.5t-162 -241t-241 -162t-287.5 -57.5q-148 -3 -287.5 57.5t-241 162t-161.5 241t-57 287.5q-2 119 35.5 233t108 207t163.5 163.5t207 108t233 35.5zM899 102q121 -3 236 46.5t199.5 133.5
t134.5 199t47 236q3 121 -47 235.5t-134.5 198t-199.5 133t-236 47.5q-121 2 -235.5 -47.5t-198.5 -133t-133.5 -198t-46.5 -235.5q-2 -97 29 -191t89 -170.5t134.5 -135t170.5 -89.5t191 -29zM670 969q52 0 88.5 -36.5t36.5 -90.5q0 -51 -37 -88t-88 -37t-89 37t-38 88
q0 53 37.5 90t89.5 37zM1128 969q54 0 90.5 -36.5t36.5 -90.5q0 -51 -38 -88t-89 -37t-87.5 37t-36.5 88q0 54 36.5 90.5t87.5 36.5z" />
    <glyph glyph-name=".null" horiz-adv-x="0" 
 />
    <glyph glyph-name="nonmarkingreturn" horiz-adv-x="682" 
 />
    <glyph glyph-name="CR" unicode="&#xd;" horiz-adv-x="505" 
 />
    <glyph glyph-name="space" unicode=" " horiz-adv-x="505" 
 />
    <glyph glyph-name="exclam" unicode="!" horiz-adv-x="507" 
d="M135 395l184 1039h195l-184 -1039h-195zM197 246q53 0 86.5 -33.5t33.5 -83.5q0 -60 -42 -102.5t-97 -42.5q-56 0 -90.5 33t-34.5 87q0 57 43.5 99.5t100.5 42.5z" />
    <glyph glyph-name="quotedbl" unicode="&#x22;" horiz-adv-x="747" 
d="M537 981l79 453h195l-80 -453h-194zM188 981l80 453h195l-80 -453h-195z" />
    <glyph glyph-name="numbersign" unicode="#" horiz-adv-x="1529" 
d="M45 367l33 176h305l106 348h-286l30 176h312l114 367h191l-115 -367h357l114 367h191l-115 -367h281l-31 -176h-305l-109 -348h285l-31 -176h-309l-115 -367h-192l114 367h-352l-115 -367h-190l115 367h-283zM573 543h353l110 348h-356z" />
    <glyph glyph-name="dollar" unicode="$" horiz-adv-x="1275" 
d="M53 498l197 51q-1 -157 66.5 -255t193.5 -124l88 504q-360 62 -360 332q0 193 141 315t360 141l25 144h194l-26 -156q150 -35 240.5 -143t97.5 -263l-201 -59q-5 100 -49.5 170.5t-122.5 99.5l-74 -413q389 -67 389 -346q0 -141 -71 -255.5t-193.5 -182.5t-277.5 -85
l-27 -149h-194l26 153q-198 31 -310.5 169.5t-111.5 351.5zM633 868l72 400q-118 -19 -190.5 -83.5t-72.5 -156.5q0 -62 46.5 -101t144.5 -59zM1006 463q0 72 -51.5 115.5t-166.5 66.5l-83 -475q136 25 218.5 104.5t82.5 188.5z" />
    <glyph glyph-name="percent" unicode="%" horiz-adv-x="1499" 
d="M549 1448q114 0 187 -70.5t73 -177.5q0 -138 -105.5 -244t-240.5 -106q-114 0 -187 71.5t-73 178.5q0 138 105.5 243t240.5 105zM70 0l1261 1434h172l-1261 -1434h-172zM475 987q76 0 133 57q60 60 60 138q0 56 -36 92.5t-93 36.5q-78 0 -138 -60q-57 -57 -57 -135
q0 -56 37 -92.5t94 -36.5zM1116 584q112 0 186 -71.5t74 -176.5q0 -139 -105.5 -244.5t-242.5 -105.5q-112 0 -186 71.5t-74 180.5q0 136 106 241t242 105zM1040 123q79 0 136 57q59 59 59 137q0 56 -37 92.5t-94 36.5q-76 0 -135 -59q-60 -60 -60 -135q0 -56 37 -92.5
t94 -36.5z" />
    <glyph glyph-name="ampersand" unicode="&#x26;" horiz-adv-x="1388" 
d="M475 930q-35 84 -35 162q0 160 108.5 266t266.5 106q128 0 200 -69t72 -187q0 -128 -89 -229t-240 -156l256 -420q63 114 63 265q0 69 -8 100l184 47q9 -49 9 -110q0 -276 -144 -469l144 -236h-226l-57 96q-177 -127 -406 -127q-235 0 -373.5 117t-138.5 315
q0 189 109.5 325.5t304.5 203.5zM666 977q239 67 239 217q0 49 -28 75.5t-78 26.5q-77 0 -125.5 -53.5t-48.5 -134.5q0 -32 8.5 -57.5t32.5 -73.5zM580 152q174 0 305 98l-320 524q-150 -39 -232.5 -129.5t-82.5 -222.5q0 -126 86 -198t244 -72z" />
    <glyph glyph-name="quotesingle" unicode="'" horiz-adv-x="399" 
d="M188 981l80 453h195l-80 -453h-195z" />
    <glyph glyph-name="parenleft" unicode="(" horiz-adv-x="557" 
d="M559 1599l131 -118q-210 -232 -320 -521t-110 -604q0 -331 119 -645l-164 -82q-129 340 -129 713q0 352 121 676t352 581z" />
    <glyph glyph-name="parenright" unicode=")" horiz-adv-x="557" 
d="M41 -371l-131 119q210 233 320 521t110 603q0 332 -119 646l164 81q129 -341 129 -712q0 -352 -121.5 -676.5t-351.5 -581.5z" />
    <glyph glyph-name="asterisk" unicode="*" horiz-adv-x="823" 
d="M180 1135l62 129l213 -76l43 246h145l-45 -246l236 74l32 -134l-248 -81l115 -197l-125 -78l-114 195l-181 -197l-102 94l182 195z" />
    <glyph glyph-name="plus" unicode="+" 
d="M123 621l35 194h411l74 414h199l-74 -414h414l-35 -194h-412l-73 -416h-199l72 416h-412z" />
    <glyph glyph-name="comma" unicode="," horiz-adv-x="417" 
d="M-74 -221l27 92q4 -2 14 -2q60 0 107.5 31t70.5 88q-2 -2 -16 -2q-55 0 -89 33t-34 85q0 59 41.5 100.5t99.5 41.5q61 0 95 -38t34 -104q0 -131 -86 -230t-206 -99q-8 0 -58 4z" />
    <glyph glyph-name="hyphen" unicode="-" horiz-adv-x="835" 
d="M115 520l32 189h615l-33 -189h-614z" />
    <glyph glyph-name="period" unicode="." horiz-adv-x="399" 
d="M143 246q53 0 87 -33.5t34 -83.5q0 -60 -42 -102.5t-97 -42.5q-56 0 -90.5 33t-34.5 87q0 57 43 99.5t100 42.5z" />
    <glyph glyph-name="slash" unicode="/" horiz-adv-x="858" 
d="M-18 0l774 1434h200l-774 -1434h-200z" />
    <glyph glyph-name="zero" unicode="0" horiz-adv-x="1292" 
d="M805 1466q223 0 337.5 -141.5t114.5 -388.5q2 -147 -29 -290.5t-92 -266t-144 -216t-192.5 -145t-230.5 -47.5q-227 0 -341.5 140t-114.5 389q-2 147 29 290.5t92 266t144.5 215.5t194 145t232.5 49zM580 158q111 -4 205.5 64t154 179.5t92.5 248.5t31 276
q0 171 -69.5 261.5t-198.5 90.5q-111 4 -206 -63.5t-156 -178t-94.5 -247.5t-31.5 -275q0 -176 69.5 -266t203.5 -90z" />
    <glyph glyph-name="one" unicode="1" horiz-adv-x="684" 
d="M143 1001l31 164q143 0 229.5 71.5t110.5 197.5h199l-254 -1434h-195l176 1001h-297z" />
    <glyph glyph-name="two" unicode="2" horiz-adv-x="1177" 
d="M2 0l21 117q24 144 104 239q78 97 178 156q103 61 256 133l119 55q156 78 230.5 162.5t74.5 206.5q0 100 -63 154.5t-179 54.5q-82 2 -150 -25t-111 -70.5t-71 -99.5t-38 -111.5t-6 -107.5l-205 25q-2 78 19 158t70 156t118 134.5t171 93.5t222 33q194 0 308 -100
t114 -268q0 -187 -104.5 -319.5t-315.5 -241.5l-105 -50q-178 -85 -264 -143q-91 -62 -135 -156h774l-35 -186h-997z" />
    <glyph glyph-name="three" unicode="3" 
d="M76 449l205 34q-15 -59 -15 -98q0 -106 69 -166.5t200 -60.5q168 0 280.5 90t112.5 231q0 98 -79.5 151.5t-219.5 53.5h-133l30 180l131 2q142 0 227 67.5t85 178.5q0 78 -62.5 122t-177.5 44q-126 0 -206.5 -69t-98.5 -179l-193 27q32 177 172.5 293t348.5 116
q199 0 308 -88t109 -233q0 -111 -53.5 -201t-152.5 -153q170 -95 170 -285q0 -152 -82 -275t-223 -191.5t-310 -68.5q-216 0 -335.5 102.5t-119.5 272.5q0 46 13 103z" />
    <glyph glyph-name="four" unicode="4" horiz-adv-x="1214" 
d="M35 305l31 164l868 965h170l-168 -945h209l-31 -184h-211l-53 -305h-195l54 305h-674zM307 489h434l107 598z" />
    <glyph glyph-name="five" unicode="5" horiz-adv-x="1206" 
d="M68 489l198 21q-10 -62 -10 -94q0 -120 75 -190t210 -70q153 0 256 90t123 239q4 50 4 54q0 106 -68.5 168.5t-189.5 62.5q-103 0 -173 -34.5t-143 -104.5l-168 57l211 746h821l-34 -187h-643l-109 -375q70 38 128.5 56t137.5 18q195 0 310.5 -105.5t115.5 -279.5
q0 -35 -10 -100q-40 -223 -197 -359q-157 -133 -385 -133q-220 0 -347.5 114.5t-127.5 291.5q0 47 15 114z" />
    <glyph glyph-name="six" unicode="6" 
d="M799 1464q194 0 306 -104.5t112 -274.5q0 -31 -7 -75l-200 -25q6 40 6 74q0 102 -59.5 160.5t-172.5 58.5q-166 0 -286 -141q-115 -136 -172 -355q79 81 182.5 125.5t212.5 44.5q186 0 303 -113.5t117 -289.5q2 -113 -48 -221.5t-133 -188t-195.5 -126.5t-229.5 -44
q-206 0 -328.5 129t-122.5 365q0 249 86 481q90 234 250 375q165 145 379 145zM555 156q157 0 273 111.5t116 262.5q0 111 -74.5 180.5t-197.5 69.5q-95 0 -181.5 -48.5t-141 -136.5t-54.5 -192q0 -115 70.5 -181t189.5 -66z" />
    <glyph glyph-name="seven" unicode="7" horiz-adv-x="1140" 
d="M201 1247l32 187h1006l-35 -187h-2l4 -2q-220 -192 -436.5 -546.5t-308.5 -698.5h-203q91 336 283 676q191 342 401 571h-741z" />
    <glyph glyph-name="eight" unicode="8" horiz-adv-x="1265" 
d="M389 786q-125 92 -125 240q0 126 73 227t195.5 156t268.5 55q183 0 298 -95t115 -245q0 -115 -59 -205t-166 -147q85 -50 130.5 -126.5t45.5 -170.5q2 -108 -47.5 -203.5t-133.5 -162t-196.5 -104t-234.5 -36.5q-217 0 -349 105.5t-132 275.5q0 147 84 260t233 176z
M698 858q141 0 231.5 68.5t90.5 177.5q0 87 -66 138.5t-178 51.5q-135 0 -229 -73q-92 -71 -92 -185q0 -82 66 -130t177 -48zM575 147q165 0 276.5 88t111.5 226q0 103 -80 164t-215 61q-168 0 -281 -88.5t-113 -224.5q0 -105 80.5 -165.5t220.5 -60.5z" />
    <glyph glyph-name="nine" unicode="9" 
d="M510 -31q-194 0 -306 104.5t-112 274.5q0 38 6 76l201 25q-6 -40 -6 -74q0 -102 59 -160.5t172 -58.5q167 0 285 139q118 138 174 356q-79 -81 -182.5 -125.5t-212.5 -44.5q-186 0 -303 114t-117 290q-3 151 81.5 287t226.5 216t298 76q206 0 328.5 -128.5t122.5 -364.5
q0 -252 -88 -482q-86 -231 -250 -376q-163 -144 -377 -144zM754 1278q-157 0 -273 -112t-116 -263q0 -111 74.5 -180.5t197.5 -69.5q95 0 181.5 48.5t141 136.5t54.5 192q0 115 -70.5 181.5t-189.5 66.5z" />
    <glyph glyph-name="colon" unicode=":" horiz-adv-x="401" 
d="M143 246q53 0 87 -33.5t34 -83.5q0 -60 -42 -102.5t-97 -42.5q-56 0 -90.5 33t-34.5 87q0 57 43 99.5t100 42.5zM279 1001q53 0 86.5 -33t33.5 -83q0 -60 -42 -103t-97 -43q-56 0 -90.5 33.5t-34.5 87.5q0 57 43.5 99t100.5 42z" />
    <glyph glyph-name="semicolon" unicode=";" horiz-adv-x="421" 
d="M299 1001q53 0 87 -33t34 -83q0 -60 -42 -103t-97 -43q-56 0 -90.5 33.5t-34.5 87.5q0 57 43 99t100 42zM-74 -221l27 92q4 -2 14 -2q60 0 107.5 31t70.5 88q-2 -2 -16 -2q-55 0 -89 33t-34 85q0 59 41.5 100.5t99.5 41.5q61 0 95 -38t34 -104q0 -131 -86 -230t-206 -99
q-8 0 -58 4z" />
    <glyph glyph-name="less" unicode="&#x3c;" 
d="M121 604l37 227l1102 429l-41 -228l-832 -323l717 -324l-35 -209z" />
    <glyph glyph-name="equal" unicode="=" 
d="M166 860l33 195h1024l-33 -195h-1024zM80 379l33 194h1024l-33 -194h-1024z" />
    <glyph glyph-name="greater" unicode="&#x3e;" 
d="M45 180l37 217l823 320l-710 319l38 217l951 -428l-39 -215z" />
    <glyph glyph-name="question" unicode="?" horiz-adv-x="1087" 
d="M709 1464q222 0 321 -108q100 -106 100 -254q-1 -88 -21.5 -154.5t-65 -122t-97.5 -97.5t-139 -95q-94 -59 -138 -106.5t-57 -116.5l-6 -33h-203l7 39q14 91 57 159q39 62 84.5 100t128.5 85l45 26q102 62 148.5 130t46.5 165q0 91 -60 144t-182 53q-84 0 -151.5 -33
t-108.5 -86.5t-62.5 -117.5t-21.5 -130l-199 25q4 95 41 186t104.5 169.5t179 126t249.5 46.5zM477 246q53 0 87 -33.5t34 -83.5q0 -60 -42 -102.5t-97 -42.5q-56 0 -90.5 33t-34.5 87q0 57 43 99.5t100 42.5z" />
    <glyph glyph-name="at" unicode="@" horiz-adv-x="1691" 
d="M967 1251q291 0 465 -164.5t174 -431.5q0 -147 -47.5 -264.5t-140.5 -186.5t-216 -69q-159 0 -196 109q-121 -109 -261 -109q-121 0 -186 72.5t-65 189.5q-1 78 31 161t87 151t136 110t170 39q138 0 196 -86l23 72h127l-123 -471q-6 -24 -6 -37q0 -32 22.5 -50t63.5 -18
q117 0 182 111q63 108 63 268q0 217 -136 344t-374 127q-112 3 -222 -35.5t-200 -109t-159.5 -162t-106.5 -201t-35 -219.5q0 -214 144.5 -355.5t363.5 -141.5q107 0 202 34t151 95l96 -101q-84 -77 -201.5 -119.5t-255.5 -42.5q-185 0 -330.5 82t-226 226.5t-80.5 326.5
q-4 162 69 321t193 277t282 190t327 68zM780 266q74 0 137 47t97.5 116.5t34.5 139.5q0 72 -38.5 116t-109.5 44q-110 0 -189 -96.5t-79 -206.5q0 -72 38 -116t109 -44z" />
    <glyph glyph-name="A" unicode="A" horiz-adv-x="1454" 
d="M-59 0l837 1434h230l333 -1434h-204l-93 403h-651l-235 -403h-217zM500 590h501l-141 618z" />
    <glyph glyph-name="B" unicode="B" horiz-adv-x="1288" 
d="M49 0l254 1434h602q162 0 257 -86.5t95 -223.5q0 -120 -63.5 -218.5t-171.5 -153.5q172 -84 172 -283q0 -201 -143 -335t-351 -134h-651zM391 827l397 -2q123 0 200 75t77 192q0 75 -51 117t-148 42h-401zM276 182h420q135 0 217 82q84 84 84 205q0 83 -55.5 131.5
t-157.5 48.5h-426z" />
    <glyph glyph-name="C" unicode="C" horiz-adv-x="1597" 
d="M975 1464q241 0 388 -133t150 -348l-188 -43q0 156 -98 247t-269 91q-127 3 -245.5 -53t-204 -149t-135.5 -219t-47 -257q0 -204 119 -324t325 -120q189 0 347 115.5t210 297.5l184 -51q-46 -159 -158.5 -284.5t-267 -195t-323.5 -69.5q-288 0 -458.5 172t-170.5 451
q-2 114 27.5 226t84 208.5t133 178.5t171.5 140t202.5 89.5t223.5 29.5z" />
    <glyph glyph-name="D" unicode="D" horiz-adv-x="1433" 
d="M49 0l254 1434h494q262 0 422.5 -164.5t160.5 -421.5q2 -132 -37.5 -260t-114 -234.5t-173.5 -187.5t-223 -125t-254 -41h-529zM279 193h305q95 -2 187.5 32.5t166 97t130 143.5t86.5 176.5t28 191.5q0 180 -111 294q-107 113 -293 113h-315z" />
    <glyph glyph-name="E" unicode="E" horiz-adv-x="1224" 
d="M49 0l254 1434h991l-34 -187h-795l-74 -420h711l-33 -188h-713l-80 -453h797l-33 -186h-991z" />
    <glyph glyph-name="F" unicode="F" horiz-adv-x="1198" 
d="M49 0l254 1434h979l-35 -187h-782l-82 -463h700l-32 -188h-701l-106 -596h-195z" />
    <glyph glyph-name="G" unicode="G" horiz-adv-x="1579" 
d="M981 1464q242 0 391 -133t152 -348l-193 -43q-2 156 -98.5 247t-265.5 91q-102 2 -200 -33.5t-176.5 -100t-138.5 -149.5t-92 -188t-30 -209q0 -204 117 -323t323 -119q152 0 282.5 77t204.5 211h-415l30 179h619l-111 -623h-176l35 199q-93 -109 -221 -169.5t-279 -60.5
q-182 0 -320.5 77.5t-213 215.5t-74.5 316q-3 175 63.5 339.5t180.5 285.5t273.5 193t332.5 68z" />
    <glyph glyph-name="H" unicode="H" horiz-adv-x="1452" 
d="M49 0l254 1434h195l-107 -607h789l106 607h195l-254 -1434h-195l113 639h-789l-112 -639h-195z" />
    <glyph glyph-name="I" unicode="I" horiz-adv-x="468" 
d="M49 0l254 1434h195l-254 -1434h-195z" />
    <glyph glyph-name="J" unicode="J" horiz-adv-x="1191" 
d="M68 604l190 17q-39 -107 -39 -209q0 -130 74.5 -193t202.5 -63q144 0 248 91t130 247l166 940h195l-168 -951q-41 -239 -197 -377q-155 -137 -376 -137q-130 0 -233 44.5t-166.5 139.5t-63.5 228q0 102 37 223z" />
    <glyph glyph-name="K" unicode="K" horiz-adv-x="1318" 
d="M47 -2l254 1436h193l-115 -650l801 650h278l-760 -621l504 -815h-227l-430 690l-213 -174l-92 -516h-193z" />
    <glyph glyph-name="L" unicode="L" horiz-adv-x="1157" 
d="M49 0l254 1434h195l-222 -1248h787l-35 -186h-979z" />
    <glyph glyph-name="M" unicode="M" horiz-adv-x="1794" 
d="M49 0l254 1434h238l303 -1211l725 1211h254l-254 -1434h-195l191 1077l-647 -1077h-211l-269 1077l-194 -1077h-195z" />
    <glyph glyph-name="N" unicode="N" horiz-adv-x="1499" 
d="M49 0l254 1434h234l589 -1166l207 1166h195l-254 -1434h-223l-596 1174l-211 -1174h-195z" />
    <glyph glyph-name="O" unicode="O" horiz-adv-x="1660" 
d="M987 1464q185 0 327 -79.5t218 -218t76 -312.5q4 -170 -64.5 -334.5t-183.5 -286t-274 -195t-328 -69.5q-282 0 -454.5 170t-172.5 436q-2 114 28.5 227.5t86.5 212t136.5 183t175 144t205.5 92t224 30.5zM768 156q171 -4 322.5 93.5t238.5 256t84 330.5
q0 199 -119 320.5t-319 121.5q-171 4 -323.5 -94.5t-240.5 -258t-85 -331.5q0 -195 120.5 -316.5t321.5 -121.5z" />
    <glyph glyph-name="P" unicode="P" horiz-adv-x="1261" 
d="M49 0l254 1434h608q177 0 277 -93t100 -249q0 -217 -144 -358.5t-368 -141.5h-428l-104 -592h-195zM381 780h407q139 0 223.5 79.5t84.5 207.5q0 85 -56 132.5t-161 47.5h-414z" />
    <glyph glyph-name="Q" unicode="Q" horiz-adv-x="1736" 
d="M987 1464q185 0 327 -79.5t218 -218t76 -312.5q0 -256 -135 -473q-130 -215 -355 -328q19 -51 47 -75.5t74 -24.5t82 22t56 55.5t30 68.5t10 67l170 -35q1 -39 -11.5 -84.5t-40.5 -92.5t-66.5 -84.5t-96 -61t-123.5 -21.5q-117 0 -182.5 52.5t-105.5 156.5
q-91 -27 -203 -27q-282 0 -454.5 170t-172.5 436q-2 114 28.5 227.5t86.5 212t136.5 183t175 144t205.5 92t224 30.5zM522 217q38 98 116 155.5t175 57.5q101 0 158.5 -49.5t91.5 -149.5q160 89 254 252q96 166 96 353q0 199 -119 320.5t-319 121.5q-171 4 -323.5 -94.5
t-240.5 -258t-85 -331.5q0 -127 51 -224t145 -153zM768 156q64 0 139 16q-19 53 -44 77.5t-62 24.5q-45 0 -80 -28.5t-55 -81.5q57 -8 102 -8z" />
    <glyph glyph-name="R" unicode="R" horiz-adv-x="1275" 
d="M49 0l254 1434h621q178 0 277 -92.5t99 -249.5q0 -181 -100 -310q-102 -132 -266 -172l184 -612h-209l-174 594h-387l-104 -592h-195zM381 780h420q136 0 220.5 79.5t84.5 207.5q0 85 -55.5 132.5t-159.5 47.5h-426z" />
    <glyph glyph-name="S" unicode="S" horiz-adv-x="1275" 
d="M53 498l197 51q-1 -184 90.5 -285.5t257.5 -101.5q175 0 291.5 84.5t116.5 216.5q0 86 -77.5 133.5t-254.5 67.5q-436 49 -436 342q0 138 77 244t204 160t282 54q203 0 329 -114q131 -116 140 -306l-201 -59q-6 133 -83 211t-202 78q-138 0 -241 -68q-101 -64 -101 -178
q0 -74 66.5 -116.5t210.5 -55.5q248 -25 370.5 -113.5t122.5 -246.5q0 -153 -84.5 -274.5t-227.5 -187t-316 -65.5q-246 0 -388.5 144t-142.5 385z" />
    <glyph glyph-name="T" unicode="T" horiz-adv-x="1220" 
d="M174 1247l33 187h1139l-33 -187h-471l-221 -1247h-195l221 1247h-473z" />
    <glyph glyph-name="U" unicode="U" horiz-adv-x="1372" 
d="M131 547l158 887h194l-159 -893q-9 -65 -9 -90q0 -138 80.5 -216.5t225.5 -78.5q168 0 288 108q121 106 156 285l154 885h194l-156 -895q-43 -250 -225 -410t-430 -160q-222 0 -352.5 127.5t-130.5 335.5q0 54 12 115z" />
    <glyph glyph-name="V" unicode="V" horiz-adv-x="1398" 
d="M193 1434h204l248 -1203l670 1203h223l-805 -1434h-241z" />
    <glyph glyph-name="W" unicode="W" horiz-adv-x="1845" 
d="M193 1434h192l88 -1160l508 1160h209l98 -1162l496 1162h201l-623 -1434h-238l-90 1120l-487 -1120h-238z" />
    <glyph glyph-name="X" unicode="X" horiz-adv-x="1376" 
d="M-59 0l655 723l-397 711h227l317 -572l521 572h252l-670 -732l395 -702h-231l-314 557l-503 -557h-252z" />
    <glyph glyph-name="Y" unicode="Y" horiz-adv-x="1345" 
d="M193 1434h208l308 -676l546 676h230l-705 -873l-100 -561h-195l101 565z" />
    <glyph glyph-name="Z" unicode="Z" horiz-adv-x="1294" 
d="M-4 0l35 186h-2l1054 1061h-866l33 187h1126l-33 -187h3l-1059 -1061h870l-35 -186h-1126z" />
    <glyph glyph-name="bracketleft" unicode="[" horiz-adv-x="544" 
d="M-20 -389l356 2007h373l-31 -164h-207l-295 -1677h207l-31 -166h-372z" />
    <glyph glyph-name="backslash" unicode="\" horiz-adv-x="847" 
d="M233 1434h189l270 -1434h-188z" />
    <glyph glyph-name="bracketright" unicode="]" horiz-adv-x="546" 
d="M608 1618l-356 -2007h-373l31 164h207l295 1677h-207l31 166h372z" />
    <glyph glyph-name="asciicircum" unicode="^" 
d="M115 717l547 717h235l297 -717h-221l-217 530l-404 -530h-237z" />
    <glyph glyph-name="underscore" unicode="_" horiz-adv-x="1026" 
d="M-131 -264l33 188h1024l-33 -188h-1024z" />
    <glyph glyph-name="grave" unicode="`" horiz-adv-x="1097" 
d="M492 1407h258l96 -262h-180z" />
    <glyph glyph-name="a" unicode="a" horiz-adv-x="1193" 
d="M70 502q37 217 192 366.5t350 149.5q225 0 326 -174l25 143h194l-176 -987h-193l23 127q-145 -158 -362 -158q-178 0 -284 116.5t-106 301.5q0 36 11 115zM506 158q144 0 244 100q106 103 127 260l4 51q0 118 -67.5 189t-182.5 71q-142 0 -248 -100q-104 -101 -125 -260
q-4 -54 -4 -55q2 -116 69.5 -186t182.5 -70z" />
    <glyph glyph-name="b" unicode="b" horiz-adv-x="1193" 
d="M35 0l254 1434h194l-102 -574q145 158 362 158q176 0 283 -118t107 -302q0 -34 -11 -113q-37 -219 -192 -367.5t-352 -148.5q-225 0 -324 172l-25 -141h-194zM563 158q138 0 245 103t126 255q4 46 4 51q0 118 -69 190t-185 72q-133 0 -240 -96q-103 -96 -127 -239
q-6 -41 -6 -74q0 -119 68 -190.5t184 -71.5z" />
    <glyph glyph-name="c" unicode="c" horiz-adv-x="1095" 
d="M70 504q40 222 197 368t370 146q171 0 274.5 -93t108.5 -247l-184 -49q2 93 -54.5 147.5t-158.5 54.5q-133 0 -237.5 -102t-123.5 -244q-4 -62 -4 -63q0 -123 66.5 -194.5t183.5 -71.5q113 0 207 70t125 180l176 -50q-53 -170 -197 -278q-145 -109 -325 -109
q-199 0 -317 116.5t-118 307.5q0 32 11 111z" />
    <glyph glyph-name="d" unicode="d" horiz-adv-x="1193" 
d="M70 502q37 217 192.5 366.5t351.5 149.5q231 0 324 -172l104 588h195l-254 -1434h-195l23 125q-146 -156 -362 -156q-178 0 -284 116.5t-106 301.5q0 36 11 115zM508 156q138 0 245 103.5t126 256.5q4 50 4 51q0 119 -67.5 191.5t-182.5 72.5q-139 0 -247.5 -103
t-127.5 -255q-4 -50 -4 -55q0 -118 68.5 -190t185.5 -72z" />
    <glyph glyph-name="e" unicode="e" horiz-adv-x="1091" 
d="M70 500q40 222 199.5 370t369.5 148q175 0 276 -100.5t101 -268.5q0 -37 -12 -119l-13 -73h-745l-2 -39q0 -129 68.5 -202t191.5 -73q106 0 194.5 64t120.5 166l176 -41q-53 -161 -196 -262t-316 -101q-196 0 -311 115q-113 116 -113 305q0 36 11 111zM283 612h557
q2 8 2 33q0 92 -60 147.5t-164 55.5q-107 0 -197 -64.5t-138 -171.5z" />
    <glyph glyph-name="f" unicode="f" horiz-adv-x="978" 
d="M92 815l31 172h178l16 92q27 170 148 279q118 106 289 106q139 0 221 -75.5t82 -200.5q0 -3 -4 -49l-185 -33q6 24 6 47q0 63 -36 98t-99 35q-87 0 -150.5 -56t-76.5 -147l-16 -96h512l-31 -172h-512l-146 -817h-194l145 817h-178z" />
    <glyph glyph-name="g" unicode="g" horiz-adv-x="1163" 
d="M-20 -57l188 16q-6 -34 -6 -63q0 -98 61.5 -155.5t169.5 -57.5q141 0 241.5 93.5t129.5 252.5l27 147q-137 -143 -328 -143q-179 0 -288 113.5t-109 293.5q0 29 10 101q34 197 187.5 335t346.5 138q102 0 177.5 -42.5t119.5 -119.5l25 135h194l-168 -960
q-40 -232 -197.5 -374t-379.5 -142q-186 0 -299 93.5t-113 250.5q0 24 11 88zM504 215q133 0 228 88.5t120 231.5q4 46 4 49q0 109 -67 176t-177 67q-129 0 -227 -88q-98 -89 -119 -219q-6 -34 -6 -63q0 -109 66 -175.5t178 -66.5z" />
    <glyph glyph-name="h" unicode="h" horiz-adv-x="1099" 
d="M35 0l254 1434h194l-98 -555q133 139 328 139q142 0 219.5 -77t77.5 -214q0 -51 -9 -94l-112 -633h-195l107 604q8 47 8 76q0 162 -174 162q-117 0 -201.5 -85.5t-109.5 -226.5l-95 -530h-194z" />
    <glyph glyph-name="i" unicode="i" horiz-adv-x="440" 
d="M35 0l174 987h194l-174 -987h-194zM369 1409q53 0 86.5 -34.5t33.5 -86.5q0 -54 -42 -96.5t-97 -42.5t-89 34.5t-34 86.5q0 55 43 97t99 42z" />
    <glyph glyph-name="j" unicode="j" horiz-adv-x="456" 
d="M-391 -221l170 14q-4 -51 21 -78.5t75 -27.5q57 0 95.5 37t49.5 100l205 1163h195l-207 -1165q-25 -144 -116.5 -227.5t-229.5 -83.5q-117 0 -188.5 62.5t-71.5 162.5q0 33 2 43zM385 1409q53 0 87 -34.5t34 -86.5q0 -54 -42 -96.5t-97 -42.5t-89 34.5t-34 86.5
q0 55 42.5 97t98.5 42z" />
    <glyph glyph-name="k" unicode="k" horiz-adv-x="1013" 
d="M35 0l254 1434h194l-147 -834l457 387h264l-492 -418l336 -569h-219l-264 444l-129 -110l-60 -334h-194z" />
    <glyph glyph-name="l" unicode="l" horiz-adv-x="440" 
d="M35 0l254 1434h194l-254 -1434h-194z" />
    <glyph glyph-name="m" unicode="m" horiz-adv-x="1531" 
d="M35 0l176 985h188l-18 -106q109 139 268 139q100 0 162.5 -44.5t81.5 -129.5q118 174 307 174q122 0 186 -62.5t64 -183.5q0 -31 -10 -96l-117 -676h-188l114 639q6 44 6 74q0 67 -32 98t-99 31q-89 0 -155 -66.5t-95 -189.5l-98 -586h-186l115 639q6 40 6 72
q0 68 -32.5 99.5t-100.5 31.5q-95 0 -162.5 -76t-91.5 -215l-99 -551h-190z" />
    <glyph glyph-name="n" unicode="n" horiz-adv-x="1099" 
d="M35 0l176 987h195l-19 -106q128 137 326 137q142 0 219.5 -77t77.5 -214q0 -51 -9 -94l-112 -633h-195l107 604q8 47 8 76q0 162 -174 162q-110 0 -194 -78.5t-113 -208.5l-99 -555h-194z" />
    <glyph glyph-name="o" unicode="o" horiz-adv-x="1155" 
d="M70 502q37 218 204.5 367t384.5 149q198 0 316.5 -120t118.5 -310q0 -32 -11 -107q-37 -221 -202 -366.5t-383 -145.5q-200 0 -319.5 118.5t-119.5 307.5q0 32 11 107zM516 156q140 0 250 102.5t129 253.5q6 42 6 53q0 119 -70.5 192.5t-187.5 73.5q-142 0 -252.5 -101.5
t-132.5 -252.5q-4 -50 -4 -57q0 -119 70.5 -191.5t191.5 -72.5z" />
    <glyph glyph-name="p" unicode="p" horiz-adv-x="1193" 
d="M-47 -461l256 1448h194l-22 -125q150 156 360 156q176 0 284 -118t108 -302q0 -34 -11 -113q-34 -217 -191.5 -368.5t-350.5 -147.5q-227 0 -326 172l-107 -602h-194zM563 156q138 0 245 104t126 256q4 46 4 51q0 118 -69 191t-185 73q-133 0 -239 -98t-128 -241
q-6 -40 -6 -74q0 -119 68 -190.5t184 -71.5z" />
    <glyph glyph-name="q" unicode="q" horiz-adv-x="1196" 
d="M70 502q22 139 101.5 258.5t197.5 190t245 67.5q225 0 326 -174l25 143h194l-254 -1433h-194l102 573q-145 -160 -364 -160q-176 0 -283 118t-107 302q0 55 11 115zM508 156q136 0 237 94q104 94 132 244q6 37 6 73q0 118 -67.5 190t-182.5 72q-139 0 -246 -102
t-129 -254q-4 -50 -4 -57q0 -118 68 -189t186 -71z" />
    <glyph glyph-name="r" unicode="r" horiz-adv-x="919" 
d="M35 0l176 987h195l-17 -94q106 125 268 125q120 0 189 -70.5t69 -199.5q0 -50 -16 -132l-197 -24q17 63 17 106q0 68 -35.5 104t-99.5 36q-93 0 -162 -76.5t-94 -210.5l-99 -551h-194z" />
    <glyph glyph-name="s" unicode="s" horiz-adv-x="954" 
d="M29 350l188 25q-5 -106 51.5 -165.5t161.5 -59.5q106 0 175 46t69 123q0 45 -45.5 72t-151.5 37q-157 13 -238 80.5t-81 177.5q0 27 2 33q15 134 127 215q116 84 276 84q138 0 231 -83t103 -218l-174 -43q-1 80 -47 122t-127 42q-77 0 -136 -37.5t-59 -85.5v-10
q0 -40 37 -64t121 -31q173 -13 261 -81t93 -181v-14q0 -158 -130 -261.5t-320 -103.5q-177 0 -281 107q-103 106 -106 274z" />
    <glyph glyph-name="t" unicode="t" horiz-adv-x="1001" 
d="M92 815l29 172h182l51 295h195l-51 -295h499l-28 -172h-502l-84 -477q-4 -24 -4 -51q0 -67 38 -103.5t107 -36.5q84 0 143 65.5t70 170.5l185 -29q-21 -171 -138.5 -278t-271.5 -107q-155 0 -242.5 78t-87.5 213q0 52 8 88l82 467h-180z" />
    <glyph glyph-name="u" unicode="u" horiz-adv-x="1099" 
d="M1065 987l-176 -987h-195l19 106q-128 -137 -326 -137q-142 0 -219.5 77t-77.5 214q0 55 8 94l113 633h195l-107 -604q-8 -47 -8 -76q0 -162 174 -162q110 0 194 78.5t113 208.5l98 555h195z" />
    <glyph glyph-name="v" unicode="v" horiz-adv-x="1073" 
d="M121 987h196l166 -745l432 745h209l-571 -987h-209z" />
    <glyph glyph-name="w" unicode="w" horiz-adv-x="1509" 
d="M133 987h184l89 -713l337 713h183l92 -711l334 711h196l-481 -987h-188l-91 696l-329 -696h-195z" />
    <glyph glyph-name="x" unicode="x" horiz-adv-x="1017" 
d="M-53 0l446 502l-264 485h217l182 -334l299 334h242l-448 -504l264 -483h-217l-183 332l-295 -332h-243z" />
    <glyph glyph-name="y" unicode="y" horiz-adv-x="1116" 
d="M-43 -59l190 14q-12 -43 -12 -78q0 -91 59.5 -142.5t159.5 -51.5q135 0 235 91t126 240l24 144q-133 -139 -333 -142q-145 1 -224.5 79.5t-79.5 215.5q0 51 9 95l100 581h192l-96 -553q-8 -31 -8 -74q0 -167 184 -167q119 0 206 85.5t112 227.5l86 481h194l-172 -975
q-37 -219 -195.5 -360t-371.5 -141q-179 0 -287 90t-108 243q0 49 10 97z" />
    <glyph glyph-name="z" unicode="z" horiz-adv-x="944" 
d="M-12 0l30 172l662 643h-547l29 172h792l-30 -172l-662 -643h549l-31 -172h-792z" />
    <glyph glyph-name="braceleft" unicode="{" horiz-adv-x="720" 
d="M41 532l4 25l27 141q101 0 188 66t105 164l65 360q29 163 122 243.5t220 80.5q53 0 109 -17l-58 -157q-30 10 -55 10q-61 0 -110.5 -45.5t-65.5 -132.5l-64 -352q-17 -97 -82.5 -178.5t-164.5 -131.5q147 -81 147 -239q0 -29 -6 -56l-60 -352q-6 -27 -6 -51q0 -63 33 -95
t86 -32q27 0 57 10l3 -158q-53 -16 -107 -16q-107 0 -174.5 61t-67.5 185q0 28 7 86l61 352q2 8 2 37q0 85 -61 138.5t-154 53.5z" />
    <glyph glyph-name="bar" unicode="|" horiz-adv-x="421" 
d="M-12 -350l344 1958h147l-344 -1958h-147z" />
    <glyph glyph-name="braceright" unicode="}" horiz-adv-x="722" 
d="M723 696l-4 -24l-27 -142q-102 0 -188 -65q-87 -66 -105 -164l-65 -360q-29 -163 -122 -243.5t-220 -80.5q-56 0 -109 16l58 158q30 -10 55 -10q61 0 110.5 45.5t65.5 132.5l64 352q17 97 82.5 178.5t164.5 131.5q-147 81 -147 239q0 28 6 55l59 353q7 32 7 51
q0 63 -33 95t-86 32q-28 0 -58 -10l-2 157q56 17 107 17q107 0 174.5 -61t67.5 -185q0 -28 -7 -86l-61 -352q-2 -8 -2 -37q0 -85 61 -139t154 -54z" />
    <glyph glyph-name="asciitilde" unicode="~" 
d="M432 866q110 0 254 -61q74 -27 107 -36t67 -9q51 0 94.5 26t94.5 86l133 -127q-149 -176 -320 -176q-100 0 -256 64q-78 28 -108 36.5t-60 8.5q-53 0 -98.5 -27t-97.5 -88l-123 129q77 93 151.5 133.5t161.5 40.5z" />
    <glyph glyph-name="uni00A0" unicode="&#xa0;" horiz-adv-x="505" 
 />
    <glyph glyph-name="exclamdown" unicode="&#xa1;" horiz-adv-x="507" 
d="M309 741q-53 0 -87 33.5t-34 83.5q0 60 42.5 103t97.5 43q56 0 90.5 -33.5t34.5 -87.5q0 -57 -43.5 -99.5t-100.5 -42.5zM-10 -461l186 1051h195l-187 -1051h-194z" />
    <glyph glyph-name="cent" unicode="&#xa2;" horiz-adv-x="1136" 
d="M123 721q38 205 168 340q132 141 321 168l37 205h199l-37 -213q120 -29 188.5 -115.5t73.5 -210.5l-184 -49q2 93 -54.5 148t-158.5 55q-99 0 -183.5 -56.5t-133 -151t-48.5 -202.5q0 -123 66.5 -194.5t183.5 -71.5q113 0 207 70t125 180l176 -50q-44 -149 -164 -252
t-276 -128l-33 -193h-199l35 199q-149 32 -234 141.5t-85 269.5q0 39 10 111z" />
    <glyph glyph-name="sterling" unicode="&#xa3;" horiz-adv-x="1222" 
d="M18 135h2l-2 8q152 73 233.5 149t94.5 161q4 28 4 61q0 47 -14 102h-246l31 168h153q-26 88 -26 168q0 61 8 105q35 189 178 299t363 110q186 0 298.5 -99.5t112.5 -252.5q0 -58 -18 -119l-201 -18q17 53 17 100q0 92 -61.5 147.5t-168.5 55.5q-133 0 -218.5 -69
t-108.5 -191q-5 -35 -5 -66q0 -80 37 -170h408l-31 -168h-326q7 -44 7 -79q0 -51 -9 -101q-18 -109 -94 -200q75 -7 160 -41q87 -35 149 -35q160 0 181 149l188 -33q-1 -39 -13 -78.5t-39.5 -81.5t-67.5 -74t-103.5 -52.5t-140.5 -20.5q-70 0 -115 9.5t-111 35.5
q-87 37 -162 37q-138 0 -284 -67l-15 -7z" />
    <glyph glyph-name="currency" unicode="&#xa4;" horiz-adv-x="1243" 
d="M51 317l176 152q-37 75 -37 172q0 179 123 334l-118 143l159 137l119 -141q131 76 270 76q143 0 246 -74l166 139l117 -139l-164 -141q37 -73 37 -170q0 -93 -35 -183.5t-98 -162.5l116 -144l-157 -135l-123 144q-124 -68 -254 -68q-138 0 -248 72l-178 -150zM614 442
q133 0 235.5 101.5t102.5 234.5q0 99 -64.5 162.5t-166.5 63.5q-132 0 -234 -102.5t-102 -233.5q0 -99 63.5 -162.5t165.5 -63.5z" />
    <glyph glyph-name="yen" unicode="&#xa5;" horiz-adv-x="1345" 
d="M193 240l26 157h336l29 152h-338l28 156h248l-329 729h208l308 -676l546 676h230l-588 -729h244l-29 -156h-334l-26 -152h333l-26 -157h-336l-43 -240h-195l43 240h-335z" />
    <glyph glyph-name="brokenbar" unicode="&#xa6;" horiz-adv-x="421" 
d="M176 717l156 891h147l-155 -891h-148zM-12 -350l157 895h148l-158 -895h-147z" />
    <glyph glyph-name="section" unicode="&#xa7;" horiz-adv-x="976" 
d="M39 330l162 39q0 -112 62 -178t175 -66q108 0 177 52.5t69 131.5q0 102 -203 123q-154 17 -234.5 79.5t-80.5 162.5q0 85 43 161t117 126q-80 62 -80 163q0 146 117 243t294 97q136 0 227.5 -79.5t98.5 -208.5l-158 -56q-6 91 -54.5 140t-131.5 49q-96 0 -156.5 -42
t-60.5 -108q0 -45 41.5 -72t142.5 -40q176 -25 260 -83t84 -159q0 -85 -41 -160.5t-114 -126.5q84 -63 84 -168q0 -163 -133 -272t-328 -109q-169 0 -273.5 98t-105.5 263zM526 604q62 -6 111 -18q64 20 100.5 67.5t36.5 100.5q0 47 -45 73.5t-145 40.5q-23 3 -109 23
q-60 -23 -95.5 -69t-35.5 -101q0 -97 182 -117z" />
    <glyph glyph-name="dieresis" unicode="&#xa8;" horiz-adv-x="1097" 
d="M498 1401q51 0 83.5 -33t32.5 -84q0 -54 -41 -95.5t-98 -41.5q-49 0 -82 33.5t-33 83.5q0 55 41 96t97 41zM831 1401q51 0 84 -33t33 -84q0 -54 -41 -95.5t-96 -41.5q-51 0 -83 34t-32 85q0 56 40 95.5t95 39.5z" />
    <glyph glyph-name="copyright" unicode="&#xa9;" horiz-adv-x="1724" 
d="M901 1464q148 3 287.5 -57t241 -161.5t162 -241t57.5 -287.5q3 -148 -57.5 -287.5t-162 -241t-241 -162t-287.5 -57.5q-148 -3 -287.5 57.5t-241 162t-161.5 241t-57 287.5q-2 119 35.5 233t108 207t163.5 163.5t207 108t233 35.5zM901 96q123 -2 238.5 48t199.5 134.5
t134 200t47 238.5q3 122 -47 237.5t-134 200t-199.5 134.5t-238.5 48q-164 3 -307.5 -82.5t-227.5 -230t-81 -307.5q-2 -123 47.5 -238.5t133 -200t198 -134.5t237.5 -48zM911 1143q136 0 231 -73t118 -196l-117 -36q-17 85 -78 133.5t-154 48.5q-122 0 -200 -84t-78 -203
q0 -140 79.5 -226.5t209.5 -86.5q104 0 177.5 60.5t80.5 156.5l125 -27q-15 -139 -123 -227q-107 -88 -258 -88q-187 0 -303.5 118.5t-116.5 303.5t112.5 305.5t294.5 120.5z" />
    <glyph glyph-name="ordfeminine" unicode="&#xaa;" horiz-adv-x="864" 
d="M172 1081q28 155 139 262t248 107q155 0 225 -113l17 97h157l-124 -717h-158l14 86q-102 -105 -248 -105q-127 0 -202.5 83t-75.5 218q0 46 8 82zM492 852q94 0 163.5 67.5t83.5 170.5q2 8 2 34q0 78 -45 125t-123 47q-99 0 -172 -73q-71 -74 -77 -183v-14
q0 -79 45.5 -126.5t122.5 -47.5z" />
    <glyph glyph-name="guillemotleft" unicode="&#xab;" horiz-adv-x="964" 
d="M76 535l293 378h217l-305 -395l174 -364h-197zM457 535l293 378h217l-305 -395l174 -364h-197z" />
    <glyph glyph-name="logicalnot" unicode="&#xac;" 
d="M145 772l35 195h1030l-88 -500h-209l54 305h-822z" />
    <glyph glyph-name="uni00AD" unicode="&#xad;" horiz-adv-x="835" 
d="M115 520l32 189h615l-33 -189h-614z" />
    <glyph glyph-name="registered" unicode="&#xae;" horiz-adv-x="1701" 
d="M891 1464q119 2 233 -35.5t207 -108t163.5 -163.5t108 -207t35.5 -233q3 -148 -57 -287.5t-161.5 -241t-241 -162t-287.5 -57.5q-148 -3 -287.5 57.5t-241 162t-162 241t-57.5 287.5q-3 148 57.5 287.5t162 241t241 161.5t287.5 57zM891 96q123 -2 238.5 48t199.5 134.5
t133.5 200t46.5 238.5q4 163 -80.5 307.5t-229 230t-308.5 82.5q-123 2 -238 -48t-198.5 -134.5t-133 -200t-47.5 -237.5q-2 -123 47.5 -238.5t133 -200t198.5 -134.5t238 -48zM608 311v813h361q116 0 185 -67t69 -174q0 -85 -42.5 -146t-117.5 -86l162 -342h-138l-151 328
h-203v-326h-125zM733 758h230q63 0 99 32.5t36 92.5q0 56 -36 89.5t-99 33.5h-230v-248z" />
    <glyph glyph-name="overscore" unicode="&#xaf;" horiz-adv-x="1097" 
d="M432 1198l29 158h442l-29 -158h-442z" />
    <glyph glyph-name="degree" unicode="&#xb0;" horiz-adv-x="747" 
d="M530 1450q116 0 191.5 -75.5t75.5 -188.5q0 -136 -102 -242t-242 -106q-119 0 -196 74.5t-77 189.5q0 137 104.5 242.5t245.5 105.5zM465 983q73 0 129.5 60.5t56.5 130.5q0 56 -37 92.5t-96 36.5q-75 0 -133 -58q-57 -57 -57 -135q0 -56 38 -91.5t99 -35.5z" />
    <glyph glyph-name="plusminus" unicode="&#xb1;" 
d="M156 831l34 195h412l74 414h198l-73 -414h413l-34 -195h-412l-74 -415h-198l71 415h-411zM45 106l33 189h1024l-33 -189h-1024z" />
    <glyph glyph-name="uni00B2" unicode="&#xb2;" horiz-adv-x="831" 
d="M119 672l12 71q15 99 68 164q51 63 112 103t174 92l47 20q109 50 159 102.5t50 133.5q0 57 -38 90t-105 33q-50 0 -91 -16.5t-66.5 -43t-42.5 -60.5t-23 -68t-4 -66l-150 16q-2 67 22 131.5t70 120t124 89.5t175 34q128 0 202.5 -65.5t74.5 -176.5q0 -117 -65 -202.5
t-189 -151.5l-86 -43q-101 -46 -153.5 -83.5t-80.5 -86.5h482l-25 -137h-653z" />
    <glyph glyph-name="uni00B3" unicode="&#xb3;" horiz-adv-x="860" 
d="M166 963l151 26q-8 -36 -8 -59q0 -64 42 -100.5t120 -36.5q103 0 166 52.5t63 137.5q0 57 -45 88t-129 31h-86l25 135h84q86 0 134 38.5t48 104.5q0 48 -36 73.5t-105 25.5q-78 0 -125.5 -41.5t-58.5 -106.5l-142 21q24 118 118 191t232 73q127 0 197 -57t70 -150
q0 -142 -127 -227q102 -58 102 -181q0 -67 -27.5 -129t-77.5 -111t-128 -78.5t-172 -29.5q-138 0 -214.5 66.5t-76.5 177.5q0 31 6 66z" />
    <glyph glyph-name="acute" unicode="&#xb4;" horiz-adv-x="1097" 
d="M446 1145l185 262h266l-266 -262h-185z" />
    <glyph glyph-name="uni00B5" unicode="&#xb5;" horiz-adv-x="1101" 
d="M-45 -446l256 1433h195l-107 -604q-8 -47 -8 -76q0 -162 174 -162q110 0 194 78.5t113 208.5l98 555h195l-176 -987h-195l19 106q-128 -137 -326 -137q-94 0 -156 33l-79 -448h-197z" />
    <glyph glyph-name="paragraph" unicode="&#xb6;" horiz-adv-x="1249" 
d="M616 1434h758l-31 -166h-186l-305 -1729h-186l303 1729h-195l-305 -1729h-186l190 1075q-151 0 -247.5 97t-96.5 243q-3 88 38.5 177.5t110 156t159 107.5t179.5 39z" />
    <glyph glyph-name="middot" unicode="&#xb7;" horiz-adv-x="401" 
d="M252 850q53 0 87 -33.5t34 -83.5q0 -60 -42.5 -102.5t-97.5 -42.5t-89.5 33.5t-34.5 87.5q0 57 43 99t100 42z" />
    <glyph glyph-name="cedilla" unicode="&#xb8;" horiz-adv-x="1097" 
d="M197 -301l118 35q-5 -31 11 -49.5t51 -18.5q36 0 62 24.5t26 55.5q0 27 -17 42t-47 15q-31 0 -45 -14l-84 70l117 161l119 -20l-66 -84q66 -4 107 -47.5t41 -106.5q0 -86 -61 -149.5t-162 -63.5q-75 0 -125 44t-45 106z" />
    <glyph glyph-name="uni00B9" unicode="&#xb9;" horiz-adv-x="526" 
d="M197 1303l20 120q91 0 148 46.5t71 127.5h148l-164 -925h-144l111 631h-190z" />
    <glyph glyph-name="ordmasculine" unicode="&#xba;" horiz-adv-x="868" 
d="M170 1079q28 157 148 263t276 106q144 0 228.5 -86t84.5 -225q0 -37 -6 -74q-25 -157 -144 -262t-276 -105q-145 0 -231 84.5t-86 220.5q0 37 6 78zM496 848q104 0 178 79t74 193q0 79 -46.5 127.5t-123.5 48.5q-102 0 -179 -81t-77 -193q0 -78 47.5 -126t126.5 -48z" />
    <glyph glyph-name="guillemotright" unicode="&#xbb;" horiz-adv-x="964" 
d="M393 154l305 393l-176 366h197l182 -383l-291 -376h-217zM12 154l305 393l-176 366h197l182 -383l-291 -376h-217z" />
    <glyph glyph-name="onequarter" unicode="&#xbc;" horiz-adv-x="1783" 
d="M168 1139l20 121q91 0 148.5 46.5t71.5 127.5h147l-164 -926h-143l110 631h-190zM170 0l1262 1434h172l-1262 -1434h-172zM958 188l19 119l561 619h123l-107 -602h132l-25 -136h-131l-33 -188h-143l32 188h-428zM1155 324h256l62 350z" />
    <glyph glyph-name="onehalf" unicode="&#xbd;" horiz-adv-x="1937" 
d="M168 1139l20 121q91 0 148.5 46.5t71.5 127.5h147l-164 -926h-143l110 631h-190zM170 0l1262 1434h172l-1262 -1434h-172zM1106 0l12 72q15 99 68 164q50 63 111 102t176 92l47 21q110 50 159.5 102t49.5 133q0 57 -38.5 90t-105.5 33q-50 0 -91 -16.5t-66.5 -43
t-42.5 -60.5t-23 -68t-4 -66l-150 16q-2 67 22 131.5t70 120t124 89.5t175 34q128 0 202.5 -65t74.5 -176q0 -117 -65 -203t-189 -152l-86 -43q-100 -46 -152.5 -83t-80.5 -87h481l-25 -137h-653z" />
    <glyph glyph-name="threequarters" unicode="&#xbe;" horiz-adv-x="2035" 
d="M137 799l152 26q-8 -36 -8 -59q0 -64 41.5 -100.5t119.5 -36.5q103 0 166.5 52.5t63.5 137.5q0 57 -45 88t-129 31h-86l24 135h84q86 0 134 38.5t48 105.5q0 47 -36 72.5t-105 25.5q-78 0 -125.5 -41.5t-58.5 -106.5l-141 21q24 118 118 191t232 73q127 0 196.5 -57
t69.5 -150q0 -142 -127 -227q102 -59 102 -180q0 -67 -27.5 -129t-77.5 -111.5t-128 -79t-172 -29.5q-138 0 -214.5 66.5t-76.5 177.5q0 31 6 66zM422 0l1261 1434h172l-1261 -1434h-172zM1210 188l19 119l561 619h123l-107 -602h131l-24 -136h-131l-33 -188h-143l32 188
h-428zM1407 324h256l61 350z" />
    <glyph glyph-name="questiondown" unicode="&#xbf;" horiz-adv-x="1087" 
d="M608 741q-53 0 -87 33.5t-34 83.5q0 60 42.5 103t97.5 43q56 0 90.5 -33.5t34.5 -87.5q0 -57 -43.5 -99.5t-100.5 -42.5zM377 -477q-222 0 -324 108q-98 107 -98 254q1 88 21.5 154.5t65.5 122t98 97.5t139 95q93 58 137 106t57 118l6 32h203l-6 -39q-15 -92 -58 -161
q-39 -60 -85.5 -98.5t-126.5 -84.5l-46 -26q-101 -62 -147.5 -130t-46.5 -165q0 -91 60 -144t182 -53q84 0 151.5 33t108.5 86.5t62.5 117.5t21.5 130l198 -25q-3 -75 -26 -148.5t-69.5 -143t-111.5 -122t-160 -84t-206 -30.5z" />
    <glyph glyph-name="Agrave" unicode="&#xc0;" horiz-adv-x="1454" 
d="M-59 0l837 1434h230l333 -1434h-204l-93 403h-651l-235 -403h-217zM500 590h501l-141 618zM655 1841h258l97 -262h-181z" />
    <glyph glyph-name="Aacute" unicode="&#xc1;" horiz-adv-x="1454" 
d="M-59 0l837 1434h230l333 -1434h-204l-93 403h-651l-235 -403h-217zM500 590h501l-141 618zM827 1579l187 262h266l-266 -262h-187z" />
    <glyph glyph-name="Acircumflex" unicode="&#xc2;" horiz-adv-x="1454" 
d="M-59 0l837 1434h230l333 -1434h-204l-93 403h-651l-235 -403h-217zM500 590h501l-141 618zM621 1579l233 262h209l141 -262h-176l-92 129l-135 -129h-180z" />
    <glyph glyph-name="Atilde" unicode="&#xc3;" horiz-adv-x="1454" 
d="M-59 0l837 1434h230l333 -1434h-204l-93 403h-651l-235 -403h-217zM500 590h501l-141 618zM829 1823q64 0 129 -41q40 -20 58 -26.5t41 -6.5q61 0 114 84l107 -86q-41 -77 -101 -117.5t-130 -40.5q-65 0 -140 43q-60 31 -88 31q-63 0 -108 -80l-113 82q84 158 231 158z
" />
    <glyph glyph-name="Adieresis" unicode="&#xc4;" horiz-adv-x="1454" 
d="M-59 0l837 1434h230l333 -1434h-204l-93 403h-651l-235 -403h-217zM500 590h501l-141 618zM772 1843q54 0 89.5 -34.5t35.5 -88.5q0 -58 -44 -102.5t-103 -44.5q-52 0 -87.5 35.5t-35.5 89.5q0 57 44 101t101 44zM1135 1843q55 0 90 -35.5t35 -89.5q0 -57 -44 -101
t-104 -44q-52 0 -86.5 34.5t-34.5 88.5q0 58 42.5 102.5t101.5 44.5z" />
    <glyph glyph-name="Aring" unicode="&#xc5;" horiz-adv-x="1454" 
d="M-59 0l837 1434h230l333 -1434h-204l-93 403h-651l-235 -403h-217zM500 590h501l-141 618zM958 1905q73 0 121.5 -50t48.5 -124q0 -86 -63 -146q-64 -61 -145 -61q-73 0 -121.5 49.5t-48.5 122.5q0 84 61 145q64 64 147 64zM932 1642q32 0 57 24t25 56q0 27 -18.5 45.5
t-47.5 18.5q-32 0 -56 -24t-24 -56q0 -26 19 -45t45 -19z" />
    <glyph glyph-name="AE" unicode="&#xc6;" horiz-adv-x="2080" 
d="M-59 0l1149 1434h1060l-34 -187h-795l-74 -420h711l-33 -188h-713l-79 -453h796l-33 -186h-991l72 403h-488l-323 -403h-225zM639 590h371l104 592z" />
    <glyph glyph-name="Ccedilla" unicode="&#xc7;" horiz-adv-x="1597" 
d="M975 1464q241 0 388 -133t150 -348l-188 -43q0 156 -98 247t-269 91q-127 3 -245.5 -53t-204 -149t-135.5 -219t-47 -257q0 -204 119 -324t325 -120q189 0 347 115.5t210 297.5l184 -51q-63 -229 -264 -383.5t-444 -163.5l-45 -63q63 -2 107 -46t44 -114q0 -83 -60 -141
t-151 -58q-79 0 -129 44t-45 108l109 33q-2 -32 17 -51t55 -19t57.5 23.5t21.5 56.5q0 27 -16.5 43t-46.5 16q-27 0 -47 -14l-86 66l88 118q-252 25 -397.5 193t-145.5 426q-2 114 27.5 226t84 208.5t133 178.5t171.5 140t202.5 89.5t223.5 29.5z" />
    <glyph glyph-name="Egrave" unicode="&#xc8;" horiz-adv-x="1224" 
d="M49 0l254 1434h991l-34 -187h-795l-74 -420h711l-33 -188h-713l-80 -453h797l-33 -186h-991zM565 1841h258l97 -262h-181z" />
    <glyph glyph-name="Eacute" unicode="&#xc9;" horiz-adv-x="1224" 
d="M49 0l254 1434h991l-34 -187h-795l-74 -420h711l-33 -188h-713l-80 -453h797l-33 -186h-991zM737 1579l187 262h266l-266 -262h-187z" />
    <glyph glyph-name="Ecircumflex" unicode="&#xca;" horiz-adv-x="1224" 
d="M49 0l254 1434h991l-34 -187h-795l-74 -420h711l-33 -188h-713l-80 -453h797l-33 -186h-991zM530 1579l234 262h209l141 -262h-176l-92 129l-135 -129h-181z" />
    <glyph glyph-name="Edieresis" unicode="&#xcb;" horiz-adv-x="1224" 
d="M49 0l254 1434h991l-34 -187h-795l-74 -420h711l-33 -188h-713l-80 -453h797l-33 -186h-991zM682 1843q54 0 89.5 -34.5t35.5 -88.5q0 -58 -44.5 -102.5t-103.5 -44.5q-51 0 -86.5 35.5t-35.5 89.5q0 57 44 101t101 44zM1044 1843q55 0 90 -35.5t35 -89.5
q0 -58 -43.5 -101.5t-103.5 -43.5q-52 0 -86.5 34.5t-34.5 88.5q0 58 42 102.5t101 44.5z" />
    <glyph glyph-name="Igrave" unicode="&#xcc;" horiz-adv-x="468" 
d="M49 0l254 1434h195l-254 -1434h-195zM160 1841h258l96 -262h-180z" />
    <glyph glyph-name="Iacute" unicode="&#xcd;" horiz-adv-x="468" 
d="M49 0l254 1434h195l-254 -1434h-195zM332 1579l186 262h266l-266 -262h-186z" />
    <glyph glyph-name="Icircumflex" unicode="&#xce;" horiz-adv-x="468" 
d="M49 0l254 1434h195l-254 -1434h-195zM125 1579l233 262h209l142 -262h-177l-92 129l-135 -129h-180z" />
    <glyph glyph-name="Idieresis" unicode="&#xcf;" horiz-adv-x="468" 
d="M49 0l254 1434h195l-254 -1434h-195zM276 1843q54 0 89.5 -34.5t35.5 -88.5q0 -58 -44 -102.5t-103 -44.5q-52 0 -87.5 35.5t-35.5 89.5q0 57 44 101t101 44zM639 1843q55 0 90 -35.5t35 -89.5q0 -57 -44 -101t-104 -44q-51 0 -85.5 34.5t-34.5 88.5q0 58 42 102.5
t101 44.5z" />
    <glyph glyph-name="Eth" unicode="&#xd0;" horiz-adv-x="1464" 
d="M31 635l28 164h162l113 635h493q262 0 423 -164.5t161 -421.5q3 -165 -60.5 -322t-171 -273.5t-258.5 -186.5t-313 -66h-528l113 635h-162zM309 193h305q95 -2 187.5 32.5t166 97t130 143.5t86.5 176.5t28 191.5q0 181 -110 294q-107 113 -293 113h-315l-78 -442h336
l-27 -164h-338z" />
    <glyph glyph-name="Ntilde" unicode="&#xd1;" horiz-adv-x="1499" 
d="M49 0l254 1434h234l589 -1166l207 1166h195l-254 -1434h-223l-596 1174l-211 -1174h-195zM844 1823q64 0 129 -41q40 -21 57.5 -27t40.5 -6q62 0 115 84l106 -86q-41 -77 -101 -117.5t-130 -40.5q-64 0 -139 43q-60 31 -88 31q-64 0 -109 -80l-113 82q84 158 232 158z
" />
    <glyph glyph-name="Ograve" unicode="&#xd2;" horiz-adv-x="1660" 
d="M987 1464q185 0 327 -79.5t218 -218t76 -312.5q4 -170 -64.5 -334.5t-183.5 -286t-274 -195t-328 -69.5q-282 0 -454.5 170t-172.5 436q-2 114 28.5 227.5t86.5 212t136.5 183t175 144t205.5 92t224 30.5zM768 156q171 -4 322.5 93.5t238.5 256t84 330.5
q0 199 -119 320.5t-319 121.5q-171 4 -323.5 -94.5t-240.5 -258t-85 -331.5q0 -195 120.5 -316.5t321.5 -121.5zM748 1841h258l96 -262h-180z" />
    <glyph glyph-name="Oacute" unicode="&#xd3;" horiz-adv-x="1660" 
d="M987 1464q185 0 327 -79.5t218 -218t76 -312.5q4 -170 -64.5 -334.5t-183.5 -286t-274 -195t-328 -69.5q-282 0 -454.5 170t-172.5 436q-2 114 28.5 227.5t86.5 212t136.5 183t175 144t205.5 92t224 30.5zM768 156q171 -4 322.5 93.5t238.5 256t84 330.5
q0 199 -119 320.5t-319 121.5q-171 4 -323.5 -94.5t-240.5 -258t-85 -331.5q0 -195 120.5 -316.5t321.5 -121.5zM920 1579l186 262h266l-266 -262h-186z" />
    <glyph glyph-name="Ocircumflex" unicode="&#xd4;" horiz-adv-x="1660" 
d="M987 1464q185 0 327 -79.5t218 -218t76 -312.5q4 -170 -64.5 -334.5t-183.5 -286t-274 -195t-328 -69.5q-282 0 -454.5 170t-172.5 436q-2 114 28.5 227.5t86.5 212t136.5 183t175 144t205.5 92t224 30.5zM768 156q171 -4 322.5 93.5t238.5 256t84 330.5
q0 199 -119 320.5t-319 121.5q-171 4 -323.5 -94.5t-240.5 -258t-85 -331.5q0 -195 120.5 -316.5t321.5 -121.5zM713 1579l233 262h209l141 -262h-176l-92 129l-135 -129h-180z" />
    <glyph glyph-name="Otilde" unicode="&#xd5;" horiz-adv-x="1660" 
d="M987 1464q185 0 327 -79.5t218 -218t76 -312.5q4 -170 -64.5 -334.5t-183.5 -286t-274 -195t-328 -69.5q-282 0 -454.5 170t-172.5 436q-2 114 28.5 227.5t86.5 212t136.5 183t175 144t205.5 92t224 30.5zM768 156q171 -4 322.5 93.5t238.5 256t84 330.5
q0 199 -119 320.5t-319 121.5q-171 4 -323.5 -94.5t-240.5 -258t-85 -331.5q0 -195 120.5 -316.5t321.5 -121.5zM922 1823q64 0 129 -41q40 -21 57.5 -27t40.5 -6q62 0 115 84l106 -86q-41 -77 -101 -117.5t-130 -40.5q-65 0 -140 43q-60 31 -88 31q-63 0 -108 -80l-113 82
q84 158 232 158z" />
    <glyph glyph-name="Odieresis" unicode="&#xd6;" horiz-adv-x="1660" 
d="M987 1464q185 0 327 -79.5t218 -218t76 -312.5q4 -170 -64.5 -334.5t-183.5 -286t-274 -195t-328 -69.5q-282 0 -454.5 170t-172.5 436q-2 114 28.5 227.5t86.5 212t136.5 183t175 144t205.5 92t224 30.5zM768 156q171 -4 322.5 93.5t238.5 256t84 330.5
q0 199 -119 320.5t-319 121.5q-171 4 -323.5 -94.5t-240.5 -258t-85 -331.5q0 -195 120.5 -316.5t321.5 -121.5zM864 1843q54 0 89.5 -34.5t35.5 -88.5q0 -58 -44 -102.5t-103 -44.5q-52 0 -87.5 35.5t-35.5 89.5q0 57 44 101t101 44zM1227 1843q55 0 90 -35.5t35 -89.5
q0 -57 -44 -101t-104 -44q-52 0 -86.5 34.5t-34.5 88.5q0 58 42.5 102.5t101.5 44.5z" />
    <glyph glyph-name="multiply" unicode="&#xd7;" 
d="M90 379l434 354l-262 342l154 125l262 -342l418 342l114 -145l-419 -344l262 -342l-154 -127l-262 344l-432 -353z" />
    <glyph glyph-name="Oslash" unicode="&#xd8;" horiz-adv-x="1660" 
d="M987 1464q205 0 350 -92l133 148l127 -115l-129 -145q140 -166 140 -406q4 -170 -64.5 -334.5t-183.5 -286t-274 -195t-328 -69.5q-213 0 -359 94l-131 -147l-129 115l129 143q-137 165 -137 401q-2 114 28.5 227.5t86.5 212t136.5 183t175 144t205.5 92t224 30.5z
M403 326l801 897q-101 55 -229 55q-171 4 -323.5 -94.5t-240.5 -258t-85 -331.5q0 -159 77 -268zM768 156q171 -4 322.5 93.5t238.5 256t84 330.5q0 157 -80 272l-801 -897q104 -55 236 -55z" />
    <glyph glyph-name="Ugrave" unicode="&#xd9;" horiz-adv-x="1372" 
d="M131 547l158 887h194l-159 -893q-9 -65 -9 -90q0 -138 80.5 -216.5t225.5 -78.5q168 0 288 108q121 106 156 285l154 885h194l-156 -895q-43 -250 -225 -410t-430 -160q-222 0 -352.5 127.5t-130.5 335.5q0 54 12 115zM614 1841h258l97 -262h-181z" />
    <glyph glyph-name="Uacute" unicode="&#xda;" horiz-adv-x="1372" 
d="M131 547l158 887h194l-159 -893q-9 -65 -9 -90q0 -138 80.5 -216.5t225.5 -78.5q168 0 288 108q121 106 156 285l154 885h194l-156 -895q-43 -250 -225 -410t-430 -160q-222 0 -352.5 127.5t-130.5 335.5q0 54 12 115zM786 1579l187 262h266l-266 -262h-187z" />
    <glyph glyph-name="Ucircumflex" unicode="&#xdb;" horiz-adv-x="1372" 
d="M131 547l158 887h194l-159 -893q-9 -65 -9 -90q0 -138 80.5 -216.5t225.5 -78.5q168 0 288 108q121 106 156 285l154 885h194l-156 -895q-43 -250 -225 -410t-430 -160q-222 0 -352.5 127.5t-130.5 335.5q0 54 12 115zM580 1579l233 262h209l141 -262h-176l-92 129
l-135 -129h-180z" />
    <glyph glyph-name="Udieresis" unicode="&#xdc;" horiz-adv-x="1372" 
d="M131 547l158 887h194l-159 -893q-9 -65 -9 -90q0 -138 80.5 -216.5t225.5 -78.5q168 0 288 108q121 106 156 285l154 885h194l-156 -895q-43 -250 -225 -410t-430 -160q-222 0 -352.5 127.5t-130.5 335.5q0 54 12 115zM731 1843q54 0 89.5 -34.5t35.5 -88.5
q0 -58 -44 -102.5t-103 -44.5q-51 0 -87 35.5t-36 89.5q0 57 44 101t101 44zM1094 1843q55 0 90 -35.5t35 -89.5q0 -57 -44 -101t-104 -44q-51 0 -86 34.5t-35 88.5q0 58 42.5 102.5t101.5 44.5z" />
    <glyph glyph-name="Yacute" unicode="&#xdd;" horiz-adv-x="1345" 
d="M193 1434h208l308 -676l546 676h230l-705 -873l-100 -561h-195l101 565zM758 1579l186 262h266l-266 -262h-186z" />
    <glyph glyph-name="Thorn" unicode="&#xde;" horiz-adv-x="1261" 
d="M49 0l254 1434h195l-52 -287h414q178 0 278.5 -93t100.5 -249q0 -52 -8 -88q-33 -188 -167.5 -300t-336.5 -112h-430l-53 -305h-195zM332 492h405q123 0 203 62.5t100 172.5q4 50 4 53q0 87 -56 134t-161 47h-413z" />
    <glyph glyph-name="germandbls" unicode="&#xdf;" horiz-adv-x="1130" 
d="M35 0l194 1098q36 197 163 307.5t323 110.5q149 0 241.5 -80t92.5 -209q0 -94 -49 -169.5t-142 -146.5l-98 -77q-17 -17 -17 -29q0 -16 48 -41l59 -37q109 -72 157 -139t48 -168q0 -189 -133.5 -321t-325.5 -132q-163 0 -272 74l94 152q76 -52 174 -52q111 0 192.5 77
t81.5 185q0 56 -26 95q-23 35 -55.5 59.5t-110.5 71.5q-70 41 -99.5 73.5t-29.5 77.5q0 48 28 84q20 25 119 111q93 78 127.5 125.5t34.5 107.5q0 56 -42.5 89.5t-119.5 33.5q-105 0 -178.5 -67.5t-93.5 -180.5l-191 -1083h-194z" />
    <glyph glyph-name="agrave" unicode="&#xe0;" horiz-adv-x="1193" 
d="M70 502q37 217 192 366.5t350 149.5q225 0 326 -174l25 143h194l-176 -987h-193l23 127q-145 -158 -362 -158q-178 0 -284 116.5t-106 301.5q0 36 11 115zM506 158q144 0 244 100q106 103 127 260l4 51q0 118 -67.5 189t-182.5 71q-142 0 -248 -100q-104 -101 -125 -260
q-4 -54 -4 -55q2 -116 69.5 -186t182.5 -70zM406 1407h258l96 -262h-180z" />
    <glyph glyph-name="aacute" unicode="&#xe1;" horiz-adv-x="1193" 
d="M70 502q37 217 192 366.5t350 149.5q225 0 326 -174l25 143h194l-176 -987h-193l23 127q-145 -158 -362 -158q-178 0 -284 116.5t-106 301.5q0 36 11 115zM506 158q144 0 244 100q106 103 127 260l4 51q0 118 -67.5 189t-182.5 71q-142 0 -248 -100q-104 -101 -125 -260
q-4 -54 -4 -55q2 -116 69.5 -186t182.5 -70zM573 1145l185 262h266l-266 -262h-185z" />
    <glyph glyph-name="acircumflex" unicode="&#xe2;" horiz-adv-x="1193" 
d="M70 502q37 217 192 366.5t350 149.5q225 0 326 -174l25 143h194l-176 -987h-193l23 127q-145 -158 -362 -158q-178 0 -284 116.5t-106 301.5q0 36 11 115zM506 158q144 0 244 100q106 103 127 260l4 51q0 118 -67.5 189t-182.5 71q-142 0 -248 -100q-104 -101 -125 -260
q-4 -54 -4 -55q2 -116 69.5 -186t182.5 -70zM365 1145l235 262h207l141 -262h-176l-90 129l-137 -129h-180z" />
    <glyph glyph-name="atilde" unicode="&#xe3;" horiz-adv-x="1193" 
d="M70 502q37 217 192 366.5t350 149.5q225 0 326 -174l25 143h194l-176 -987h-193l23 127q-145 -158 -362 -158q-178 0 -284 116.5t-106 301.5q0 36 11 115zM506 158q144 0 244 100q106 103 127 260l4 51q0 118 -67.5 189t-182.5 71q-142 0 -248 -100q-104 -101 -125 -260
q-4 -54 -4 -55q2 -116 69.5 -186t182.5 -70zM594 1391q64 0 131 -39q56 -29 84 -29q55 0 115 78l108 -96q-41 -71 -100 -107.5t-129 -36.5q-62 0 -127 41q-52 29 -82 29q-65 0 -119 -78l-106 92q84 146 225 146z" />
    <glyph glyph-name="adieresis" unicode="&#xe4;" horiz-adv-x="1193" 
d="M70 502q37 217 192 366.5t350 149.5q225 0 326 -174l25 143h194l-176 -987h-193l23 127q-145 -158 -362 -158q-178 0 -284 116.5t-106 301.5q0 36 11 115zM506 158q144 0 244 100q106 103 127 260l4 51q0 118 -67.5 189t-182.5 71q-142 0 -248 -100q-104 -101 -125 -260
q-4 -54 -4 -55q2 -116 69.5 -186t182.5 -70zM541 1401q51 0 83.5 -33t32.5 -84q0 -54 -41.5 -95.5t-97.5 -41.5q-49 0 -82 33.5t-33 83.5q0 55 41 96t97 41zM874 1401q51 0 84 -33t33 -84q0 -54 -41 -95.5t-96 -41.5q-51 0 -83 34t-32 85q0 56 39.5 95.5t95.5 39.5z" />
    <glyph glyph-name="aring" unicode="&#xe5;" horiz-adv-x="1193" 
d="M70 502q37 217 192 366.5t350 149.5q225 0 326 -174l25 143h194l-176 -987h-193l23 127q-145 -158 -362 -158q-178 0 -284 116.5t-106 301.5q0 36 11 115zM506 158q144 0 244 100q106 103 127 260l4 51q0 118 -67.5 189t-182.5 71q-142 0 -248 -100q-104 -101 -125 -260
q-4 -54 -4 -55q2 -116 69.5 -186t182.5 -70zM707 1466q72 0 121 -50t49 -124q0 -83 -64.5 -145t-144.5 -62q-73 0 -122.5 50t-49.5 122q0 86 63 146q63 63 148 63zM680 1204q31 0 55.5 24t24.5 56q0 26 -19 45t-45 19q-32 0 -57 -24t-25 -56q0 -26 20 -45t46 -19z" />
    <glyph glyph-name="ae" unicode="&#xe6;" horiz-adv-x="1718" 
d="M29 272q30 186 215 263q183 79 463 79l10 50q6 30 6 47q0 67 -47 104t-137 37q-111 0 -181.5 -66t-81.5 -176l-178 23q21 182 149.5 284.5t305.5 102.5q256 0 321 -172q79 81 179 125.5t209 44.5q175 0 275.5 -100t100.5 -267q0 -39 -10 -104l-16 -90h-746l-2 -39
q0 -128 69 -201.5t191 -73.5q111 0 202.5 67.5t123.5 172.5l174 -35q-45 -164 -193.5 -271.5t-324.5 -107.5q-133 0 -228 56t-143 159q-63 -99 -168 -157t-231 -58q-152 0 -231.5 70.5t-79.5 181.5q0 5 4 51zM903 612h555q2 8 2 35q0 92 -59.5 146.5t-159.5 54.5
q-108 0 -199 -64.5t-139 -171.5zM377 145q109 0 189.5 75t105.5 198l8 41q-225 1 -346 -53t-121 -148q0 -54 43 -83.5t121 -29.5z" />
    <glyph glyph-name="ccedilla" unicode="&#xe7;" horiz-adv-x="1095" 
d="M70 504q40 222 197 368t370 146q171 0 274.5 -93t108.5 -247l-184 -49q2 93 -54.5 147.5t-158.5 54.5q-133 0 -237.5 -102t-123.5 -244q-4 -62 -4 -63q0 -123 66.5 -194.5t183.5 -71.5q113 0 207 70t125 180l176 -50q-47 -157 -178 -264q-126 -106 -295 -121l-43 -55
q66 -4 106.5 -47.5t40.5 -106.5q0 -86 -61 -149.5t-162 -63.5q-75 0 -125 44t-45 106l119 35q-5 -32 11 -50t50 -18q36 0 62 24.5t26 55.5q0 27 -16.5 42t-46.5 15q-31 0 -45 -14l-84 70l84 116q-165 23 -260 135t-95 283q0 32 11 111z" />
    <glyph glyph-name="egrave" unicode="&#xe8;" horiz-adv-x="1091" 
d="M70 500q40 222 199.5 370t369.5 148q175 0 276 -100.5t101 -268.5q0 -37 -12 -119l-13 -73h-745l-2 -39q0 -129 68.5 -202t191.5 -73q106 0 194.5 64t120.5 166l176 -41q-53 -161 -196 -262t-316 -101q-196 0 -311 115q-113 116 -113 305q0 36 11 111zM283 612h557
q2 8 2 33q0 92 -60 147.5t-164 55.5q-107 0 -197 -64.5t-138 -171.5zM397 1407h258l97 -262h-181z" />
    <glyph glyph-name="eacute" unicode="&#xe9;" horiz-adv-x="1091" 
d="M70 500q40 222 199.5 370t369.5 148q175 0 276 -100.5t101 -268.5q0 -37 -12 -119l-13 -73h-745l-2 -39q0 -129 68.5 -202t191.5 -73q106 0 194.5 64t120.5 166l176 -41q-53 -161 -196 -262t-316 -101q-196 0 -311 115q-113 116 -113 305q0 36 11 111zM283 612h557
q2 8 2 33q0 92 -60 147.5t-164 55.5q-107 0 -197 -64.5t-138 -171.5zM565 1145l185 262h266l-266 -262h-185z" />
    <glyph glyph-name="ecircumflex" unicode="&#xea;" horiz-adv-x="1091" 
d="M70 500q40 222 199.5 370t369.5 148q175 0 276 -100.5t101 -268.5q0 -37 -12 -119l-13 -73h-745l-2 -39q0 -129 68.5 -202t191.5 -73q106 0 194.5 64t120.5 166l176 -41q-53 -161 -196 -262t-316 -101q-196 0 -311 115q-113 116 -113 305q0 36 11 111zM283 612h557
q2 8 2 33q0 92 -60 147.5t-164 55.5q-107 0 -197 -64.5t-138 -171.5zM356 1145l236 262h207l141 -262h-176l-90 129l-137 -129h-181z" />
    <glyph glyph-name="edieresis" unicode="&#xeb;" horiz-adv-x="1091" 
d="M70 500q40 222 199.5 370t369.5 148q175 0 276 -100.5t101 -268.5q0 -37 -12 -119l-13 -73h-745l-2 -39q0 -129 68.5 -202t191.5 -73q106 0 194.5 64t120.5 166l176 -41q-53 -161 -196 -262t-316 -101q-196 0 -311 115q-113 116 -113 305q0 36 11 111zM283 612h557
q2 8 2 33q0 92 -60 147.5t-164 55.5q-107 0 -197 -64.5t-138 -171.5zM532 1401q51 0 84 -33t33 -84q0 -54 -41.5 -95.5t-97.5 -41.5q-49 0 -82 33.5t-33 83.5q0 56 40.5 96.5t96.5 40.5zM866 1401q51 0 84 -33t33 -84q0 -54 -41 -95.5t-96 -41.5q-51 0 -83 34t-32 85
q0 56 39.5 95.5t95.5 39.5z" />
    <glyph glyph-name="igrave" unicode="&#xec;" horiz-adv-x="440" 
d="M143 1407h238l35 -262h-168zM35 0l174 987h194l-174 -987h-194z" />
    <glyph glyph-name="iacute" unicode="&#xed;" horiz-adv-x="440" 
d="M242 1145l147 262h252l-219 -262h-180zM35 0l174 987h194l-174 -987h-194z" />
    <glyph glyph-name="icircumflex" unicode="&#xee;" horiz-adv-x="440" 
d="M80 1145l186 262h226l86 -262h-162l-58 127l-110 -127h-168zM35 0l174 987h194l-174 -987h-194z" />
    <glyph glyph-name="idieresis" unicode="&#xef;" horiz-adv-x="440" 
d="M207 1401q51 0 84 -33t33 -84q0 -54 -41.5 -95.5t-96.5 -41.5q-51 0 -83.5 33.5t-32.5 83.5q0 56 41 96.5t96 40.5zM516 1401q51 0 84 -33t33 -84q0 -54 -41 -95.5t-96 -41.5q-51 0 -83 34t-32 85q0 56 39.5 95.5t95.5 39.5zM35 0l174 987h194l-174 -987h-194z" />
    <glyph glyph-name="eth" unicode="&#xf0;" horiz-adv-x="1173" 
d="M70 502q37 217 200.5 362.5t378.5 145.5q186 0 287 -131q-12 171 -145 342l-259 -97l-40 129l200 74q-62 56 -143 115l129 119q86 -68 188 -170l232 84l41 -125l-181 -68q175 -233 175 -520q0 -90 -19 -207q-46 -256 -213.5 -421t-394.5 -165q-202 0 -324.5 119
t-122.5 307q0 32 11 107zM516 156q142 0 252 104t129 256q4 46 4 49q0 119 -70.5 192.5t-187.5 73.5q-143 0 -250 -98q-105 -92 -133 -244q-6 -37 -6 -69q0 -119 70.5 -191.5t191.5 -72.5z" />
    <glyph glyph-name="ntilde" unicode="&#xf1;" horiz-adv-x="1099" 
d="M35 0l176 987h195l-19 -106q128 137 326 137q142 0 219.5 -77t77.5 -214q0 -51 -9 -94l-112 -633h-195l107 604q8 47 8 76q0 162 -174 162q-110 0 -194 -78.5t-113 -208.5l-99 -555h-194zM580 1391q64 0 131 -39q56 -29 84 -29q54 0 114 78l109 -96
q-41 -71 -100.5 -107.5t-129.5 -36.5q-61 0 -126 41q-52 29 -82 29q-65 0 -119 -78l-107 92q84 146 226 146z" />
    <glyph glyph-name="ograve" unicode="&#xf2;" horiz-adv-x="1155" 
d="M70 502q37 218 204.5 367t384.5 149q198 0 316.5 -120t118.5 -310q0 -32 -11 -107q-37 -221 -202 -366.5t-383 -145.5q-200 0 -319.5 118.5t-119.5 307.5q0 32 11 107zM516 156q140 0 250 102.5t129 253.5q6 42 6 53q0 119 -70.5 192.5t-187.5 73.5q-142 0 -252.5 -101.5
t-132.5 -252.5q-4 -50 -4 -57q0 -119 70.5 -191.5t191.5 -72.5zM424 1407h258l96 -262h-180z" />
    <glyph glyph-name="oacute" unicode="&#xf3;" horiz-adv-x="1155" 
d="M70 502q37 218 204.5 367t384.5 149q198 0 316.5 -120t118.5 -310q0 -32 -11 -107q-37 -221 -202 -366.5t-383 -145.5q-200 0 -319.5 118.5t-119.5 307.5q0 32 11 107zM516 156q140 0 250 102.5t129 253.5q6 42 6 53q0 119 -70.5 192.5t-187.5 73.5q-142 0 -252.5 -101.5
t-132.5 -252.5q-4 -50 -4 -57q0 -119 70.5 -191.5t191.5 -72.5zM592 1145l184 262h266l-266 -262h-184z" />
    <glyph glyph-name="ocircumflex" unicode="&#xf4;" horiz-adv-x="1155" 
d="M70 502q37 218 204.5 367t384.5 149q198 0 316.5 -120t118.5 -310q0 -32 -11 -107q-37 -221 -202 -366.5t-383 -145.5q-200 0 -319.5 118.5t-119.5 307.5q0 32 11 107zM516 156q140 0 250 102.5t129 253.5q6 42 6 53q0 119 -70.5 192.5t-187.5 73.5q-142 0 -252.5 -101.5
t-132.5 -252.5q-4 -50 -4 -57q0 -119 70.5 -191.5t191.5 -72.5zM383 1145l235 262h207l142 -262h-176l-91 129l-137 -129h-180z" />
    <glyph glyph-name="otilde" unicode="&#xf5;" horiz-adv-x="1155" 
d="M70 502q37 218 204.5 367t384.5 149q198 0 316.5 -120t118.5 -310q0 -32 -11 -107q-37 -221 -202 -366.5t-383 -145.5q-200 0 -319.5 118.5t-119.5 307.5q0 32 11 107zM516 156q140 0 250 102.5t129 253.5q6 42 6 53q0 119 -70.5 192.5t-187.5 73.5q-142 0 -252.5 -101.5
t-132.5 -252.5q-4 -50 -4 -57q0 -119 70.5 -191.5t191.5 -72.5zM612 1391q64 0 131 -39q56 -29 84 -29q55 0 115 78l109 -96q-83 -144 -230 -144q-62 0 -127 41q-52 29 -82 29q-64 0 -118 -78l-107 92q84 146 225 146z" />
    <glyph glyph-name="odieresis" unicode="&#xf6;" horiz-adv-x="1155" 
d="M70 502q37 218 204.5 367t384.5 149q198 0 316.5 -120t118.5 -310q0 -32 -11 -107q-37 -221 -202 -366.5t-383 -145.5q-200 0 -319.5 118.5t-119.5 307.5q0 32 11 107zM516 156q140 0 250 102.5t129 253.5q6 42 6 53q0 119 -70.5 192.5t-187.5 73.5q-142 0 -252.5 -101.5
t-132.5 -252.5q-4 -50 -4 -57q0 -119 70.5 -191.5t191.5 -72.5zM559 1401q51 0 84 -33t33 -84q0 -54 -41 -95.5t-98 -41.5q-49 0 -82 33.5t-33 83.5q0 56 41 96.5t96 40.5zM893 1401q51 0 84 -33t33 -84q0 -54 -41.5 -95.5t-96.5 -41.5q-50 0 -82 33.5t-32 85.5
q0 56 40 95.5t95 39.5z" />
    <glyph glyph-name="divide" unicode="&#xf7;" 
d="M733 1276q53 0 87 -33.5t34 -83.5q0 -60 -42 -102.5t-97 -42.5q-56 0 -90.5 33.5t-34.5 87.5q0 57 43 99t100 42zM100 625l33 186h1071l-33 -186h-1071zM584 424q53 0 87 -33.5t34 -83.5q0 -60 -42.5 -102.5t-97.5 -42.5q-56 0 -90.5 33.5t-34.5 87.5q0 57 43.5 99
t100.5 42z" />
    <glyph glyph-name="oslash" unicode="&#xf8;" horiz-adv-x="1155" 
d="M59 16l91 103q-91 117 -91 276q0 32 11 107q37 218 204.5 367t384.5 149q136 0 242 -62l94 105l105 -96l-92 -103q86 -115 86 -274q0 -32 -11 -107q-37 -221 -202 -366.5t-383 -145.5q-137 0 -238 58l-96 -109zM291 274l475 531q-56 26 -123 26q-102 0 -192.5 -57.5
t-143.5 -152.5t-53 -201q0 -85 37 -146zM516 156q106 0 195.5 59.5t139.5 155.5t50 204q0 70 -33 132l-471 -529q58 -22 119 -22z" />
    <glyph glyph-name="ugrave" unicode="&#xf9;" horiz-adv-x="1099" 
d="M1065 987l-176 -987h-195l19 106q-128 -137 -326 -137q-142 0 -219.5 77t-77.5 214q0 55 8 94l113 633h195l-107 -604q-8 -47 -8 -76q0 -162 174 -162q110 0 194 78.5t113 208.5l98 555h195zM399 1407h258l97 -262h-181z" />
    <glyph glyph-name="uacute" unicode="&#xfa;" horiz-adv-x="1099" 
d="M1065 987l-176 -987h-195l19 106q-128 -137 -326 -137q-142 0 -219.5 77t-77.5 214q0 55 8 94l113 633h195l-107 -604q-8 -47 -8 -76q0 -162 174 -162q110 0 194 78.5t113 208.5l98 555h195zM567 1145l185 262h266l-266 -262h-185z" />
    <glyph glyph-name="ucircumflex" unicode="&#xfb;" horiz-adv-x="1099" 
d="M1065 987l-176 -987h-195l19 106q-128 -137 -326 -137q-142 0 -219.5 77t-77.5 214q0 55 8 94l113 633h195l-107 -604q-8 -47 -8 -76q0 -162 174 -162q110 0 194 78.5t113 208.5l98 555h195zM358 1145l236 262h207l141 -262h-176l-90 129l-137 -129h-181z" />
    <glyph glyph-name="udieresis" unicode="&#xfc;" horiz-adv-x="1099" 
d="M1065 987l-176 -987h-195l19 106q-128 -137 -326 -137q-142 0 -219.5 77t-77.5 214q0 55 8 94l113 633h195l-107 -604q-8 -47 -8 -76q0 -162 174 -162q110 0 194 78.5t113 208.5l98 555h195zM535 1401q51 0 83.5 -33t32.5 -84q0 -54 -41.5 -95.5t-97.5 -41.5
q-49 0 -82 33.5t-33 83.5q0 55 41 96t97 41zM868 1401q51 0 84 -33t33 -84q0 -54 -41 -95.5t-96 -41.5q-51 0 -83 34t-32 85q0 56 39.5 95.5t95.5 39.5z" />
    <glyph glyph-name="yacute" unicode="&#xfd;" horiz-adv-x="1116" 
d="M-43 -59l190 14q-12 -43 -12 -78q0 -91 59.5 -142.5t159.5 -51.5q135 0 235 91t126 240l24 144q-133 -139 -333 -142q-145 1 -224.5 79.5t-79.5 215.5q0 51 9 95l100 581h192l-96 -553q-8 -31 -8 -74q0 -167 184 -167q119 0 206 85.5t112 227.5l86 481h194l-172 -975
q-37 -219 -195.5 -360t-371.5 -141q-179 0 -287 90t-108 243q0 49 10 97zM573 1145l185 262h266l-266 -262h-185z" />
    <glyph glyph-name="thorn" unicode="&#xfe;" horiz-adv-x="1193" 
d="M-47 -461l336 1895h194l-100 -572q146 156 358 156q176 0 284 -118t108 -302q0 -52 -11 -113q-37 -220 -191.5 -368t-350.5 -148q-227 0 -326 172l-107 -602h-194zM563 156q138 0 245 104t126 256q4 46 4 51q0 118 -69 191t-185 73q-133 0 -239 -98t-128 -241
q-6 -40 -6 -74q0 -119 68 -190.5t184 -71.5z" />
    <glyph glyph-name="ydieresis" unicode="&#xff;" horiz-adv-x="1116" 
d="M-43 -59l190 14q-12 -43 -12 -78q0 -91 59.5 -142.5t159.5 -51.5q135 0 235 91t126 240l24 144q-133 -139 -333 -142q-145 1 -224.5 79.5t-79.5 215.5q0 51 9 95l100 581h192l-96 -553q-8 -31 -8 -74q0 -167 184 -167q119 0 206 85.5t112 227.5l86 481h194l-172 -975
q-37 -219 -195.5 -360t-371.5 -141q-179 0 -287 90t-108 243q0 49 10 97zM541 1401q51 0 83.5 -33t32.5 -84q0 -54 -41.5 -95.5t-97.5 -41.5q-49 0 -82 33.5t-33 83.5q0 55 41 96t97 41zM874 1401q51 0 84 -33t33 -84q0 -54 -41 -95.5t-96 -41.5q-51 0 -83 34t-32 85
q0 56 39.5 95.5t95.5 39.5z" />
    <glyph glyph-name="Amacron" unicode="&#x100;" horiz-adv-x="1454" 
d="M-59 0l837 1434h230l333 -1434h-204l-93 403h-651l-235 -403h-217zM500 590h501l-141 618zM641 1610l29 157h565l-29 -157h-565z" />
    <glyph glyph-name="amacron" unicode="&#x101;" horiz-adv-x="1193" 
d="M70 502q37 217 192 366.5t350 149.5q225 0 326 -174l25 143h194l-176 -987h-193l23 127q-145 -158 -362 -158q-178 0 -284 116.5t-106 301.5q0 36 11 115zM506 158q144 0 244 100q106 103 127 260l4 51q0 118 -67.5 189t-182.5 71q-142 0 -248 -100q-104 -101 -125 -260
q-4 -54 -4 -55q2 -116 69.5 -186t182.5 -70zM467 1198l29 158h442l-29 -158h-442z" />
    <glyph glyph-name="Abreve" unicode="&#x102;" horiz-adv-x="1454" 
d="M-59 0l837 1434h230l333 -1434h-204l-93 403h-651l-235 -403h-217zM500 590h501l-141 618zM670 1841h149q-5 -56 23.5 -89.5t83.5 -33.5t94 33.5t53 89.5h148q-25 -118 -107.5 -190t-198.5 -72q-108 0 -177.5 64.5t-69.5 164.5q0 25 2 33z" />
    <glyph glyph-name="abreve" unicode="&#x103;" horiz-adv-x="1193" 
d="M70 502q37 217 192 366.5t350 149.5q225 0 326 -174l25 143h194l-176 -987h-193l23 127q-145 -158 -362 -158q-178 0 -284 116.5t-106 301.5q0 36 11 115zM506 158q144 0 244 100q106 103 127 260l4 51q0 118 -67.5 189t-182.5 71q-142 0 -248 -100q-104 -101 -125 -260
q-4 -54 -4 -55q2 -116 69.5 -186t182.5 -70zM446 1407h148q-5 -56 23.5 -88.5t82.5 -32.5q57 0 96.5 32.5t53.5 88.5h147q-25 -118 -107 -190t-198 -72q-109 0 -178.5 64.5t-69.5 164.5q0 27 2 33z" />
    <glyph glyph-name="Aogonek" unicode="&#x104;" horiz-adv-x="1454" 
d="M-59 0l837 1434h230l333 -1434q-69 -27 -115 -71t-46 -87q0 -75 100 -78l-25 -137q-112 0 -174.5 46.5t-62.5 133.5q0 117 119 195l-93 401h-651l-235 -403h-217zM500 590h501l-141 618z" />
    <glyph glyph-name="aogonek" unicode="&#x105;" horiz-adv-x="1193" 
d="M70 502q37 217 192 366.5t350 149.5q225 0 326 -174l25 143h194l-176 -987q-69 -27 -115.5 -71t-46.5 -87q0 -75 101 -78l-23 -137q-112 0 -176 46.5t-64 133.5q0 124 134 203l20 117q-145 -158 -362 -158q-178 0 -284 116.5t-106 301.5q0 36 11 115zM506 158
q144 0 244 100q106 103 127 260l4 51q0 118 -67.5 189t-182.5 71q-140 0 -247 -102t-126 -258q-4 -54 -4 -55q2 -116 69.5 -186t182.5 -70z" />
    <glyph glyph-name="Cacute" unicode="&#x106;" horiz-adv-x="1597" 
d="M975 1464q241 0 388 -133t150 -348l-188 -43q0 156 -98 247t-269 91q-127 3 -245.5 -53t-204 -149t-135.5 -219t-47 -257q0 -204 119 -324t325 -120q189 0 347 115.5t210 297.5l184 -51q-46 -159 -158.5 -284.5t-267 -195t-323.5 -69.5q-288 0 -458.5 172t-170.5 451
q-2 114 27.5 226t84 208.5t133 178.5t171.5 140t202.5 89.5t223.5 29.5zM905 1579l187 262h266l-266 -262h-187z" />
    <glyph glyph-name="cacute" unicode="&#x107;" horiz-adv-x="1095" 
d="M70 504q40 222 197 368t370 146q171 0 274.5 -93t108.5 -247l-184 -49q2 93 -54.5 147.5t-158.5 54.5q-133 0 -237.5 -102t-123.5 -244q-4 -62 -4 -63q0 -123 66.5 -194.5t183.5 -71.5q113 0 207 70t125 180l176 -50q-53 -170 -197 -278q-145 -109 -325 -109
q-199 0 -317 116.5t-118 307.5q0 32 11 111zM563 1145l185 262h266l-266 -262h-185z" />
    <glyph glyph-name="Ccircumflex" unicode="&#x108;" horiz-adv-x="1597" 
d="M975 1464q241 0 388 -133t150 -348l-188 -43q0 156 -98 247t-269 91q-127 3 -245.5 -53t-204 -149t-135.5 -219t-47 -257q0 -204 119 -324t325 -120q189 0 347 115.5t210 297.5l184 -51q-46 -159 -158.5 -284.5t-267 -195t-323.5 -69.5q-288 0 -458.5 172t-170.5 451
q-2 114 27.5 226t84 208.5t133 178.5t171.5 140t202.5 89.5t223.5 29.5zM698 1579l234 262h209l141 -262h-176l-92 129l-135 -129h-181z" />
    <glyph glyph-name="ccircumflex" unicode="&#x109;" horiz-adv-x="1095" 
d="M70 504q40 222 197 368t370 146q171 0 274.5 -93t108.5 -247l-184 -49q2 93 -54.5 147.5t-158.5 54.5q-133 0 -237.5 -102t-123.5 -244q-4 -62 -4 -63q0 -123 66.5 -194.5t183.5 -71.5q113 0 207 70t125 180l176 -50q-53 -170 -197 -278q-145 -109 -325 -109
q-199 0 -317 116.5t-118 307.5q0 32 11 111zM354 1145l236 262h207l141 -262h-176l-90 129l-137 -129h-181z" />
    <glyph glyph-name="Cdotaccent" unicode="&#x10a;" horiz-adv-x="1597" 
d="M975 1464q241 0 388 -133t150 -348l-188 -43q0 156 -98 247t-269 91q-127 3 -245.5 -53t-204 -149t-135.5 -219t-47 -257q0 -204 119 -324t325 -120q189 0 347 115.5t210 297.5l184 -51q-46 -159 -158.5 -284.5t-267 -195t-323.5 -69.5q-288 0 -458.5 172t-170.5 451
q-2 114 27.5 226t84 208.5t133 178.5t171.5 140t202.5 89.5t223.5 29.5zM1030 1835q49 0 83 -34.5t34 -84.5q0 -52 -41 -93.5t-96 -41.5q-51 0 -85 34t-34 85q0 55 41.5 95t97.5 40z" />
    <glyph glyph-name="cdotaccent" unicode="&#x10b;" horiz-adv-x="1095" 
d="M70 504q40 222 197 368t370 146q171 0 274.5 -93t108.5 -247l-184 -49q2 93 -54.5 147.5t-158.5 54.5q-133 0 -237.5 -102t-123.5 -244q-4 -62 -4 -63q0 -123 66.5 -194.5t183.5 -71.5q113 0 207 70t125 180l176 -50q-53 -170 -197 -278q-145 -109 -325 -109
q-199 0 -317 116.5t-118 307.5q0 32 11 111zM698 1409q53 0 87 -34.5t34 -86.5q0 -54 -42 -96.5t-97 -42.5t-89 34.5t-34 86.5q0 55 42.5 97t98.5 42z" />
    <glyph glyph-name="Ccaron" unicode="&#x10c;" horiz-adv-x="1597" 
d="M975 1464q241 0 388 -133t150 -348l-188 -43q0 156 -98 247t-269 91q-127 3 -245.5 -53t-204 -149t-135.5 -219t-47 -257q0 -204 119 -324t325 -120q189 0 347 115.5t210 297.5l184 -51q-46 -159 -158.5 -284.5t-267 -195t-323.5 -69.5q-288 0 -458.5 172t-170.5 451
q-2 114 27.5 226t84 208.5t133 178.5t171.5 140t202.5 89.5t223.5 29.5zM754 1841h176l90 -131l137 131h180l-235 -262h-207z" />
    <glyph glyph-name="ccaron" unicode="&#x10d;" horiz-adv-x="1095" 
d="M70 504q40 222 197 368t370 146q171 0 274.5 -93t108.5 -247l-184 -49q2 93 -54.5 147.5t-158.5 54.5q-133 0 -237.5 -102t-123.5 -244q-4 -62 -4 -63q0 -123 66.5 -194.5t183.5 -71.5q113 0 207 70t125 180l176 -50q-53 -170 -197 -278q-145 -109 -325 -109
q-199 0 -317 116.5t-118 307.5q0 32 11 111zM424 1407h180l90 -129l137 129h177l-234 -262h-209z" />
    <glyph glyph-name="Dcaron" unicode="&#x10e;" horiz-adv-x="1433" 
d="M49 0l254 1434h494q262 0 422.5 -164.5t160.5 -421.5q2 -132 -37.5 -260t-114 -234.5t-173.5 -187.5t-223 -125t-254 -41h-529zM279 193h305q95 -2 187.5 32.5t166 97t130 143.5t86.5 176.5t28 191.5q0 180 -111 294q-107 113 -293 113h-315zM629 1841h176l90 -131
l137 131h180l-235 -262h-207z" />
    <glyph glyph-name="dcaron" unicode="&#x10f;" horiz-adv-x="1193" 
d="M70 502q37 217 192.5 366.5t351.5 149.5q231 0 324 -172l104 588h195l-254 -1434h-195l23 125q-146 -156 -362 -156q-178 0 -284 116.5t-106 301.5q0 36 11 115zM508 156q138 0 245 103.5t126 256.5q4 50 4 51q0 119 -67.5 191.5t-182.5 72.5q-139 0 -247.5 -103
t-127.5 -255q-4 -50 -4 -55q0 -118 68.5 -190t185.5 -72zM1268 1141l67 293h201l-129 -293h-139z" />
    <glyph glyph-name="Dcroat" unicode="&#x110;" horiz-adv-x="1464" 
d="M31 635l28 164h162l113 635h493q262 0 423 -164.5t161 -421.5q3 -165 -60.5 -322t-171 -273.5t-258.5 -186.5t-313 -66h-528l113 635h-162zM309 193h305q95 -2 187.5 32.5t166 97t130 143.5t86.5 176.5t28 191.5q0 181 -110 294q-107 113 -293 113h-315l-78 -442h336
l-27 -164h-338z" />
    <glyph glyph-name="dslash" unicode="&#x111;" horiz-adv-x="1218" 
d="M70 502q37 217 192.5 366.5t351.5 149.5q231 0 324 -172l51 291h-307l29 147h305l26 150h195l-27 -150h127l-28 -147h-125l-201 -1137h-195l23 125q-146 -156 -362 -156q-178 0 -284 116.5t-106 301.5q0 36 11 115zM508 156q138 0 245 103.5t126 256.5l4 51
q0 119 -67.5 191.5t-182.5 72.5q-139 0 -247.5 -103t-127.5 -255q-4 -50 -4 -55q0 -118 68.5 -190t185.5 -72z" />
    <glyph glyph-name="Emacron" unicode="&#x112;" horiz-adv-x="1224" 
d="M49 0l254 1434h991l-34 -187h-795l-74 -420h711l-33 -188h-713l-80 -453h797l-33 -186h-991zM551 1610l29 157h565l-29 -157h-565z" />
    <glyph glyph-name="emacron" unicode="&#x113;" horiz-adv-x="1091" 
d="M70 500q40 222 199.5 370t369.5 148q175 0 276 -100.5t101 -268.5q0 -37 -12 -119l-13 -73h-745l-2 -39q0 -129 68.5 -202t191.5 -73q106 0 194.5 64t120.5 166l176 -41q-53 -161 -196 -262t-316 -101q-196 0 -311 115q-113 116 -113 305q0 36 11 111zM283 612h557
q2 8 2 33q0 92 -60 147.5t-164 55.5q-107 0 -197 -64.5t-138 -171.5zM459 1198l28 158h443l-29 -158h-442z" />
    <glyph glyph-name="Ebreve" unicode="&#x114;" horiz-adv-x="1224" 
d="M49 0l254 1434h991l-34 -187h-795l-74 -420h711l-33 -188h-713l-80 -453h797l-33 -186h-991zM580 1841h149q-5 -56 23.5 -89.5t83.5 -33.5t94 33.5t53 89.5h147q-25 -118 -107 -190t-198 -72q-108 0 -177.5 64.5t-69.5 164.5q0 25 2 33z" />
    <glyph glyph-name="ebreve" unicode="&#x115;" horiz-adv-x="1091" 
d="M70 500q40 222 199.5 370t369.5 148q175 0 276 -100.5t101 -268.5q0 -37 -12 -119l-13 -73h-745l-2 -39q0 -129 68.5 -202t191.5 -73q106 0 194.5 64t120.5 166l176 -41q-53 -161 -196 -262t-316 -101q-196 0 -311 115q-113 116 -113 305q0 36 11 111zM283 612h557
q2 8 2 33q0 92 -60 147.5t-164 55.5q-107 0 -197 -64.5t-138 -171.5zM438 1407h148q-5 -56 23.5 -88.5t82.5 -32.5q57 0 96.5 32.5t53.5 88.5h147q-25 -118 -107 -190t-198 -72q-109 0 -178.5 64.5t-69.5 164.5q0 27 2 33z" />
    <glyph glyph-name="Edotaccent" unicode="&#x116;" horiz-adv-x="1224" 
d="M49 0l254 1434h991l-34 -187h-795l-74 -420h711l-33 -188h-713l-80 -453h797l-33 -186h-991zM862 1835q49 0 83 -34.5t34 -84.5q0 -52 -41 -93.5t-96 -41.5q-51 0 -85 34t-34 85q0 55 41.5 95t97.5 40z" />
    <glyph glyph-name="edotaccent" unicode="&#x117;" horiz-adv-x="1091" 
d="M70 500q40 222 199.5 370t369.5 148q175 0 276 -100.5t101 -268.5q0 -37 -12 -119l-13 -73h-745l-2 -39q0 -129 68.5 -202t191.5 -73q106 0 194.5 64t120.5 166l176 -41q-53 -161 -196 -262t-316 -101q-196 0 -311 115q-113 116 -113 305q0 36 11 111zM283 612h557
q2 8 2 33q0 92 -60 147.5t-164 55.5q-107 0 -197 -64.5t-138 -171.5zM700 1409q53 0 87 -34.5t34 -86.5q0 -54 -42 -96.5t-97 -42.5t-89 34.5t-34 86.5q0 55 42.5 97t98.5 42z" />
    <glyph glyph-name="Eogonek" unicode="&#x118;" horiz-adv-x="1224" 
d="M49 0l254 1434h991l-34 -187h-795l-74 -420h711l-33 -188h-713l-80 -453h797l-33 -186q-69 -27 -115 -71t-46 -87q0 -75 100 -78l-25 -137q-112 0 -174.5 46.5t-62.5 133.5q0 117 117 193h-785z" />
    <glyph glyph-name="eogonek" unicode="&#x119;" horiz-adv-x="1091" 
d="M70 500q40 222 199.5 370t369.5 148q175 0 276 -100.5t101 -268.5q0 -37 -12 -119l-13 -73h-745l-2 -39q0 -129 68.5 -202t191.5 -73q106 0 194.5 64t120.5 166l176 -41q-36 -116 -124 -203t-207 -129q-69 -27 -115.5 -71t-46.5 -87q0 -75 100 -78l-22 -137
q-112 0 -176 46.5t-64 133.5q0 92 80 166q-167 19 -264 131.5t-97 284.5q0 36 11 111zM283 612h557q2 8 2 33q0 92 -60 147.5t-164 55.5q-107 0 -197 -64.5t-138 -171.5z" />
    <glyph glyph-name="Ecaron" unicode="&#x11a;" horiz-adv-x="1224" 
d="M49 0l254 1434h991l-34 -187h-795l-74 -420h711l-33 -188h-713l-80 -453h797l-33 -186h-991zM586 1841h176l90 -131l137 131h180l-235 -262h-207z" />
    <glyph glyph-name="ecaron" unicode="&#x11b;" horiz-adv-x="1091" 
d="M70 500q40 222 199.5 370t369.5 148q175 0 276 -100.5t101 -268.5q0 -37 -12 -119l-13 -73h-745l-2 -39q0 -129 68.5 -202t191.5 -73q106 0 194.5 64t120.5 166l176 -41q-53 -161 -196 -262t-316 -101q-196 0 -311 115q-113 116 -113 305q0 36 11 111zM283 612h557
q2 8 2 33q0 92 -60 147.5t-164 55.5q-107 0 -197 -64.5t-138 -171.5zM426 1407h180l90 -129l138 129h176l-234 -262h-209z" />
    <glyph glyph-name="Gcircumflex" unicode="&#x11c;" horiz-adv-x="1579" 
d="M981 1464q242 0 391 -133t152 -348l-193 -43q-2 156 -98.5 247t-265.5 91q-102 2 -200 -33.5t-176.5 -100t-138.5 -149.5t-92 -188t-30 -209q0 -204 117 -323t323 -119q152 0 282.5 77t204.5 211h-415l30 179h619l-111 -623h-176l35 199q-93 -109 -221 -169.5t-279 -60.5
q-182 0 -320.5 77.5t-213 215.5t-74.5 316q-3 175 63.5 339.5t180.5 285.5t273.5 193t332.5 68zM709 1579l233 262h209l141 -262h-176l-92 129l-135 -129h-180z" />
    <glyph glyph-name="gcircumflex" unicode="&#x11d;" horiz-adv-x="1163" 
d="M-20 -57l188 16q-6 -34 -6 -63q0 -98 61.5 -155.5t169.5 -57.5q141 0 241.5 93.5t129.5 252.5l27 147q-137 -143 -328 -143q-179 0 -288 113.5t-109 293.5q0 29 10 101q34 197 187.5 335t346.5 138q102 0 177.5 -42.5t119.5 -119.5l25 135h194l-168 -960
q-40 -232 -197.5 -374t-379.5 -142q-186 0 -299 93.5t-113 250.5q0 24 11 88zM504 215q133 0 228 88.5t120 231.5q4 46 4 49q0 109 -67 176t-177 67q-129 0 -227 -88q-98 -89 -119 -219q-6 -34 -6 -63q0 -109 66 -175.5t178 -66.5zM328 1145l235 262h207l141 -262h-176
l-90 129l-137 -129h-180z" />
    <glyph glyph-name="Gbreve" unicode="&#x11e;" horiz-adv-x="1579" 
d="M981 1464q242 0 391 -133t152 -348l-193 -43q-2 156 -98.5 247t-265.5 91q-102 2 -200 -33.5t-176.5 -100t-138.5 -149.5t-92 -188t-30 -209q0 -204 117 -323t323 -119q152 0 282.5 77t204.5 211h-415l30 179h619l-111 -623h-176l35 199q-93 -109 -221 -169.5t-279 -60.5
q-182 0 -320.5 77.5t-213 215.5t-74.5 316q-3 175 63.5 339.5t180.5 285.5t273.5 193t332.5 68zM758 1841h149q-5 -56 23.5 -89.5t83.5 -33.5t94 33.5t53 89.5h148q-25 -118 -107 -190t-198 -72q-109 0 -178.5 64.5t-69.5 164.5q0 25 2 33z" />
    <glyph glyph-name="gbreve" unicode="&#x11f;" horiz-adv-x="1163" 
d="M-20 -57l188 16q-6 -34 -6 -63q0 -98 61.5 -155.5t169.5 -57.5q141 0 241.5 93.5t129.5 252.5l27 147q-137 -143 -328 -143q-179 0 -288 113.5t-109 293.5q0 29 10 101q34 197 187.5 335t346.5 138q102 0 177.5 -42.5t119.5 -119.5l25 135h194l-168 -960
q-40 -232 -197.5 -374t-379.5 -142q-186 0 -299 93.5t-113 250.5q0 24 11 88zM504 215q133 0 228 88.5t120 231.5q4 46 4 49q0 109 -67 176t-177 67q-129 0 -227 -88q-98 -89 -119 -219q-6 -34 -6 -63q0 -109 66 -175.5t178 -66.5zM410 1407h147q-5 -56 24 -88.5t83 -32.5
q56 0 95.5 32.5t53.5 88.5h148q-25 -118 -107.5 -190t-198.5 -72q-108 0 -177.5 64.5t-69.5 164.5q0 27 2 33z" />
    <glyph glyph-name="Gdotaccent" unicode="&#x120;" horiz-adv-x="1579" 
d="M981 1464q242 0 391 -133t152 -348l-193 -43q-2 156 -98.5 247t-265.5 91q-102 2 -200 -33.5t-176.5 -100t-138.5 -149.5t-92 -188t-30 -209q0 -204 117 -323t323 -119q152 0 282.5 77t204.5 211h-415l30 179h619l-111 -623h-176l35 199q-93 -109 -221 -169.5t-279 -60.5
q-182 0 -320.5 77.5t-213 215.5t-74.5 316q-3 175 63.5 339.5t180.5 285.5t273.5 193t332.5 68zM1040 1835q49 0 83 -34.5t34 -84.5q0 -52 -41 -93.5t-96 -41.5q-51 0 -85 34t-34 85q0 55 41.5 95t97.5 40z" />
    <glyph glyph-name="gdotaccent" unicode="&#x121;" horiz-adv-x="1163" 
d="M-20 -57l188 16q-6 -34 -6 -63q0 -98 61.5 -155.5t169.5 -57.5q141 0 241.5 93.5t129.5 252.5l27 147q-137 -143 -328 -143q-179 0 -288 113.5t-109 293.5q0 29 10 101q34 197 187.5 335t346.5 138q102 0 177.5 -42.5t119.5 -119.5l25 135h194l-168 -960
q-40 -232 -197.5 -374t-379.5 -142q-186 0 -299 93.5t-113 250.5q0 24 11 88zM504 215q133 0 228 88.5t120 231.5q4 46 4 49q0 109 -67 176t-177 67q-129 0 -227 -88q-98 -89 -119 -219q-6 -34 -6 -63q0 -109 66 -175.5t178 -66.5zM672 1409q53 0 87 -34.5t34 -86.5
q0 -54 -42.5 -96.5t-97.5 -42.5t-89 34.5t-34 86.5q0 55 43 97t99 42z" />
    <glyph glyph-name="uni0122" unicode="&#x122;" horiz-adv-x="1579" 
d="M981 1464q242 0 391 -133t152 -348l-193 -43q-2 156 -98.5 247t-265.5 91q-102 2 -200 -33.5t-176.5 -100t-138.5 -149.5t-92 -188t-30 -209q0 -204 117 -323t323 -119q152 0 282.5 77t204.5 211h-415l30 179h619l-111 -623h-176l35 199q-93 -109 -221 -169.5t-279 -60.5
q-182 0 -320.5 77.5t-213 215.5t-74.5 316q-3 175 63.5 339.5t180.5 285.5t273.5 193t332.5 68zM711 -119q53 0 82.5 -34.5t29.5 -92.5q0 -94 -50.5 -172.5t-129.5 -109.5l-31 82q68 27 95 94h-15q-49 0 -79.5 29.5t-30.5 76.5q0 53 38.5 90t90.5 37z" />
    <glyph glyph-name="uni0123" unicode="&#x123;" horiz-adv-x="1163" 
d="M-20 -57l188 16q-6 -34 -6 -63q0 -98 61.5 -155.5t169.5 -57.5q141 0 241.5 93.5t129.5 252.5l27 147q-137 -143 -328 -143q-179 0 -288 113.5t-109 293.5q0 29 10 101q34 197 187.5 335t346.5 138q102 0 177.5 -42.5t119.5 -119.5l25 135h194l-168 -960
q-40 -232 -197.5 -374t-379.5 -142q-186 0 -299 93.5t-113 250.5q0 24 11 88zM504 215q133 0 228 88.5t120 231.5q4 46 4 49q0 109 -67 176t-177 67q-129 0 -227 -88q-98 -89 -119 -219q-6 -34 -6 -63q0 -109 66 -175.5t178 -66.5zM721 1550l31 -82q-69 -28 -95 -96
q2 2 15 2q49 0 79.5 -29.5t30.5 -76.5q0 -53 -38.5 -90t-90.5 -37q-53 0 -82.5 34.5t-29.5 92.5q0 93 50 171.5t130 110.5z" />
    <glyph glyph-name="Hcircumflex" unicode="&#x124;" horiz-adv-x="1452" 
d="M49 0l254 1434h195l-107 -607h789l106 607h195l-254 -1434h-195l113 639h-789l-112 -639h-195zM610 1579l234 262h209l141 -262h-176l-92 129l-135 -129h-181z" />
    <glyph glyph-name="hcircumflex" unicode="&#x125;" horiz-adv-x="1099" 
d="M35 0l254 1434h194l-98 -555q133 139 328 139q142 0 219.5 -77t77.5 -214q0 -51 -9 -94l-112 -633h-195l107 604q8 47 8 76q0 162 -174 162q-117 0 -201.5 -85.5t-109.5 -226.5l-95 -530h-194zM113 1579l233 262h209l141 -262h-176l-92 129l-135 -129h-180z" />
    <glyph glyph-name="Hbar" unicode="&#x126;" horiz-adv-x="1519" 
d="M80 0l188 1063h-141l31 164h139l37 207h194l-36 -207h788l37 207h194l-36 -207h143l-29 -164h-143l-189 -1063h-194l113 639h-789l-113 -639h-194zM422 827h788l41 236h-788z" />
    <glyph glyph-name="hbar" unicode="&#x127;" horiz-adv-x="1120" 
d="M55 0l201 1137h-121l29 147h119l26 150h195l-27 -150h314l-29 -147h-311l-45 -258q133 139 327 139q142 0 219.5 -77t77.5 -214q0 -55 -8 -94l-113 -633h-194l106 604q8 47 8 76q0 162 -174 162q-117 0 -201.5 -85.5t-109.5 -226.5l-94 -530h-195z" />
    <glyph glyph-name="Itilde" unicode="&#x128;" horiz-adv-x="468" 
d="M49 0l254 1434h195l-254 -1434h-195zM334 1823q64 0 129 -41q40 -21 57.5 -27t40.5 -6q62 0 115 84l106 -86q-41 -77 -101 -117.5t-130 -40.5q-64 0 -139 43q-60 31 -88 31q-64 0 -109 -80l-113 82q84 158 232 158z" />
    <glyph glyph-name="itilde" unicode="&#x129;" horiz-adv-x="440" 
d="M252 1391q58 0 125 -39q47 -27 76 -27q24 0 43 15.5t47 54.5l106 -88q-78 -146 -198 -146q-54 0 -115 37q-1 0 -10.5 5t-20.5 10t-26 9.5t-27 4.5q-47 0 -96 -70l-105 86q48 82 95.5 115t105.5 33zM35 0l174 987h194l-174 -987h-194z" />
    <glyph glyph-name="Imacron" unicode="&#x12a;" horiz-adv-x="468" 
d="M49 0l254 1434h195l-254 -1434h-195zM145 1610l29 157h565l-28 -157h-566z" />
    <glyph glyph-name="imacron" unicode="&#x12b;" horiz-adv-x="440" 
d="M35 0l174 987h194l-174 -987h-194zM127 1198l29 158h442l-29 -158h-442z" />
    <glyph glyph-name="Ibreve" unicode="&#x12c;" horiz-adv-x="468" 
d="M49 0l254 1434h195l-254 -1434h-195zM174 1841h150q-5 -56 23 -89.5t83 -33.5t94.5 33.5t53.5 89.5h147q-25 -118 -107 -190t-198 -72q-109 0 -178.5 64.5t-69.5 164.5q0 25 2 33z" />
    <glyph glyph-name="ibreve" unicode="&#x12d;" horiz-adv-x="440" 
d="M129 1368l2 39h150q-4 -54 18 -87.5t61 -33.5q47 0 81 32.5t46 88.5h148q-25 -119 -101.5 -190.5t-183.5 -71.5q-100 0 -160.5 60.5t-60.5 162.5zM35 0l174 987h194l-174 -987h-194z" />
    <glyph glyph-name="Iogonek" unicode="&#x12e;" horiz-adv-x="468" 
d="M51 10l252 1424h195l-254 -1434q-69 -27 -115.5 -71t-46.5 -87q0 -75 100 -78l-24 -137q-112 0 -175 46.5t-63 133.5q0 121 131 203z" />
    <glyph glyph-name="iogonek" unicode="&#x12f;" horiz-adv-x="440" 
d="M369 1409q53 0 86.5 -34.5t33.5 -86.5q0 -54 -42 -96.5t-97 -42.5t-89 34.5t-34 86.5q0 55 43 97t99 42zM37 10l172 977h194l-174 -987q-69 -27 -115 -71t-46 -87q0 -75 100 -78l-23 -137q-112 0 -175.5 46.5t-63.5 133.5q0 121 131 203z" />
    <glyph glyph-name="Idot" unicode="&#x130;" horiz-adv-x="468" 
d="M49 0l254 1434h195l-254 -1434h-195zM457 1835q49 0 82.5 -34.5t33.5 -84.5q0 -52 -41 -93.5t-96 -41.5q-51 0 -85 34t-34 85q0 55 42 95t98 40z" />
    <glyph glyph-name="dotlessi" unicode="&#x131;" horiz-adv-x="440" 
d="M35 0l174 987h194l-174 -987h-194z" />
    <glyph glyph-name="IJ" unicode="&#x132;" horiz-adv-x="1660" 
d="M49 0l254 1434h195l-254 -1434h-195zM537 604l190 17q-39 -107 -39 -209q0 -130 74.5 -193t202.5 -63q144 0 248 91t130 247l166 940h195l-168 -951q-41 -239 -197 -377q-155 -137 -376 -137q-130 0 -233 44.5t-166.5 139.5t-63.5 228q0 102 37 223z" />
    <glyph glyph-name="ij" unicode="&#x133;" horiz-adv-x="950" 
d="M35 0l174 987h194l-174 -987h-194zM369 1409q53 0 86.5 -34.5t33.5 -86.5q0 -54 -42 -96.5t-97 -42.5t-89 34.5t-34 86.5q0 55 43 97t99 42zM102 -221l170 14q-4 -51 21.5 -78.5t75.5 -27.5q57 0 95.5 37t49.5 100l205 1163h194l-206 -1165q-25 -144 -117 -227.5
t-230 -83.5q-117 0 -188.5 62.5t-71.5 162.5q0 33 2 43zM879 1409q53 0 86.5 -34.5t33.5 -86.5q0 -54 -42 -96.5t-97 -42.5t-89 34.5t-34 86.5q0 55 43 97t99 42z" />
    <glyph glyph-name="Jcircumflex" unicode="&#x134;" horiz-adv-x="1191" 
d="M68 604l190 17q-39 -107 -39 -209q0 -130 74.5 -193t202.5 -63q144 0 248 91t130 247l166 940h195l-168 -951q-41 -239 -197 -377q-155 -137 -376 -137q-130 0 -233 44.5t-166.5 139.5t-63.5 228q0 102 37 223zM868 1579l234 262h209l141 -262h-176l-92 129l-135 -129
h-181z" />
    <glyph glyph-name="jcircumflex" unicode="&#x135;" horiz-adv-x="454" 
d="M82 1145l184 262h228l86 -262h-164l-58 125l-108 -125h-168zM-391 -221l170 14q-4 -51 21 -78.5t75 -27.5q57 0 95.5 37t49.5 100l205 1163h195l-207 -1165q-25 -144 -116.5 -227.5t-229.5 -83.5q-117 0 -188.5 62.5t-71.5 162.5q0 33 2 43z" />
    <glyph glyph-name="uni0136" unicode="&#x136;" horiz-adv-x="1318" 
d="M47 -2l254 1436h193l-115 -650l801 650h278l-760 -621l504 -815h-227l-430 690l-213 -174l-92 -516h-193zM569 -119q53 0 83 -34.5t30 -92.5q0 -94 -50.5 -172.5t-129.5 -109.5l-31 82q67 27 94 94h-14q-49 0 -80 29.5t-31 76.5q0 53 38.5 90t90.5 37z" />
    <glyph glyph-name="uni0137" unicode="&#x137;" horiz-adv-x="1013" 
d="M35 0l254 1434h194l-147 -834l457 387h264l-492 -418l336 -569h-219l-264 444l-129 -110l-60 -334h-194zM385 -119q53 0 83 -34.5t30 -92.5q0 -94 -50.5 -172.5t-130.5 -109.5l-30 82q67 27 94 94h-14q-49 0 -80 29.5t-31 76.5q0 53 38.5 90t90.5 37z" />
    <glyph glyph-name="kgreenlandic" unicode="&#x138;" horiz-adv-x="1013" 
d="M35 0l174 987h194l-69 -395l465 395h256l-492 -418l338 -569h-233l-260 436l-119 -100l-60 -336h-194z" />
    <glyph glyph-name="Lacute" unicode="&#x139;" horiz-adv-x="1157" 
d="M49 0l254 1434h195l-222 -1248h787l-35 -186h-979zM373 1579l186 262h266l-266 -262h-186z" />
    <glyph glyph-name="lacute" unicode="&#x13a;" horiz-adv-x="440" 
d="M35 0l254 1434h194l-254 -1434h-194zM322 1579l186 262h266l-266 -262h-186z" />
    <glyph glyph-name="uni013B" unicode="&#x13b;" horiz-adv-x="1157" 
d="M49 0l254 1434h195l-222 -1248h787l-35 -186h-979zM504 -119q53 0 82.5 -34.5t29.5 -92.5q0 -94 -50.5 -172.5t-129.5 -109.5l-30 82q67 27 94 94h-15q-49 0 -79.5 29.5t-30.5 76.5q0 53 38.5 90t90.5 37z" />
    <glyph glyph-name="uni013C" unicode="&#x13c;" horiz-adv-x="440" 
d="M35 0l254 1434h194l-254 -1434h-194zM96 -119q53 0 83 -34.5t30 -92.5q0 -94 -50.5 -172.5t-129.5 -109.5l-31 82q67 27 94 94h-14q-49 0 -80 29.5t-31 76.5q0 53 38.5 90t90.5 37z" />
    <glyph glyph-name="Lcaron" unicode="&#x13d;" horiz-adv-x="1157" 
d="M49 0l254 1434h195l-222 -1248h787l-35 -186h-979zM561 1141l68 293h200l-129 -293h-139z" />
    <glyph glyph-name="lcaron" unicode="&#x13e;" horiz-adv-x="440" 
d="M35 0l254 1434h194l-254 -1434h-194zM516 1141l68 293h200l-129 -293h-139z" />
    <glyph glyph-name="Ldot" unicode="&#x13f;" horiz-adv-x="1157" 
d="M49 0l254 1434h195l-222 -1248h787l-35 -186h-979zM874 911q53 0 87 -33t34 -83q0 -60 -42 -103t-97 -43q-56 0 -90.5 33.5t-34.5 87.5q0 57 43 99t100 42z" />
    <glyph glyph-name="ldot" unicode="&#x140;" horiz-adv-x="681" 
d="M35 0l254 1434h194l-254 -1434h-194zM616 864q53 0 87 -33t34 -83q0 -60 -42 -103t-97 -43q-56 0 -90.5 33.5t-34.5 87.5q0 57 43 99t100 42z" />
    <glyph glyph-name="Lslash" unicode="&#x141;" 
d="M23 627l229 114l123 693h194l-104 -586l305 153l68 -139l-406 -205l-84 -471h787l-35 -186h-979l98 551l-127 -64z" />
    <glyph glyph-name="lslash" unicode="&#x142;" horiz-adv-x="667" 
d="M10 621l232 145l118 668h195l-94 -529l121 76l77 -129l-233 -147l-125 -705h-195l101 565l-119 -76z" />
    <glyph glyph-name="Nacute" unicode="&#x143;" horiz-adv-x="1499" 
d="M49 0l254 1434h234l589 -1166l207 1166h195l-254 -1434h-223l-596 1174l-211 -1174h-195zM842 1579l186 262h266l-266 -262h-186z" />
    <glyph glyph-name="nacute" unicode="&#x144;" horiz-adv-x="1099" 
d="M35 0l176 987h195l-19 -106q128 137 326 137q142 0 219.5 -77t77.5 -214q0 -51 -9 -94l-112 -633h-195l107 604q8 47 8 76q0 162 -174 162q-110 0 -194 -78.5t-113 -208.5l-99 -555h-194zM559 1145l184 262h267l-267 -262h-184z" />
    <glyph glyph-name="uni0145" unicode="&#x145;" horiz-adv-x="1499" 
d="M49 0l254 1434h234l589 -1166l207 1166h195l-254 -1434h-223l-596 1174l-211 -1174h-195zM616 -119q53 0 83 -34.5t30 -92.5q0 -94 -50.5 -172.5t-129.5 -109.5l-31 82q67 27 94 94h-14q-49 0 -80 29.5t-31 76.5q0 53 38.5 90t90.5 37z" />
    <glyph glyph-name="uni0146" unicode="&#x146;" horiz-adv-x="1099" 
d="M35 0l176 987h195l-19 -106q128 137 326 137q142 0 219.5 -77t77.5 -214q0 -51 -9 -94l-112 -633h-195l107 604q8 47 8 76q0 162 -174 162q-110 0 -194 -78.5t-113 -208.5l-99 -555h-194zM418 -119q53 0 82.5 -34.5t29.5 -92.5q0 -94 -50.5 -172.5t-129.5 -109.5l-31 82
q68 27 95 94h-15q-49 0 -79.5 29.5t-30.5 76.5q0 53 38.5 90t90.5 37z" />
    <glyph glyph-name="Ncaron" unicode="&#x147;" horiz-adv-x="1499" 
d="M49 0l254 1434h234l589 -1166l207 1166h195l-254 -1434h-223l-596 1174l-211 -1174h-195zM690 1841h176l90 -131l138 131h180l-236 -262h-207z" />
    <glyph glyph-name="ncaron" unicode="&#x148;" horiz-adv-x="1099" 
d="M35 0l176 987h195l-19 -106q128 137 326 137q142 0 219.5 -77t77.5 -214q0 -51 -9 -94l-112 -633h-195l107 604q8 47 8 76q0 162 -174 162q-110 0 -194 -78.5t-113 -208.5l-99 -555h-194zM420 1407h180l90 -129l137 129h177l-234 -262h-209z" />
    <glyph glyph-name="napostrophe" unicode="&#x149;" horiz-adv-x="1099" 
d="M35 0l176 987h195l-19 -106q128 137 326 137q142 0 219.5 -77t77.5 -214q0 -51 -9 -94l-112 -633h-195l107 604q8 47 8 76q0 162 -174 162q-110 0 -194 -78.5t-113 -208.5l-99 -555h-194zM98 1141l68 293h201l-129 -293h-140z" />
    <glyph glyph-name="Eng" unicode="&#x14a;" horiz-adv-x="1499" 
d="M49 0l254 1434h234l589 -1166l207 1166h195l-275 -1540q-28 -122 -101.5 -197.5t-184.5 -75.5q-81 0 -160 39l88 160q23 -10 55 -10q96 0 117 114l6 31l-618 1219l-211 -1174h-195z" />
    <glyph glyph-name="eng" unicode="&#x14b;" horiz-adv-x="1099" 
d="M35 0l176 987h195l-19 -106q128 137 326 137q142 0 219.5 -77t77.5 -214q0 -51 -9 -94l-135 -739q-25 -119 -100.5 -196t-187.5 -77q-77 0 -156 39l84 160q33 -10 55 -10q43 0 75.5 30t39.5 80l125 684q8 47 8 76q0 162 -174 162q-110 0 -194 -78.5t-113 -208.5l-99 -555
h-194z" />
    <glyph glyph-name="Omacron" unicode="&#x14c;" horiz-adv-x="1660" 
d="M987 1464q185 0 327 -79.5t218 -218t76 -312.5q4 -170 -64.5 -334.5t-183.5 -286t-274 -195t-328 -69.5q-282 0 -454.5 170t-172.5 436q-2 114 28.5 227.5t86.5 212t136.5 183t175 144t205.5 92t224 30.5zM768 156q171 -4 322.5 93.5t238.5 256t84 330.5
q0 199 -119 320.5t-319 121.5q-171 4 -323.5 -94.5t-240.5 -258t-85 -331.5q0 -195 120.5 -316.5t321.5 -121.5zM733 1610l29 157h565l-29 -157h-565z" />
    <glyph glyph-name="omacron" unicode="&#x14d;" horiz-adv-x="1155" 
d="M70 502q37 218 204.5 367t384.5 149q198 0 316.5 -120t118.5 -310q0 -32 -11 -107q-37 -221 -202 -366.5t-383 -145.5q-200 0 -319.5 118.5t-119.5 307.5q0 32 11 107zM516 156q140 0 250 102.5t129 253.5q6 42 6 53q0 119 -70.5 192.5t-187.5 73.5q-142 0 -252.5 -101.5
t-132.5 -252.5q-4 -50 -4 -57q0 -119 70.5 -191.5t191.5 -72.5zM485 1198l29 158h442l-28 -158h-443z" />
    <glyph glyph-name="Obreve" unicode="&#x14e;" horiz-adv-x="1660" 
d="M987 1464q185 0 327 -79.5t218 -218t76 -312.5q4 -170 -64.5 -334.5t-183.5 -286t-274 -195t-328 -69.5q-282 0 -454.5 170t-172.5 436q-2 114 28.5 227.5t86.5 212t136.5 183t175 144t205.5 92t224 30.5zM768 156q171 -4 322.5 93.5t238.5 256t84 330.5
q0 199 -119 320.5t-319 121.5q-171 4 -323.5 -94.5t-240.5 -258t-85 -331.5q0 -195 120.5 -316.5t321.5 -121.5zM762 1841h149q-5 -56 23.5 -89.5t83.5 -33.5t94 33.5t53 89.5h148q-25 -118 -107 -190t-198 -72q-109 0 -178.5 64.5t-69.5 164.5q0 25 2 33z" />
    <glyph glyph-name="obreve" unicode="&#x14f;" horiz-adv-x="1155" 
d="M70 502q37 218 204.5 367t384.5 149q198 0 316.5 -120t118.5 -310q0 -32 -11 -107q-37 -221 -202 -366.5t-383 -145.5q-200 0 -319.5 118.5t-119.5 307.5q0 32 11 107zM516 156q140 0 250 102.5t129 253.5q6 42 6 53q0 119 -70.5 192.5t-187.5 73.5q-142 0 -252.5 -101.5
t-132.5 -252.5q-4 -50 -4 -57q0 -119 70.5 -191.5t191.5 -72.5zM465 1407h147q-5 -56 24 -88.5t83 -32.5q56 0 95.5 32.5t53.5 88.5h148q-25 -118 -107 -190t-198 -72q-109 0 -178.5 64.5t-69.5 164.5q0 27 2 33z" />
    <glyph glyph-name="Ohungarumlaut" unicode="&#x150;" horiz-adv-x="1660" 
d="M987 1464q185 0 327 -79.5t218 -218t76 -312.5q4 -170 -64.5 -334.5t-183.5 -286t-274 -195t-328 -69.5q-282 0 -454.5 170t-172.5 436q-2 114 28.5 227.5t86.5 212t136.5 183t175 144t205.5 92t224 30.5zM768 156q171 -4 322.5 93.5t238.5 256t84 330.5
q0 199 -119 320.5t-319 121.5q-171 4 -323.5 -94.5t-240.5 -258t-85 -331.5q0 -195 120.5 -316.5t321.5 -121.5zM782 1579l144 262h241l-229 -262h-156zM1087 1579l144 262h242l-230 -262h-156z" />
    <glyph glyph-name="ohungarumlaut" unicode="&#x151;" horiz-adv-x="1155" 
d="M70 502q37 218 204.5 367t384.5 149q198 0 316.5 -120t118.5 -310q0 -32 -11 -107q-37 -221 -202 -366.5t-383 -145.5q-200 0 -319.5 118.5t-119.5 307.5q0 32 11 107zM516 156q140 0 250 102.5t129 253.5q6 42 6 53q0 119 -70.5 192.5t-187.5 73.5q-142 0 -252.5 -101.5
t-132.5 -252.5q-4 -50 -4 -57q0 -119 70.5 -191.5t191.5 -72.5zM457 1145l151 262h244l-244 -262h-151zM760 1145l153 262h242l-242 -262h-153z" />
    <glyph glyph-name="OE" unicode="&#x152;" horiz-adv-x="2445" 
d="M143 731q25 151 101.5 286.5t186 234.5t252.5 156.5t294 55.5q181 0 309 -69.5t195 -200.5l43 240h991l-35 -187h-794l-74 -420h710l-32 -188h-713l-80 -453h797l-33 -186h-991l37 213q-101 -118 -240 -181t-303 -63q-188 0 -333 80t-222.5 219.5t-77.5 315.5
q0 70 12 147zM768 156q129 -3 250 53.5t207 151t136.5 220t47.5 255.5q0 195 -119 318.5t-315 123.5q-150 2 -288.5 -73t-232 -207.5t-116.5 -290.5q-10 -72 -10 -113q0 -195 119.5 -316.5t320.5 -121.5z" />
    <glyph glyph-name="oe" unicode="&#x153;" horiz-adv-x="1918" 
d="M68 498q37 221 207 370.5t391 149.5q127 0 221.5 -56t144.5 -157q80 101 193 157t241 56q175 0 275 -100t100 -269q0 -57 -12 -119l-12 -73h-746l-2 -41q0 -128 69.5 -200.5t192.5 -72.5q108 0 198 68t122 174l174 -37q-45 -164 -193.5 -271.5t-324.5 -107.5
q-133 0 -230 56t-149 157q-80 -101 -193 -157t-241 -56q-198 0 -317.5 118t-119.5 304q0 32 11 107zM1110 612h553q4 20 4 39q0 88 -59 141.5t-160 53.5q-109 0 -199.5 -63.5t-138.5 -170.5zM514 156q134 0 244 96q110 101 137 246q6 38 6 67q0 119 -70 191.5t-188 72.5
q-146 0 -256 -103.5t-129 -258.5q-4 -20 -4 -47q0 -120 70 -192t190 -72z" />
    <glyph glyph-name="Racute" unicode="&#x154;" horiz-adv-x="1275" 
d="M49 0l254 1434h621q178 0 277 -92.5t99 -249.5q0 -181 -100 -310q-102 -132 -266 -172l184 -612h-209l-174 594h-387l-104 -592h-195zM381 780h420q136 0 220.5 79.5t84.5 207.5q0 85 -55.5 132.5t-159.5 47.5h-426zM731 1579l187 262h266l-266 -262h-187z" />
    <glyph glyph-name="racute" unicode="&#x155;" horiz-adv-x="919" 
d="M35 0l176 987h195l-17 -94q106 125 268 125q120 0 189 -70.5t69 -199.5q0 -50 -16 -132l-197 -24q17 63 17 106q0 68 -35.5 104t-99.5 36q-93 0 -162 -76.5t-94 -210.5l-99 -551h-194zM506 1145l184 262h266l-266 -262h-184z" />
    <glyph glyph-name="uni0156" unicode="&#x156;" horiz-adv-x="1275" 
d="M49 0l254 1434h621q178 0 277 -92.5t99 -249.5q0 -181 -100 -310q-102 -132 -266 -172l184 -612h-209l-174 594h-387l-104 -592h-195zM381 780h420q136 0 220.5 79.5t84.5 207.5q0 85 -55.5 132.5t-159.5 47.5h-426zM522 -119q53 0 83 -34.5t30 -92.5q0 -94 -50.5 -172.5
t-129.5 -109.5l-31 82q67 27 94 94h-14q-49 0 -80 29.5t-31 76.5q0 53 38.5 90t90.5 37z" />
    <glyph glyph-name="uni0157" unicode="&#x157;" horiz-adv-x="919" 
d="M35 0l176 987h195l-17 -94q106 125 268 125q120 0 189 -70.5t69 -199.5q0 -50 -16 -132l-197 -24q17 63 17 106q0 68 -35.5 104t-99.5 36q-93 0 -162 -76.5t-94 -210.5l-99 -551h-194zM100 -119q53 0 83 -34.5t30 -92.5q0 -94 -50.5 -172.5t-129.5 -109.5l-31 82
q67 27 94 94h-14q-49 0 -80 29.5t-31 76.5q0 53 38.5 90t90.5 37z" />
    <glyph glyph-name="Rcaron" unicode="&#x158;" horiz-adv-x="1275" 
d="M49 0l254 1434h621q178 0 277 -92.5t99 -249.5q0 -181 -100 -310q-102 -132 -266 -172l184 -612h-209l-174 594h-387l-104 -592h-195zM381 780h420q136 0 220.5 79.5t84.5 207.5q0 85 -55.5 132.5t-159.5 47.5h-426zM580 1841h176l90 -131l137 131h180l-235 -262h-207z
" />
    <glyph glyph-name="rcaron" unicode="&#x159;" horiz-adv-x="919" 
d="M35 0l176 987h195l-17 -94q106 125 268 125q120 0 189 -70.5t69 -199.5q0 -50 -16 -132l-197 -24q17 63 17 106q0 68 -35.5 104t-99.5 36q-93 0 -162 -76.5t-94 -210.5l-99 -551h-194zM367 1407h180l90 -129l137 129h176l-233 -262h-209z" />
    <glyph glyph-name="Sacute" unicode="&#x15a;" horiz-adv-x="1275" 
d="M53 498l197 51q-1 -184 90.5 -285.5t257.5 -101.5q175 0 291.5 84.5t116.5 216.5q0 86 -77.5 133.5t-254.5 67.5q-436 49 -436 342q0 138 77 244t204 160t282 54q203 0 329 -114q131 -116 140 -306l-201 -59q-6 133 -83 211t-202 78q-138 0 -241 -68q-101 -64 -101 -178
q0 -74 66.5 -116.5t210.5 -55.5q248 -25 370.5 -113.5t122.5 -246.5q0 -153 -84.5 -274.5t-227.5 -187t-316 -65.5q-246 0 -388.5 144t-142.5 385zM733 1579l187 262h266l-266 -262h-187z" />
    <glyph glyph-name="sacute" unicode="&#x15b;" horiz-adv-x="954" 
d="M29 350l188 25q-5 -106 51.5 -165.5t161.5 -59.5q106 0 175 46t69 123q0 45 -45.5 72t-151.5 37q-157 13 -238 80.5t-81 177.5q0 27 2 33q15 134 127 215q116 84 276 84q138 0 231 -83t103 -218l-174 -43q-1 80 -47 122t-127 42q-77 0 -136 -37.5t-59 -85.5v-10
q0 -40 37 -64t121 -31q173 -13 261 -81t93 -181v-14q0 -158 -130 -261.5t-320 -103.5q-177 0 -281 107q-103 106 -106 274zM489 1145l185 262h266l-266 -262h-185z" />
    <glyph glyph-name="Scircumflex" unicode="&#x15c;" horiz-adv-x="1275" 
d="M53 498l197 51q-1 -184 90.5 -285.5t257.5 -101.5q175 0 291.5 84.5t116.5 216.5q0 86 -77.5 133.5t-254.5 67.5q-436 49 -436 342q0 138 77 244t204 160t282 54q203 0 329 -114q131 -116 140 -306l-201 -59q-6 133 -83 211t-202 78q-138 0 -241 -68q-101 -64 -101 -178
q0 -74 66.5 -116.5t210.5 -55.5q248 -25 370.5 -113.5t122.5 -246.5q0 -153 -84.5 -274.5t-227.5 -187t-316 -65.5q-246 0 -388.5 144t-142.5 385zM526 1579l234 262h209l141 -262h-176l-92 129l-135 -129h-181z" />
    <glyph glyph-name="scircumflex" unicode="&#x15d;" horiz-adv-x="954" 
d="M29 350l188 25q-5 -106 51.5 -165.5t161.5 -59.5q106 0 175 46t69 123q0 45 -45.5 72t-151.5 37q-157 13 -238 80.5t-81 177.5q0 27 2 33q15 134 127 215q116 84 276 84q138 0 231 -83t103 -218l-174 -43q-1 80 -47 122t-127 42q-77 0 -136 -37.5t-59 -85.5v-10
q0 -40 37 -64t121 -31q173 -13 261 -81t93 -181v-14q0 -158 -130 -261.5t-320 -103.5q-177 0 -281 107q-103 106 -106 274zM281 1145l235 262h207l141 -262h-176l-90 129l-137 -129h-180z" />
    <glyph glyph-name="Scedilla" unicode="&#x15e;" horiz-adv-x="1275" 
d="M53 498l197 51q-1 -184 90.5 -285.5t257.5 -101.5q175 0 291.5 84.5t116.5 216.5q0 87 -78 134.5t-254 66.5q-436 46 -436 342q0 138 77 244t204 160t282 54q203 0 329 -114q131 -116 140 -306l-201 -59q-6 133 -83 211t-202 78q-138 0 -241 -68q-101 -64 -101 -178
q0 -74 66.5 -116.5t210.5 -55.5q248 -25 370.5 -113.5t122.5 -246.5q0 -145 -75.5 -261.5t-203.5 -183.5t-288 -80l-47 -63q64 -2 108 -46t44 -114q0 -83 -60 -141t-151 -58q-79 0 -129 44t-45 108l108 33q-2 -32 17 -51t55 -19t58 23.5t22 56.5q0 27 -17 43t-47 16
q-27 0 -47 -14l-86 66l88 116q-216 20 -340.5 162t-122.5 365z" />
    <glyph glyph-name="scedilla" unicode="&#x15f;" horiz-adv-x="954" 
d="M29 350l188 25q-5 -106 51.5 -165.5t161.5 -59.5t174.5 47.5t69.5 121.5q0 45 -45.5 72t-151.5 37q-157 13 -238 80.5t-81 177.5q0 27 2 33q15 134 127 215q116 84 276 84q138 0 231 -83t103 -218l-174 -43q-1 80 -47 122t-127 42q-83 0 -139 -37t-56 -96q0 -40 37 -64
t121 -31q173 -13 261 -81t93 -181v-14q-3 -149 -114 -248q-112 -100 -287 -115l-43 -55q66 -4 106.5 -47.5t40.5 -106.5q0 -86 -61 -149.5t-162 -63.5q-75 0 -125 44t-45 106l119 35q-5 -32 11 -50t50 -18q36 0 62 24.5t26 55.5q0 27 -16.5 42t-46.5 15q-31 0 -45 -14
l-84 70l84 116q-141 23 -223 124.5t-84 250.5z" />
    <glyph glyph-name="Scaron" unicode="&#x160;" horiz-adv-x="1275" 
d="M53 498l197 51q-1 -184 90.5 -285.5t257.5 -101.5q175 0 291.5 84.5t116.5 216.5q0 86 -77.5 133.5t-254.5 67.5q-436 49 -436 342q0 138 77 244t204 160t282 54q203 0 329 -114q131 -116 140 -306l-201 -59q-6 133 -83 211t-202 78q-138 0 -241 -68q-101 -64 -101 -178
q0 -74 66.5 -116.5t210.5 -55.5q248 -25 370.5 -113.5t122.5 -246.5q0 -153 -84.5 -274.5t-227.5 -187t-316 -65.5q-246 0 -388.5 144t-142.5 385zM582 1841h176l90 -131l137 131h180l-235 -262h-207z" />
    <glyph glyph-name="scaron" unicode="&#x161;" horiz-adv-x="954" 
d="M29 350l188 25q-5 -106 51.5 -165.5t161.5 -59.5q106 0 175 46t69 123q0 45 -45.5 72t-151.5 37q-157 13 -238 80.5t-81 177.5q0 27 2 33q15 134 127 215q116 84 276 84q138 0 231 -83t103 -218l-174 -43q-1 80 -47 122t-127 42q-77 0 -136 -37.5t-59 -85.5v-10
q0 -40 37 -64t121 -31q173 -13 261 -81t93 -181v-14q0 -158 -130 -261.5t-320 -103.5q-177 0 -281 107q-103 106 -106 274zM350 1407h180l91 -129l137 129h176l-234 -262h-208z" />
    <glyph glyph-name="uni0162" unicode="&#x162;" horiz-adv-x="1220" 
d="M174 1247l33 187h1139l-33 -187h-471l-221 -1247h-33l-68 -92q64 -2 108 -46t44 -114q0 -83 -60 -141t-151 -58q-79 0 -129 44t-45 108l108 33q-2 -32 17 -51t55 -19t58 23.5t22 56.5q0 27 -17 43t-47 16q-27 0 -47 -14l-86 66l109 145h-33l221 1247h-473z" />
    <glyph glyph-name="uni0163" unicode="&#x163;" horiz-adv-x="1001" 
d="M92 815l29 172h182l51 295h195l-51 -295h499l-28 -172h-502l-76 -428q-12 -67 -12 -100q0 -67 38 -103.5t107 -36.5q84 0 143 65.5t70 170.5l185 -29q-20 -159 -120 -262t-243 -121l-43 -55q66 -4 107 -47.5t41 -106.5q0 -86 -61.5 -149.5t-162.5 -63.5q-75 0 -125 44
t-45 106l119 35q-5 -31 11 -49.5t51 -18.5q36 0 62 24.5t26 55.5q0 27 -17 42t-47 15q-31 0 -45 -14l-84 70l84 116q-119 20 -183.5 94t-64.5 191q0 52 8 88l82 467h-180z" />
    <glyph glyph-name="Tcaron" unicode="&#x164;" horiz-adv-x="1220" 
d="M174 1247l33 187h1139l-33 -187h-471l-221 -1247h-195l221 1247h-473zM559 1841h176l90 -131l138 131h180l-236 -262h-207z" />
    <glyph glyph-name="tcaron" unicode="&#x165;" horiz-adv-x="1001" 
d="M92 815l29 172h182l51 295h195l-51 -295h499l-28 -172h-502l-84 -477q-4 -24 -4 -51q0 -67 38 -103.5t107 -36.5q84 0 143 65.5t70 170.5l185 -29q-21 -171 -138.5 -278t-271.5 -107q-155 0 -242.5 78t-87.5 213q0 52 8 88l82 467h-180zM614 1153l68 293h201l-129 -293
h-140z" />
    <glyph glyph-name="Tbar" unicode="&#x166;" horiz-adv-x="1220" 
d="M174 1247l33 187h1139l-33 -187h-471l-86 -481h237l-28 -162h-238l-106 -604h-195l106 604h-233l29 162h233l86 481h-473z" />
    <glyph glyph-name="tbar" unicode="&#x167;" horiz-adv-x="1001" 
d="M76 477l26 146h138l32 192h-180l29 172h182l51 295h195l-51 -295h499l-28 -172h-502l-35 -192h283l-25 -146h-282l-19 -102q-10 -75 -10 -88q0 -67 38 -103.5t107 -36.5q84 0 143 65.5t70 170.5l185 -29q-21 -171 -138.5 -278t-271.5 -107q-155 0 -242.5 78t-87.5 213
q0 52 8 88l23 129h-137z" />
    <glyph glyph-name="Utilde" unicode="&#x168;" horiz-adv-x="1372" 
d="M131 547l158 887h194l-159 -893q-9 -65 -9 -90q0 -138 80.5 -216.5t225.5 -78.5q168 0 288 108q121 106 156 285l154 885h194l-156 -895q-43 -250 -225 -410t-430 -160q-222 0 -352.5 127.5t-130.5 335.5q0 54 12 115zM788 1823q65 0 130 -41q40 -21 57.5 -27t40.5 -6
q61 0 114 84l107 -86q-41 -77 -101 -117.5t-130 -40.5q-65 0 -140 43q-60 31 -88 31q-63 0 -108 -80l-113 82q84 158 231 158z" />
    <glyph glyph-name="utilde" unicode="&#x169;" horiz-adv-x="1099" 
d="M1065 987l-176 -987h-195l19 106q-128 -137 -326 -137q-142 0 -219.5 77t-77.5 214q0 55 8 94l113 633h195l-107 -604q-8 -47 -8 -76q0 -162 174 -162q110 0 194 78.5t113 208.5l98 555h195zM588 1391q64 0 131 -39q56 -29 84 -29q55 0 115 78l108 -96
q-41 -71 -100 -107.5t-129 -36.5q-62 0 -127 41q-52 29 -82 29q-65 0 -119 -78l-107 92q84 146 226 146z" />
    <glyph glyph-name="Umacron" unicode="&#x16a;" horiz-adv-x="1372" 
d="M131 547l158 887h194l-159 -893q-9 -65 -9 -90q0 -138 80.5 -216.5t225.5 -78.5q168 0 288 108q121 106 156 285l154 885h194l-156 -895q-43 -250 -225 -410t-430 -160q-222 0 -352.5 127.5t-130.5 335.5q0 54 12 115zM600 1610l29 157h565l-29 -157h-565z" />
    <glyph glyph-name="umacron" unicode="&#x16b;" horiz-adv-x="1099" 
d="M1065 987l-176 -987h-195l19 106q-128 -137 -326 -137q-142 0 -219.5 77t-77.5 214q0 55 8 94l113 633h195l-107 -604q-8 -47 -8 -76q0 -162 174 -162q110 0 194 78.5t113 208.5l98 555h195zM461 1198l28 158h443l-29 -158h-442z" />
    <glyph glyph-name="Ubreve" unicode="&#x16c;" horiz-adv-x="1372" 
d="M131 547l158 887h194l-159 -893q-9 -65 -9 -90q0 -138 80.5 -216.5t225.5 -78.5q168 0 288 108q121 106 156 285l154 885h194l-156 -895q-43 -250 -225 -410t-430 -160q-222 0 -352.5 127.5t-130.5 335.5q0 54 12 115zM629 1841h149q-5 -56 23.5 -89.5t83.5 -33.5
t94 33.5t53 89.5h148q-25 -118 -107.5 -190t-198.5 -72q-108 0 -177.5 64.5t-69.5 164.5q0 25 2 33z" />
    <glyph glyph-name="ubreve" unicode="&#x16d;" horiz-adv-x="1099" 
d="M1065 987l-176 -987h-195l19 106q-128 -137 -326 -137q-142 0 -219.5 77t-77.5 214q0 55 8 94l113 633h195l-107 -604q-8 -47 -8 -76q0 -162 174 -162q110 0 194 78.5t113 208.5l98 555h195zM440 1407h148q-5 -56 23.5 -88.5t82.5 -32.5q57 0 96.5 32.5t53.5 88.5h147
q-25 -118 -107 -190t-198 -72q-109 0 -178.5 64.5t-69.5 164.5q0 27 2 33z" />
    <glyph glyph-name="Uring" unicode="&#x16e;" horiz-adv-x="1372" 
d="M131 547l158 887h194l-159 -893q-9 -65 -9 -90q0 -138 80.5 -216.5t225.5 -78.5q168 0 288 108q121 106 156 285l154 885h194l-156 -895q-43 -250 -225 -410t-430 -160q-222 0 -352.5 127.5t-130.5 335.5q0 54 12 115zM918 1905q73 0 121 -50t48 -124q0 -86 -63 -146
q-64 -61 -145 -61q-73 0 -121.5 49.5t-48.5 122.5q0 84 61 145q64 64 148 64zM891 1642q32 0 57 24t25 56q0 27 -18.5 45.5t-47.5 18.5q-32 0 -56 -24t-24 -56q0 -26 19 -45t45 -19z" />
    <glyph glyph-name="uring" unicode="&#x16f;" horiz-adv-x="1099" 
d="M1065 987l-176 -987h-195l19 106q-128 -137 -326 -137q-142 0 -219.5 77t-77.5 214q0 55 8 94l113 633h195l-107 -604q-8 -47 -8 -76q0 -162 174 -162q110 0 194 78.5t113 208.5l98 555h195zM700 1466q72 0 121 -50t49 -124q0 -83 -64 -145t-144 -62q-73 0 -123 50
t-50 122q0 85 64 146q63 63 147 63zM674 1204q31 0 55.5 24t24.5 56q0 26 -19 45t-45 19q-32 0 -57 -24t-25 -56q0 -26 20 -45t46 -19z" />
    <glyph glyph-name="Uhungarumlaut" unicode="&#x170;" horiz-adv-x="1372" 
d="M131 547l158 887h194l-159 -893q-9 -65 -9 -90q0 -138 80.5 -216.5t225.5 -78.5q168 0 288 108q121 106 156 285l154 885h194l-156 -895q-43 -250 -225 -410t-430 -160q-222 0 -352.5 127.5t-130.5 335.5q0 54 12 115zM649 1579l144 262h241l-229 -262h-156zM954 1579
l144 262h241l-229 -262h-156z" />
    <glyph glyph-name="uhungarumlaut" unicode="&#x171;" horiz-adv-x="1099" 
d="M1065 987l-176 -987h-195l19 106q-128 -137 -326 -137q-142 0 -219.5 77t-77.5 214q0 55 8 94l113 633h195l-107 -604q-8 -47 -8 -76q0 -162 174 -162q110 0 194 78.5t113 208.5l98 555h195zM432 1145l152 262h243l-243 -262h-152zM735 1145l154 262h241l-241 -262h-154z
" />
    <glyph glyph-name="Uogonek" unicode="&#x172;" horiz-adv-x="1372" 
d="M131 547l158 887h194l-159 -893q-9 -65 -9 -90q0 -138 80.5 -216.5t225.5 -78.5q168 0 288 108q121 106 156 285l154 885h194l-156 -895q-32 -196 -153 -339.5t-299 -199.5q-69 -27 -115.5 -71t-46.5 -87q0 -75 100 -78l-24 -137q-112 0 -175 46.5t-63 133.5q0 89 78 164
q-203 12 -321.5 137.5t-118.5 323.5q0 54 12 115z" />
    <glyph glyph-name="uogonek" unicode="&#x173;" horiz-adv-x="1099" 
d="M98 354l113 633h195l-107 -604q-8 -47 -8 -76q0 -162 174 -162q110 0 194 78.5t113 208.5l98 555h195l-176 -987q-69 -27 -115.5 -71t-46.5 -87q0 -75 100 -78l-22 -137q-112 0 -176 46.5t-64 133.5q0 121 131 203l17 96q-128 -137 -326 -137q-142 0 -219.5 77t-77.5 214
q0 55 8 94z" />
    <glyph glyph-name="Wcircumflex" unicode="&#x174;" horiz-adv-x="1845" 
d="M193 1434h192l88 -1160l508 1160h209l98 -1162l496 1162h201l-623 -1434h-238l-90 1120l-487 -1120h-238zM815 1579l234 262h208l142 -262h-176l-93 129l-135 -129h-180z" />
    <glyph glyph-name="wcircumflex" unicode="&#x175;" horiz-adv-x="1509" 
d="M133 987h184l89 -713l337 713h183l92 -711l334 711h196l-481 -987h-188l-91 696l-329 -696h-195zM553 1145l235 262h207l142 -262h-176l-91 129l-137 -129h-180z" />
    <glyph glyph-name="Ycircumflex" unicode="&#x176;" horiz-adv-x="1345" 
d="M193 1434h208l308 -676l546 676h230l-705 -873l-100 -561h-195l101 565zM551 1579l233 262h209l142 -262h-177l-92 129l-135 -129h-180z" />
    <glyph glyph-name="ycircumflex" unicode="&#x177;" horiz-adv-x="1116" 
d="M-43 -59l190 14q-12 -43 -12 -78q0 -91 59.5 -142.5t159.5 -51.5q135 0 235 91t126 240l24 144q-133 -139 -333 -142q-145 1 -224.5 79.5t-79.5 215.5q0 51 9 95l100 581h192l-96 -553q-8 -31 -8 -74q0 -167 184 -167q119 0 206 85.5t112 227.5l86 481h194l-172 -975
q-37 -219 -195.5 -360t-371.5 -141q-179 0 -287 90t-108 243q0 49 10 97zM365 1145l235 262h207l141 -262h-176l-90 129l-137 -129h-180z" />
    <glyph glyph-name="Ydieresis" unicode="&#x178;" horiz-adv-x="1345" 
d="M193 1434h208l308 -676l546 676h230l-705 -873l-100 -561h-195l101 565zM702 1843q54 0 89.5 -34.5t35.5 -88.5q0 -58 -44 -102.5t-103 -44.5q-52 0 -87.5 35.5t-35.5 89.5q0 57 44 101t101 44zM1065 1843q55 0 90 -35.5t35 -89.5q0 -57 -44 -101t-104 -44
q-51 0 -85.5 34.5t-34.5 88.5q0 58 42 102.5t101 44.5z" />
    <glyph glyph-name="Zacute" unicode="&#x179;" horiz-adv-x="1294" 
d="M-4 0l35 186h-2l1054 1061h-866l33 187h1126l-33 -187h3l-1059 -1061h870l-35 -186h-1126zM733 1579l187 262h266l-266 -262h-187z" />
    <glyph glyph-name="zacute" unicode="&#x17a;" horiz-adv-x="944" 
d="M-12 0l30 172l662 643h-547l29 172h792l-30 -172l-662 -643h549l-31 -172h-792zM483 1145l185 262h266l-266 -262h-185z" />
    <glyph glyph-name="Zdotaccent" unicode="&#x17b;" horiz-adv-x="1294" 
d="M-4 0l35 186h-2l1054 1061h-866l33 187h1126l-33 -187h3l-1059 -1061h870l-35 -186h-1126zM858 1835q49 0 83 -34.5t34 -84.5q0 -52 -41 -93.5t-96 -41.5q-51 0 -85 34t-34 85q0 55 41.5 95t97.5 40z" />
    <glyph glyph-name="zdotaccent" unicode="&#x17c;" horiz-adv-x="944" 
d="M-12 0l30 172l662 643h-547l29 172h792l-30 -172l-662 -643h549l-31 -172h-792zM618 1409q53 0 87 -34.5t34 -86.5q0 -54 -42 -96.5t-97 -42.5t-89 34.5t-34 86.5q0 55 42.5 97t98.5 42z" />
    <glyph glyph-name="Zcaron" unicode="&#x17d;" horiz-adv-x="1294" 
d="M-4 0l35 186h-2l1054 1061h-866l33 187h1126l-33 -187h3l-1059 -1061h870l-35 -186h-1126zM582 1841h176l90 -131l137 131h180l-235 -262h-207z" />
    <glyph glyph-name="zcaron" unicode="&#x17e;" horiz-adv-x="944" 
d="M-12 0l30 172l662 643h-547l29 172h792l-30 -172l-662 -643h549l-31 -172h-792zM344 1407h180l90 -129l138 129h176l-234 -262h-209z" />
    <glyph glyph-name="longs" unicode="&#x17f;" horiz-adv-x="665" 
d="M92 815l31 172h178l16 92q27 170 148 279q118 106 289 106q139 0 221 -75.5t82 -200.5q0 -3 -4 -49l-185 -33q6 24 6 47q0 63 -36 98t-99 35q-87 0 -150.5 -56t-76.5 -147l-193 -1085h-194l145 817h-178z" />
    <glyph glyph-name="florin" unicode="&#x192;" horiz-adv-x="950" 
d="M-94 -233l129 124q26 -45 90 -45q61 0 104.5 41.5t57.5 110.5l143 817h-272l2 172h301l24 137q26 153 125 245.5t240 92.5q73 0 129.5 -27t83.5 -71l-131 -123q-27 43 -90 43q-62 0 -105 -40t-55 -109l-27 -148h287v-172h-317l-144 -809q-26 -153 -124 -244.5t-240 -91.5
q-73 0 -129.5 26.5t-81.5 70.5z" />
    <glyph glyph-name="uni01B5" unicode="&#x1b5;" horiz-adv-x="1294" 
d="M-4 0l35 186h-2l446 449h-231l28 164h365l446 448h-866l33 187h1126l-33 -187h3l-449 -448h231l-30 -164h-363l-448 -449h870l-35 -186h-1126z" />
    <glyph glyph-name="uni01B6" unicode="&#x1b6;" horiz-adv-x="944" 
d="M-12 0l30 172l261 252h-144l25 145h268l252 246h-547l29 172h792l-30 -172l-252 -246h151l-24 -145h-277l-260 -252h549l-31 -172h-792z" />
    <glyph glyph-name="AEacute" unicode="&#x1fc;" horiz-adv-x="2080" 
d="M-59 0l1149 1434h1060l-34 -187h-795l-74 -420h711l-33 -188h-713l-79 -453h796l-33 -186h-991l72 403h-488l-323 -403h-225zM639 590h371l104 592zM1544 1579l187 262h266l-266 -262h-187z" />
    <glyph glyph-name="aeacute" unicode="&#x1fd;" horiz-adv-x="1718" 
d="M29 272q30 186 215 263q183 79 463 79l10 50q6 30 6 47q0 67 -47 104t-137 37q-111 0 -181.5 -66t-81.5 -176l-178 23q21 182 149.5 284.5t305.5 102.5q256 0 321 -172q79 81 179 125.5t209 44.5q175 0 275.5 -100t100.5 -267q0 -39 -10 -104l-16 -90h-746l-2 -39
q0 -128 69 -201.5t191 -73.5q111 0 202.5 67.5t123.5 172.5l174 -35q-45 -164 -193.5 -271.5t-324.5 -107.5q-133 0 -228 56t-143 159q-63 -99 -168 -157t-231 -58q-152 0 -231.5 70.5t-79.5 181.5q0 5 4 51zM903 612h555q2 8 2 35q0 92 -59.5 146.5t-159.5 54.5
q-108 0 -199 -64.5t-139 -171.5zM377 145q109 0 189.5 75t105.5 198l8 41q-225 1 -346 -53t-121 -148q0 -54 43 -83.5t121 -29.5zM831 1145l185 262h266l-266 -262h-185z" />
    <glyph glyph-name="Oslashacute" unicode="&#x1fe;" horiz-adv-x="1660" 
d="M987 1464q205 0 350 -92l133 148l127 -115l-129 -145q140 -166 140 -406q4 -170 -64.5 -334.5t-183.5 -286t-274 -195t-328 -69.5q-213 0 -359 94l-131 -147l-129 115l129 143q-137 165 -137 401q-2 114 28.5 227.5t86.5 212t136.5 183t175 144t205.5 92t224 30.5z
M403 326l801 897q-101 55 -229 55q-171 4 -323.5 -94.5t-240.5 -258t-85 -331.5q0 -159 77 -268zM768 156q171 -4 322.5 93.5t238.5 256t84 330.5q0 157 -80 272l-801 -897q104 -55 236 -55zM920 1579l186 262h266l-266 -262h-186z" />
    <glyph glyph-name="oslashacute" unicode="&#x1ff;" horiz-adv-x="1155" 
d="M59 16l91 103q-91 117 -91 276q0 32 11 107q37 218 204.5 367t384.5 149q136 0 242 -62l94 105l105 -96l-92 -103q86 -115 86 -274q0 -32 -11 -107q-37 -221 -202 -366.5t-383 -145.5q-137 0 -238 58l-96 -109zM291 274l475 531q-56 26 -123 26q-102 0 -192.5 -57.5
t-143.5 -152.5t-53 -201q0 -85 37 -146zM516 156q106 0 195.5 59.5t139.5 155.5t50 204q0 70 -33 132l-471 -529q58 -22 119 -22zM592 1145l184 262h266l-266 -262h-184z" />
    <glyph glyph-name="uni0218" unicode="&#x218;" horiz-adv-x="1275" 
d="M53 498l197 51q-1 -184 90.5 -285.5t257.5 -101.5q175 0 291.5 84.5t116.5 216.5q0 86 -77.5 133.5t-254.5 67.5q-436 49 -436 342q0 138 77 244t204 160t282 54q203 0 329 -114q131 -116 140 -306l-201 -59q-6 133 -83 211t-202 78q-138 0 -241 -68q-101 -64 -101 -178
q0 -74 66.5 -116.5t210.5 -55.5q248 -25 370.5 -113.5t122.5 -246.5q0 -153 -84.5 -274.5t-227.5 -187t-316 -65.5q-246 0 -388.5 144t-142.5 385zM557 -119q53 0 83 -34.5t30 -92.5q0 -94 -50.5 -172.5t-130.5 -109.5l-30 82q67 27 94 94h-14q-49 0 -80 29.5t-31 76.5
q0 53 38.5 90t90.5 37z" />
    <glyph glyph-name="uni0219" unicode="&#x219;" horiz-adv-x="954" 
d="M29 350l188 25q-5 -106 51.5 -165.5t161.5 -59.5q106 0 175 46t69 123q0 45 -45.5 72t-151.5 37q-157 13 -238 80.5t-81 177.5q0 27 2 33q15 134 127 215q116 84 276 84q138 0 231 -83t103 -218l-174 -43q-1 80 -47 122t-127 42q-77 0 -136 -37.5t-59 -85.5v-10
q0 -40 37 -64t121 -31q173 -13 261 -81t93 -181v-14q0 -158 -130 -261.5t-320 -103.5q-177 0 -281 107q-103 106 -106 274zM379 -119q53 0 83 -34.5t30 -92.5q0 -94 -50.5 -172.5t-130.5 -109.5l-30 82q67 27 94 94h-15q-49 0 -79.5 29.5t-30.5 76.5q0 53 38.5 90t90.5 37z
" />
    <glyph glyph-name="uni021A" unicode="&#x21a;" horiz-adv-x="1220" 
d="M174 1247l33 187h1139l-33 -187h-471l-221 -1247h-195l221 1247h-473zM483 -119q53 0 83 -34.5t30 -92.5q0 -94 -50.5 -172.5t-129.5 -109.5l-31 82q67 27 94 94h-14q-49 0 -80 29.5t-31 76.5q0 53 38.5 90t90.5 37z" />
    <glyph glyph-name="uni021B" unicode="&#x21b;" horiz-adv-x="1001" 
d="M92 815l29 172h182l51 295h195l-51 -295h499l-28 -172h-502l-84 -477q-4 -24 -4 -51q0 -67 38 -103.5t107 -36.5q84 0 143 65.5t70 170.5l185 -29q-21 -171 -138.5 -278t-271.5 -107q-155 0 -242.5 78t-87.5 213q0 52 8 88l82 467h-180zM473 -119q53 0 83 -34.5t30 -92.5
q0 -94 -50.5 -172.5t-129.5 -109.5l-31 82q67 27 94 94h-14q-49 0 -80 29.5t-31 76.5q0 53 38.5 90t90.5 37z" />
    <glyph glyph-name="uni0237" unicode="&#x237;" horiz-adv-x="456" 
d="M-391 -221l170 14q-4 -51 21 -78.5t75 -27.5q57 0 95.5 37t49.5 100l205 1163h195l-207 -1165q-25 -144 -116.5 -227.5t-229.5 -83.5q-117 0 -188.5 62.5t-71.5 162.5q0 33 2 43z" />
    <glyph glyph-name="uni02BB" unicode="&#x2bb;" horiz-adv-x="301" 
d="M98 1026l25 92q4 -2 16 -2q58 0 106 31.5t72 87.5q-4 -2 -18 -2q-55 0 -89 33.5t-34 85.5q0 59 42.5 100t100.5 41q60 0 93.5 -37.5t33.5 -103.5q0 -131 -86 -230.5t-206 -99.5q-6 0 -56 4z" />
    <glyph glyph-name="circumflex" unicode="&#x2c6;" horiz-adv-x="1097" 
d="M352 1145l236 262h207l141 -262h-176l-90 129l-138 -129h-180z" />
    <glyph glyph-name="caron" unicode="&#x2c7;" horiz-adv-x="1097" 
d="M424 1407h180l90 -129l137 129h177l-234 -262h-209z" />
    <glyph glyph-name="breve" unicode="&#x2d8;" horiz-adv-x="1097" 
d="M418 1407h147q-5 -56 24 -88.5t83 -32.5q56 0 95.5 32.5t53.5 88.5h148q-25 -118 -107 -190t-198 -72q-109 0 -178.5 64.5t-69.5 164.5q0 27 2 33z" />
    <glyph glyph-name="dotaccent" unicode="&#x2d9;" horiz-adv-x="1097" 
d="M676 1409q53 0 87 -34.5t34 -86.5q0 -54 -42.5 -96.5t-97.5 -42.5t-88.5 34.5t-33.5 86.5q0 55 42.5 97t98.5 42z" />
    <glyph glyph-name="ring" unicode="&#x2da;" horiz-adv-x="1097" 
d="M696 1466q72 0 121 -50t49 -124q0 -83 -64.5 -145t-144.5 -62q-73 0 -122.5 50t-49.5 122q0 85 64 146q63 63 147 63zM670 1204q31 0 55.5 24t24.5 56q0 26 -19 45t-45 19q-32 0 -57 -24t-25 -56q0 -26 20 -45t46 -19z" />
    <glyph glyph-name="ogonek" unicode="&#x2db;" horiz-adv-x="1097" 
d="M463 43l125 -43q-69 -27 -115.5 -71t-46.5 -87q0 -75 100 -78l-22 -137q-112 0 -176 46.5t-64 133.5q0 78 56 140.5t143 95.5z" />
    <glyph glyph-name="tilde" unicode="&#x2dc;" horiz-adv-x="1097" 
d="M561 1391q64 0 131 -39q56 -29 84 -29q55 0 115 78l108 -96q-83 -144 -229 -144q-62 0 -127 41q-52 29 -82 29q-65 0 -119 -78l-106 92q84 146 225 146z" />
    <glyph glyph-name="hungarumlaut" unicode="&#x2dd;" horiz-adv-x="1097" 
d="M319 1145l152 262h244l-244 -262h-152zM623 1145l153 262h242l-242 -262h-153z" />
    <glyph glyph-name="gravecomb" unicode="&#x300;" horiz-adv-x="0" 
d="M-244 1407h258l97 -262h-181z" />
    <glyph glyph-name="acutecomb" unicode="&#x301;" horiz-adv-x="0" 
d="M-291 1145l185 262h266l-266 -262h-185z" />
    <glyph glyph-name="uni0302" unicode="&#x302;" horiz-adv-x="0" 
d="M-469 1145l236 262h206l142 -262h-176l-91 129l-137 -129h-180z" />
    <glyph glyph-name="tildecomb" unicode="&#x303;" horiz-adv-x="0" 
d="M-295 1391q64 0 131 -39q56 -29 84 -29q55 0 115 78l108 -96q-83 -144 -229 -144q-62 0 -127 41q-52 29 -82 29q-65 0 -119 -78l-106 92q84 146 225 146z" />
    <glyph glyph-name="uni0304" unicode="&#x304;" horiz-adv-x="0" 
d="M-317 1198l28 158h443l-29 -158h-442z" />
    <glyph glyph-name="uni0306" unicode="&#x306;" horiz-adv-x="0" 
d="M-391 1407h147q-5 -56 24 -88.5t83 -32.5q56 0 95.5 32.5t53.5 88.5h148q-25 -118 -107 -190t-198 -72q-109 0 -178.5 64.5t-69.5 164.5q0 27 2 33z" />
    <glyph glyph-name="uni0307" unicode="&#x307;" horiz-adv-x="0" 
d="M18 1409q53 0 87 -34.5t34 -86.5q0 -54 -42 -96.5t-97 -42.5t-89 34.5t-34 86.5q0 55 42.5 97t98.5 42z" />
    <glyph glyph-name="uni0308" unicode="&#x308;" horiz-adv-x="0" 
d="M-313 1401q51 0 83.5 -33t32.5 -84q0 -54 -41.5 -95.5t-97.5 -41.5q-49 0 -82 33.5t-33 83.5q0 55 41 96t97 41zM20 1401q51 0 84 -33t33 -84q0 -54 -41 -95.5t-96 -41.5q-51 0 -83 34t-32 85q0 56 39.5 95.5t95.5 39.5z" />
    <glyph glyph-name="uni030A" unicode="&#x30a;" horiz-adv-x="0" 
d="M-31 1466q72 0 121 -50t49 -124q0 -83 -64.5 -145t-144.5 -62q-73 0 -122.5 50t-49.5 122q0 85 64 146q63 63 147 63zM-57 1204q31 0 55.5 24t24.5 56q0 26 -19 45t-45 19q-32 0 -57 -24t-25 -56q0 -26 20 -45t46 -19z" />
    <glyph glyph-name="uni030B" unicode="&#x30b;" horiz-adv-x="0" 
d="M-537 1145l152 262h244l-244 -262h-152zM-233 1145l153 262h242l-242 -262h-153z" />
    <glyph glyph-name="uni030C" unicode="&#x30c;" horiz-adv-x="0" 
d="M-397 1407h180l90 -129l137 129h176l-233 -262h-209z" />
    <glyph glyph-name="uni0312" unicode="&#x312;" horiz-adv-x="0" 
d="M74 1550l30 -82q-68 -27 -94 -96q2 2 15 2q49 0 79.5 -29.5t30.5 -76.5q0 -53 -38.5 -90t-90.5 -37q-53 0 -82.5 34.5t-29.5 92.5q0 93 50 171.5t130 110.5z" />
    <glyph glyph-name="uni0313" unicode="&#x313;" horiz-adv-x="0" 
d="M-102 1141l67 293h201l-129 -293h-139z" />
    <glyph glyph-name="uni0326" unicode="&#x326;" horiz-adv-x="0" 
d="M-248 -119q53 0 83 -34.5t30 -92.5q0 -94 -50.5 -172.5t-129.5 -109.5l-31 82q67 27 94 94h-14q-49 0 -80 29.5t-31 76.5q0 53 38.5 90t90.5 37z" />
    <glyph glyph-name="uni0327" unicode="&#x327;" horiz-adv-x="0" 
d="M-526 -301l118 35q-5 -31 11 -49.5t51 -18.5q36 0 62 24.5t26 55.5q0 27 -17 42t-47 15q-31 0 -45 -14l-84 70l117 161l119 -20l-66 -84q66 -4 107 -47.5t41 -106.5q0 -86 -61 -149.5t-162 -63.5q-75 0 -125 44t-45 106z" />
    <glyph glyph-name="uni0328" unicode="&#x328;" horiz-adv-x="0" 
d="M-213 43l125 -43q-69 -27 -115.5 -71t-46.5 -87q0 -75 100 -78l-22 -137q-112 0 -176 46.5t-64 133.5q0 78 56 140.5t143 95.5z" />
    <glyph glyph-name="uni0394" unicode="&#x394;" horiz-adv-x="1372" 
d="M-59 0l802 1434h220l297 -1434h-1319zM264 186h752l-199 996z" />
    <glyph glyph-name="uni03A9" unicode="&#x3a9;" horiz-adv-x="1654" 
d="M16 0l33 186h266q-178 161 -178 435q0 61 13 141q20 139 95 268.5t183.5 226t252 153.5t292.5 54q144 0 264 -46.5t201 -127t125.5 -190.5t44.5 -236q0 -70 -15 -141q-65 -357 -342 -537h244l-33 -186h-583l26 145l8 66q187 43 318 186t166 340q8 47 8 111
q0 190 -119 310t-319 120q-227 0 -406 -154.5t-219 -380.5q-10 -58 -10 -114q0 -159 78 -268.5t225 -153.5l-2 -21h2l-17 -96l-8 -39l-8 -51h-586z" />
    <glyph glyph-name="uni03BC" unicode="&#x3bc;" horiz-adv-x="1101" 
d="M-45 -446l256 1433h195l-107 -604q-8 -47 -8 -76q0 -162 174 -162q110 0 194 78.5t113 208.5l98 555h195l-176 -987h-195l19 106q-128 -137 -326 -137q-94 0 -156 33l-79 -448h-197z" />
    <glyph glyph-name="pi" unicode="&#x3c0;" horiz-adv-x="1214" 
d="M92 817l29 170h1145l-29 -170h-221l-96 -557q-5 -20 -5 -35q0 -69 66 -69q34 0 61 12l27 -164q-90 -22 -145 -22q-95 0 -147 50t-52 138q0 32 6 66l100 581h-342l-141 -817h-188l147 817h-215z" />
    <glyph glyph-name="Wgrave" unicode="&#x1e80;" horiz-adv-x="1845" 
d="M193 1434h192l88 -1160l508 1160h209l98 -1162l496 1162h201l-623 -1434h-238l-90 1120l-487 -1120h-238zM850 1841h258l96 -262h-180z" />
    <glyph glyph-name="wgrave" unicode="&#x1e81;" horiz-adv-x="1509" 
d="M133 987h184l89 -713l337 713h183l92 -711l334 711h196l-481 -987h-188l-91 696l-329 -696h-195zM594 1407h258l96 -262h-180z" />
    <glyph glyph-name="Wacute" unicode="&#x1e82;" horiz-adv-x="1845" 
d="M193 1434h192l88 -1160l508 1160h209l98 -1162l496 1162h201l-623 -1434h-238l-90 1120l-487 -1120h-238zM1022 1579l186 262h267l-267 -262h-186z" />
    <glyph glyph-name="wacute" unicode="&#x1e83;" horiz-adv-x="1509" 
d="M133 987h184l89 -713l337 713h183l92 -711l334 711h196l-481 -987h-188l-91 696l-329 -696h-195zM762 1145l184 262h266l-266 -262h-184z" />
    <glyph glyph-name="Wdieresis" unicode="&#x1e84;" horiz-adv-x="1845" 
d="M193 1434h192l88 -1160l508 1160h209l98 -1162l496 1162h201l-623 -1434h-238l-90 1120l-487 -1120h-238zM967 1843q54 0 89.5 -34.5t35.5 -88.5q0 -58 -44.5 -102.5t-103.5 -44.5q-52 0 -87.5 35.5t-35.5 89.5q0 57 44.5 101t101.5 44zM1329 1843q55 0 90 -35.5
t35 -89.5q0 -58 -44 -101.5t-103 -43.5q-51 0 -86 34.5t-35 88.5q0 58 42 102.5t101 44.5z" />
    <glyph glyph-name="wdieresis" unicode="&#x1e85;" horiz-adv-x="1509" 
d="M133 987h184l89 -713l337 713h183l92 -711l334 711h196l-481 -987h-188l-91 696l-329 -696h-195zM729 1401q51 0 84 -33t33 -84q0 -54 -41 -95.5t-98 -41.5q-49 0 -82 33.5t-33 83.5q0 56 41 96.5t96 40.5zM1063 1401q51 0 84 -33t33 -84q0 -54 -41.5 -95.5t-96.5 -41.5
q-50 0 -82 33.5t-32 85.5q0 56 40 95.5t95 39.5z" />
    <glyph glyph-name="uni1E8A" unicode="&#x1e8a;" horiz-adv-x="1376" 
d="M-59 0l655 723l-397 711h227l317 -572l521 572h252l-670 -732l395 -702h-231l-314 557l-503 -557h-252zM901 1835q49 0 83 -34.5t34 -84.5q0 -52 -41 -93.5t-96 -41.5q-51 0 -85 34t-34 85q0 55 41.5 95t97.5 40z" />
    <glyph glyph-name="uni1E8B" unicode="&#x1e8b;" horiz-adv-x="1017" 
d="M-53 0l446 502l-264 485h217l182 -334l299 334h242l-448 -504l264 -483h-217l-183 332l-295 -332h-243zM637 1409q53 0 87 -34.5t34 -86.5q0 -54 -42.5 -96.5t-97.5 -42.5t-88.5 34.5t-33.5 86.5q0 55 42.5 97t98.5 42z" />
    <glyph glyph-name="uni1E9E" unicode="&#x1e9e;" horiz-adv-x="1536" 
d="M51 0l150 864q47 276 245 428q200 156 498 156q212 0 422 -55l-279 -465q152 -35 256 -142q105 -108 105 -276q0 -234 -152.5 -385.5t-390.5 -151.5q-210 0 -336 111q-124 115 -133 295l191 49q0 -123 74.5 -195.5t203.5 -72.5q151 0 246.5 96.5t95.5 243.5
q0 276 -444 297l272 448q-53 17 -153 17q-217 0 -355.5 -107.5t-173.5 -302.5l-147 -852h-195z" />
    <glyph glyph-name="Ygrave" unicode="&#x1ef2;" horiz-adv-x="1345" 
d="M193 1434h208l308 -676l546 676h230l-705 -873l-100 -561h-195l101 565zM586 1841h258l96 -262h-180z" />
    <glyph glyph-name="ygrave" unicode="&#x1ef3;" horiz-adv-x="1116" 
d="M-43 -59l190 14q-12 -43 -12 -78q0 -91 59.5 -142.5t159.5 -51.5q135 0 235 91t126 240l24 144q-133 -139 -333 -142q-145 1 -224.5 79.5t-79.5 215.5q0 51 9 95l100 581h192l-96 -553q-8 -31 -8 -74q0 -167 184 -167q119 0 206 85.5t112 227.5l86 481h194l-172 -975
q-37 -219 -195.5 -360t-371.5 -141q-179 0 -287 90t-108 243q0 49 10 97zM406 1407h258l96 -262h-180z" />
    <glyph glyph-name="endash" unicode="&#x2013;" horiz-adv-x="1245" 
d="M115 520l32 189h1024l-32 -189h-1024z" />
    <glyph glyph-name="emdash" unicode="&#x2014;" horiz-adv-x="2064" 
d="M115 520l32 189h1844l-33 -189h-1843z" />
    <glyph glyph-name="quoteleft" unicode="&#x2018;" horiz-adv-x="434" 
d="M535 1446l-27 -92q-4 2 -14 2q-61 0 -108.5 -31.5t-70.5 -87.5q2 2 17 2q55 0 89 -33.5t34 -85.5q0 -59 -42 -100t-100 -41q-61 0 -95 37.5t-34 103.5q0 131 86.5 230.5t206.5 99.5q8 0 58 -4z" />
    <glyph glyph-name="quoteright" unicode="&#x2019;" horiz-adv-x="434" 
d="M154 983l26 92q4 -2 15 -2q60 0 107.5 31t70.5 88q-2 -2 -17 -2q-55 0 -89 33.5t-34 85.5q0 59 42 100t100 41q61 0 95 -37.5t34 -103.5q0 -131 -86.5 -230.5t-206.5 -99.5q-7 0 -57 4z" />
    <glyph glyph-name="quotesinglbase" unicode="&#x201a;" horiz-adv-x="434" 
d="M-59 -221l26 92q4 -2 15 -2q60 0 107.5 31t70.5 88q-2 -2 -17 -2q-55 0 -89 33t-34 85q0 59 42 100.5t100 41.5q61 0 95 -38t34 -104q0 -131 -86.5 -230t-206.5 -99q-7 0 -57 4z" />
    <glyph glyph-name="quotedblleft" unicode="&#x201c;" horiz-adv-x="770" 
d="M535 1446l-27 -92q-4 2 -14 2q-61 0 -108.5 -31.5t-70.5 -87.5q2 2 17 2q55 0 89 -33.5t34 -85.5q0 -59 -42 -100t-100 -41q-61 0 -95 37.5t-34 103.5q0 131 86.5 230.5t206.5 99.5q8 0 58 -4zM870 1446l-26 -92q-4 2 -15 2q-60 0 -107.5 -31t-70.5 -88q2 2 17 2
q55 0 89 -33.5t34 -85.5q0 -59 -42 -100t-100 -41q-61 0 -95 37.5t-34 103.5q0 131 86.5 230.5t206.5 99.5q7 0 57 -4z" />
    <glyph glyph-name="quotedblright" unicode="&#x201d;" horiz-adv-x="778" 
d="M498 983l26 92q4 -2 15 -2q60 0 107.5 31t70.5 88q-2 -2 -17 -2q-55 0 -88.5 33.5t-33.5 85.5q0 59 41.5 100t99.5 41q61 0 95 -37.5t34 -103.5q0 -131 -86.5 -230.5t-206.5 -99.5q-7 0 -57 4zM154 983l26 92q4 -2 15 -2q60 0 107.5 31t70.5 88q-2 -2 -17 -2
q-55 0 -89 33.5t-34 85.5q0 59 42 100t100 41q61 0 95 -37.5t34 -103.5q0 -131 -86.5 -230.5t-206.5 -99.5q-7 0 -57 4z" />
    <glyph glyph-name="quotedblbase" unicode="&#x201e;" horiz-adv-x="780" 
d="M287 -219l26 92q4 -2 15 -2q60 0 107.5 31t70.5 88q-2 -2 -17 -2q-55 0 -88.5 33t-33.5 85q0 59 41.5 100.5t99.5 41.5q61 0 95 -38t34 -104q0 -131 -86.5 -230t-206.5 -99q-7 0 -57 4zM-57 -219l26 92q4 -2 15 -2q60 0 107.5 31t70.5 88q-2 -2 -17 -2q-55 0 -88.5 33
t-33.5 85q0 59 41.5 100.5t99.5 41.5q61 0 95 -38t34 -104q0 -131 -86.5 -230t-206.5 -99q-7 0 -57 4z" />
    <glyph glyph-name="dagger" unicode="&#x2020;" horiz-adv-x="645" 
d="M176 1100l25 143h182l33 191h147l-33 -191h179l-25 -143h-180l-68 -383h-147l67 383h-180z" />
    <glyph glyph-name="daggerdbl" unicode="&#x2021;" horiz-adv-x="645" 
d="M123 803l27 143h178l26 154h-178l25 143h180l33 191h149l-33 -191h179l-25 -143h-180l-27 -154h180l-26 -143h-178l-35 -199h-150l35 199h-180z" />
    <glyph glyph-name="bullet" unicode="&#x2022;" horiz-adv-x="663" 
d="M395 983q105 0 173.5 -66.5t68.5 -166.5q0 -121 -85 -206t-194 -85q-112 0 -180.5 67.5t-68.5 173.5q0 113 85.5 198t200.5 85z" />
    <glyph glyph-name="ellipsis" unicode="&#x2026;" horiz-adv-x="1101" 
d="M494 246q53 0 86.5 -33.5t33.5 -83.5q0 -60 -42 -102.5t-97 -42.5q-56 0 -90.5 33t-34.5 87q0 57 43.5 99.5t100.5 42.5zM844 246q53 0 87 -33.5t34 -83.5q0 -60 -42.5 -102.5t-97.5 -42.5q-56 0 -90.5 33t-34.5 87q0 57 43.5 99.5t100.5 42.5zM143 246q53 0 87 -33.5
t34 -83.5q0 -60 -42 -102.5t-97 -42.5q-56 0 -90.5 33t-34.5 87q0 57 43 99.5t100 42.5z" />
    <glyph glyph-name="perthousand" unicode="&#x2030;" horiz-adv-x="1955" 
d="M549 1448q114 0 187 -70.5t73 -177.5q0 -138 -105.5 -244t-240.5 -106q-114 0 -187 71.5t-73 178.5q0 138 105.5 243t240.5 105zM70 0l1261 1434h172l-1261 -1434h-172zM475 987q76 0 133 57q60 60 60 138q0 56 -36 92.5t-93 36.5q-78 0 -138 -60q-57 -57 -57 -135
q0 -56 37 -92.5t94 -36.5zM1116 584q67 0 123.5 -27.5t91.5 -77.5q105 105 244 105q112 0 185 -71.5t73 -178.5q0 -138 -104.5 -243t-241.5 -105q-140 0 -215 106q-106 -106 -244 -106q-112 0 -186 71.5t-74 180.5q0 136 106 241t242 105zM1040 123q79 0 136 57
q59 59 59 137q0 56 -37 92.5t-94 36.5q-76 0 -135 -59q-60 -60 -60 -135q0 -56 37 -92.5t94 -36.5zM1499 123q78 0 135 57q60 60 60 137q0 56 -37 92.5t-94 36.5q-76 0 -135.5 -61t-59.5 -133q0 -56 37 -92.5t94 -36.5z" />
    <glyph glyph-name="guilsinglleft" unicode="&#x2039;" horiz-adv-x="583" 
d="M76 537l291 376h219l-307 -393l176 -366h-197z" />
    <glyph glyph-name="guilsinglright" unicode="&#x203a;" horiz-adv-x="581" 
d="M12 154l305 393l-176 366h197l182 -383l-291 -376h-217z" />
    <glyph glyph-name="fraction" unicode="&#x2044;" horiz-adv-x="395" 
d="M-479 0l1261 1434h172l-1261 -1434h-172z" />
    <glyph glyph-name="uni2070" unicode="&#x2070;" horiz-adv-x="905" 
d="M645 1618q144 0 218.5 -92.5t74.5 -255.5q1 -118 -31.5 -230.5t-90 -200t-143.5 -139.5t-184 -49q-148 0 -221 91t-73 255q-2 164 51.5 305.5t158.5 230t240 85.5zM500 799q89 0 157.5 72t102 177t33.5 218q0 100 -41 153.5t-119 53.5q-91 0 -160 -70.5t-102 -175
t-33 -219.5q0 -209 162 -209z" />
    <glyph glyph-name="uni2074" unicode="&#x2074;" horiz-adv-x="841" 
d="M135 860l19 119l561 618h123l-107 -602h131l-24 -135h-131l-33 -188h-144l33 188h-428zM332 995h256l61 351z" />
    <glyph glyph-name="uni2075" unicode="&#x2075;" horiz-adv-x="843" 
d="M156 989l147 15q-6 -27 -6 -56q0 -74 44.5 -115.5t125.5 -41.5q101 0 165 64t64 159q0 66 -40.5 102.5t-114.5 36.5q-118 0 -189 -80l-125 39l140 485h536l-26 -139h-406l-63 -215q62 39 157 39q127 0 202 -68.5t75 -181.5q0 -162 -111 -270.5t-278 -108.5
q-144 0 -225 71t-81 189q0 41 9 76z" />
    <glyph glyph-name="uni2076" unicode="&#x2076;" horiz-adv-x="856" 
d="M629 1618q127 0 199.5 -67t72.5 -177q0 -29 -4 -49l-147 -18q6 21 6 45q0 61 -34.5 96t-100.5 35q-97 0 -168.5 -79t-108.5 -212q105 94 240 94q121 0 195.5 -72t74.5 -188q0 -155 -116 -265t-279 -110q-133 0 -213 85.5t-80 240.5q-2 159 54.5 306.5t165.5 243t243 91.5
zM475 791q98 0 164 63q70 64 70 160q0 66 -44.5 106.5t-117.5 40.5q-92 0 -158.5 -65.5t-66.5 -157.5q0 -64 41 -105.5t112 -41.5z" />
    <glyph glyph-name="uni2077" unicode="&#x2077;" horiz-adv-x="784" 
d="M238 1458l24 139h647l-22 -139q-140 -128 -275 -348q-132 -214 -190 -438h-150q57 210 170 420q119 216 252 366h-456z" />
    <glyph glyph-name="uni2078" unicode="&#x2078;" horiz-adv-x="888" 
d="M360 1180q-75 57 -75 147q0 123 103.5 206t250.5 83q121 0 195.5 -63t74.5 -162q0 -142 -137 -222q107 -68 107 -188q0 -93 -54.5 -168.5t-146.5 -117.5t-201 -42q-140 0 -225.5 68.5t-85.5 179.5q0 92 51.5 164.5t142.5 114.5zM573 1231q85 0 139 40.5t54 106.5
q0 51 -39.5 82t-105.5 31q-82 0 -137.5 -44t-55.5 -110q0 -47 39.5 -76.5t105.5 -29.5zM496 784q103 0 167 51.5t64 135.5q0 62 -47.5 98.5t-128.5 36.5q-100 0 -167 -53.5t-67 -134.5q0 -61 48.5 -97.5t130.5 -36.5z" />
    <glyph glyph-name="uni2079" unicode="&#x2079;" horiz-adv-x="851" 
d="M180 944l150 19q-1 -9 -2 -19.5t-1.5 -16t-0.5 -9.5q0 -63 34.5 -97.5t100.5 -34.5q96 0 168 79.5t110 213.5q-107 -96 -241 -96q-121 0 -196 72t-75 188q0 155 116 265t278 110q133 0 212.5 -84.5t79.5 -239.5q2 -118 -31.5 -234t-92.5 -208t-148 -148t-190 -53
q-127 0 -200 67t-73 177q0 39 2 49zM532 1110q93 0 160.5 64.5t67.5 156.5q0 65 -42 106.5t-114 41.5q-94 0 -166 -66q-67 -64 -67 -158q0 -66 44 -105.5t117 -39.5z" />
    <glyph glyph-name="uni2080" unicode="&#x2080;" horiz-adv-x="905" 
d="M496 772q144 0 218 -92.5t74 -255.5q1 -118 -31 -230.5t-89.5 -200t-143.5 -139.5t-184 -49q-148 0 -221.5 91.5t-73.5 255.5q-2 122 30 234.5t89 199t143.5 137.5t188.5 49zM350 -47q89 0 157.5 72t102 177t33.5 218q0 100 -41 153.5t-119 53.5q-91 0 -160 -70.5
t-102 -175t-33 -219.5q0 -209 162 -209z" />
    <glyph glyph-name="uni2081" unicode="&#x2081;" horiz-adv-x="526" 
d="M47 457l21 121q91 0 148 46.5t71 127.5h147l-164 -926h-143l111 631h-191z" />
    <glyph glyph-name="uni2082" unicode="&#x2082;" horiz-adv-x="831" 
d="M-31 -174l13 72q15 99 67 163q50 63 111.5 103t175.5 92l47 20q109 50 159 102.5t50 133.5q0 57 -38 90t-105 33q-62 0 -109.5 -24.5t-73 -63.5t-37 -82t-8.5 -84l-149 16q-2 67 22 131.5t70 120t124 89.5t175 34q128 0 202 -65.5t74 -176.5q0 -117 -65 -202.5
t-189 -151.5l-86 -43q-100 -46 -152.5 -83t-80.5 -87h481l-24 -137h-654z" />
    <glyph glyph-name="uni2083" unicode="&#x2083;" horiz-adv-x="860" 
d="M16 117l152 26q-8 -36 -8 -59q0 -64 42 -100.5t120 -36.5q103 0 166 52.5t63 137.5q0 57 -45 88t-129 31h-86l24 135h84q86 0 134.5 39t48.5 105q0 47 -36.5 72.5t-105.5 25.5q-78 0 -125.5 -41.5t-58.5 -106.5l-141 21q24 118 118 191t232 73q127 0 196.5 -57t69.5 -150
q0 -142 -127 -227q103 -59 103 -180q0 -67 -27.5 -129t-78 -111.5t-128.5 -79t-172 -29.5q-138 0 -214.5 66.5t-76.5 177.5q0 31 6 66z" />
    <glyph glyph-name="uni2084" unicode="&#x2084;" horiz-adv-x="841" 
d="M-14 14l18 119l561 619h123l-106 -602h131l-25 -136h-131l-33 -188h-143l33 188h-428zM182 150h256l62 350z" />
    <glyph glyph-name="uni2085" unicode="&#x2085;" horiz-adv-x="843" 
d="M6 143l148 15q-7 -31 -7 -56q0 -74 44.5 -115.5t125.5 -41.5q101 0 165.5 64t64.5 159q0 66 -41 102.5t-115 36.5q-117 0 -188 -80l-125 39l139 486h537l-27 -140h-405l-64 -215q62 39 158 39q127 0 201.5 -68.5t74.5 -181.5q0 -162 -111 -270.5t-278 -108.5
q-144 0 -224.5 71.5t-80.5 189.5q0 44 8 75z" />
    <glyph glyph-name="uni2086" unicode="&#x2086;" horiz-adv-x="856" 
d="M479 772q127 0 200 -67t73 -177q0 -29 -4 -49l-148 -18q6 21 6 45q0 61 -34.5 96t-100.5 35q-96 0 -167.5 -79t-108.5 -212q105 94 239 94q121 0 196 -72t75 -188q0 -155 -116.5 -265t-279.5 -110q-133 0 -213 85.5t-80 240.5q-2 159 54.5 306.5t165.5 243t243 91.5z
M326 -55q97 0 163 63q70 64 70 160q0 66 -44.5 106.5t-117.5 40.5q-92 0 -158.5 -65.5t-66.5 -157.5q0 -64 41.5 -105.5t112.5 -41.5z" />
    <glyph glyph-name="uni2087" unicode="&#x2087;" horiz-adv-x="784" 
d="M88 612l25 140h647l-23 -140q-137 -126 -274 -348q-134 -217 -191 -438h-149q57 210 170 420q119 216 252 366h-457z" />
    <glyph glyph-name="uni2088" unicode="&#x2088;" horiz-adv-x="888" 
d="M211 328q-76 58 -76 147q0 123 103.5 206t250.5 83q121 0 196 -63t75 -162q0 -142 -137 -222q106 -67 106 -188q0 -93 -54.5 -168.5t-146 -117.5t-200.5 -42q-140 0 -226 68.5t-86 179.5q0 91 51.5 164t143.5 115zM424 379q85 0 138.5 40.5t53.5 106.5q0 51 -39.5 82
t-105.5 31q-82 0 -137 -44t-55 -110q0 -47 39.5 -76.5t105.5 -29.5zM346 -68q103 0 167.5 51.5t64.5 135.5q0 62 -48 98.5t-129 36.5q-100 0 -166.5 -53.5t-66.5 -134.5q0 -62 48 -98t130 -36z" />
    <glyph glyph-name="uni2089" unicode="&#x2089;" horiz-adv-x="851" 
d="M31 98l149 19q-1 -9 -2 -19.5t-1.5 -16t-0.5 -9.5q0 -62 34 -96.5t101 -34.5q97 0 169 79t110 213q-107 -96 -242 -96q-121 0 -195.5 72t-74.5 188q0 155 115.5 265t277.5 110q134 0 213.5 -84t79.5 -239q2 -117 -32 -233.5t-93 -209t-148 -148.5t-190 -53
q-127 0 -199.5 67t-72.5 177q0 39 2 49zM383 264q93 0 160 64.5t67 156.5q0 65 -41.5 106.5t-113.5 41.5q-94 0 -166 -66q-68 -65 -68 -157q0 -66 44.5 -106t117.5 -40z" />
    <glyph glyph-name="Euro" unicode="&#x20ac;" horiz-adv-x="1699" 
d="M63 463l29 155h144q3 104 28 197h-139l29 156h163q103 222 308 358q203 135 452 135q241 0 388.5 -133t150.5 -348l-189 -43q0 156 -97.5 247t-268.5 91q-162 0 -302 -82t-227 -225h500l-67 -156h-504q-30 -102 -33 -197h451l-68 -155h-367q37 -144 149.5 -225.5
t278.5 -81.5q189 0 347.5 116t210.5 297l184 -51q-46 -159 -158.5 -284.5t-267.5 -195t-324 -69.5q-254 0 -417.5 132.5t-200.5 361.5h-183z" />
    <glyph glyph-name="trademark" unicode="&#x2122;" horiz-adv-x="1624" 
d="M213 1313l20 121h592l-20 -121h-234l-106 -596h-125l104 596h-231zM803 717l127 717h147l144 -574l344 574h157l-127 -717h-125l84 477l-286 -477h-133l-121 483l-86 -483h-125z" />
    <glyph glyph-name="uni2153" unicode="&#x2153;" horiz-adv-x="1945" 
d="M168 1139l20 121q91 0 148.5 46.5t71.5 127.5h147l-164 -926h-143l110 631h-190zM170 0l1262 1434h172l-1262 -1434h-172zM1133 291l151 26q-8 -36 -8 -59q0 -64 42 -100.5t120 -36.5q103 0 166 52.5t63 137.5q0 57 -45 88t-129 31h-86l25 135h84q86 0 134 38.5t48 105.5
q0 47 -36.5 72.5t-105.5 25.5q-78 0 -125.5 -41.5t-58.5 -106.5l-141 21q24 118 118 191t232 73q127 0 196.5 -57t69.5 -150q0 -142 -127 -227q103 -59 103 -180q0 -67 -27.5 -129t-78 -111t-128.5 -78.5t-172 -29.5q-138 0 -214.5 66t-76.5 177q0 26 7 66z" />
    <glyph glyph-name="uni2154" unicode="&#x2154;" horiz-adv-x="2209" 
d="M90 508l12 72q15 98 68 163q50 63 111.5 103t175.5 92l47 20q109 50 159 102.5t50 133.5q0 57 -38.5 90t-105.5 33q-50 0 -91 -16.5t-66.5 -43t-42.5 -60.5t-23 -68t-4 -66l-149 16q-2 67 22 131.5t70 120t124 89.5t175 34q128 0 202 -65.5t74 -176.5q0 -117 -65 -202.5
t-189 -151.5l-86 -43q-100 -46 -152.5 -83t-80.5 -87h481l-25 -137h-653zM434 0l1262 1434h172l-1262 -1434h-172zM1397 291l151 26q-8 -36 -8 -59q0 -64 42 -100.5t120 -36.5q103 0 166 52.5t63 137.5q0 57 -45 88t-129 31h-86l25 135h84q86 0 134 38.5t48 105.5
q0 47 -36 72.5t-105 25.5q-78 0 -126 -41.5t-59 -106.5l-141 21q24 118 118 191t232 73q127 0 196.5 -57t69.5 -150q0 -142 -126 -227q102 -58 102 -180q0 -67 -27.5 -129t-78 -111t-128.5 -78.5t-172 -29.5q-138 0 -214 66t-76 177q0 31 6 66z" />
    <glyph glyph-name="uni215F" unicode="&#x215f;" horiz-adv-x="1044" 
d="M168 1139l20 121q91 0 148.5 46.5t71.5 127.5h147l-164 -926h-143l110 631h-190zM170 0l1262 1434h172l-1262 -1434h-172z" />
    <glyph glyph-name="arrowleft" unicode="&#x2190;" horiz-adv-x="1318" 
d="M1257 526h-839l336 -336l-121 -120l-545 544l543 547l121 -123l-338 -340l843 2v-174z" />
    <glyph glyph-name="arrowup" unicode="&#x2191;" horiz-adv-x="1226" 
d="M96 655l545 545l547 -543l-121 -122l-342 337v-841h-172v837l-334 -333z" />
    <glyph glyph-name="arrowright" unicode="&#x2192;" horiz-adv-x="1320" 
d="M104 526v174l844 -2l-338 340l121 123l543 -547l-545 -544l-121 120l336 336h-840z" />
    <glyph glyph-name="arrowdown" unicode="&#x2193;" horiz-adv-x="1226" 
d="M82 575l123 121l334 -334v838h172v-842l342 338l121 -123l-547 -542z" />
    <glyph glyph-name="uni2196" unicode="&#x2196;" horiz-adv-x="1159" 
d="M1053 291l-121 -121l-594 594v-475h-172v770l770 2v-172l-479 -2z" />
    <glyph glyph-name="uni2197" unicode="&#x2197;" horiz-adv-x="1044" 
d="M51 291l596 596l-479 2v172l770 -2v-770h-172v475l-594 -594z" />
    <glyph glyph-name="uni2198" unicode="&#x2198;" horiz-adv-x="1157" 
d="M145 940l121 121l594 -594v475h172v-770l-770 -2v172l479 2z" />
    <glyph glyph-name="uni2199" unicode="&#x2199;" horiz-adv-x="1044" 
d="M1034 940l-596 -596l480 -2v-172l-771 2v770h172v-475l594 594z" />
    <glyph glyph-name="uni21A9" unicode="&#x21a9;" horiz-adv-x="1230" 
d="M88 612l471 473l123 -120l-264 -267h428q91 5 154 68.5t63 153.5q0 88 -62.5 153t-150.5 66v170q161 -3 271 -116t110 -273q0 -159 -112 -274t-273 -118h-430l266 -266l-121 -121z" />
    <glyph glyph-name="uni21AA" unicode="&#x21aa;" horiz-adv-x="1339" 
d="M1292 612l-473 -471l-121 121l267 266h-430q-161 3 -273 118t-112 274q0 160 109.5 273t270.5 116v-170q-88 -1 -150.5 -66t-62.5 -153q0 -90 63.5 -153.5t154.5 -68.5h428l-265 267l123 120z" />
    <glyph glyph-name="uni21B0" unicode="&#x21b0;" horiz-adv-x="1308" 
d="M1153 705v-703h-174v530h-563l338 -339l-121 -121l-543 544l545 545l121 -121l-336 -335h733z" />
    <glyph glyph-name="uni21B1" unicode="&#x21b1;" horiz-adv-x="1214" 
d="M104 705h734l-336 335l121 121l544 -545l-542 -544l-121 121l338 339h-563v-530h-175v703z" />
    <glyph glyph-name="uni21B2" unicode="&#x21b2;" horiz-adv-x="1212" 
d="M1151 526h-733l336 -336l-121 -120l-545 544l543 545l121 -121l-338 -340h563v531h174v-703z" />
    <glyph glyph-name="uni21B3" unicode="&#x21b3;" horiz-adv-x="1306" 
d="M197 526v703h174v-531h563l-338 340l121 121l543 -545l-545 -544l-121 120l336 336h-733z" />
    <glyph glyph-name="uni21B4" unicode="&#x21b4;" horiz-adv-x="1345" 
d="M197 1057v172h651l2 -787l334 334l121 -121l-543 -544l-547 542l121 121l342 -336l-2 619h-479z" />
    <glyph glyph-name="partialdiff" unicode="&#x2202;" 
d="M80 479q34 201 195.5 337t365.5 136q118 0 209.5 -47t142.5 -133q8 91 8 141q0 182 -68 273.5t-198 91.5q-140 0 -235.5 -86t-116.5 -219l-190 47q41 196 189 320t359 124q223 0 340 -141t117 -410q0 -116 -27 -278q-52 -302 -223 -485q-169 -181 -428 -181
q-197 0 -322.5 119.5t-125.5 300.5q0 35 8 90zM543 156q138 0 247.5 99t124.5 232q1 7 2 16t2 15.5t1 9.5q0 111 -73.5 181.5t-193.5 70.5q-142 0 -253 -94t-130 -231q-2 -10 -2 -45q0 -111 76 -182.5t199 -71.5z" />
    <glyph glyph-name="emptyset" unicode="&#x2205;" 
d="M139 322l101 100q-95 133 -95 295q-3 133 67.5 252.5t189 190t249.5 67.5q167 0 295 -94l101 100l120 -121l-98 -100q94 -128 94 -295q3 -134 -67 -253t-190 -189.5t-255 -67.5q-163 0 -291 94l-100 -100zM365 547l458 461q-74 45 -172 45q-140 0 -234.5 -97t-94.5 -239
q0 -97 43 -170zM651 381q141 0 237.5 97t96.5 239q0 97 -43 170l-459 -463q79 -43 168 -43z" />
    <glyph glyph-name="uni2206" unicode="&#x2206;" horiz-adv-x="1271" 
d="M-39 0l838 1434l317 -1434h-1155zM268 186h602l-159 772z" />
    <glyph glyph-name="product" unicode="&#x220f;" 
d="M33 0l254 1434h956l-254 -1434h-194l221 1245h-567l-222 -1245h-194z" />
    <glyph glyph-name="summation" unicode="&#x2211;" 
d="M12 0l31 172l594 547l-399 545l30 170h1022l-35 -195h-731l389 -524l-571 -520h729l-35 -195h-1024z" />
    <glyph glyph-name="minus" unicode="&#x2212;" 
d="M123 621l35 194h1024l-35 -194h-1024z" />
    <glyph glyph-name="uni2219" unicode="&#x2219;" 
d="M668 850q53 0 86.5 -33.5t33.5 -83.5q0 -60 -42 -102.5t-97 -42.5q-56 0 -90.5 33.5t-34.5 87.5q0 57 43.5 99t100.5 42z" />
    <glyph glyph-name="radical" unicode="&#x221a;" 
d="M61 621l35 194l152 -2l117 2l114 -577l658 1196h213l-797 -1434h-229l-115 621h-148z" />
    <glyph glyph-name="infinity" unicode="&#x221e;" 
d="M438 977q131 0 236 -152q152 152 287 152q99 0 160 -58.5t61 -152.5q0 -128 -93.5 -218.5t-220.5 -90.5q-69 0 -121 35.5t-112 117.5q-85 -80 -153 -116.5t-134 -36.5q-99 0 -159 58.5t-60 152.5q0 123 91 216t218 93zM375 604q42 0 82.5 25.5t109.5 87.5
q-47 63 -78 87.5t-75 24.5q-54 0 -93.5 -39.5t-39.5 -95.5q0 -39 26.5 -64.5t67.5 -25.5zM895 604q55 0 94 39t39 96q0 39 -26.5 64.5t-67.5 25.5q-83 0 -195 -112q42 -60 78 -86.5t78 -26.5z" />
    <glyph glyph-name="integral" unicode="&#x222b;" horiz-adv-x="847" 
d="M-127 -422l92 107q25 -31 84 -31q66 0 113 44t59 116l238 1345q25 139 111.5 221t213.5 82q61 0 109.5 -19t71.5 -52l-93 -107q-24 33 -86 33q-66 0 -112.5 -44t-57.5 -116l-237 -1345q-25 -138 -112.5 -222t-213.5 -84q-60 0 -107.5 19.5t-72.5 52.5z" />
    <glyph glyph-name="approxequal" unicode="&#x2248;" 
d="M395 621q108 0 254 -62q74 -27 106.5 -36t67.5 -9q51 0 94.5 26t94.5 87l133 -127q-149 -176 -320 -176q-102 0 -256 63q-78 28 -108 36.5t-60 8.5q-53 0 -98.5 -27t-97.5 -88l-123 129q77 93 151.5 134t161.5 41zM471 1112q110 0 254 -61q74 -27 106.5 -36t67.5 -9
q51 0 94 26t94 86l134 -127q-149 -176 -320 -176q-100 0 -256 64q-78 28 -108 36.5t-60 8.5q-53 0 -98.5 -27t-97.5 -88l-123 129q77 93 151.5 133.5t161.5 40.5z" />
    <glyph glyph-name="notequal" unicode="&#x2260;" 
d="M80 379l33 194h336l184 287h-467l33 195h559l147 229l158 -88l-90 -141h250l-33 -195h-342l-184 -287h473l-33 -194h-565l-150 -232l-158 86l95 146h-246z" />
    <glyph glyph-name="lessequal" unicode="&#x2264;" 
d="M160 836l37 213l2 8l1093 401l-41 -221l-809 -297l705 -311l-39 -213zM41 106l33 189h1024l-33 -189h-1024z" />
    <glyph glyph-name="greaterequal" unicode="&#x2265;" 
d="M90 422l37 215l807 297l-703 309l39 217l951 -420l-39 -215zM31 104l35 195h1024l-35 -195h-1024z" />
    <glyph glyph-name="uni2460" unicode="&#x2460;" horiz-adv-x="1724" 
d="M901 1464q148 3 287.5 -57t241 -161.5t162 -241t57.5 -287.5q3 -148 -57.5 -287.5t-162 -241t-241 -162t-287.5 -57.5q-148 -3 -287.5 57.5t-241 162t-161.5 241t-57 287.5q-2 119 35.5 233t108 207t163.5 163.5t207 108t233 35.5zM901 96q123 -2 238.5 48t199.5 134.5
t134 200t47 238.5q3 122 -47 237.5t-134 200t-199.5 134.5t-238.5 48q-164 3 -307.5 -82.5t-227.5 -230t-81 -307.5q-2 -123 47.5 -238.5t133 -200t198 -134.5t237.5 -48zM690 868v105q80 0 123 40.5t43 110.5h127v-809h-125v553h-168z" />
    <glyph glyph-name="uni2461" unicode="&#x2461;" horiz-adv-x="1724" 
d="M901 1464q148 3 287.5 -57t241 -161.5t162 -241t57.5 -287.5q3 -148 -57.5 -287.5t-162 -241t-241 -162t-287.5 -57.5q-148 -3 -287.5 57.5t-241 162t-161.5 241t-57 287.5q-2 119 35.5 233t108 207t163.5 163.5t207 108t233 35.5zM901 96q123 -2 238.5 48t199.5 134.5
t134 200t47 238.5q3 122 -47 237.5t-134 200t-199.5 134.5t-238.5 48q-164 3 -307.5 -82.5t-227.5 -230t-81 -307.5q-2 -123 47.5 -238.5t133 -200t198 -134.5t237.5 -48zM911 1133q125 0 202 -70.5t77 -185.5q-2 -49 -14.5 -87.5t-29.5 -65.5t-50.5 -54t-62 -44.5
t-79.5 -45.5q-82 -43 -121.5 -77t-56.5 -79h416v-119h-571v68q2 51 16 91.5t31.5 67.5t54 54.5t65 44t84.5 45.5q106 52 148.5 91.5t42.5 102.5q0 67 -41 105.5t-113 38.5q-82 0 -120.5 -44.5t-38.5 -117.5q0 -26 8 -57l-137 8q-7 28 -7 53q0 120 76 198.5t221 78.5z" />
    <glyph glyph-name="uni2462" unicode="&#x2462;" horiz-adv-x="1724" 
d="M901 1464q148 3 287.5 -57t241 -161.5t162 -241t57.5 -287.5q3 -148 -57.5 -287.5t-162 -241t-241 -162t-287.5 -57.5q-148 -3 -287.5 57.5t-241 162t-161.5 241t-57 287.5q-2 119 35.5 233t108 207t163.5 163.5t207 108t233 35.5zM901 96q123 -2 238.5 48t199.5 134.5
t134 200t47 238.5q3 122 -47 237.5t-134 200t-199.5 134.5t-238.5 48q-164 3 -307.5 -82.5t-227.5 -230t-81 -307.5q-2 -123 47.5 -238.5t133 -200t198 -134.5t237.5 -48zM588 571l131 19q-6 -76 36 -124t126 -48t131 39t47 106q0 63 -46 97t-128 34h-74v115h70
q68 0 105.5 30.5t37.5 80.5q0 48 -37 76t-104 28q-69 0 -105.5 -37t-36.5 -96l-123 20q0 100 72 165t191 65q127 0 197.5 -58t70.5 -151q0 -109 -82 -170q125 -66 125 -199q0 -114 -83.5 -189t-227.5 -75q-139 0 -218.5 77t-74.5 195z" />
    <glyph glyph-name="uni2463" unicode="&#x2463;" horiz-adv-x="1724" 
d="M901 1464q148 3 287.5 -57t241 -161.5t162 -241t57.5 -287.5q3 -148 -57.5 -287.5t-162 -241t-241 -162t-287.5 -57.5q-148 -3 -287.5 57.5t-241 162t-161.5 241t-57 287.5q-2 119 35.5 233t108 207t163.5 163.5t207 108t233 35.5zM901 96q123 -2 238.5 48t199.5 134.5
t134 200t47 238.5q3 122 -47 237.5t-134 200t-199.5 134.5t-238.5 48q-164 3 -307.5 -82.5t-227.5 -230t-81 -307.5q-2 -123 47.5 -238.5t133 -200t198 -134.5t237.5 -48zM555 479v107l397 538h107v-526h115v-119h-115v-164h-125v164h-379zM709 598h225v311z" />
    <glyph glyph-name="uni2464" unicode="&#x2464;" horiz-adv-x="1724" 
d="M901 1464q148 3 287.5 -57t241 -161.5t162 -241t57.5 -287.5q3 -148 -57.5 -287.5t-162 -241t-241 -162t-287.5 -57.5q-148 -3 -287.5 57.5t-241 162t-161.5 241t-57 287.5q-2 119 35.5 233t108 207t163.5 163.5t207 108t233 35.5zM901 96q123 -2 238.5 48t199.5 134.5
t134 200t47 238.5q3 122 -47 237.5t-134 200t-199.5 134.5t-238.5 48q-164 3 -307.5 -82.5t-227.5 -230t-81 -307.5q-2 -123 47.5 -238.5t133 -200t198 -134.5t237.5 -48zM594 596l127 18q-5 -87 43 -138.5t135 -51.5q79 0 123.5 45t44.5 119q0 72 -44.5 114.5t-119.5 42.5
q-98 0 -149 -69l-115 33l47 421h469v-118h-358l-23 -195q58 37 139 37q124 0 201.5 -73.5t77.5 -192.5q0 -128 -80 -205.5t-213 -77.5q-144 0 -227 82.5t-78 208.5z" />
    <glyph glyph-name="uni2465" unicode="&#x2465;" horiz-adv-x="1724" 
d="M901 1464q148 3 287.5 -57t241 -161.5t162 -241t57.5 -287.5q3 -148 -57.5 -287.5t-162 -241t-241 -162t-287.5 -57.5q-148 -3 -287.5 57.5t-241 162t-161.5 241t-57 287.5q-2 119 35.5 233t108 207t163.5 163.5t207 108t233 35.5zM901 96q123 -2 238.5 48t199.5 134.5
t134 200t47 238.5q3 122 -47 237.5t-134 200t-199.5 134.5t-238.5 48q-164 3 -307.5 -82.5t-227.5 -230t-81 -307.5q-2 -123 47.5 -238.5t133 -200t198 -134.5t237.5 -48zM897 1139q123 0 197.5 -70t76.5 -182l-124 -21q0 71 -39 114.5t-111 43.5q-81 0 -130.5 -66.5
t-59.5 -193.5q77 86 202 86q117 0 196 -77.5t79 -194.5q0 -119 -86 -200t-213 -81q-142 0 -226 102t-84 281q0 221 84 340t238 119zM887 416q75 0 123.5 47t48.5 119q0 69 -48.5 115t-121.5 46q-71 0 -118.5 -46.5t-47.5 -114.5q0 -70 46.5 -118t117.5 -48z" />
    <glyph glyph-name="uni2466" unicode="&#x2466;" horiz-adv-x="1724" 
d="M901 1464q148 3 287.5 -57t241 -161.5t162 -241t57.5 -287.5q3 -148 -57.5 -287.5t-162 -241t-241 -162t-287.5 -57.5q-148 -3 -287.5 57.5t-241 162t-161.5 241t-57 287.5q-2 119 35.5 233t108 207t163.5 163.5t207 108t233 35.5zM901 96q123 -2 238.5 48t199.5 134.5
t134 200t47 238.5q3 122 -47 237.5t-134 200t-199.5 134.5t-238.5 48q-164 3 -307.5 -82.5t-227.5 -230t-81 -307.5q-2 -123 47.5 -238.5t133 -200t198 -134.5t237.5 -48zM610 1004v118h570v-118q-103 -112 -187 -306q-82 -189 -100 -385h-129q18 185 88 371q68 180 168 320
h-410z" />
    <glyph glyph-name="uni2467" unicode="&#x2467;" horiz-adv-x="1724" 
d="M901 1464q148 3 287.5 -57t241 -161.5t162 -241t57.5 -287.5q3 -148 -57.5 -287.5t-162 -241t-241 -162t-287.5 -57.5q-148 -3 -287.5 57.5t-241 162t-161.5 241t-57 287.5q-2 119 35.5 233t108 207t163.5 163.5t207 108t233 35.5zM901 96q123 -2 238.5 48t199.5 134.5
t134 200t47 238.5q3 122 -47 237.5t-134 200t-199.5 134.5t-238.5 48q-164 3 -307.5 -82.5t-227.5 -230t-81 -307.5q-2 -123 47.5 -238.5t133 -200t198 -134.5t237.5 -48zM717 752q-88 58 -88 159q0 100 76 164t194 64q119 0 195.5 -64t76.5 -164t-86 -159
q58 -31 91.5 -83.5t33.5 -117.5q0 -112 -86 -183t-223 -71q-139 0 -224 70.5t-85 183.5q0 134 125 201zM899 801q67 0 108.5 31t41.5 81q0 54 -41 86.5t-109 32.5q-66 0 -105.5 -32.5t-39.5 -86.5q0 -50 39 -81t106 -31zM901 412q80 0 129 38t49 101t-49.5 103t-128.5 40
q-81 0 -130.5 -40t-49.5 -103t49 -101t131 -38z" />
    <glyph glyph-name="uni2468" unicode="&#x2468;" horiz-adv-x="1724" 
d="M901 1464q148 3 287.5 -57t241 -161.5t162 -241t57.5 -287.5q3 -148 -57.5 -287.5t-162 -241t-241 -162t-287.5 -57.5q-148 -3 -287.5 57.5t-241 162t-161.5 241t-57 287.5q-2 119 35.5 233t108 207t163.5 163.5t207 108t233 35.5zM901 96q123 -2 238.5 48t199.5 134.5
t134 200t47 238.5q3 122 -47 237.5t-134 200t-199.5 134.5t-238.5 48q-164 3 -307.5 -82.5t-227.5 -230t-81 -307.5q-2 -123 47.5 -238.5t133 -200t198 -134.5t237.5 -48zM907 1145q139 0 223 -101t84 -282q0 -221 -83.5 -341t-237.5 -120q-121 0 -195.5 71t-79.5 183
l125 23q0 -71 39.5 -115.5t110.5 -44.5q82 0 131 66t59 196q-75 -88 -202 -88q-117 0 -195 77t-78 195q0 119 86 200t213 81zM903 698q71 0 118.5 47t47.5 117t-47.5 117t-118.5 47q-73 0 -121.5 -47.5t-48.5 -116.5t48.5 -116.5t121.5 -47.5z" />
    <glyph glyph-name="uni24B6" unicode="&#x24b6;" horiz-adv-x="1724" 
d="M901 1464q148 3 287.5 -57t241 -161.5t162 -241t57.5 -287.5q3 -148 -57.5 -287.5t-162 -241t-241 -162t-287.5 -57.5q-148 -3 -287.5 57.5t-241 162t-161.5 241t-57 287.5q-2 119 35.5 233t108 207t163.5 163.5t207 108t233 35.5zM901 96q123 -2 238.5 48t199.5 134.5
t134 200t47 238.5q3 122 -47 237.5t-134 200t-199.5 134.5t-238.5 48q-164 3 -307.5 -82.5t-227.5 -230t-81 -307.5q-2 -123 47.5 -238.5t133 -200t198 -134.5t237.5 -48zM524 369l310 809h145l309 -809h-135l-84 219h-328l-84 -219h-133zM786 705h240l-121 315z" />
    <glyph glyph-name="uni24B7" unicode="&#x24b7;" horiz-adv-x="1724" 
d="M901 1464q148 3 287.5 -57t241 -161.5t162 -241t57.5 -287.5q3 -148 -57.5 -287.5t-162 -241t-241 -162t-287.5 -57.5q-148 -3 -287.5 57.5t-241 162t-161.5 241t-57 287.5q-2 119 35.5 233t108 207t163.5 163.5t207 108t233 35.5zM901 96q123 -2 238.5 48t199.5 134.5
t134 200t47 238.5q3 122 -47 237.5t-134 200t-199.5 134.5t-238.5 48q-164 3 -307.5 -82.5t-227.5 -230t-81 -307.5q-2 -123 47.5 -238.5t133 -200t198 -134.5t237.5 -48zM637 311v817h356q104 0 167 -59t63 -151q0 -57 -25.5 -104t-69.5 -73q57 -26 91 -80t34 -120
q0 -100 -66 -165t-173 -65h-377zM762 788h219q59 0 90 31t31 84q0 48 -33 78.5t-92 30.5h-215v-224zM762 430h229q62 0 97.5 34t35.5 89t-35 89t-96 34h-231v-246z" />
    <glyph glyph-name="uni24B8" unicode="&#x24b8;" horiz-adv-x="1724" 
d="M901 1464q148 3 287.5 -57t241 -161.5t162 -241t57.5 -287.5q3 -148 -57.5 -287.5t-162 -241t-241 -162t-287.5 -57.5q-148 -3 -287.5 57.5t-241 162t-161.5 241t-57 287.5q-2 119 35.5 233t108 207t163.5 163.5t207 108t233 35.5zM901 96q123 -2 238.5 48t199.5 134.5
t134 200t47 238.5q3 122 -47 237.5t-134 200t-199.5 134.5t-238.5 48q-164 3 -307.5 -82.5t-227.5 -230t-81 -307.5q-2 -123 47.5 -238.5t133 -200t198 -134.5t237.5 -48zM911 1143q136 0 231 -73t118 -196l-117 -36q-17 85 -78 133.5t-154 48.5q-122 0 -200 -84t-78 -203
q0 -140 79.5 -226.5t209.5 -86.5q104 0 177.5 60.5t80.5 156.5l125 -27q-15 -139 -123 -227q-107 -88 -258 -88q-187 0 -303.5 118.5t-116.5 303.5t112.5 305.5t294.5 120.5z" />
    <glyph glyph-name="uni24B9" unicode="&#x24b9;" horiz-adv-x="1724" 
d="M901 1464q148 3 287.5 -57t241 -161.5t162 -241t57.5 -287.5q3 -148 -57.5 -287.5t-162 -241t-241 -162t-287.5 -57.5q-148 -3 -287.5 57.5t-241 162t-161.5 241t-57 287.5q-2 119 35.5 233t108 207t163.5 163.5t207 108t233 35.5zM901 96q123 -2 238.5 48t199.5 134.5
t134 200t47 238.5q3 122 -47 237.5t-134 200t-199.5 134.5t-238.5 48q-164 3 -307.5 -82.5t-227.5 -230t-81 -307.5q-2 -123 47.5 -238.5t133 -200t198 -134.5t237.5 -48zM631 309v815h295q171 0 281 -117.5t110 -291.5q0 -173 -110 -289.5t-281 -116.5h-295zM756 434h170
q115 0 188.5 79t73.5 202q0 124 -73.5 204t-188.5 80h-170v-565z" />
    <glyph glyph-name="uni24BA" unicode="&#x24ba;" horiz-adv-x="1724" 
d="M901 1464q148 3 287.5 -57t241 -161.5t162 -241t57.5 -287.5q3 -148 -57.5 -287.5t-162 -241t-241 -162t-287.5 -57.5q-148 -3 -287.5 57.5t-241 162t-161.5 241t-57 287.5q-2 119 35.5 233t108 207t163.5 163.5t207 108t233 35.5zM901 96q123 -2 238.5 48t199.5 134.5
t134 200t47 238.5q3 122 -47 237.5t-134 200t-199.5 134.5t-238.5 48q-164 3 -307.5 -82.5t-227.5 -230t-81 -307.5q-2 -123 47.5 -238.5t133 -200t198 -134.5t237.5 -48zM618 313v809h566v-116h-443v-220h394v-118h-394v-238h443v-117h-566z" />
    <glyph glyph-name="uni24BB" unicode="&#x24bb;" horiz-adv-x="1724" 
d="M901 1464q148 3 287.5 -57t241 -161.5t162 -241t57.5 -287.5q3 -148 -57.5 -287.5t-162 -241t-241 -162t-287.5 -57.5q-148 -3 -287.5 57.5t-241 162t-161.5 241t-57 287.5q-2 119 35.5 233t108 207t163.5 163.5t207 108t233 35.5zM901 96q123 -2 238.5 48t199.5 134.5
t134 200t47 238.5q3 122 -47 237.5t-134 200t-199.5 134.5t-238.5 48q-164 3 -307.5 -82.5t-227.5 -230t-81 -307.5q-2 -123 47.5 -238.5t133 -200t198 -134.5t237.5 -48zM629 313v809h561v-116h-438v-242h389v-119h-389v-332h-123z" />
    <glyph glyph-name="uni24BC" unicode="&#x24bc;" horiz-adv-x="1724" 
d="M901 1464q148 3 287.5 -57t241 -161.5t162 -241t57.5 -287.5q3 -148 -57.5 -287.5t-162 -241t-241 -162t-287.5 -57.5q-148 -3 -287.5 57.5t-241 162t-161.5 241t-57 287.5q-2 119 35.5 233t108 207t163.5 163.5t207 108t233 35.5zM901 96q123 -2 238.5 48t199.5 134.5
t134 200t47 238.5q3 122 -47 237.5t-134 200t-199.5 134.5t-238.5 48q-164 3 -307.5 -82.5t-227.5 -230t-81 -307.5q-2 -123 47.5 -238.5t133 -200t198 -134.5t237.5 -48zM897 1147q139 0 234 -72.5t120 -195.5l-121 -37q-18 83 -79.5 132.5t-153.5 49.5q-122 0 -203 -84
q-78 -84 -78 -203q0 -141 80 -227t211 -86q78 0 140.5 37.5t91.5 103.5h-224v115h353v-363h-113v113q-88 -131 -272 -131q-171 0 -284.5 121t-113.5 301q0 185 114.5 305.5t297.5 120.5z" />
    <glyph glyph-name="uni24BD" unicode="&#x24bd;" horiz-adv-x="1724" 
d="M901 1464q148 3 287.5 -57t241 -161.5t162 -241t57.5 -287.5q3 -148 -57.5 -287.5t-162 -241t-241 -162t-287.5 -57.5q-148 -3 -287.5 57.5t-241 162t-161.5 241t-57 287.5q-2 119 35.5 233t108 207t163.5 163.5t207 108t233 35.5zM901 96q123 -2 238.5 48t199.5 134.5
t134 200t47 238.5q3 122 -47 237.5t-134 200t-199.5 134.5t-238.5 48q-164 3 -307.5 -82.5t-227.5 -230t-81 -307.5q-2 -123 47.5 -238.5t133 -200t198 -134.5t237.5 -48zM565 311v813h125v-338h428v338h125v-813h-125v357h-428v-357h-125z" />
    <glyph glyph-name="uni24BE" unicode="&#x24be;" horiz-adv-x="1724" 
d="M901 1464q148 3 287.5 -57t241 -161.5t162 -241t57.5 -287.5q3 -148 -57.5 -287.5t-162 -241t-241 -162t-287.5 -57.5q-148 -3 -287.5 57.5t-241 162t-161.5 241t-57 287.5q-2 119 35.5 233t108 207t163.5 163.5t207 108t233 35.5zM901 96q123 -2 238.5 48t199.5 134.5
t134 200t47 238.5q3 122 -47 237.5t-134 200t-199.5 134.5t-238.5 48q-164 3 -307.5 -82.5t-227.5 -230t-81 -307.5q-2 -123 47.5 -238.5t133 -200t198 -134.5t237.5 -48zM842 313v809h123v-809h-123z" />
    <glyph glyph-name="uni24BF" unicode="&#x24bf;" horiz-adv-x="1724" 
d="M901 1464q148 3 287.5 -57t241 -161.5t162 -241t57.5 -287.5q3 -148 -57.5 -287.5t-162 -241t-241 -162t-287.5 -57.5q-148 -3 -287.5 57.5t-241 162t-161.5 241t-57 287.5q-2 119 35.5 233t108 207t163.5 163.5t207 108t233 35.5zM901 96q123 -2 238.5 48t199.5 134.5
t134 200t47 238.5q3 122 -47 237.5t-134 200t-199.5 134.5t-238.5 48q-164 3 -307.5 -82.5t-227.5 -230t-81 -307.5q-2 -123 47.5 -238.5t133 -200t198 -134.5t237.5 -48zM549 649l121 17q-6 -34 -6 -62q0 -98 49 -147t129 -49q76 0 123 48.5t47 129.5v536h125v-536
q0 -134 -81 -215.5t-214 -81.5q-130 0 -214.5 76.5t-84.5 214.5q0 32 6 69z" />
    <glyph glyph-name="uni24C0" unicode="&#x24c0;" horiz-adv-x="1724" 
d="M901 1464q148 3 287.5 -57t241 -161.5t162 -241t57.5 -287.5q3 -148 -57.5 -287.5t-162 -241t-241 -162t-287.5 -57.5q-148 -3 -287.5 57.5t-241 162t-161.5 241t-57 287.5q-2 119 35.5 233t108 207t163.5 163.5t207 108t233 35.5zM901 96q123 -2 238.5 48t199.5 134.5
t134 200t47 238.5q3 122 -47 237.5t-134 200t-199.5 134.5t-238.5 48q-164 3 -307.5 -82.5t-227.5 -230t-81 -307.5q-2 -123 47.5 -238.5t133 -200t198 -134.5t237.5 -48zM575 313v809h119v-362l381 362h168l-366 -350l366 -459h-158l-299 373l-92 -88v-285h-119z" />
    <glyph glyph-name="uni24C1" unicode="&#x24c1;" horiz-adv-x="1724" 
d="M901 1464q148 3 287.5 -57t241 -161.5t162 -241t57.5 -287.5q3 -148 -57.5 -287.5t-162 -241t-241 -162t-287.5 -57.5q-148 -3 -287.5 57.5t-241 162t-161.5 241t-57 287.5q-2 119 35.5 233t108 207t163.5 163.5t207 108t233 35.5zM901 96q123 -2 238.5 48t199.5 134.5
t134 200t47 238.5q3 122 -47 237.5t-134 200t-199.5 134.5t-238.5 48q-164 3 -307.5 -82.5t-227.5 -230t-81 -307.5q-2 -123 47.5 -238.5t133 -200t198 -134.5t237.5 -48zM639 311v813h125v-694h438v-119h-563z" />
    <glyph glyph-name="uni24C2" unicode="&#x24c2;" horiz-adv-x="1724" 
d="M901 1464q148 3 287.5 -57t241 -161.5t162 -241t57.5 -287.5q3 -148 -57.5 -287.5t-162 -241t-241 -162t-287.5 -57.5q-148 -3 -287.5 57.5t-241 162t-161.5 241t-57 287.5q-2 119 35.5 233t108 207t163.5 163.5t207 108t233 35.5zM901 96q123 -2 238.5 48t199.5 134.5
t134 200t47 238.5q3 122 -47 237.5t-134 200t-199.5 134.5t-238.5 48q-164 3 -307.5 -82.5t-227.5 -230t-81 -307.5q-2 -123 47.5 -238.5t133 -200t198 -134.5t237.5 -48zM510 311v813h152l241 -653l238 653h151v-813h-121v568l-208 -568h-123l-209 570l-2 -570h-119z" />
    <glyph glyph-name="uni24C3" unicode="&#x24c3;" horiz-adv-x="1724" 
d="M901 1464q148 3 287.5 -57t241 -161.5t162 -241t57.5 -287.5q3 -148 -57.5 -287.5t-162 -241t-241 -162t-287.5 -57.5q-148 -3 -287.5 57.5t-241 162t-161.5 241t-57 287.5q-2 119 35.5 233t108 207t163.5 163.5t207 108t233 35.5zM901 96q123 -2 238.5 48t199.5 134.5
t134 200t47 238.5q3 122 -47 237.5t-134 200t-199.5 134.5t-238.5 48q-164 3 -307.5 -82.5t-227.5 -230t-81 -307.5q-2 -123 47.5 -238.5t133 -200t198 -134.5t237.5 -48zM555 313v809h158l405 -616v616h125v-809h-145l-418 637l-2 -637h-123z" />
    <glyph glyph-name="uni24C4" unicode="&#x24c4;" horiz-adv-x="1724" 
d="M901 1464q148 3 287.5 -57t241 -161.5t162 -241t57.5 -287.5q3 -148 -57.5 -287.5t-162 -241t-241 -162t-287.5 -57.5q-148 -3 -287.5 57.5t-241 162t-161.5 241t-57 287.5q-2 119 35.5 233t108 207t163.5 163.5t207 108t233 35.5zM901 96q123 -2 238.5 48t199.5 134.5
t134 200t47 238.5q3 122 -47 237.5t-134 200t-199.5 134.5t-238.5 48q-164 3 -307.5 -82.5t-227.5 -230t-81 -307.5q-2 -123 47.5 -238.5t133 -200t198 -134.5t237.5 -48zM903 1141q179 0 295.5 -122.5t116.5 -303.5q0 -177 -117 -299.5t-295 -122.5q-179 0 -297.5 122.5
t-118.5 299.5q0 181 118 303.5t298 122.5zM905 420q123 0 202 83t79 212t-79 214t-202 85q-124 0 -207 -86q-80 -83 -80 -213q0 -129 80 -212t207 -83z" />
    <glyph glyph-name="uni24C5" unicode="&#x24c5;" horiz-adv-x="1724" 
d="M901 1464q148 3 287.5 -57t241 -161.5t162 -241t57.5 -287.5q3 -148 -57.5 -287.5t-162 -241t-241 -162t-287.5 -57.5q-148 -3 -287.5 57.5t-241 162t-161.5 241t-57 287.5q-2 119 35.5 233t108 207t163.5 163.5t207 108t233 35.5zM901 96q123 -2 238.5 48t199.5 134.5
t134 200t47 238.5q3 122 -47 237.5t-134 200t-199.5 134.5t-238.5 48q-164 3 -307.5 -82.5t-227.5 -230t-81 -307.5q-2 -123 47.5 -238.5t133 -200t198 -134.5t237.5 -48zM641 311v813h354q115 0 183.5 -67t68.5 -174q0 -111 -68 -178.5t-184 -67.5h-229v-326h-125zM766 758
h221q66 0 100.5 32.5t34.5 92.5q0 58 -35 90.5t-100 32.5h-221v-248z" />
    <glyph glyph-name="uni24C6" unicode="&#x24c6;" horiz-adv-x="1724" 
d="M901 1464q148 3 287.5 -57t241 -161.5t162 -241t57.5 -287.5q3 -148 -57.5 -287.5t-162 -241t-241 -162t-287.5 -57.5q-148 -3 -287.5 57.5t-241 162t-161.5 241t-57 287.5q-2 119 35.5 233t108 207t163.5 163.5t207 108t233 35.5zM901 96q157 0 297 76q-46 13 -79 49
t-66 98q-67 -24 -148 -24q-182 0 -299 122t-117 300q0 181 117 302.5t299 121.5q178 0 295 -122t117 -302q0 -106 -42 -194.5t-120 -145.5q28 -55 55 -80t66 -25q36 0 56.5 12.5t58.5 53.5q129 167 129 379q3 122 -47 237.5t-134 200t-199.5 134.5t-238.5 48
q-164 3 -307.5 -82.5t-227.5 -230t-81 -307.5q-2 -123 47.5 -238.5t133 -200t198 -134.5t237.5 -48zM764 455q14 62 59.5 99.5t108.5 37.5q58 0 96.5 -24t69.5 -74q90 87 90 223q0 129 -80 214t-203 85q-124 0 -207 -86q-80 -83 -80 -213q0 -87 39 -156t107 -106zM905 422
q54 0 92 14q-30 53 -67 53q-27 0 -45 -17.5t-19 -47.5q8 -2 39 -2z" />
    <glyph glyph-name="uni24C7" unicode="&#x24c7;" horiz-adv-x="1724" 
d="M901 1464q148 3 287.5 -57t241 -161.5t162 -241t57.5 -287.5q3 -148 -57.5 -287.5t-162 -241t-241 -162t-287.5 -57.5q-148 -3 -287.5 57.5t-241 162t-161.5 241t-57 287.5q-2 119 35.5 233t108 207t163.5 163.5t207 108t233 35.5zM901 96q123 -2 238.5 48t199.5 134.5
t134 200t47 238.5q3 122 -47 237.5t-134 200t-199.5 134.5t-238.5 48q-164 3 -307.5 -82.5t-227.5 -230t-81 -307.5q-2 -123 47.5 -238.5t133 -200t198 -134.5t237.5 -48zM618 311v813h361q116 0 185 -67t69 -174q0 -85 -42.5 -146t-117.5 -86l162 -342h-137l-152 328h-203
v-326h-125zM743 758h230q63 0 99 32.5t36 92.5q0 56 -36 89.5t-99 33.5h-230v-248z" />
    <glyph glyph-name="uni24C8" unicode="&#x24c8;" horiz-adv-x="1724" 
d="M901 1464q148 3 287.5 -57t241 -161.5t162 -241t57.5 -287.5q3 -148 -57.5 -287.5t-162 -241t-241 -162t-287.5 -57.5q-148 -3 -287.5 57.5t-241 162t-161.5 241t-57 287.5q-2 119 35.5 233t108 207t163.5 163.5t207 108t233 35.5zM901 96q123 -2 238.5 48t199.5 134.5
t134 200t47 238.5q3 122 -47 237.5t-134 200t-199.5 134.5t-238.5 48q-164 3 -307.5 -82.5t-227.5 -230t-81 -307.5q-2 -123 47.5 -238.5t133 -200t198 -134.5t237.5 -48zM557 586l121 41q19 -100 78 -154.5t149 -54.5q86 0 135.5 35.5t49.5 97.5q0 104 -203 127
q-281 27 -281 244q0 97 81 159t206 62q112 0 194 -64t107 -170l-121 -49q-17 72 -65.5 115t-114.5 43q-69 0 -113.5 -27.5t-44.5 -70.5q0 -52 40 -81t130 -36q318 -27 318 -248q0 -117 -88 -189.5t-230 -72.5q-139 0 -232 78.5t-116 214.5z" />
    <glyph glyph-name="uni24C9" unicode="&#x24c9;" horiz-adv-x="1724" 
d="M901 1464q148 3 287.5 -57t241 -161.5t162 -241t57.5 -287.5q3 -148 -57.5 -287.5t-162 -241t-241 -162t-287.5 -57.5q-148 -3 -287.5 57.5t-241 162t-161.5 241t-57 287.5q-2 119 35.5 233t108 207t163.5 163.5t207 108t233 35.5zM901 96q123 -2 238.5 48t199.5 134.5
t134 200t47 238.5q3 122 -47 237.5t-134 200t-199.5 134.5t-238.5 48q-164 3 -307.5 -82.5t-227.5 -230t-81 -307.5q-2 -123 47.5 -238.5t133 -200t198 -134.5t237.5 -48zM573 1006v118h658v-118h-266v-695h-125v695h-267z" />
    <glyph glyph-name="uni24CA" unicode="&#x24ca;" horiz-adv-x="1724" 
d="M901 1464q148 3 287.5 -57t241 -161.5t162 -241t57.5 -287.5q3 -148 -57.5 -287.5t-162 -241t-241 -162t-287.5 -57.5q-148 -3 -287.5 57.5t-241 162t-161.5 241t-57 287.5q-2 119 35.5 233t108 207t163.5 163.5t207 108t233 35.5zM901 96q123 -2 238.5 48t199.5 134.5
t134 200t47 238.5q3 122 -47 237.5t-134 200t-199.5 134.5t-238.5 48q-164 3 -307.5 -82.5t-227.5 -230t-81 -307.5q-2 -123 47.5 -238.5t133 -200t198 -134.5t237.5 -48zM573 623v499h127v-497q0 -97 55.5 -154t147.5 -57t146.5 57t54.5 154v497h125v-499
q0 -147 -90 -239.5t-236 -92.5q-147 0 -239 92q-91 97 -91 240z" />
    <glyph glyph-name="uni24CB" unicode="&#x24cb;" horiz-adv-x="1724" 
d="M901 1464q148 3 287.5 -57t241 -161.5t162 -241t57.5 -287.5q3 -148 -57.5 -287.5t-162 -241t-241 -162t-287.5 -57.5q-148 -3 -287.5 57.5t-241 162t-161.5 241t-57 287.5q-2 119 35.5 233t108 207t163.5 163.5t207 108t233 35.5zM901 96q123 -2 238.5 48t199.5 134.5
t134 200t47 238.5q3 122 -47 237.5t-134 200t-199.5 134.5t-238.5 48q-164 3 -307.5 -82.5t-227.5 -230t-81 -307.5q-2 -123 47.5 -238.5t133 -200t198 -134.5t237.5 -48zM526 1122h136l237 -655l238 655h137l-297 -811h-154z" />
    <glyph glyph-name="uni24CC" unicode="&#x24cc;" horiz-adv-x="1724" 
d="M901 1464q148 3 287.5 -57t241 -161.5t162 -241t57.5 -287.5q3 -148 -57.5 -287.5t-162 -241t-241 -162t-287.5 -57.5q-148 -3 -287.5 57.5t-241 162t-161.5 241t-57 287.5q-2 119 35.5 233t108 207t163.5 163.5t207 108t233 35.5zM901 96q123 -2 238.5 48t199.5 134.5
t134 200t47 238.5q3 122 -47 237.5t-134 200t-199.5 134.5t-238.5 48q-164 3 -307.5 -82.5t-227.5 -230t-81 -307.5q-2 -123 47.5 -238.5t133 -200t198 -134.5t237.5 -48zM475 1124h119l119 -598l125 598h116l125 -602l121 602h119l-168 -813h-137l-117 566l-117 -566h-137z
" />
    <glyph glyph-name="uni24CD" unicode="&#x24cd;" horiz-adv-x="1724" 
d="M901 1464q148 3 287.5 -57t241 -161.5t162 -241t57.5 -287.5q3 -148 -57.5 -287.5t-162 -241t-241 -162t-287.5 -57.5q-148 -3 -287.5 57.5t-241 162t-161.5 241t-57 287.5q-2 119 35.5 233t108 207t163.5 163.5t207 108t233 35.5zM901 96q123 -2 238.5 48t199.5 134.5
t134 200t47 238.5q3 122 -47 237.5t-134 200t-199.5 134.5t-238.5 48q-164 3 -307.5 -82.5t-227.5 -230t-81 -307.5q-2 -123 47.5 -238.5t133 -200t198 -134.5t237.5 -48zM686 311h-164l299 406l-299 405h164l217 -295l215 295h164l-297 -405l297 -406h-164l-215 295z" />
    <glyph glyph-name="uni24CE" unicode="&#x24ce;" horiz-adv-x="1724" 
d="M901 1464q148 3 287.5 -57t241 -161.5t162 -241t57.5 -287.5q3 -148 -57.5 -287.5t-162 -241t-241 -162t-287.5 -57.5q-148 -3 -287.5 57.5t-241 162t-161.5 241t-57 287.5q-2 119 35.5 233t108 207t163.5 163.5t207 108t233 35.5zM901 96q123 -2 238.5 48t199.5 134.5
t134 200t47 238.5q3 122 -47 237.5t-134 200t-199.5 134.5t-238.5 48q-164 3 -307.5 -82.5t-227.5 -230t-81 -307.5q-2 -123 47.5 -238.5t133 -200t198 -134.5t237.5 -48zM526 1124h142l229 -366l227 366h144l-310 -495v-318h-122v318z" />
    <glyph glyph-name="uni24CF" unicode="&#x24cf;" horiz-adv-x="1724" 
d="M901 1464q148 3 287.5 -57t241 -161.5t162 -241t57.5 -287.5q3 -148 -57.5 -287.5t-162 -241t-241 -162t-287.5 -57.5q-148 -3 -287.5 57.5t-241 162t-161.5 241t-57 287.5q-2 119 35.5 233t108 207t163.5 163.5t207 108t233 35.5zM901 96q123 -2 238.5 48t199.5 134.5
t134 200t47 238.5q3 122 -47 237.5t-134 200t-199.5 134.5t-238.5 48q-164 3 -307.5 -82.5t-227.5 -230t-81 -307.5q-2 -123 47.5 -238.5t133 -200t198 -134.5t237.5 -48zM575 311v119l480 576h-480v118h644v-118l-482 -576h482v-119h-644z" />
    <glyph glyph-name="uni24EA" unicode="&#x24ea;" horiz-adv-x="1724" 
d="M901 1464q148 3 287.5 -57t241 -161.5t162 -241t57.5 -287.5q3 -148 -57.5 -287.5t-162 -241t-241 -162t-287.5 -57.5q-148 -3 -287.5 57.5t-241 162t-161.5 241t-57 287.5q-2 119 35.5 233t108 207t163.5 163.5t207 108t233 35.5zM901 96q123 -2 238.5 48t199.5 134.5
t134 200t47 238.5q3 122 -47 237.5t-134 200t-199.5 134.5t-238.5 48q-164 3 -307.5 -82.5t-227.5 -230t-81 -307.5q-2 -123 47.5 -238.5t133 -200t198 -134.5t237.5 -48zM905 1145q154 0 235 -113.5t81 -302.5q0 -195 -81 -311.5t-235 -116.5t-234.5 116t-80.5 312
q0 190 80.5 303t234.5 113zM905 426q91 0 140 76.5t49 224.5q0 139 -50.5 216t-138.5 77t-138 -76.5t-50 -216.5q0 -147 48.5 -224t139.5 -77z" />
    <glyph glyph-name="uni258A" unicode="&#x258a;" horiz-adv-x="1196" 
d="M49 0l254 1434h922l-254 -1434h-922z" />
    <glyph glyph-name="lozenge" unicode="&#x25ca;" 
d="M115 717l547 717h235l297 -717l-547 -717h-235zM342 702l211 -516l414 543l-211 518z" />
    <glyph glyph-name="circle" unicode="&#x25cb;" horiz-adv-x="1724" 
d="M901 1464q148 3 287.5 -57t241 -161.5t162 -241t57.5 -287.5q3 -148 -57.5 -287.5t-162 -241t-241 -162t-287.5 -57.5q-148 -3 -287.5 57.5t-241 162t-161.5 241t-57 287.5q-2 119 35.5 233t108 207t163.5 163.5t207 108t233 35.5zM901 96q123 -2 238.5 48t199.5 134.5
t134 200t47 238.5q3 122 -47 237.5t-134 200t-199.5 134.5t-238.5 48q-164 3 -307.5 -82.5t-227.5 -230t-81 -307.5q-2 -123 47.5 -238.5t133 -200t198 -134.5t237.5 -48z" />
    <glyph glyph-name="uni25D0" unicode="&#x25d0;" 
d="M635 1124q133 3 252.5 -67.5t190 -190t67.5 -252.5q3 -133 -67.5 -252.5t-190 -190t-252.5 -67.5q-133 -3 -252 67.5t-189 190t-67 252.5q-3 133 67 252.5t189 190t252 67.5zM641 125v90q164 3 276.5 115.5t112.5 283.5q0 170 -113 283.5t-276 116.5v90q-127 3 -241 -65
t-181 -182.5t-65 -242.5q-1 -96 38.5 -187t105.5 -157.5t157 -106.5t186 -38zM635 215q-166 0 -279.5 113.5t-113.5 285.5t113.5 286t279.5 114h4v-799h-4z" />
    <glyph glyph-name="smileface" unicode="&#x263a;" horiz-adv-x="1738" 
d="M907 1464q148 3 287.5 -57t241 -161.5t162 -241t57.5 -287.5q3 -148 -57.5 -287.5t-162 -241t-241 -162t-287.5 -57.5q-148 -3 -287.5 57.5t-241 162t-161.5 241t-57 287.5q-2 119 35.5 233t108 207t163.5 163.5t207 108t233 35.5zM907 102q121 -3 236 46.5t199.5 133.5
t134.5 199t47 236q3 121 -47 235.5t-134.5 198t-199.5 133t-236 47.5q-121 2 -235.5 -47.5t-198.5 -133t-133.5 -198t-46.5 -235.5q-2 -97 29 -191t89 -170.5t134.5 -135t170.5 -89.5t191 -29zM678 969q52 0 88.5 -36.5t36.5 -90.5q0 -51 -37 -88t-88 -37t-89 37t-38 88
q0 53 37.5 90t89.5 37zM1137 969q54 0 90.5 -36.5t36.5 -90.5q0 -51 -38 -88t-89 -37t-88 37t-37 88q0 54 37 90.5t88 36.5z" />
    <glyph glyph-name="uni2713" unicode="&#x2713;" horiz-adv-x="1155" 
d="M70 508l141 84l233 -420l637 1262l158 -78l-698 -1356h-185z" />
    <glyph glyph-name="uni2B0F" unicode="&#x2b0f;" 
d="M84 283h479l2 618l-342 -336l-121 121l547 543l543 -545l-121 -121l-334 334l-2 -786h-651v172z" />
    <glyph glyph-name="uni2B10" unicode="&#x2b10;" horiz-adv-x="1224" 
d="M1204 1057h-479l-2 -619l342 336l121 -121l-547 -542l-543 544l121 121l334 -334l2 787h651v-172z" />
    <glyph glyph-name="uni2B11" unicode="&#x2b11;" horiz-adv-x="1345" 
d="M1208 283v-172h-651l-2 786l-334 -334l-121 121l543 545l547 -543l-121 -121l-342 336l2 -618h479z" />
    <glyph glyph-name="I.ss04" horiz-adv-x="1167" 
d="M-4 0l35 186h401l189 1061h-404l33 187h1001l-34 -187h-402l-188 -1061h403l-33 -186h-1001z" />
    <glyph glyph-name="Iacute.ss04" horiz-adv-x="1167" 
d="M-4 0l35 186h401l189 1061h-404l33 187h1001l-34 -187h-402l-188 -1061h403l-33 -186h-1001zM682 1579l186 262h267l-267 -262h-186z" />
    <glyph glyph-name="Ibreve.ss04" horiz-adv-x="1167" 
d="M-4 0l35 186h401l189 1061h-404l33 187h1001l-34 -187h-402l-188 -1061h403l-33 -186h-1001zM524 1841h150q-5 -56 23 -89.5t83 -33.5t94.5 33.5t53.5 89.5h147q-25 -118 -107 -190t-198 -72q-109 0 -178.5 64.5t-69.5 164.5q0 25 2 33z" />
    <glyph glyph-name="Icircumflex.ss04" horiz-adv-x="1167" 
d="M-4 0l35 186h401l189 1061h-404l33 187h1001l-34 -187h-402l-188 -1061h403l-33 -186h-1001zM475 1579l234 262h209l141 -262h-176l-92 129l-136 -129h-180z" />
    <glyph glyph-name="Idieresis.ss04" horiz-adv-x="1167" 
d="M-4 0l35 186h401l189 1061h-404l33 187h1001l-34 -187h-402l-188 -1061h403l-33 -186h-1001zM627 1843q54 0 89.5 -34.5t35.5 -88.5q0 -58 -44.5 -102.5t-103.5 -44.5q-52 0 -87.5 35.5t-35.5 89.5q0 57 44.5 101t101.5 44zM989 1843q55 0 90 -35.5t35 -89.5
q0 -58 -44 -101.5t-103 -43.5q-51 0 -86 34.5t-35 88.5q0 58 42 102.5t101 44.5z" />
    <glyph glyph-name="Idotaccent.ss04" horiz-adv-x="1167" 
d="M-4 0l35 186h401l189 1061h-404l33 187h1001l-34 -187h-402l-188 -1061h403l-33 -186h-1001zM807 1835q49 0 83 -34.5t34 -84.5q0 -52 -41.5 -93.5t-96.5 -41.5q-51 0 -84.5 34t-33.5 85q0 55 41.5 95t97.5 40z" />
    <glyph glyph-name="Igrave.ss04" horiz-adv-x="1167" 
d="M-4 0l35 186h401l189 1061h-404l33 187h1001l-34 -187h-402l-188 -1061h403l-33 -186h-1001zM510 1841h258l96 -262h-180z" />
    <glyph glyph-name="Imacron.ss04" horiz-adv-x="1167" 
d="M-4 0l35 186h401l189 1061h-404l33 187h1001l-34 -187h-402l-188 -1061h403l-33 -186h-1001zM496 1610l28 157h566l-29 -157h-565z" />
    <glyph glyph-name="Iogonek.ss04" horiz-adv-x="1167" 
d="M-4 0l35 186h401l189 1061h-404l33 187h1001l-34 -187h-402l-188 -1061h403l-33 -186q-69 -27 -115 -71t-46 -87q0 -75 100 -78l-25 -137q-112 0 -174.5 46.5t-62.5 133.5q0 117 117 193h-795z" />
    <glyph glyph-name="Itilde.ss04" horiz-adv-x="1167" 
d="M-4 0l35 186h401l189 1061h-404l33 187h1001l-34 -187h-402l-188 -1061h403l-33 -186h-1001zM684 1823q64 0 129 -41q40 -21 57.5 -27t40.5 -6q62 0 115 84l107 -86q-41 -77 -101.5 -117.5t-130.5 -40.5q-64 0 -139 43q-60 31 -88 31q-64 0 -109 -80l-112 82
q84 158 231 158z" />
    <glyph glyph-name="i.loclTRK" horiz-adv-x="440" 
d="M35 0l174 987h194l-174 -987h-194zM369 1409q53 0 86.5 -34.5t33.5 -86.5q0 -54 -42 -96.5t-97 -42.5t-89 34.5t-34 86.5q0 55 43 97t99 42z" />
    <glyph glyph-name="i.ss01" horiz-adv-x="1058" 
d="M-4 0l33 176h348l112 635h-348l29 176h545l-27 -151l-4 -25l-113 -635h351l-31 -176h-895zM672 1409q53 0 87 -34.5t34 -86.5q0 -54 -42.5 -96.5t-97.5 -42.5t-89 34.5t-34 86.5q0 55 43 97t99 42z" />
    <glyph glyph-name="dotlessi.ss01" horiz-adv-x="1058" 
d="M-4 0l33 176h348l112 635h-348l29 176h545l-27 -151l-4 -25l-113 -635h351l-31 -176h-895z" />
    <glyph glyph-name="iacute.ss01" horiz-adv-x="1058" 
d="M-4 0l33 176h348l112 635h-348l29 176h545l-27 -151l-4 -25l-113 -635h351l-31 -176h-895zM537 1145l184 262h266l-266 -262h-184z" />
    <glyph glyph-name="ibreve.ss01" horiz-adv-x="1058" 
d="M-4 0l33 176h348l112 635h-348l29 176h545l-27 -151l-4 -25l-113 -635h351l-31 -176h-895zM410 1407h147q-5 -56 24 -88.5t83 -32.5q56 0 95.5 32.5t53.5 88.5h148q-25 -118 -107.5 -190t-198.5 -72q-108 0 -177.5 64.5t-69.5 164.5q0 27 2 33z" />
    <glyph glyph-name="icircumflex.ss01" horiz-adv-x="1058" 
d="M-4 0l33 176h348l112 635h-348l29 176h545l-27 -151l-4 -25l-113 -635h351l-31 -176h-895zM328 1145l235 262h207l141 -262h-176l-90 129l-137 -129h-180z" />
    <glyph glyph-name="idieresis.ss01" horiz-adv-x="1058" 
d="M-4 0l33 176h348l112 635h-348l29 176h545l-27 -151l-4 -25l-113 -635h351l-31 -176h-895zM504 1401q51 0 84 -33t33 -84q0 -54 -41.5 -95.5t-98.5 -41.5q-49 0 -81.5 33.5t-32.5 83.5q0 56 40.5 96.5t96.5 40.5zM838 1401q51 0 83.5 -33t32.5 -84q0 -54 -41 -95.5
t-96 -41.5q-51 0 -83 34t-32 85q0 55 40 95t96 40z" />
    <glyph glyph-name="i.loclTRK.ss01" horiz-adv-x="1058" 
d="M-4 0l33 176h348l112 635h-348l29 176h545l-27 -151l-4 -25l-113 -635h351l-31 -176h-895zM672 1409q53 0 87 -34.5t34 -86.5q0 -54 -42.5 -96.5t-97.5 -42.5t-89 34.5t-34 86.5q0 55 43 97t99 42z" />
    <glyph glyph-name="igrave.ss01" horiz-adv-x="1058" 
d="M-4 0l33 176h348l112 635h-348l29 176h545l-27 -151l-4 -25l-113 -635h351l-31 -176h-895zM369 1407h258l96 -262h-180z" />
    <glyph glyph-name="imacron.ss01" horiz-adv-x="1058" 
d="M-4 0l33 176h348l112 635h-348l29 176h545l-27 -151l-4 -25l-113 -635h351l-31 -176h-895zM430 1198l29 158h442l-29 -158h-442z" />
    <glyph glyph-name="iogonek.ss01" horiz-adv-x="1058" 
d="M672 1409q53 0 87 -34.5t34 -86.5q0 -54 -42.5 -96.5t-97.5 -42.5t-89 34.5t-34 86.5q0 55 43 97t99 42zM-4 0l33 176h348l112 635h-348l29 176h545l-144 -811h351l-31 -176q-69 -27 -115.5 -71t-46.5 -87q0 -75 100 -78l-22 -137q-112 0 -176 46.5t-64 133.5
q0 117 117 193h-688z" />
    <glyph glyph-name="itilde.ss01" horiz-adv-x="1058" 
d="M-4 0l33 176h348l112 635h-348l29 176h545l-27 -151l-4 -25l-113 -635h351l-31 -176h-895zM557 1391q64 0 131 -39q56 -29 84 -29q55 0 115 78l108 -96q-83 -144 -229 -144q-62 0 -127 41q-52 29 -82 29q-65 0 -119 -78l-106 92q84 146 225 146z" />
    <glyph glyph-name="j.ss01" horiz-adv-x="759" 
d="M-88 -221l170 14q-4 -51 21 -78.5t75 -27.5q57 0 95.5 36.5t50.5 100.5l174 987h-351l31 176h545l-207 -1165q-25 -144 -116.5 -227.5t-229.5 -83.5q-117 0 -188.5 62.5t-71.5 162.5q0 33 2 43zM690 1409q53 0 87 -34.5t34 -86.5q0 -54 -42 -96.5t-97 -42.5t-89 34.5
t-34 86.5q0 55 42.5 97t98.5 42z" />
    <glyph glyph-name="uni0237.ss01" horiz-adv-x="759" 
d="M-88 -221l170 14q-4 -51 21 -78.5t75 -27.5q57 0 95.5 36.5t50.5 100.5l174 987h-351l31 176h545l-207 -1165q-25 -144 -116.5 -227.5t-229.5 -83.5q-117 0 -188.5 62.5t-71.5 162.5q0 33 2 43z" />
    <glyph glyph-name="jcircumflex.ss01" horiz-adv-x="757" 
d="M338 1145l184 262h228l86 -262h-164l-58 125l-108 -125h-168zM-88 -221l170 14q-4 -51 21 -78.5t75 -27.5q57 0 95.5 36.5t50.5 100.5l174 987h-351l31 176h545l-207 -1165q-25 -144 -116.5 -227.5t-229.5 -83.5q-117 0 -188.5 62.5t-71.5 162.5q0 33 2 43z" />
    <glyph glyph-name="l.ss01" horiz-adv-x="1036" 
d="M170 1262l31 172h411l-194 -1096q-4 -50 -4 -51q0 -67 39 -103.5t108 -36.5q84 0 143 65.5t70 170.5l182 -29q-21 -172 -137 -278.5t-270 -106.5q-157 0 -244.5 78t-87.5 215q0 34 8 86l162 914h-217z" />
    <glyph glyph-name="lacute.ss01" horiz-adv-x="1036" 
d="M170 1262l31 172h411l-194 -1096q-4 -50 -4 -51q0 -67 39 -103.5t108 -36.5q84 0 143 65.5t70 170.5l182 -29q-21 -172 -137 -278.5t-270 -106.5q-157 0 -244.5 78t-87.5 215q0 34 8 86l162 914h-217zM451 1579l186 262h266l-266 -262h-186z" />
    <glyph glyph-name="lcaron.ss01" horiz-adv-x="1036" 
d="M170 1262l31 172h411l-194 -1096q-4 -50 -4 -51q0 -67 39 -103.5t108 -36.5q84 0 143 65.5t70 170.5l182 -29q-21 -172 -137 -278.5t-270 -106.5q-157 0 -244.5 78t-87.5 215q0 34 8 86l162 914h-217zM645 1141l68 293h200l-129 -293h-139z" />
    <glyph glyph-name="uni013C.ss01" horiz-adv-x="1036" 
d="M170 1262l31 172h411l-194 -1096q-4 -50 -4 -51q0 -67 39 -103.5t108 -36.5q84 0 143 65.5t70 170.5l182 -29q-21 -172 -137 -278.5t-270 -106.5q-157 0 -244.5 78t-87.5 215q0 34 8 86l162 914h-217zM504 -119q53 0 82.5 -34.5t29.5 -92.5q0 -94 -50.5 -172.5
t-129.5 -109.5l-30 82q67 27 94 94h-15q-49 0 -79.5 29.5t-30.5 76.5q0 53 38.5 90t90.5 37z" />
    <glyph glyph-name="ldot.ss01" horiz-adv-x="1052" 
d="M170 1262l31 172h411l-194 -1096q-4 -50 -4 -51q0 -67 39 -103.5t108 -36.5q84 0 143 65.5t70 170.5l182 -29q-21 -172 -137 -278.5t-270 -106.5q-157 0 -244.5 78t-87.5 215q0 34 8 86l162 914h-217zM924 885q53 0 86.5 -33.5t33.5 -83.5q0 -60 -42 -102.5t-97 -42.5
q-56 0 -90.5 33t-34.5 87q0 57 43.5 99.5t100.5 42.5z" />
    <glyph glyph-name="lslash.ss01" horiz-adv-x="1036" 
d="M74 621l225 141l88 500h-217l31 172h411l-94 -533l127 80l78 -129l-242 -154l-51 -299q-16 -98 -16 -112q0 -67 39 -103.5t108 -36.5q84 0 143 65.5t70 170.5l182 -29q-21 -172 -137 -278.5t-270 -106.5q-157 0 -244.5 78t-87.5 215q0 34 8 86l37 211l-110 -70z" />
    <glyph glyph-name="a.ss02" horiz-adv-x="1193" 
d="M70 502q37 217 192 366.5t350 149.5q225 0 326 -174l25 143h194l-176 -987h-193l23 127q-145 -158 -362 -158q-178 0 -284 116.5t-106 301.5q0 36 11 115zM506 158q144 0 244 100q106 103 127 260l4 51q0 118 -67.5 189t-182.5 71q-140 0 -247 -102t-126 -258
q-4 -54 -4 -55q2 -116 69.5 -186t182.5 -70z" />
    <glyph glyph-name="aacute.ss02" horiz-adv-x="1193" 
d="M70 502q37 217 192 366.5t350 149.5q225 0 326 -174l25 143h194l-176 -987h-193l23 127q-145 -158 -362 -158q-178 0 -284 116.5t-106 301.5q0 36 11 115zM506 158q144 0 244 100q106 103 127 260l4 51q0 118 -67.5 189t-182.5 71q-142 0 -248 -100q-104 -101 -125 -260
q-4 -54 -4 -55q2 -116 69.5 -186t182.5 -70zM573 1145l185 262h266l-266 -262h-185z" />
    <glyph glyph-name="abreve.ss02" horiz-adv-x="1193" 
d="M70 502q37 217 192 366.5t350 149.5q225 0 326 -174l25 143h194l-176 -987h-193l23 127q-145 -158 -362 -158q-178 0 -284 116.5t-106 301.5q0 36 11 115zM506 158q144 0 244 100q106 103 127 260l4 51q0 118 -67.5 189t-182.5 71q-142 0 -248 -100q-104 -101 -125 -260
q-4 -54 -4 -55q2 -116 69.5 -186t182.5 -70zM446 1407h148q-5 -56 23.5 -88.5t82.5 -32.5q57 0 96.5 32.5t53.5 88.5h147q-25 -118 -107 -190t-198 -72q-109 0 -178.5 64.5t-69.5 164.5q0 27 2 33z" />
    <glyph glyph-name="acircumflex.ss02" horiz-adv-x="1193" 
d="M70 502q37 217 192 366.5t350 149.5q225 0 326 -174l25 143h194l-176 -987h-193l23 127q-145 -158 -362 -158q-178 0 -284 116.5t-106 301.5q0 36 11 115zM506 158q144 0 244 100q106 103 127 260l4 51q0 118 -67.5 189t-182.5 71q-142 0 -248 -100q-104 -101 -125 -260
q-4 -54 -4 -55q2 -116 69.5 -186t182.5 -70zM365 1145l235 262h207l141 -262h-176l-90 129l-137 -129h-180z" />
    <glyph glyph-name="adieresis.ss02" horiz-adv-x="1193" 
d="M70 502q37 217 192 366.5t350 149.5q225 0 326 -174l25 143h194l-176 -987h-193l23 127q-145 -158 -362 -158q-178 0 -284 116.5t-106 301.5q0 36 11 115zM506 158q144 0 244 100q106 103 127 260l4 51q0 118 -67.5 189t-182.5 71q-142 0 -248 -100q-104 -101 -125 -260
q-4 -54 -4 -55q2 -116 69.5 -186t182.5 -70zM541 1401q51 0 83.5 -33t32.5 -84q0 -54 -41.5 -95.5t-97.5 -41.5q-49 0 -82 33.5t-33 83.5q0 55 41 96t97 41zM874 1401q51 0 84 -33t33 -84q0 -54 -41 -95.5t-96 -41.5q-51 0 -83 34t-32 85q0 56 39.5 95.5t95.5 39.5z" />
    <glyph glyph-name="agrave.ss02" horiz-adv-x="1193" 
d="M70 502q37 217 192 366.5t350 149.5q225 0 326 -174l25 143h194l-176 -987h-193l23 127q-145 -158 -362 -158q-178 0 -284 116.5t-106 301.5q0 36 11 115zM506 158q144 0 244 100q106 103 127 260l4 51q0 118 -67.5 189t-182.5 71q-142 0 -248 -100q-104 -101 -125 -260
q-4 -54 -4 -55q2 -116 69.5 -186t182.5 -70zM406 1407h258l96 -262h-180z" />
    <glyph glyph-name="amacron.ss02" horiz-adv-x="1193" 
d="M70 502q37 217 192 366.5t350 149.5q225 0 326 -174l25 143h194l-176 -987h-193l23 127q-145 -158 -362 -158q-178 0 -284 116.5t-106 301.5q0 36 11 115zM506 158q144 0 244 100q106 103 127 260l4 51q0 118 -67.5 189t-182.5 71q-142 0 -248 -100q-104 -101 -125 -260
q-4 -54 -4 -55q2 -116 69.5 -186t182.5 -70zM467 1198l29 158h442l-29 -158h-442z" />
    <glyph glyph-name="aogonek.ss02" horiz-adv-x="1193" 
d="M70 502q37 217 192 366.5t350 149.5q225 0 326 -174l25 143h194l-176 -987q-69 -27 -115.5 -71t-46.5 -87q0 -75 101 -78l-23 -137q-112 0 -176 46.5t-64 133.5q0 124 134 203l20 117q-145 -158 -362 -158q-178 0 -284 116.5t-106 301.5q0 36 11 115zM506 158
q144 0 244 100q106 103 127 260l4 51q0 118 -67.5 189t-182.5 71q-140 0 -247 -102t-126 -258q-4 -54 -4 -55q2 -116 69.5 -186t182.5 -70z" />
    <glyph glyph-name="aring.ss02" horiz-adv-x="1193" 
d="M70 502q37 217 192 366.5t350 149.5q225 0 326 -174l25 143h194l-176 -987h-193l23 127q-145 -158 -362 -158q-178 0 -284 116.5t-106 301.5q0 36 11 115zM506 158q144 0 244 100q106 103 127 260l4 51q0 118 -67.5 189t-182.5 71q-142 0 -248 -100q-104 -101 -125 -260
q-4 -54 -4 -55q2 -116 69.5 -186t182.5 -70zM707 1466q72 0 121 -50t49 -124q0 -83 -64.5 -145t-144.5 -62q-73 0 -122.5 50t-49.5 122q0 86 63 146q63 63 148 63zM680 1204q31 0 55.5 24t24.5 56q0 26 -19 45t-45 19q-32 0 -57 -24t-25 -56q0 -26 20 -45t46 -19z" />
    <glyph glyph-name="atilde.ss02" horiz-adv-x="1193" 
d="M70 502q37 217 192 366.5t350 149.5q225 0 326 -174l25 143h194l-176 -987h-193l23 127q-145 -158 -362 -158q-178 0 -284 116.5t-106 301.5q0 36 11 115zM506 158q144 0 244 100q106 103 127 260l4 51q0 118 -67.5 189t-182.5 71q-142 0 -248 -100q-104 -101 -125 -260
q-4 -54 -4 -55q2 -116 69.5 -186t182.5 -70zM594 1391q64 0 131 -39q56 -29 84 -29q55 0 115 78l108 -96q-41 -71 -100 -107.5t-129 -36.5q-62 0 -127 41q-52 29 -82 29q-65 0 -119 -78l-106 92q84 146 225 146z" />
    <glyph glyph-name="y.ss03" horiz-adv-x="1069" 
d="M74 -461l270 469l-223 979h192l168 -745l430 745h209l-837 -1448h-209z" />
    <glyph glyph-name="yacute.ss03" horiz-adv-x="1069" 
d="M74 -461l270 469l-223 979h192l168 -745l430 745h209l-837 -1448h-209zM547 1145l184 262h266l-266 -262h-184z" />
    <glyph glyph-name="ycircumflex.ss03" horiz-adv-x="1069" 
d="M74 -461l270 469l-223 979h192l168 -745l430 745h209l-837 -1448h-209zM338 1145l235 262h207l142 -262h-177l-90 129l-137 -129h-180z" />
    <glyph glyph-name="ydieresis.ss03" horiz-adv-x="1069" 
d="M74 -461l270 469l-223 979h192l168 -745l430 745h209l-837 -1448h-209zM514 1401q51 0 84 -33t33 -84q0 -54 -41.5 -95.5t-97.5 -41.5q-49 0 -82 33.5t-33 83.5q0 56 40.5 96.5t96.5 40.5zM848 1401q51 0 84 -33t33 -84q0 -54 -41.5 -95.5t-96.5 -41.5q-51 0 -82.5 33.5
t-31.5 85.5q0 56 39.5 95.5t95.5 39.5z" />
    <glyph glyph-name="ygrave.ss03" horiz-adv-x="1069" 
d="M74 -461l270 469l-223 979h192l168 -745l430 745h209l-837 -1448h-209zM379 1407h258l96 -262h-180z" />
    <glyph glyph-name="f_f.dlig" horiz-adv-x="1523" 
d="M92 817l31 170h178l16 92q27 170 148 279q118 106 289 106q177 0 252 -110q122 110 292 110q139 0 221.5 -75.5t82.5 -200.5q0 -5 -2 -22t-3 -27l-184 -33q6 24 6 47q0 63 -36 98t-99 35q-87 0 -150.5 -56t-76.5 -147l-17 -96h512l-30 -170h-512l-146 -819h-194l145 819
h-350l-146 -819h-194l145 819h-178zM496 987h350l16 92q12 61 12 78q0 60 -36 94.5t-99 34.5q-87 0 -150.5 -56t-76.5 -147z" />
    <glyph glyph-name="f_f_i.dlig" horiz-adv-x="1624" 
d="M92 817l31 170h178l16 92q27 170 148 279q118 106 289 106q175 0 254 -112q118 112 292 112q139 0 221.5 -75.5t82.5 -200.5q0 -5 -2 -22t-3 -27l-184 -33q6 24 6 47q0 63 -36 98t-99 35q-87 0 -150.5 -56t-76.5 -147l-17 -96h545l-174 -987h-194l143 817h-350l-146 -819
h-194l145 819h-352l-146 -819h-194l145 819h-178zM496 987h352l16 92q1 5 3.5 20t4.5 29.5t2 24.5q0 63 -36 98t-99 35q-87 0 -150.5 -56t-76.5 -147z" />
    <glyph glyph-name="f_f_j.dlig" horiz-adv-x="1624" 
d="M92 817l31 170h162l16 94q27 168 148 277q120 108 286 108q180 0 258 -112q116 110 293 110q139 0 221 -75.5t82 -200.5q0 -3 -4 -49l-184 -33q6 24 6 47q0 63 -36 98t-99 35q-87 0 -151 -56t-77 -147l-16 -96h559l-207 -1165q-25 -144 -116.5 -227.5t-229.5 -83.5
q-117 0 -188.5 62.5t-71.5 162.5q0 33 2 43l170 14q-4 -51 21 -78.5t75 -27.5q57 0 96 37t50 100l174 993h-365l-145 -819h-195l146 819h-354l-146 -817h-194l145 817h-162zM477 987h359l12 72q12 74 12 94q0 65 -36 99t-103 34q-86 0 -149 -55.5t-76 -145.5z" />
    <glyph glyph-name="f_f_l.dlig" horiz-adv-x="1613" 
d="M92 817l31 170h162l16 94q27 168 148 277q120 108 286 108q179 0 258 -112q118 112 293 112q147 0 233.5 -77.5t86.5 -210.5q0 -28 -7 -72l-196 -1106h-195l195 1094q6 41 6 59q0 66 -35.5 99.5t-101.5 33.5q-86 0 -149 -55.5t-76 -145.5l-19 -98h262l-30 -170h-261
l-145 -817h-195l146 817h-356l-146 -817h-194l145 817h-162zM477 987h354l19 98q8 41 8 68q0 66 -35.5 99.5t-101.5 33.5q-86 0 -149 -55.5t-76 -145.5z" />
    <glyph glyph-name="f_j.dlig" horiz-adv-x="1091" 
d="M92 815l31 172h178l16 92q27 170 148 279q118 106 289 106q139 0 221 -75.5t82 -200.5q0 -3 -4 -49l-185 -33q6 24 6 47q0 63 -36 98t-99 35q-87 0 -150.5 -56t-76.5 -147l-16 -96h559l-207 -1165q-25 -144 -116.5 -227.5t-229.5 -83.5q-117 0 -188.5 62.5t-71.5 162.5
q0 33 2 43l170 14q-4 -51 21 -78.5t75 -27.5q57 0 95.5 37t49.5 100l174 991h-364l-146 -817h-194l145 817h-178z" />
    <glyph glyph-name="f_l.dlig" horiz-adv-x="1062" 
d="M92 815l31 172h162l16 94q27 168 148 277q120 108 286 108q147 0 233.5 -77.5t86.5 -210.5q0 -34 -6 -72l-197 -1106h-195l197 1106q4 20 4 47q0 66 -35.5 99.5t-101.5 33.5q-86 0 -149 -55.5t-76 -145.5l-19 -98h262l-30 -172h-260l-146 -815h-194l145 815h-162z" />
    <glyph glyph-name="fi.dlig" horiz-adv-x="1077" 
d="M92 815l31 172h178l16 92q27 170 148 279q118 106 289 106q139 0 221 -75.5t82 -200.5q0 -3 -4 -49l-185 -33q6 24 6 47q0 63 -36 98t-99 35q-87 0 -150.5 -56t-76.5 -147l-16 -96h544l-174 -987h-194l143 815h-350l-146 -817h-194l145 817h-178z" />
    <glyph glyph-name="fl.dlig" horiz-adv-x="1062" 
d="M92 815l31 172h162l16 94q27 168 148 277q120 108 286 108q147 0 233.5 -77.5t86.5 -210.5q0 -34 -6 -72l-197 -1106h-195l197 1106q4 20 4 47q0 66 -35.5 99.5t-101.5 33.5q-86 0 -149 -55.5t-76 -145.5l-19 -98h262l-30 -172h-260l-146 -815h-194l145 815h-162z" />
    <glyph glyph-name="one.ss01" 
d="M43 0l35 186h385l143 815h-297l31 164q143 0 229.5 71.5t110.5 197.5h199l-222 -1248h385l-32 -186h-967z" />
    <glyph glyph-name="zero.tf" 
d="M778 1466q223 0 338 -142t115 -388q2 -147 -29 -290.5t-92 -266t-144 -216t-192.5 -145t-230.5 -47.5q-227 0 -342 140t-115 389q-2 147 29 290.5t92 266t144.5 215.5t194 145t232.5 49zM553 158q111 -4 205.5 64t154 179.5t92.5 248.5t31 276q0 171 -69.5 261.5
t-198.5 90.5q-111 4 -206 -63.5t-155.5 -178t-94 -247.5t-31.5 -275q0 -176 69 -266t203 -90z" />
    <glyph glyph-name="one.tf" 
d="M45 0l35 186h383l143 815h-297l31 164q143 0 229.5 71.5t110.5 197.5h199l-222 -1248h387l-34 -186h-965z" />
    <glyph glyph-name="two.tf" 
d="M33 0l20 117q24 142 105 239q78 97 178 156q103 61 256 133l119 55q156 78 230.5 162.5t74.5 206.5q0 100 -63 154.5t-179 54.5q-82 2 -150 -25t-111 -70.5t-71.5 -99.5t-38.5 -111.5t-6 -107.5l-204 25q-2 78 19 158t70 156t118 134.5t171 93.5t222 33q194 0 307.5 -100
t113.5 -268q0 -188 -104 -320t-315 -241l-105 -50q-178 -85 -264 -143q-92 -62 -135 -156h774l-35 -186h-997z" />
    <glyph glyph-name="three.tf" 
d="M80 449l205 34q-15 -59 -15 -98q0 -106 69 -166.5t200 -60.5q168 0 280.5 90t112.5 231q0 98 -79.5 151.5t-219.5 53.5h-133l30 180l132 2q142 0 226.5 67.5t84.5 178.5q0 78 -62.5 122t-177.5 44q-126 0 -206.5 -69t-98.5 -179l-192 27q32 178 172 293.5t348 115.5
q199 0 308.5 -88t109.5 -233q0 -110 -54 -200.5t-153 -153.5q170 -95 170 -285q0 -152 -82 -275t-223 -191.5t-310 -68.5q-216 0 -335 102.5t-119 272.5q0 50 12 103z" />
    <glyph glyph-name="four.tf" 
d="M43 305l31 164l868 965h170l-168 -945h209l-31 -184h-211l-53 -305h-194l53 305h-674zM315 489h435l106 598z" />
    <glyph glyph-name="five.tf" 
d="M90 489l199 21q-10 -62 -10 -94q0 -120 74.5 -190t209.5 -70q153 0 256 90t123 239q4 50 4 54q0 106 -68.5 168.5t-189.5 62.5q-103 0 -172.5 -34.5t-142.5 -104.5l-168 57l211 746h821l-35 -187h-643l-108 -375q70 38 128.5 56t137.5 18q195 0 310.5 -105.5
t115.5 -279.5q0 -35 -10 -100q-40 -223 -197 -359q-157 -133 -385 -133q-220 0 -347.5 114.5t-127.5 291.5q0 51 14 114z" />
    <glyph glyph-name="six.tf" 
d="M813 1464q194 0 306 -104.5t112 -274.5q0 -37 -6 -75l-201 -25q6 40 6 74q0 102 -59 160.5t-172 58.5q-167 0 -287 -141q-115 -136 -172 -355q79 81 182.5 125.5t212.5 44.5q186 0 303 -113.5t117 -289.5q2 -113 -48 -221.5t-133 -188t-195.5 -126.5t-229.5 -44
q-206 0 -328.5 129t-122.5 365q0 249 86 481q90 234 250 375q165 145 379 145zM569 156q157 0 273 111.5t116 262.5q0 111 -74.5 180.5t-197.5 69.5q-95 0 -181.5 -48.5t-141 -136.5t-54.5 -192q0 -115 70.5 -181t189.5 -66z" />
    <glyph glyph-name="seven.tf" 
d="M246 1247l33 187h1005l-35 -187h-2l4 -2q-220 -192 -436.5 -546.5t-308.5 -698.5h-203q91 336 283 676q191 342 401 571h-741z" />
    <glyph glyph-name="eight.tf" 
d="M373 786q-125 92 -125 240q0 126 73 227t195 156t268 55q183 0 298.5 -95.5t115.5 -244.5q0 -115 -59 -205t-166 -147q85 -50 130.5 -126.5t45.5 -170.5q2 -108 -47.5 -203.5t-133.5 -162t-196.5 -104t-234.5 -36.5q-217 0 -349.5 105.5t-132.5 275.5q0 147 84.5 260
t233.5 176zM682 858q141 0 231.5 68.5t90.5 177.5q0 87 -66 138.5t-178 51.5q-136 0 -230 -73q-92 -71 -92 -185q0 -81 66.5 -129.5t177.5 -48.5zM559 147q165 0 276 88t111 226q0 103 -80 164t-215 61q-168 0 -280.5 -88.5t-112.5 -224.5q0 -105 80.5 -165.5t220.5 -60.5z
" />
    <glyph glyph-name="nine.tf" 
d="M500 -31q-194 0 -306 104.5t-112 274.5q0 38 6 76l201 25q-6 -40 -6 -74q0 -102 59 -160.5t172 -58.5q167 0 285 139q118 138 174 356q-79 -81 -182.5 -125.5t-212.5 -44.5q-186 0 -303 114t-117 290q-3 151 81.5 287t226.5 216t298 76q206 0 328 -128.5t122 -364.5
q0 -252 -88 -482q-86 -232 -249 -376t-377 -144zM743 1278q-157 0 -273 -112t-116 -263q0 -111 74.5 -180.5t198.5 -69.5q95 0 181.5 48.5t141 136.5t54.5 192q0 115 -71 181.5t-190 66.5z" />
    <glyph glyph-name="zero.zero" horiz-adv-x="1292" 
d="M805 1466q223 0 337.5 -141.5t114.5 -388.5q2 -147 -29 -290.5t-92 -266t-144 -216t-192.5 -145t-230.5 -47.5q-227 0 -341.5 140t-114.5 389q-2 147 29 290.5t92 266t144.5 215.5t194 145t232.5 49zM313 426l674 770q-70 82 -192 82q-111 4 -206 -63.5t-156 -178
t-94.5 -247.5t-31.5 -275q0 -47 6 -88zM580 158q111 -4 205.5 64t154 179.5t92.5 248.5t31 276q0 52 -6 96l-678 -776q70 -88 201 -88z" />
    <glyph glyph-name="zero.dnom" horiz-adv-x="905" 
d="M526 946q144 0 218.5 -92.5t74.5 -255.5q1 -118 -31 -230.5t-89.5 -199.5t-143.5 -139t-184 -49q-148 0 -221.5 91.5t-73.5 254.5q-2 164 51.5 305.5t158.5 229.5t240 85zM381 127q89 0 157.5 72t102 177t33.5 218q0 100 -41 153.5t-119 53.5q-91 0 -160 -70.5t-102 -175
t-33 -219.5q0 -209 162 -209z" />
    <glyph glyph-name="one.dnom" horiz-adv-x="526" 
d="M78 631l20 121q91 0 148 46.5t71 127.5h148l-164 -926h-143l110 631h-190z" />
    <glyph glyph-name="two.dnom" horiz-adv-x="831" 
d="M0 0l12 72q15 99 68 164q50 63 111 102t176 92l47 21q110 50 159.5 102t49.5 133q0 57 -38.5 90t-105.5 33q-50 0 -91 -16.5t-66.5 -43t-42.5 -60.5t-23 -68t-4 -66l-150 16q-2 67 22 131.5t70.5 120t124.5 89.5t175 34q128 0 202 -65t74 -176q0 -117 -65 -203t-189 -152
l-86 -43q-100 -46 -152.5 -83t-80.5 -87h481l-25 -137h-653z" />
    <glyph glyph-name="three.dnom" horiz-adv-x="860" 
d="M47 291l152 26q-9 -40 -9 -59q0 -64 42 -100.5t120 -36.5q103 0 166.5 52.5t63.5 137.5q0 57 -45 88t-129 31h-86l24 135h84q86 0 134 38.5t48 105.5q0 47 -36 72.5t-105 25.5q-78 0 -125.5 -41.5t-58.5 -106.5l-142 21q24 118 118.5 191t232.5 73q127 0 196.5 -57
t69.5 -150q0 -142 -127 -227q102 -58 102 -180q0 -67 -27.5 -129t-77.5 -111t-128 -78.5t-172 -29.5q-138 0 -214.5 66t-76.5 177q0 31 6 66z" />
    <glyph glyph-name="four.dnom" horiz-adv-x="841" 
d="M16 188l19 119l561 619h123l-107 -602h131l-24 -136h-131l-33 -188h-143l32 188h-428zM213 324h256l61 350z" />
    <glyph glyph-name="five.dnom" horiz-adv-x="843" 
d="M37 317l147 15q-6 -27 -6 -56q0 -74 44.5 -115.5t125.5 -41.5q101 0 165.5 64t64.5 159q0 66 -41 102.5t-115 36.5q-118 0 -189 -80l-124 39l139 486h536l-26 -140h-406l-63 -215q62 39 157 39q127 0 202 -68.5t75 -181.5q0 -162 -111 -270t-278 -108q-144 0 -224.5 71
t-80.5 189q0 44 8 75z" />
    <glyph glyph-name="six.dnom" horiz-adv-x="856" 
d="M510 946q127 0 199.5 -67t72.5 -177q0 -29 -4 -49l-147 -18q6 21 6 45q0 61 -34.5 96t-100.5 35q-97 0 -168.5 -79t-108.5 -212q105 94 240 94q121 0 195.5 -72t74.5 -188q0 -155 -116 -264.5t-279 -109.5q-134 0 -213.5 85t-79.5 240q-2 159 54.5 306.5t165.5 243
t243 91.5zM356 119q98 0 164 63q70 64 70 160q0 66 -44.5 106.5t-117.5 40.5q-92 0 -158.5 -65.5t-66.5 -157.5q0 -64 41.5 -105.5t111.5 -41.5z" />
    <glyph glyph-name="seven.dnom" horiz-adv-x="784" 
d="M119 786l24 140h648l-23 -140q-137 -126 -274 -348q-134 -217 -191 -438h-149q57 210 170 420q121 219 251 366h-456z" />
    <glyph glyph-name="eight.dnom" horiz-adv-x="888" 
d="M242 502q-76 58 -76 147q0 123 103.5 206t250.5 83q121 0 196 -63t75 -162q0 -70 -36.5 -126.5t-101.5 -94.5q107 -68 107 -189q0 -93 -54.5 -168.5t-146.5 -117.5t-201 -42q-140 0 -225.5 68.5t-85.5 179.5q0 91 51.5 164t143.5 115zM455 553q85 0 138.5 40.5
t53.5 106.5q0 51 -39.5 82t-105.5 31q-82 0 -137.5 -44t-55.5 -110q0 -47 40 -76.5t106 -29.5zM377 106q103 0 167 51.5t64 135.5q0 62 -47.5 98.5t-128.5 36.5q-100 0 -166.5 -53.5t-66.5 -134.5q0 -62 48 -98t130 -36z" />
    <glyph glyph-name="nine.dnom" horiz-adv-x="851" 
d="M61 272l150 19q-1 -9 -2 -19.5t-1.5 -16t-0.5 -9.5q0 -62 34.5 -96.5t100.5 -34.5q97 0 169 79.5t110 213.5q-109 -97 -242 -97q-121 0 -195.5 72t-74.5 188q0 155 115.5 265t277.5 110q134 0 213.5 -84t79.5 -239q2 -117 -32 -233.5t-93 -208.5t-148 -148t-190 -53
q-127 0 -200 66.5t-73 176.5q0 39 2 49zM414 438q93 0 160 64.5t67 156.5q0 65 -42 106.5t-114 41.5q-94 0 -166 -66q-67 -64 -67 -157q0 -66 44.5 -106t117.5 -40z" />
    <glyph glyph-name="zero.numr" horiz-adv-x="905" 
d="M616 1454q144 0 218.5 -92.5t74.5 -255.5q1 -118 -31 -230.5t-89.5 -200t-143.5 -139.5t-184 -49q-148 0 -221.5 91.5t-73.5 255.5q-2 164 51.5 305.5t158.5 229.5t240 85zM471 635q89 0 157.5 72t102 177t33.5 218q0 100 -41 153.5t-119 53.5q-91 0 -160 -70.5
t-102 -175t-33 -219.5q0 -209 162 -209z" />
    <glyph glyph-name="one.numr" horiz-adv-x="526" 
d="M168 1139l20 121q91 0 148.5 46.5t71.5 127.5h147l-164 -926h-143l110 631h-190z" />
    <glyph glyph-name="two.numr" horiz-adv-x="831" 
d="M90 508l12 72q15 98 68 163q50 63 111.5 103t175.5 92l47 20q109 50 159 102.5t50 133.5q0 57 -38.5 90t-105.5 33q-50 0 -91 -16.5t-66.5 -43t-42.5 -60.5t-23 -68t-4 -66l-149 16q-2 67 22 131.5t70 120t124 89.5t175 34q128 0 202 -65.5t74 -176.5q0 -117 -65 -202.5
t-189 -151.5l-86 -43q-100 -46 -152.5 -83t-80.5 -87h481l-25 -137h-653z" />
    <glyph glyph-name="three.numr" horiz-adv-x="860" 
d="M137 799l152 26q-8 -36 -8 -59q0 -64 41.5 -100.5t119.5 -36.5q103 0 166.5 52.5t63.5 137.5q0 57 -45 88t-129 31h-86l24 135h84q86 0 134 38.5t48 105.5q0 47 -36 72.5t-105 25.5q-78 0 -125.5 -41.5t-58.5 -106.5l-141 21q24 118 118 191t232 73q127 0 196.5 -57
t69.5 -150q0 -142 -127 -227q102 -59 102 -180q0 -67 -27.5 -129t-77.5 -111.5t-128 -79t-172 -29.5q-138 0 -214.5 66.5t-76.5 177.5q0 31 6 66z" />
    <glyph glyph-name="four.numr" horiz-adv-x="841" 
d="M106 696l19 119l561 619h123l-107 -603h132l-25 -135h-131l-33 -188h-143l33 188h-429zM303 831h256l62 351z" />
    <glyph glyph-name="five.numr" horiz-adv-x="843" 
d="M127 825l147 15q-6 -27 -6 -56q0 -74 44.5 -115.5t125.5 -41.5q101 0 165.5 64t64.5 159q0 66 -41 102.5t-115 36.5q-117 0 -188 -80l-125 39l139 486h536l-26 -140h-406l-63 -215q62 39 158 39q127 0 201.5 -68.5t74.5 -181.5q0 -162 -111 -270.5t-278 -108.5
q-144 0 -224.5 71.5t-80.5 189.5q0 44 8 75z" />
    <glyph glyph-name="six.numr" horiz-adv-x="856" 
d="M600 1454q127 0 199.5 -67t72.5 -177q0 -29 -4 -49l-147 -18q6 21 6 45q0 61 -34.5 96t-100.5 35q-97 0 -168.5 -79t-108.5 -212q105 94 240 94q121 0 195.5 -72t74.5 -188q0 -155 -116 -265t-279 -110q-133 0 -213 85.5t-80 240.5q-2 159 54.5 306.5t165.5 243t243 91.5
zM446 627q98 0 164 63q70 64 70 160q0 66 -44.5 106.5t-117.5 40.5q-92 0 -158.5 -65.5t-66.5 -157.5q0 -64 41.5 -105.5t111.5 -41.5z" />
    <glyph glyph-name="seven.numr" horiz-adv-x="784" 
d="M209 1294l24 140h648l-23 -140q-137 -126 -274 -348q-134 -217 -191 -438h-149q57 210 170 420q119 216 252 366h-457z" />
    <glyph glyph-name="eight.numr" horiz-adv-x="888" 
d="M332 1016q-76 58 -76 147q0 123 103.5 206t250.5 83q121 0 196 -63t75 -162q0 -70 -36.5 -126.5t-101.5 -94.5q107 -68 107 -189q0 -93 -54.5 -168.5t-146 -117.5t-200.5 -42q-140 0 -226 68.5t-86 179.5q0 91 51.5 164t143.5 115zM545 1067q85 0 138.5 40.5t53.5 106.5
q0 51 -39.5 82t-105.5 31q-82 0 -137.5 -43.5t-55.5 -109.5q0 -48 40 -77.5t106 -29.5zM467 621q103 0 167 51t64 135q0 62 -47.5 98.5t-128.5 36.5q-100 0 -166.5 -53.5t-66.5 -134.5q0 -61 48 -97t130 -36z" />
    <glyph glyph-name="nine.numr" horiz-adv-x="851" 
d="M152 780l149 19q-1 -9 -2 -19.5t-1.5 -16t-0.5 -9.5q0 -62 34.5 -96.5t100.5 -34.5q97 0 169 79t110 213q-107 -96 -242 -96q-121 0 -195.5 72t-74.5 188q0 155 115.5 265t277.5 110q134 0 213.5 -84.5t79.5 -239.5q2 -117 -32 -233.5t-93 -208.5t-148 -148t-190 -53
q-127 0 -199.5 67t-72.5 177q0 39 2 49zM504 946q93 0 160 64.5t67 156.5q0 65 -42 106.5t-114 41.5q-93 0 -165 -66q-68 -65 -68 -157q0 -66 44.5 -106t117.5 -40z" />
    <glyph glyph-name="uni2081.ss01" horiz-adv-x="868" 
d="M12 -174l25 137h217l86 494h-190l20 121q91 0 148 46.5t71 127.5h148l-140 -789h244l-25 -137h-604z" />
    <glyph glyph-name="one.dnom.ss01" horiz-adv-x="868" 
d="M43 0l25 137h217l86 494h-191l21 121q91 0 148 46.5t71 127.5h147l-139 -789h244l-25 -137h-604z" />
    <glyph glyph-name="one.numr.ss01" horiz-adv-x="868" 
d="M133 508l25 137h217l86 494h-191l21 121q91 0 148 46.5t71 127.5h147l-139 -789h244l-25 -137h-604z" />
    <glyph glyph-name="uni00B9.ss01" horiz-adv-x="868" 
d="M170 723l25 137h217l86 494h-191l21 121q91 0 148 46.5t71 127.5h147l-139 -789h244l-25 -137h-604z" />
    <glyph glyph-name="exclamdown.case" horiz-adv-x="507" 
d="M389 1202q-53 0 -87 33.5t-34 83.5q0 60 42.5 102.5t97.5 42.5t89.5 -33.5t34.5 -87.5q0 -57 -43 -99t-100 -42zM70 0l186 1051h195l-187 -1051h-194z" />
    <glyph glyph-name="questiondown.case" horiz-adv-x="1087" 
d="M686 1188q-53 0 -87 33.5t-34 83.5q0 60 42.5 102.5t97.5 42.5t89.5 -33.5t34.5 -87.5q0 -57 -43 -99t-100 -42zM455 -31q-223 0 -324 107q-98 107 -98 256q1 88 21.5 154.5t65 122t97.5 97.5t139 95q94 59 138 106.5t57 116.5l6 33h203l-6 -39q-15 -93 -58 -162
q-39 -59 -85 -97t-128 -85l-45 -27q-101 -62 -147.5 -130t-46.5 -165q0 -91 59.5 -143.5t181.5 -52.5q84 0 151.5 32.5t108.5 86t62.5 117.5t21.5 130l199 -24q-3 -75 -26 -148.5t-69.5 -143.5t-111.5 -123t-160 -84.5t-206 -29.5z" />
    <glyph glyph-name="parenleft.case" horiz-adv-x="559" 
d="M578 1702l131 -119q-210 -233 -320 -521t-110 -603q0 -334 118 -645l-164 -82q-129 341 -129 712q0 352 121.5 676.5t352.5 581.5z" />
    <glyph glyph-name="parenright.case" horiz-adv-x="557" 
d="M59 -268l-131 118q210 232 320 521t110 604q0 334 -118 645l163 82q129 -341 129 -713q0 -352 -121 -676t-352 -581z" />
    <glyph glyph-name="braceleft.case" horiz-adv-x="720" 
d="M59 635l4 24l27 142q103 0 189 65t104 164l66 361q29 163 122 243t220 80q55 0 108 -16l-57 -158q-30 10 -56 10q-61 0 -110.5 -45.5t-65.5 -132.5l-63 -352q-17 -97 -82.5 -178t-165.5 -131q70 -39 108.5 -100.5t38.5 -139.5q0 -28 -6 -55l-59 -353q-6 -27 -6 -51
q0 -63 33 -95t86 -32q24 0 57 11l2 -158q-56 -17 -107 -17q-107 0 -174 61t-67 185q0 37 6 86l61 353q2 8 2 36q0 85 -61 139t-154 54z" />
    <glyph glyph-name="braceright.case" horiz-adv-x="722" 
d="M741 799l-4 -25l-26 -141q-102 0 -189 -66q-86 -65 -104 -164l-66 -360q-29 -163 -122 -243.5t-220 -80.5q-52 0 -108 17l57 158q33 -11 55 -11q61 0 110.5 45.5t65.5 132.5l64 353q17 97 82.5 178t165.5 131q-70 39 -109 100.5t-39 139.5q0 28 6 55l60 352q6 27 6 51
q0 63 -33 95t-86 32q-27 0 -57 -10l-2 158q53 16 106 16q107 0 174.5 -61t67.5 -185q0 -36 -6 -86l-62 -352q-2 -8 -2 -37q0 -85 61 -138.5t154 -53.5z" />
    <glyph glyph-name="bracketleft.case" horiz-adv-x="544" 
d="M-2 -287l356 2007h373l-31 -164h-207l-294 -1677h206l-30 -166h-373z" />
    <glyph glyph-name="bracketright.case" horiz-adv-x="546" 
d="M627 1720l-357 -2007h-372l30 164h207l295 1677h-207l31 166h373z" />
    <glyph glyph-name="hyphen.case" horiz-adv-x="833" 
d="M131 623l33 188h614l-33 -188h-614z" />
    <glyph glyph-name="uni00AD.case" horiz-adv-x="833" 
d="M131 623l33 188h614l-33 -188h-614z" />
    <glyph glyph-name="endash.case" horiz-adv-x="1243" 
d="M131 623l33 188h1024l-33 -188h-1024z" />
    <glyph glyph-name="emdash.case" horiz-adv-x="2062" 
d="M131 623l33 188h1843l-33 -188h-1843z" />
    <glyph glyph-name="guillemotleft.case" horiz-adv-x="962" 
d="M106 719l293 379h217l-305 -396l174 -364h-196zM487 719l293 379h217l-305 -396l174 -364h-196z" />
    <glyph glyph-name="guillemotright.case" horiz-adv-x="966" 
d="M428 338l305 393l-176 367h197l182 -383l-291 -377h-217zM47 338l305 393l-176 367h197l182 -383l-291 -377h-217z" />
    <glyph glyph-name="guilsinglleft.case" horiz-adv-x="583" 
d="M109 721l290 377h219l-307 -393l176 -367h-196z" />
    <glyph glyph-name="guilsinglright.case" horiz-adv-x="581" 
d="M45 338l305 393l-176 367h197l182 -383l-291 -377h-217z" />
    <glyph glyph-name="at.case" horiz-adv-x="1691" 
d="M1004 1462q291 0 464.5 -164t173.5 -432q0 -147 -47.5 -264.5t-140 -186.5t-215.5 -69q-78 0 -128.5 28.5t-68.5 80.5q-121 -109 -260 -109q-121 0 -186.5 72.5t-65.5 189.5q-1 78 31 161t87 151t136 110t170 39q139 0 197 -86l23 72h126l-122 -471q-7 -28 -7 -37
q0 -32 22.5 -50t63.5 -18q119 0 183 111q63 108 63 268q0 217 -136 344t-374 127q-112 3 -222 -35.5t-200 -109t-159.5 -162t-106.5 -201t-35 -219.5q0 -214 144.5 -356t363.5 -142q107 0 201.5 34t150.5 95l97 -100q-84 -77 -201.5 -119.5t-255.5 -42.5q-185 0 -330.5 82
t-226 226.5t-80.5 326.5q-4 162 69 321t193 277t282 190t327 68zM817 477q110 0 189 96.5t79 206.5q0 72 -38 116t-109 44q-110 0 -189 -96.5t-79 -206.5q0 -72 38 -116t109 -44z" />
    <glyph glyph-name="uni0308.case" horiz-adv-x="0" 
d="M-274 1843q54 0 89 -34.5t35 -88.5q0 -58 -44 -102.5t-103 -44.5q-51 0 -87 35.5t-36 89.5q0 57 44.5 101t101.5 44zM88 1843q55 0 90 -35.5t35 -89.5q0 -58 -43.5 -101.5t-103.5 -43.5q-52 0 -86.5 34.5t-34.5 88.5q0 58 42 102.5t101 44.5z" />
    <glyph glyph-name="uni0307.case" horiz-adv-x="0" 
d="M98 1835q49 0 83 -34.5t34 -84.5q0 -52 -41 -93.5t-96 -41.5q-51 0 -85 34t-34 85q0 55 41.5 95t97.5 40z" />
    <glyph glyph-name="gravecomb.case" horiz-adv-x="0" 
d="M-164 1841h258l96 -262h-180z" />
    <glyph glyph-name="acutecomb.case" horiz-adv-x="0" 
d="M-215 1579l186 262h267l-267 -262h-186z" />
    <glyph glyph-name="uni030B.case" horiz-adv-x="0" 
d="M-453 1579l144 262h241l-229 -262h-156zM-147 1579l143 262h242l-230 -262h-155z" />
    <glyph glyph-name="uni0302.case" horiz-adv-x="0" 
d="M-391 1579l233 262h209l142 -262h-177l-92 129l-135 -129h-180z" />
    <glyph glyph-name="uni030C.case" horiz-adv-x="0" 
d="M-346 1841h176l90 -131l137 131h181l-236 -262h-207z" />
    <glyph glyph-name="uni0306.case" horiz-adv-x="0" 
d="M-315 1841h149q-5 -56 23.5 -89.5t83.5 -33.5t94 33.5t53 89.5h148q-25 -118 -107.5 -190t-198.5 -72q-108 0 -177.5 64.5t-69.5 164.5q0 25 2 33z" />
    <glyph glyph-name="uni030A.case" horiz-adv-x="0" 
d="M45 1905q73 0 121.5 -50t48.5 -124q0 -86 -63 -146q-64 -61 -146 -61q-73 0 -121.5 49.5t-48.5 122.5q0 84 64 145q61 64 145 64zM18 1642q32 0 57 24t25 56q0 27 -18 45.5t-47 18.5q-32 0 -56 -24t-24 -56q0 -26 18.5 -45t44.5 -19z" />
    <glyph glyph-name="tildecomb.case" horiz-adv-x="0" 
d="M-227 1823q64 0 129 -41q40 -21 57.5 -27t40.5 -6q62 0 115 84l106 -86q-41 -77 -101 -117.5t-130 -40.5q-65 0 -140 43q-60 31 -88 31q-63 0 -108 -80l-113 82q84 158 232 158z" />
    </font>
</defs>
</svg>
