<?xml version="1.0" standalone="no"?>
<!DOCTYPE svg PUBLIC "-//W3C//DTD SVG 1.1//EN" "http://www.w3.org/Graphics/SVG/1.1/DTD/svg11.dtd" >
<svg xmlns="http://www.w3.org/2000/svg" xmlns:xlink="http://www.w3.org/1999/xlink" version="1.1">
<metadata>
Created by FontForge 20170731 at Tue Mar 23 02:58:52 2021
 By Aleksey,,,
Copyright 2017 OMSE LTD. All rights reserved.
</metadata>
<defs>
<font id="Athletics-ExtraBoldItalic" horiz-adv-x="1228" >
  <font-face 
    font-family="Athletics"
    font-weight="800"
    font-style="italic"
    font-stretch="normal"
    units-per-em="2048"
    panose-1="2 0 0 0 0 0 0 0 0 0"
    ascent="1608"
    descent="-440"
    x-height="995"
    cap-height="1434"
    bbox="-627 -575 2474 1931"
    underline-thickness="245"
    underline-position="-445"
    slope="-10"
    unicode-range="U+000D-2B11"
  />
<missing-glyph horiz-adv-x="1695" 
d="M887 1464q119 2 233 -35.5t207 -108t163.5 -163.5t108 -207t35.5 -233q3 -148 -57 -287.5t-161.5 -241t-241 -162t-287.5 -57.5q-148 -3 -287.5 57.5t-241 162t-162 241t-57.5 287.5q-3 148 57.5 287.5t162 241t241 161.5t287.5 57zM887 102q162 -4 306 80.5t229 228.5
t81 306q3 121 -47 235.5t-134 198t-199 133t-236 47.5q-121 2 -236 -47.5t-199 -133t-133.5 -198t-46.5 -235.5q-3 -121 46.5 -236t133.5 -199t199 -133.5t236 -46.5zM657 969q51 0 88 -36.5t37 -90.5q0 -51 -37 -88t-88 -37t-89 37t-38 88q0 53 37.5 90t89.5 37zM1116 969
q54 0 90.5 -36.5t36.5 -90.5q0 -51 -38 -88t-89 -37t-88 37t-37 88q0 54 36.5 90.5t88.5 36.5z" />
    <glyph glyph-name=".notdef" horiz-adv-x="1695" 
d="M887 1464q119 2 233 -35.5t207 -108t163.5 -163.5t108 -207t35.5 -233q3 -148 -57 -287.5t-161.5 -241t-241 -162t-287.5 -57.5q-148 -3 -287.5 57.5t-241 162t-162 241t-57.5 287.5q-3 148 57.5 287.5t162 241t241 161.5t287.5 57zM887 102q162 -4 306 80.5t229 228.5
t81 306q3 121 -47 235.5t-134 198t-199 133t-236 47.5q-121 2 -236 -47.5t-199 -133t-133.5 -198t-46.5 -235.5q-3 -121 46.5 -236t133.5 -199t199 -133.5t236 -46.5zM657 969q51 0 88 -36.5t37 -90.5q0 -51 -37 -88t-88 -37t-89 37t-38 88q0 53 37.5 90t89.5 37zM1116 969
q54 0 90.5 -36.5t36.5 -90.5q0 -51 -38 -88t-89 -37t-88 37t-37 88q0 54 36.5 90.5t88.5 36.5z" />
    <glyph glyph-name=".null" horiz-adv-x="0" 
 />
    <glyph glyph-name="nonmarkingreturn" horiz-adv-x="682" 
 />
    <glyph glyph-name="CR" unicode="&#xd;" horiz-adv-x="487" 
 />
    <glyph glyph-name="space" unicode=" " horiz-adv-x="487" 
 />
    <glyph glyph-name="exclam" unicode="!" horiz-adv-x="534" 
d="M127 446l176 988h256l-176 -988h-256zM219 305q63 0 105.5 -41.5t42.5 -103.5q0 -72 -51.5 -124t-118.5 -52t-109.5 41.5t-42.5 107.5q0 68 52.5 120t121.5 52z" />
    <glyph glyph-name="quotedbl" unicode="&#x22;" horiz-adv-x="856" 
d="M588 924l90 510h256l-90 -510h-256zM164 924l90 510h256l-90 -510h-256z" />
    <glyph glyph-name="numbersign" unicode="#" horiz-adv-x="1548" 
d="M31 334l39 225h286l99 315h-267l39 226h297l105 334h243l-104 -334h328l104 334h244l-105 -334h256l-41 -226h-284l-99 -315h265l-39 -225h-295l-105 -334h-245l104 334h-326l-104 -334h-244l105 334h-256zM600 559h326l100 315h-328z" />
    <glyph glyph-name="dollar" unicode="$" horiz-adv-x="1273" 
d="M43 479l258 76q4 -161 81.5 -245.5t217.5 -84.5q148 0 248 68q100 69 100 174q0 70 -65.5 108.5t-218.5 57.5q-224 25 -335.5 113t-111.5 245q0 190 136 316.5t345 152.5l27 148h256l-29 -162q142 -39 228.5 -142.5t93.5 -250.5l-264 -86q-10 117 -73 180t-169 63
q-119 0 -199 -51q-84 -53 -84 -141q0 -57 53 -88.5t177 -44.5q506 -52 506 -373q0 -210 -148.5 -355.5t-380.5 -176.5l-26 -154h-256l28 158q-184 37 -287 167.5t-108 327.5z" />
    <glyph glyph-name="percent" unicode="%" horiz-adv-x="1505" 
d="M543 1448q117 0 193.5 -72.5t76.5 -181.5q0 -142 -108.5 -251t-247.5 -109q-118 0 -194.5 72.5t-76.5 183.5q0 141 109.5 249.5t247.5 108.5zM63 0l1262 1434h203l-1262 -1434h-203zM473 997q68 0 120 51.5t52 118.5q0 51 -33 85t-84 34q-68 0 -120 -51.5t-52 -120.5
q0 -51 33 -84t84 -33zM1126 600q118 0 194.5 -72.5t76.5 -181.5q2 -67 -28 -133.5t-79.5 -116.5t-116 -80.5t-133.5 -29.5q-116 0 -192 73.5t-76 184.5q0 142 107 249t247 107zM1057 150q68 0 120 51.5t52 120.5q0 50 -34 83t-85 33q-68 0 -119 -51t-51 -121q0 -51 33 -83.5
t84 -32.5z" />
    <glyph glyph-name="ampersand" unicode="&#x26;" horiz-adv-x="1415" 
d="M432 922q-31 79 -31 151q0 168 118 279.5t286 111.5q146 0 224.5 -73.5t78.5 -202.5q0 -128 -82.5 -232.5t-224.5 -167.5l203 -325q38 83 38 188q0 53 -12 109l240 61q10 -85 10 -131q0 -257 -139 -446l151 -244h-295l-45 72q-171 -103 -377 -103q-237 0 -380.5 117.5
t-143.5 316.5q0 182 99 314t282 205zM678 989q196 58 196 176q0 41 -24.5 62.5t-67.5 21.5q-63 0 -102 -42t-39 -109q0 -45 37 -109zM584 209q135 0 245 61l-280 453q-250 -78 -250 -291q0 -102 74 -162.5t211 -60.5z" />
    <glyph glyph-name="quotesingle" unicode="'" horiz-adv-x="436" 
d="M166 924l90 510h256l-90 -510h-256z" />
    <glyph glyph-name="parenleft" unicode="(" horiz-adv-x="595" 
d="M565 1624l168 -151q-213 -233 -324.5 -519.5t-111.5 -599.5q0 -328 121 -647l-211 -102q-133 360 -133 731q0 360 125.5 692t365.5 596z" />
    <glyph glyph-name="parenright" unicode=")" horiz-adv-x="595" 
d="M72 -395l-168 151q213 233 324.5 519t111.5 599q0 329 -121 648l211 102q133 -360 133 -731q0 -360 -125.5 -692t-365.5 -596z" />
    <glyph glyph-name="asterisk" unicode="*" horiz-adv-x="817" 
d="M170 1120l78 158l192 -68l39 224h174l-39 -226l207 68l45 -162l-225 -76l107 -178l-152 -98l-109 180l-163 -180l-123 112l164 179z" />
    <glyph glyph-name="plus" unicode="+" 
d="M117 590l45 256h383l67 383h258l-67 -383h383l-45 -256h-383l-68 -385h-258l68 385h-383z" />
    <glyph glyph-name="comma" unicode="," horiz-adv-x="448" 
d="M-84 -244l27 105h14q69 0 124.5 33.5t84.5 95.5q-6 -2 -27 -2q-67 0 -109 41.5t-42 103.5q0 72 51.5 122t120.5 50q73 0 115 -46.5t42 -125.5q0 -156 -99 -269.5t-238 -113.5q-34 0 -64 6z" />
    <glyph glyph-name="hyphen" unicode="-" horiz-adv-x="804" 
d="M94 492l43 245h615l-43 -245h-615z" />
    <glyph glyph-name="period" unicode="." horiz-adv-x="440" 
d="M172 305q63 0 105 -41.5t42 -103.5q0 -72 -51 -124t-118 -52t-109.5 41.5t-42.5 107.5q0 68 52.5 120t121.5 52z" />
    <glyph glyph-name="slash" unicode="/" horiz-adv-x="897" 
d="M-29 0l774 1434h259l-775 -1434h-258z" />
    <glyph glyph-name="zero" unicode="0" horiz-adv-x="1294" 
d="M803 1464q232 0 350.5 -141.5t118.5 -388.5q2 -186 -48 -362t-139.5 -311t-223 -215.5t-286.5 -76.5q-236 0 -355.5 142t-119.5 393q-2 184 49 359t141.5 309.5t225 215t287.5 76.5zM590 215q99 -3 181.5 58.5t134.5 163t80.5 224.5t27.5 248q0 151 -58.5 230.5
t-167.5 79.5q-99 4 -183 -57.5t-136.5 -162.5t-81.5 -224t-27 -247q0 -155 58.5 -234t171.5 -79z" />
    <glyph glyph-name="one" unicode="1" horiz-adv-x="718" 
d="M127 952l39 213q143 0 229.5 71.5t110.5 197.5h260l-254 -1434h-256l168 952h-297z" />
    <glyph glyph-name="two" unicode="2" horiz-adv-x="1187" 
d="M-6 0l22 127q27 155 109 256q85 108 180 164q109 65 258 133l105 49q136 67 203 141.5t67 178.5q0 81 -52 125.5t-145 44.5q-73 0 -131.5 -23.5t-95 -61t-61 -86.5t-33.5 -98.5t-6 -99.5l-267 29q-2 81 20.5 163.5t73 159t122 135.5t176 94t227.5 33q200 0 317 -102.5
t117 -274.5q0 -195 -105.5 -332t-314.5 -241l-88 -43q-151 -74 -220.5 -118.5t-113.5 -106.5h707l-43 -246h-1028z" />
    <glyph glyph-name="three" unicode="3" horiz-adv-x="1232" 
d="M63 449l271 49q-12 -44 -12 -86q0 -93 58.5 -145t172.5 -52q142 0 231.5 72t89.5 190q0 82 -65 126t-184 44h-131l43 236l129 2q122 0 189 53t67 141q0 64 -53 102t-148 38q-111 0 -178 -59.5t-80 -149.5l-252 37q35 183 179.5 300t363.5 117q208 0 320 -91t112 -243
q0 -104 -49 -191.5t-138 -150.5q150 -99 150 -274q3 -152 -80.5 -279t-227.5 -198t-313 -68q-225 0 -350 107t-125 278q0 33 10 95z" />
    <glyph glyph-name="four" unicode="4" horiz-adv-x="1226" 
d="M20 279l37 206l867 949h215l-162 -916h194l-43 -239h-192l-49 -279h-256l49 279h-660zM381 518h342l80 461z" />
    <glyph glyph-name="five" unicode="5" horiz-adv-x="1206" 
d="M59 492l265 24q-11 -57 -11 -82q0 -103 62.5 -161t177.5 -58q132 0 218 78.5t97 202.5q2 6 2 28q0 89 -59 141t-162 52q-84 0 -144 -28t-114 -79l-227 68l221 756h842l-45 -246h-611l-86 -285q104 43 207 43q202 0 320 -105t118 -284q0 -57 -8 -98q-37 -222 -196 -356
t-387 -134q-229 0 -361.5 115t-132.5 293q0 52 14 115z" />
    <glyph glyph-name="six" unicode="6" horiz-adv-x="1230" 
d="M797 1464q201 0 315.5 -104t114.5 -277q0 -35 -6 -69l-263 -33q5 35 5 63q0 175 -183 175q-132 0 -232.5 -106.5t-156.5 -287.5q150 125 340 125q189 0 305.5 -111t116.5 -288q3 -118 -46 -226.5t-133 -186t-197.5 -123t-235.5 -44.5q-208 0 -336.5 132.5t-128.5 373.5
q-1 122 21.5 244.5t66 233t108.5 205t143.5 163t177 106.5t204.5 35zM569 213q132 0 230 93.5t98 215.5q0 93 -64 151t-169 58q-125 0 -219.5 -91t-94.5 -220q0 -95 58.5 -151t160.5 -56z" />
    <glyph glyph-name="seven" unicode="7" horiz-adv-x="1128" 
d="M182 1188l43 246h1008l-43 -246q-218 -212 -410 -535q-194 -326 -282 -653h-265q78 305 250 629q167 315 373 559h-674z" />
    <glyph glyph-name="eight" unicode="8" horiz-adv-x="1267" 
d="M348 784q-104 91 -104 224q0 130 76.5 235t203 163t275.5 58q193 0 311.5 -98.5t118.5 -255.5q0 -109 -52 -196.5t-147 -145.5q72 -50 111 -122.5t39 -158.5q3 -146 -84 -267t-231.5 -187t-309.5 -64q-226 0 -360 106t-134 283q0 140 75.5 249.5t211.5 176.5zM702 874
q119 0 196 60t77 153q0 72 -56.5 116t-150.5 44q-117 0 -194.5 -62.5t-77.5 -158.5q0 -69 56 -110.5t150 -41.5zM584 201q143 0 233 75q94 76 94 193q0 87 -66 137.5t-181 50.5q-142 0 -238 -75.5t-96 -190.5q0 -88 68 -139t186 -51z" />
    <glyph glyph-name="nine" unicode="9" horiz-adv-x="1230" 
d="M510 -31q-201 0 -315.5 104t-114.5 277q0 36 6 70l262 33q-4 -28 -4 -64q0 -174 182 -174q132 0 232.5 106.5t156.5 286.5q-150 -125 -340 -125q-188 0 -304.5 111t-116.5 289q-4 157 80 292t226.5 212t305.5 75q208 0 336.5 -132.5t128.5 -373.5q1 -122 -21.5 -244.5
t-66 -233t-108.5 -205t-143.5 -163t-177 -106.5t-204.5 -35zM737 1221q-132 0 -229.5 -93.5t-97.5 -216.5q0 -93 64 -151t169 -58q125 0 219 91.5t94 220.5q0 95 -58.5 151t-160.5 56z" />
    <glyph glyph-name="colon" unicode=":" horiz-adv-x="442" 
d="M172 305q63 0 105 -41.5t42 -103.5q0 -72 -51 -124t-118 -52t-109.5 41.5t-42.5 107.5q0 68 52.5 120t121.5 52zM297 1012q63 0 105 -42t42 -104q0 -72 -51.5 -124t-118.5 -52t-109 42t-42 108q0 68 52.5 120t121.5 52z" />
    <glyph glyph-name="semicolon" unicode=";" horiz-adv-x="452" 
d="M307 1012q63 0 105.5 -42t42.5 -104q0 -72 -51.5 -124t-118.5 -52t-109.5 42t-42.5 108q0 68 52.5 120t121.5 52zM-84 -244l27 105h14q69 0 124.5 33.5t84.5 95.5q-6 -2 -27 -2q-67 0 -109 41.5t-42 103.5q0 72 51.5 122t120.5 50q73 0 115 -46.5t42 -125.5
q0 -156 -99 -269.5t-238 -113.5q-34 0 -64 6z" />
    <glyph glyph-name="less" unicode="&#x3c;" 
d="M113 569l49 295l1102 430l-52 -297l-749 -290l645 -291l-45 -275z" />
    <glyph glyph-name="equal" unicode="=" 
d="M162 850l45 256h1024l-45 -256h-1024zM70 328l45 256h1024l-45 -256h-1024z" />
    <glyph glyph-name="greater" unicode="&#x3e;" 
d="M37 145l49 285l735 287l-635 287l52 284l950 -428l-51 -285z" />
    <glyph glyph-name="question" unicode="?" horiz-adv-x="1087" 
d="M707 1464q227 0 329 -108q103 -109 103 -256q-2 -89 -22.5 -155.5t-66 -121.5t-98.5 -95.5t-141 -94.5q-84 -51 -122 -91t-48 -98l-6 -30h-268l8 43q15 103 59 168q39 61 84.5 96t134.5 84l52 29q82 49 119.5 102t37.5 129q0 71 -49 112.5t-145 41.5q-132 0 -209 -96
t-74 -226l-256 33q4 80 26.5 155t68.5 144.5t111 121t161 82.5t211 31zM479 305q63 0 105.5 -41.5t42.5 -103.5q0 -72 -51.5 -124t-118.5 -52t-109.5 41.5t-42.5 107.5q0 68 52.5 120t121.5 52z" />
    <glyph glyph-name="at" unicode="@" horiz-adv-x="1673" 
d="M958 1257q288 0 464.5 -167.5t176.5 -432.5q0 -225 -108 -369.5t-295 -144.5q-79 0 -132.5 28.5t-72.5 78.5q-113 -107 -250 -107q-124 0 -189 70.5t-65 187.5q-1 78 30.5 160.5t86.5 149.5t135.5 109t167.5 40q66 0 114 -23t73 -61l20 68h143l-122 -479q-1 -32 20.5 -49
t63.5 -17q105 0 159 100q58 101 58 248q0 210 -131 332.5t-361 122.5q-133 3 -263.5 -56.5t-226 -156.5t-153.5 -227.5t-55 -262.5q0 -205 138.5 -342t350.5 -137q105 0 195 32.5t143 92.5l113 -121q-85 -78 -204.5 -120t-258.5 -42q-185 0 -331 82.5t-227 227.5t-81 327
q-4 162 69 321.5t193 278.5t283 190.5t329 67.5zM784 295q99 0 169.5 86.5t70.5 183.5q0 66 -34 105t-99 39q-101 0 -171.5 -86.5t-70.5 -184.5q0 -64 35.5 -103.5t99.5 -39.5z" />
    <glyph glyph-name="A" unicode="A" horiz-adv-x="1517" 
d="M-63 0l833 1434h303l332 -1434h-270l-82 360h-621l-209 -360h-286zM573 606h424l-118 527z" />
    <glyph glyph-name="B" unicode="B" horiz-adv-x="1298" 
d="M31 0l254 1434h639q161 0 255.5 -86t94.5 -224q0 -116 -58 -215t-157 -155q74 -43 114.5 -115t40.5 -164q0 -200 -143.5 -337.5t-351.5 -137.5h-688zM438 854l357 -2q104 0 166.5 61t62.5 156q0 60 -41.5 92.5t-120.5 32.5h-364zM330 240h375q111 0 179 65.5t68 169.5
q0 68 -45 107t-129 39h-381z" />
    <glyph glyph-name="C" unicode="C" horiz-adv-x="1583" 
d="M965 1464q244 0 392.5 -134.5t151.5 -348.5l-239 -63q0 140 -87.5 220.5t-240.5 80.5q-114 3 -221 -48t-183 -135.5t-120.5 -197t-42.5 -228.5q0 -181 106.5 -288t290.5 -107q111 0 214.5 47t179.5 133t106 193l237 -72q-46 -159 -158 -284t-266 -194t-323 -69
q-295 0 -468 173t-173 454q-3 172 63.5 333t180.5 279.5t271.5 188.5t328.5 67z" />
    <glyph glyph-name="D" unicode="D" horiz-adv-x="1433" 
d="M31 0l254 1434h522q174 0 307.5 -77t205 -211t71.5 -302q3 -164 -60 -320.5t-169.5 -272.5t-255 -185t-308.5 -66h-567zM332 256h272q138 -4 261.5 78.5t194.5 215.5t68 273q0 159 -94.5 257t-253.5 98h-284z" />
    <glyph glyph-name="E" unicode="E" horiz-adv-x="1218" 
d="M31 0l254 1434h1013l-45 -246h-755l-60 -332h674l-43 -246h-674l-65 -364h760l-46 -246h-1013z" />
    <glyph glyph-name="F" unicode="F" horiz-adv-x="1200" 
d="M31 0l254 1434h1009l-45 -246h-751l-68 -375h670l-43 -246h-670l-100 -567h-256z" />
    <glyph glyph-name="G" unicode="G" horiz-adv-x="1562" 
d="M975 1464q247 0 397.5 -133t153.5 -348l-248 -65q-5 141 -89.5 221t-232.5 80q-155 3 -290.5 -81.5t-213.5 -227t-75 -302.5q0 -183 105.5 -288t291.5 -105q122 0 234 57t184 156h-352l41 231h616l-117 -659h-227l29 160q-87 -90 -204.5 -140.5t-256.5 -50.5
q-178 0 -316 78.5t-213 217t-75 315.5q-3 175 64.5 339.5t182 285t275.5 192t336 67.5z" />
    <glyph glyph-name="H" unicode="H" horiz-adv-x="1447" 
d="M31 0l254 1434h256l-103 -578h699l102 578h256l-254 -1434h-256l109 610h-699l-108 -610h-256z" />
    <glyph glyph-name="I" unicode="I" horiz-adv-x="493" 
d="M31 0l254 1434h256l-254 -1434h-256z" />
    <glyph glyph-name="J" unicode="J" horiz-adv-x="1196" 
d="M61 606l248 25q-37 -107 -37 -193q0 -112 65 -167.5t173 -55.5q125 0 213 76t111 209l163 934h256l-166 -947q-44 -245 -198 -381q-155 -137 -381 -137q-135 0 -242.5 45.5t-174 142t-66.5 232.5q0 102 36 217z" />
    <glyph glyph-name="K" unicode="K" horiz-adv-x="1370" 
d="M31 -2l254 1436h252l-103 -584l711 584h366l-763 -627l495 -809h-299l-395 645l-178 -147l-88 -498h-252z" />
    <glyph glyph-name="L" unicode="L" horiz-adv-x="1163" 
d="M31 0l254 1434h256l-211 -1188h753l-43 -246h-1009z" />
    <glyph glyph-name="M" unicode="M" horiz-adv-x="1830" 
d="M31 0l254 1434h301l284 -1139l684 1139h324l-254 -1434h-256l168 950l-571 -950h-271l-237 948l-170 -948h-256z" />
    <glyph glyph-name="N" unicode="N" horiz-adv-x="1499" 
d="M31 0l254 1434h305l512 -1059l188 1059h256l-254 -1434h-288l-523 1079l-194 -1079h-256z" />
    <glyph glyph-name="O" unicode="O" horiz-adv-x="1644" 
d="M973 1464q282 0 456.5 -173.5t174.5 -440.5q4 -170 -64.5 -333.5t-183.5 -285t-273 -194t-325 -68.5q-190 0 -336.5 79t-225.5 218t-79 314q-2 114 28.5 227t86.5 210.5t136.5 181.5t175 143t205.5 91.5t224 30.5zM772 215q114 -3 222.5 48t186.5 136t124.5 198t44.5 228
q0 176 -109 285t-287 109q-114 3 -223.5 -49.5t-188 -138t-125.5 -199t-44 -228.5q0 -175 108 -282t291 -107z" />
    <glyph glyph-name="P" unicode="P" horiz-adv-x="1269" 
d="M31 0l254 1434h626q182 0 287 -99t105 -262q0 -226 -151.5 -374t-383.5 -148h-383l-98 -551h-256zM428 797h358q118 0 188 66t70 175q0 72 -47 111t-135 39h-364z" />
    <glyph glyph-name="Q" unicode="Q" horiz-adv-x="1746" 
d="M973 1464q282 0 456.5 -173.5t174.5 -440.5q0 -247 -125 -457q-124 -207 -332 -323q31 -84 98 -84q75 0 113 59t35 125l213 -41q2 -62 -22 -125t-67 -115.5t-111.5 -85t-148.5 -32.5q-123 0 -195.5 57t-109.5 166q-95 -25 -194 -25q-190 0 -336.5 79t-225.5 218t-79 314
q-2 114 28.5 227t86.5 210.5t136.5 181.5t175 143t205.5 91.5t224 30.5zM506 299q45 100 127 157.5t184 57.5q107 0 169.5 -51t96.5 -150q124 87 195.5 223t71.5 289q0 176 -109 285t-287 109q-114 3 -223.5 -49.5t-188 -138t-125.5 -199t-44 -228.5q0 -196 133 -305z
M772 215q67 0 119 14q-28 88 -94 88q-38 0 -69 -25t-48 -69q36 -8 92 -8z" />
    <glyph glyph-name="R" unicode="R" horiz-adv-x="1286" 
d="M31 0l254 1434h633q183 0 286 -97.5t103 -263.5q0 -175 -92.5 -305.5t-249.5 -185.5l174 -584h-275l-159 553h-320l-98 -551h-256zM428 797h363q118 0 189 66t71 175q0 72 -47.5 111t-135.5 39h-370z" />
    <glyph glyph-name="S" unicode="S" horiz-adv-x="1273" 
d="M43 479l258 76q4 -161 81.5 -245.5t217.5 -84.5q148 0 248 68q100 69 100 174q0 70 -65.5 108.5t-218.5 57.5q-224 25 -335.5 113t-111.5 245q0 107 46.5 197.5t126 150.5t184 93.5t221.5 33.5q205 0 336 -114t143 -299l-264 -86q-10 117 -73 180t-169 63
q-119 0 -199 -51q-84 -53 -84 -141q0 -57 53 -88.5t177 -44.5q506 -52 506 -373q0 -157 -86.5 -282t-232.5 -192t-322 -67q-248 0 -392 138q-142 139 -145 370z" />
    <glyph glyph-name="T" unicode="T" horiz-adv-x="1259" 
d="M158 1188l43 246h1188l-43 -246h-467l-209 -1188h-256l209 1188h-465z" />
    <glyph glyph-name="U" unicode="U" horiz-adv-x="1404" 
d="M119 571l155 863h256l-155 -871q-8 -36 -8 -86q0 -125 72.5 -193.5t205.5 -68.5q160 0 269.5 96t138.5 262l151 861h256l-151 -873q-46 -263 -237 -427.5t-454 -164.5q-234 0 -371.5 132.5t-137.5 347.5q0 44 10 122z" />
    <glyph glyph-name="V" unicode="V" horiz-adv-x="1470" 
d="M190 1434h273l229 -1125l625 1125h295l-805 -1434h-318z" />
    <glyph glyph-name="W" unicode="W" horiz-adv-x="1923" 
d="M190 1434h256l78 -1057l463 1057h273l90 -1061l450 1061h264l-622 -1434h-307l-80 1014l-441 -1014h-309z" />
    <glyph glyph-name="X" unicode="X" horiz-adv-x="1447" 
d="M-63 0l653 721l-400 713h299l293 -527l480 527h327l-674 -736l394 -698h-305l-285 506l-455 -506h-327z" />
    <glyph glyph-name="Y" unicode="Y" horiz-adv-x="1376" 
d="M190 1434h277l268 -609l482 609h301l-695 -873l-98 -561h-256l100 569z" />
    <glyph glyph-name="Z" unicode="Z" horiz-adv-x="1288" 
d="M-14 0l45 246h-4l962 942h-792l43 246h1138l-43 -246h2l-968 -942h798l-43 -246h-1138z" />
    <glyph glyph-name="bracketleft" unicode="[" horiz-adv-x="589" 
d="M-39 -397l361 2023h436l-39 -209h-227l-281 -1605h227l-39 -209h-438z" />
    <glyph glyph-name="backslash" unicode="\" horiz-adv-x="888" 
d="M225 1434h246l270 -1434h-245z" />
    <glyph glyph-name="bracketright" unicode="]" horiz-adv-x="587" 
d="M668 1626l-361 -2023h-436l39 209h227l281 1605h-228l39 209h439z" />
    <glyph glyph-name="asciicircum" unicode="^" 
d="M84 717l539 717h307l293 -717h-285l-193 471l-354 -471h-307z" />
    <glyph glyph-name="underscore" unicode="_" horiz-adv-x="1026" 
d="M-143 -324l43 246h1024l-43 -246h-1024z" />
    <glyph glyph-name="grave" unicode="`" horiz-adv-x="1105" 
d="M465 1438h330l92 -287h-228z" />
    <glyph glyph-name="a" unicode="a" horiz-adv-x="1193" 
d="M61 512q37 216 191.5 366t347.5 150q202 0 301 -141l19 108h256l-179 -995h-254l17 92q-132 -123 -320 -123q-178 0 -283.5 118.5t-105.5 307.5q0 45 10 117zM522 219q134 0 224 103t90 243q0 98 -57 156.5t-154 58.5q-135 0 -226.5 -103.5t-91.5 -246.5
q0 -94 58.5 -152.5t156.5 -58.5z" />
    <glyph glyph-name="b" unicode="b" horiz-adv-x="1193" 
d="M18 0l254 1434h254l-94 -531q134 125 322 125q176 0 282.5 -119.5t106.5 -306.5q0 -60 -10 -115q-37 -218 -192 -368t-347 -150q-207 0 -301 144l-21 -113h-254zM569 219q134 0 226 102.5t92 237.5q0 99 -59 160t-158 61q-113 0 -199 -80q-88 -79 -109 -200
q-6 -34 -6 -62q0 -100 57.5 -159.5t155.5 -59.5z" />
    <glyph glyph-name="c" unicode="c" horiz-adv-x="1103" 
d="M61 514q41 220 200.5 366t377.5 146q177 0 283.5 -94.5t111.5 -249.5l-235 -72q2 78 -47.5 124t-135.5 46q-116 0 -204 -90.5t-97 -214.5q-2 -8 -2 -35q0 -105 55.5 -166t153.5 -61q97 0 175.5 59t103.5 152l231 -64q-51 -171 -198 -284q-145 -109 -330 -109
q-208 0 -330.5 120.5t-122.5 313.5q0 41 10 113z" />
    <glyph glyph-name="d" unicode="d" horiz-adv-x="1193" 
d="M61 512q37 216 191.5 366t347.5 150q202 0 301 -141l96 547h256l-254 -1434h-256l17 92q-132 -123 -320 -123q-178 0 -283.5 118.5t-105.5 307.5q0 45 10 117zM524 215q86 0 159 49.5t114 128.5t41 168q0 99 -57.5 160t-153.5 61q-132 0 -226 -103.5t-94 -242.5
q0 -99 59 -160t158 -61z" />
    <glyph glyph-name="e" unicode="e" horiz-adv-x="1091" 
d="M61 506q40 225 202.5 372.5t377.5 147.5q179 0 282 -103t103 -276q0 -52 -14 -135l-15 -84h-708q1 -110 61 -171.5t166 -61.5q88 0 159.5 50t102.5 132l223 -49q-52 -156 -198 -260q-144 -99 -318 -99q-199 0 -316.5 118t-117.5 308q0 43 10 111zM332 625h475
q8 79 -46 131.5t-151 52.5q-90 0 -162.5 -48.5t-115.5 -135.5z" />
    <glyph glyph-name="f" unicode="f" horiz-adv-x="991" 
d="M80 774l39 221h162l12 74q30 176 151 285q123 108 301 108q152 0 238 -79t86 -214q0 -37 -2 -47l-238 -47q1 7 2 16.5t2 16t1 10.5q0 55 -29.5 85t-79.5 30q-67 0 -114.5 -41.5t-59.5 -110.5l-14 -86h481l-39 -221h-483l-138 -778h-256l138 778h-160z" />
    <glyph glyph-name="g" unicode="g" horiz-adv-x="1169" 
d="M-20 -57l243 18q-4 -46 -4 -51q0 -81 51 -129.5t142 -48.5q119 0 202.5 80t108.5 219l18 104q-120 -108 -284 -108q-180 0 -291 115t-111 298q0 32 13 105q34 195 187.5 335t342.5 140q184 0 276 -133l19 108h256l-170 -968q-40 -232 -203 -375.5t-385 -143.5
q-190 0 -306 95.5t-116 251.5q0 24 11 88zM520 266q122 0 207.5 90t85.5 217q0 91 -55.5 146t-147.5 55q-124 0 -210.5 -92.5t-86.5 -214.5q0 -92 55.5 -146.5t151.5 -54.5z" />
    <glyph glyph-name="h" unicode="h" horiz-adv-x="1107" 
d="M18 0l254 1434h256l-92 -521q121 115 293 115q145 0 225 -80t80 -221q0 -33 -10 -98l-113 -629h-256l105 590q8 31 8 67q0 142 -143 142q-92 0 -159.5 -64t-90.5 -174l-101 -561h-256z" />
    <glyph glyph-name="i" unicode="i" horiz-adv-x="468" 
d="M18 0l177 995h256l-177 -995h-256zM385 1456q65 0 107.5 -42.5t42.5 -106.5t-50.5 -116t-117.5 -52q-66 0 -109 43t-43 106q0 67 51 117.5t119 50.5z" />
    <glyph glyph-name="j" unicode="j" horiz-adv-x="491" 
d="M-408 -182l220 18q-4 -48 18.5 -72t65.5 -24q49 0 79.5 28t38.5 78l203 1149h256l-207 -1151q-30 -157 -130.5 -246.5t-252.5 -89.5q-134 0 -213.5 69.5t-79.5 186.5q0 42 2 54zM410 1456q65 0 107 -42.5t42 -106.5t-51 -116t-117 -52q-65 0 -108 42.5t-43 106.5
q0 67 51 117.5t119 50.5z" />
    <glyph glyph-name="k" unicode="k" horiz-adv-x="1075" 
d="M18 0l254 1434h256l-137 -770l387 331h344l-491 -422l332 -573h-287l-238 408l-108 -93l-56 -315h-256z" />
    <glyph glyph-name="l" unicode="l" horiz-adv-x="468" 
d="M18 0l254 1434h256l-254 -1434h-256z" />
    <glyph glyph-name="m" unicode="m" horiz-adv-x="1538" 
d="M18 0l177 995h247l-16 -96q102 129 250 129q198 0 246 -168q114 168 292 168q123 0 189.5 -64.5t66.5 -187.5q0 -31 -10 -96l-117 -680h-245l110 629q6 34 6 61q0 109 -108 109q-70 0 -122.5 -52t-76.5 -153l-100 -594h-242l113 629q1 12 2 26t1.5 21.5t0.5 11.5
q0 111 -111 111q-74 0 -126.5 -57.5t-75.5 -166.5l-103 -575h-248z" />
    <glyph glyph-name="n" unicode="n" horiz-adv-x="1107" 
d="M18 0l177 995h256l-15 -82q121 115 293 115q145 0 225 -80t80 -221q0 -33 -10 -98l-113 -629h-256l105 590q8 44 8 67q0 142 -143 142q-92 0 -160.5 -65t-91.5 -175l-99 -559h-256z" />
    <glyph glyph-name="o" unicode="o" horiz-adv-x="1153" 
d="M61 510q37 222 204.5 369t391.5 147q204 0 324.5 -121.5t120.5 -314.5q0 -39 -10 -107q-37 -221 -204 -367.5t-388 -146.5q-205 0 -327 120.5t-122 311.5q0 41 10 109zM526 215q87 0 161.5 49.5t116.5 128t42 164.5q0 100 -59.5 161.5t-157.5 61.5q-131 0 -226.5 -104
t-95.5 -240q0 -98 60.5 -159.5t158.5 -61.5z" />
    <glyph glyph-name="p" unicode="p" horiz-adv-x="1196" 
d="M-61 -459l258 1454h256l-17 -88q136 121 318 121q175 0 283 -120t108 -306q0 -60 -10 -115q-37 -218 -192 -368t-347 -150q-201 0 -301 142l-100 -570h-256zM569 215q132 0 225 102.5t93 241.5q0 101 -58 162t-157 61q-119 0 -207 -88q-90 -87 -105 -223q-2 -8 -2 -35
q0 -100 57.5 -160.5t153.5 -60.5z" />
    <glyph glyph-name="q" unicode="q" horiz-adv-x="1196" 
d="M61 510q34 217 190 367.5t349 150.5q207 0 301 -143l21 110h256l-254 -1433h-256l94 532q-134 -125 -322 -125q-176 0 -282.5 118.5t-106.5 305.5q0 45 10 117zM524 215q113 0 199 80q87 81 108 203q7 40 7 63q0 99 -57.5 160t-153.5 61q-132 0 -226 -105t-94 -241
q0 -101 57.5 -161t159.5 -60z" />
    <glyph glyph-name="r" unicode="r" horiz-adv-x="948" 
d="M18 0l177 995h256l-15 -82q107 113 258 113q121 0 187.5 -68t66.5 -202q0 -74 -14 -140l-256 -38q16 66 16 100q0 115 -112 115q-76 0 -132 -65t-79 -187l-97 -541h-256z" />
    <glyph glyph-name="s" unicode="s" horiz-adv-x="956" 
d="M18 340l240 35q6 -172 176 -172q88 0 142.5 36t54.5 87v4q0 63 -158 73q-159 12 -245.5 84.5t-86.5 190.5v6q0 145 122.5 244.5t295.5 99.5q139 0 233 -80.5t111 -214.5l-217 -55q-14 115 -139 115q-63 0 -107 -26t-45 -67v-2q0 -25 26 -38t93 -19q177 -13 271 -86
t94 -195v-4q0 -167 -134 -277t-329 -110q-173 0 -282.5 102.5t-115.5 268.5z" />
    <glyph glyph-name="t" unicode="t" horiz-adv-x="1013" 
d="M80 774l39 221h162l51 287h256l-49 -287h473l-37 -221h-475l-76 -430q-4 -16 -4 -37q0 -106 115 -106q67 0 113.5 54.5t53.5 145.5l240 -39q-24 -179 -143 -286t-281 -107q-169 0 -262.5 79.5t-93.5 221.5q0 52 8 88l74 416h-164z" />
    <glyph glyph-name="u" unicode="u" horiz-adv-x="1107" 
d="M1090 995l-177 -995h-256l15 82q-121 -115 -293 -115q-145 0 -225 80t-80 221q0 34 10 99l113 628h256l-105 -589q-8 -44 -8 -68q0 -141 143 -141q92 0 160.5 64.5t91.5 174.5l99 559h256z" />
    <glyph glyph-name="v" unicode="v" horiz-adv-x="1134" 
d="M119 995h256l151 -678l394 678h272l-576 -995h-272z" />
    <glyph glyph-name="w" unicode="w" horiz-adv-x="1562" 
d="M129 995h246l71 -637l302 637h233l78 -635l293 635h258l-486 -995h-247l-76 610l-285 -610h-256z" />
    <glyph glyph-name="x" unicode="x" horiz-adv-x="1085" 
d="M-59 0l452 508l-266 487h285l159 -290l258 290h316l-455 -510l266 -485h-284l-158 287l-256 -287h-317z" />
    <glyph glyph-name="y" unicode="y" horiz-adv-x="1116" 
d="M-51 -63l246 20q-9 -46 -9 -63q0 -74 49 -117t132 -43q116 0 198.5 75.5t102.5 202.5l20 121q-123 -117 -295 -117q-145 0 -225 81t-80 222q0 34 10 99l99 577h254l-97 -540q-6 -35 -6 -66q0 -143 150 -143q98 0 167 69t89 189l88 491h256l-174 -981q-40 -222 -200 -364
t-376 -142q-187 0 -299 90.5t-112 243.5q0 42 12 95z" />
    <glyph glyph-name="z" unicode="z" horiz-adv-x="937" 
d="M-23 0l39 221l584 553h-485l39 221h807l-39 -221l-586 -553h487l-39 -221h-807z" />
    <glyph glyph-name="braceleft" unicode="{" horiz-adv-x="745" 
d="M33 512l4 25l6 32l18 103l11 49q106 0 192 65q87 66 105 168l63 346q29 162 126 242t230 80q56 0 121 -18l-67 -199q-30 10 -56 10q-54 0 -96 -37.5t-55 -109.5l-60 -328q-19 -103 -85.5 -189t-167.5 -141q147 -88 147 -252q0 -30 -6 -65l-57 -328q-5 -25 -5 -41
q0 -53 29 -79.5t76 -26.5q27 0 57 10l-2 -199q-59 -20 -123 -20q-112 0 -183 63.5t-71 188.5q0 43 9 86l57 332q4 32 4 38q0 87 -62 141t-159 54z" />
    <glyph glyph-name="bar" unicode="|" horiz-adv-x="417" 
d="M-29 -350l344 1958h181l-346 -1958h-179z" />
    <glyph glyph-name="braceright" unicode="}" horiz-adv-x="745" 
d="M754 717l-4 -25l-7 -33l-18 -102l-10 -49q-106 0 -193 -66q-86 -65 -104 -168l-64 -346q-29 -162 -126 -241.5t-230 -79.5q-56 0 -121 18l68 199q30 -10 55 -10q54 0 96.5 37.5t55.5 109.5l59 328q18 103 85.5 188.5t168.5 140.5q-70 42 -109 107t-39 145q0 26 7 66
l57 328q4 20 4 41q0 53 -28.5 79.5t-75.5 26.5q-28 0 -58 -10l2 198q61 21 123 21q112 0 183 -63.5t71 -188.5q0 -47 -8 -86l-57 -332q-1 -6 -2 -14.5t-2 -14.5t-1 -10q0 -87 62 -140.5t160 -53.5z" />
    <glyph glyph-name="asciitilde" unicode="~" 
d="M424 893q66 0 122.5 -13t135.5 -44q71 -25 102 -33t66 -8q53 0 98.5 27.5t100.5 90.5l174 -168q-93 -105 -180.5 -151.5t-188.5 -46.5q-120 0 -268 59q-1 0 -10 3.5t-22.5 8.5t-29.5 9q-56 16 -90 16q-53 0 -98.5 -28t-102.5 -93l-155 172q91 107 172 153t174 46z" />
    <glyph glyph-name="uni00A0" unicode="&#xa0;" horiz-adv-x="487" 
 />
    <glyph glyph-name="exclamdown" unicode="&#xa1;" horiz-adv-x="534" 
d="M315 690q-63 0 -105 42t-42 104q0 72 51.5 124t118.5 52t109 -42t42 -108q0 -68 -52.5 -120t-121.5 -52zM-29 -461l181 1012h256l-181 -1012h-256z" />
    <glyph glyph-name="cent" unicode="&#xa2;" horiz-adv-x="1140" 
d="M113 729q35 192 159 328q128 140 308 174l36 203h261l-39 -213q114 -32 178 -118t69 -206l-235 -72q2 78 -47 124t-135 46q-116 0 -204 -90.5t-97 -214.5q-2 -8 -2 -35q0 -105 55 -166t153 -61q97 0 175.5 59t103.5 152l231 -64q-44 -148 -159 -252t-267 -130l-32 -193
h-260l34 203q-139 38 -218 148.5t-79 264.5q0 34 11 113z" />
    <glyph glyph-name="sterling" unicode="&#xa3;" horiz-adv-x="1218" 
d="M6 178l2 2l-2 10q147 74 221.5 142.5t87.5 148.5q7 40 7 60q0 8 -2 27t-3 26h-237l39 215h131q-21 71 -21 147q0 56 9 105q35 187 181.5 296t366.5 109q192 0 307 -100t115 -256q0 -56 -18 -117l-262 -24q12 46 12 86q0 76 -48.5 121t-137.5 45q-105 0 -175.5 -56
t-89.5 -153q-2 -14 -2 -56q0 -62 29 -147h377l-39 -215h-291v-23q0 -61 -8 -110q-15 -98 -76 -180q34 -9 107 -35q74 -31 133 -31q147 0 160 141l245 -41q-6 -130 -98 -239q-88 -107 -299 -107q-70 0 -117 10t-106 35q-87 37 -162 37q-113 0 -223 -49l-56 -27z" />
    <glyph glyph-name="currency" unicode="&#xa4;" horiz-adv-x="1329" 
d="M39 307l188 164q-28 76 -28 160q0 185 114 338l-129 159l213 181l131 -156q122 64 258 64q139 0 246 -64l185 156l151 -183l-182 -155q28 -76 28 -156q0 -190 -120 -348l129 -160l-213 -182l-136 162q-117 -60 -245 -60q-135 0 -244 62l-195 -164zM662 469
q120 0 210.5 90.5t90.5 214.5q0 89 -58 146t-151 57q-122 0 -211.5 -92t-89.5 -213q0 -91 57.5 -147t151.5 -56z" />
    <glyph glyph-name="yen" unicode="&#xa5;" horiz-adv-x="1376" 
d="M186 221l35 197h322l24 137h-323l35 197h210l-299 682h277l268 -609l482 609h301l-543 -682h201l-35 -197h-320l-22 -137h317l-35 -197h-317l-39 -221h-256l39 221h-322z" />
    <glyph glyph-name="brokenbar" unicode="&#xa6;" horiz-adv-x="419" 
d="M160 717l155 891h181l-156 -891h-180zM-29 -350l158 897h180l-157 -897h-181z" />
    <glyph glyph-name="section" unicode="&#xa7;" horiz-adv-x="972" 
d="M25 303l198 62q5 -95 60.5 -148t156.5 -53q87 0 142 41t55 102q0 87 -170 105q-159 17 -240.5 81.5t-81.5 172.5q0 169 144 278q-66 60 -66 156q0 156 123 260t307 104q134 0 224.5 -74t107.5 -198l-192 -78q-24 158 -170 158q-78 0 -128.5 -35t-50.5 -90q0 -33 36 -54
t124 -34q181 -27 269 -88t88 -166q0 -76 -37.5 -149t-102.5 -130q66 -63 66 -155q0 -170 -139.5 -286t-339.5 -116q-165 0 -270.5 91t-112.5 243zM371 729q0 -41 38 -63t119 -35q69 -8 119 -23q88 40 88 131q0 38 -38.5 59.5t-125.5 35.5q-78 15 -114 26q-38 -20 -62 -54
t-24 -77z" />
    <glyph glyph-name="dieresis" unicode="&#xa8;" horiz-adv-x="1105" 
d="M494 1444q61 0 101 -39.5t40 -99.5q0 -67 -49 -116.5t-117 -49.5q-60 0 -98.5 40.5t-38.5 100.5q0 68 47.5 116t114.5 48zM877 1444q63 0 102 -38.5t39 -100.5q0 -64 -48.5 -115t-113.5 -51q-61 0 -100 40.5t-39 102.5q0 66 47 114t113 48z" />
    <glyph glyph-name="copyright" unicode="&#xa9;" horiz-adv-x="1695" 
d="M887 1464q148 3 287.5 -57t241 -161t161.5 -240.5t57 -288.5q3 -148 -57 -287.5t-161.5 -241t-241 -162t-287.5 -57.5q-148 -3 -287.5 57.5t-241 162t-162 241t-57.5 287.5q-3 148 57.5 287.5t162 241t241 161.5t287.5 57zM885 115q120 -2 232 47t194 131t130 194t46 230
q2 117 -46.5 229t-130 194.5t-194 131.5t-231.5 47q-118 2 -229.5 -47t-192.5 -131.5t-129 -194.5t-45 -229q-4 -158 77.5 -298.5t221 -223.5t297.5 -80zM897 1133q132 0 224.5 -71.5t115.5 -189.5l-137 -47q-12 74 -66.5 117t-138.5 43q-107 0 -178 -74q-70 -73 -70 -180
q0 -125 70.5 -201.5t185.5 -76.5q92 0 157.5 53.5t72.5 140.5l147 -33q-15 -137 -121 -221q-106 -86 -250 -86q-184 0 -298.5 116.5t-114.5 293.5q0 179 111.5 297.5t289.5 118.5z" />
    <glyph glyph-name="ordfeminine" unicode="&#xaa;" horiz-adv-x="854" 
d="M164 1083q28 156 136.5 261.5t244.5 105.5q144 0 211 -98l14 82h188l-124 -717h-189l12 67q-92 -86 -225 -86q-124 0 -200 84.5t-76 218.5q0 46 8 82zM496 883q85 0 145 61.5t68 153.5q2 4 2 20q0 68 -39.5 108t-106.5 40q-86 0 -148.5 -61.5t-68.5 -153.5v-15
q0 -70 40 -111.5t108 -41.5z" />
    <glyph glyph-name="guillemotleft" unicode="&#xab;" horiz-adv-x="1062" 
d="M66 532l292 379h277l-309 -397l174 -360h-252zM508 532l293 379h276l-309 -397l174 -360h-252z" />
    <glyph glyph-name="logicalnot" unicode="&#xac;" 
d="M137 741l45 256h1035l-99 -561h-280l53 305h-754z" />
    <glyph glyph-name="uni00AD" unicode="&#xad;" horiz-adv-x="804" 
d="M94 492l43 245h615l-43 -245h-615z" />
    <glyph glyph-name="registered" unicode="&#xae;" horiz-adv-x="1675" 
d="M877 1464q148 3 287.5 -57t241 -161t161.5 -240.5t57 -288.5q3 -148 -57 -287.5t-161.5 -241t-241 -162t-287.5 -57.5q-148 -3 -287.5 57.5t-241 162t-162 241t-57.5 287.5q-3 148 57.5 287.5t162 241t241 161.5t287.5 57zM874 115q120 -2 232.5 47t194 131t130 194
t46.5 230q2 117 -46.5 229t-130 194.5t-194.5 131.5t-232 47q-118 2 -229.5 -47t-192.5 -131.5t-128.5 -194.5t-44.5 -229q-3 -118 44.5 -230t128.5 -194t192.5 -131t229.5 -47zM596 322v792h356q115 0 184.5 -68.5t69.5 -177.5q0 -81 -37.5 -139t-107.5 -88l153 -322h-161
l-140 304h-172v-301h-145zM741 764h201q56 0 86.5 26.5t30.5 77.5q0 50 -31 77.5t-86 27.5h-201v-209z" />
    <glyph glyph-name="overscore" unicode="&#xaf;" horiz-adv-x="1105" 
d="M410 1196l36 199h492l-37 -199h-491z" />
    <glyph glyph-name="degree" unicode="&#xb0;" horiz-adv-x="757" 
d="M528 1448q123 0 203 -79t80 -198q0 -141 -105 -251.5t-253 -110.5q-124 0 -204.5 79.5t-80.5 198.5q0 91 47 173.5t131 135t182 52.5zM469 985q67 0 116.5 55.5t49.5 114.5q0 51 -34.5 84t-88.5 33q-68 0 -118 -50.5t-50 -119.5q0 -51 35.5 -84t89.5 -33z" />
    <glyph glyph-name="plusminus" unicode="&#xb1;" 
d="M164 852l45 256h383l67 383h259l-68 -383h383l-45 -256h-383l-68 -385h-258l68 385h-383zM27 109l43 245h1024l-43 -245h-1024z" />
    <glyph glyph-name="uni00B2" unicode="&#xb2;" horiz-adv-x="825" 
d="M111 672l14 84q17 103 78 176q59 70 123 108q59 34 186 93q110 52 156.5 97t46.5 118q0 102 -123 102q-55 0 -97.5 -22t-65.5 -57t-33 -74.5t-7 -77.5l-180 18q-2 69 23 135t72.5 121t127 89t178.5 34q130 0 206.5 -66.5t76.5 -177.5q0 -222 -242 -354q-16 -9 -92 -47
q-82 -40 -126 -68.5t-73 -64.5h447l-29 -166h-667z" />
    <glyph glyph-name="uni00B3" unicode="&#xb3;" horiz-adv-x="847" 
d="M154 963l182 34q-6 -27 -6 -53q0 -58 36 -90.5t107 -32.5q88 0 141.5 44t53.5 116q0 50 -39.5 77t-112.5 27h-84l29 160h84q77 1 117 33.5t40 87.5q0 86 -122 86q-69 0 -111.5 -37.5t-50.5 -91.5l-170 23q24 121 120.5 196.5t241.5 75.5q132 0 202.5 -59t70.5 -158
q0 -133 -119 -219q92 -62 92 -176q0 -66 -28.5 -129t-79.5 -113.5t-130.5 -81.5t-173.5 -31q-143 0 -220 68.5t-77 181.5q0 27 7 62z" />
    <glyph glyph-name="acute" unicode="&#xb4;" horiz-adv-x="1105" 
d="M416 1151l192 287h334l-295 -287h-231z" />
    <glyph glyph-name="uni00B5" unicode="&#xb5;" horiz-adv-x="1110" 
d="M-59 -438l256 1433h258l-99 -551q-14 -71 -14 -106q0 -141 143 -141q92 0 160.5 64.5t91.5 174.5l99 559h256l-177 -995h-256l15 82q-121 -115 -293 -115q-61 0 -107 15l-73 -420h-260z" />
    <glyph glyph-name="paragraph" unicode="&#xb6;" horiz-adv-x="1347" 
d="M606 1434h873l-37 -209h-203l-297 -1686h-235l294 1686h-194l-297 -1686h-238l191 1075q-150 0 -246 97.5t-96 242.5q-3 88 38.5 177.5t109 156t158 107.5t179.5 39z" />
    <glyph glyph-name="middot" unicode="&#xb7;" horiz-adv-x="442" 
d="M274 883q63 0 105.5 -42t42.5 -104q0 -72 -51.5 -124t-118.5 -52t-109.5 42t-42.5 108q0 68 52.5 120t121.5 52z" />
    <glyph glyph-name="cedilla" unicode="&#xb8;" horiz-adv-x="1105" 
d="M182 -324l133 41q-4 -29 13 -47t49 -18q35 0 59.5 23t24.5 55q0 25 -15.5 40t-44.5 15q-27 0 -47 -14l-94 77l121 175l133 -23l-65 -88q67 -1 112 -48t45 -116q0 -39 -14 -77.5t-42 -72.5t-75.5 -55.5t-107.5 -21.5q-82 0 -135.5 44.5t-49.5 110.5z" />
    <glyph glyph-name="uni00B9" unicode="&#xb9;" horiz-adv-x="532" 
d="M186 1280l27 143q91 0 148 46.5t71 127.5h176l-164 -925h-172l107 608h-193z" />
    <glyph glyph-name="ordmasculine" unicode="&#xba;" horiz-adv-x="858" 
d="M162 1081q28 157 148 263t278 106q145 0 230 -86t85 -227q0 -35 -6 -76q-25 -156 -144 -259.5t-278 -103.5q-146 0 -232.5 84.5t-86.5 221.5q0 36 6 77zM496 881q87 0 151 67q66 69 66 166q0 68 -41.5 110t-108.5 42q-88 0 -152.5 -70t-64.5 -166q0 -67 41 -108t109 -41z
" />
    <glyph glyph-name="guillemotright" unicode="&#xbb;" horiz-adv-x="1062" 
d="M440 154l310 397l-175 360h252l183 -379l-293 -378h-277zM-2 154l309 397l-174 360h252l182 -379l-293 -378h-276z" />
    <glyph glyph-name="onequarter" unicode="&#xbc;" horiz-adv-x="1798" 
d="M158 1116l26 144q91 0 148 46.5t71 127.5h177l-164 -926h-172l106 608h-192zM158 0l1261 1434h203l-1262 -1434h-202zM963 176l24 139l559 611h146l-105 -588h123l-29 -162h-122l-31 -176h-174l30 176h-421zM1204 338h209l51 283z" />
    <glyph glyph-name="onehalf" unicode="&#xbd;" horiz-adv-x="1939" 
d="M158 1116l26 144q91 0 148 46.5t71 127.5h177l-164 -926h-172l106 608h-192zM158 0l1261 1434h203l-1262 -1434h-202zM1106 0l14 84q17 103 78 176q60 72 123 109q50 29 186 92q110 52 156.5 97t46.5 118q0 102 -123 102q-55 0 -97.5 -22t-65.5 -57t-33 -74.5t-7 -77.5
l-180 18q-2 69 23 135t73 121t127.5 89t178.5 34q130 0 206 -66.5t76 -177.5q0 -223 -241 -354q-8 -5 -93 -47q-81 -40 -125 -68.5t-73 -64.5h446l-28 -166h-668z" />
    <glyph glyph-name="threequarters" unicode="&#xbe;" horiz-adv-x="2037" 
d="M125 799l182 35q-6 -27 -6 -54q0 -58 36 -90.5t107 -32.5q88 0 141.5 44t53.5 116q0 50 -39.5 77.5t-112.5 27.5h-84l29 159h84q77 1 117.5 33.5t40.5 87.5q0 41 -31.5 63.5t-91.5 22.5q-69 0 -111.5 -37.5t-50.5 -91.5l-170 23q24 121 121 196.5t242 75.5q132 0 202 -59
t70 -158q0 -133 -119 -219q92 -62 92 -176q0 -66 -28 -129t-79 -113.5t-130.5 -81.5t-173.5 -31q-143 0 -220 68.5t-77 181.5q0 32 6 62zM397 0l1262 1434h203l-1262 -1434h-203zM1202 176l25 139l559 611h145l-104 -588h123l-29 -162h-123l-31 -176h-174l31 176h-422z
M1444 338h209l51 283z" />
    <glyph glyph-name="questiondown" unicode="&#xbf;" horiz-adv-x="1087" 
d="M608 690q-63 0 -105 42t-42 104q0 72 51.5 124t118.5 52t109 -42t42 -108q0 -68 -52.5 -120t-121.5 -52zM381 -469q-227 0 -330 109q-102 108 -102 256q2 72 17 129.5t39 101.5t67 85.5t88.5 74t115.5 75.5q84 51 122 91t48 98l7 31h268l-8 -43q-15 -101 -60 -168
q-40 -61 -85.5 -97t-133.5 -84l-51 -28q-82 -49 -120 -102.5t-38 -129.5q0 -71 49.5 -112t145.5 -41q132 0 208.5 95.5t73.5 225.5l256 -32q-4 -80 -26 -155t-68 -144.5t-111 -121.5t-161 -83t-211 -31z" />
    <glyph glyph-name="Agrave" unicode="&#xc0;" horiz-adv-x="1517" 
d="M-63 0l833 1434h303l332 -1434h-270l-82 360h-621l-209 -360h-286zM573 606h424l-118 527zM641 1860h328l92 -287h-227z" />
    <glyph glyph-name="Aacute" unicode="&#xc1;" horiz-adv-x="1517" 
d="M-63 0l833 1434h303l332 -1434h-270l-82 360h-621l-209 -360h-286zM573 606h424l-118 527zM829 1573l193 287h332l-293 -287h-232z" />
    <glyph glyph-name="Acircumflex" unicode="&#xc2;" horiz-adv-x="1517" 
d="M-63 0l833 1434h303l332 -1434h-270l-82 360h-621l-209 -360h-286zM573 606h424l-118 527zM614 1573l258 287h234l154 -287h-213l-86 125l-132 -125h-215z" />
    <glyph glyph-name="Atilde" unicode="&#xc3;" horiz-adv-x="1517" 
d="M-63 0l833 1434h303l332 -1434h-270l-82 360h-621l-209 -360h-286zM573 606h424l-118 527zM860 1849q63 0 137 -41q57 -32 99 -32q74 0 121 90l137 -105q-46 -92 -116.5 -139t-154.5 -47q-67 0 -145 43q-55 31 -90 31q-68 0 -115 -86l-143 100q52 99 118.5 142.5
t151.5 43.5z" />
    <glyph glyph-name="Adieresis" unicode="&#xc4;" horiz-adv-x="1517" 
d="M-63 0l833 1434h303l332 -1434h-270l-82 360h-621l-209 -360h-286zM573 606h424l-118 527zM782 1872q62 0 103 -41t41 -102q0 -67 -49.5 -118.5t-116.5 -51.5q-61 0 -102.5 42.5t-41.5 104.5q0 66 50 116t116 50zM1186 1872q61 0 102 -43t41 -105q0 -66 -50 -115.5
t-116 -49.5q-61 0 -102 41.5t-41 101.5q0 64 50 117t116 53z" />
    <glyph glyph-name="Aring" unicode="&#xc5;" horiz-adv-x="1517" 
d="M-63 0l833 1434h303l332 -1434h-270l-82 360h-621l-209 -360h-286zM573 606h424l-118 527zM987 1931q79 0 134 -56t55 -136q0 -89 -69.5 -155t-154.5 -66q-79 0 -133.5 55t-54.5 135q0 87 67 155t156 68zM961 1651q36 0 59.5 22.5t23.5 57.5q0 29 -19 48t-48 19
q-32 0 -57 -24t-25 -56q0 -29 19.5 -48t46.5 -19z" />
    <glyph glyph-name="AE" unicode="&#xc6;" horiz-adv-x="2091" 
d="M-63 0l1132 1434h1102l-43 -246h-758l-59 -332h674l-43 -246h-674l-66 -364h760l-45 -246h-1014l64 360h-449l-285 -360h-296zM713 606h297l86 484z" />
    <glyph glyph-name="Ccedilla" unicode="&#xc7;" horiz-adv-x="1583" 
d="M965 1464q244 0 392.5 -134.5t151.5 -348.5l-239 -63q0 140 -87.5 220.5t-240.5 80.5q-114 3 -221 -48t-183 -135.5t-120.5 -197t-42.5 -228.5q0 -181 106.5 -288t290.5 -107q111 0 214.5 47t179.5 133t106 193l237 -72q-67 -227 -260 -378.5t-432 -166.5l-49 -67
q64 -2 113 -51t49 -121q0 -89 -63.5 -150t-164.5 -61q-85 0 -138.5 45t-49.5 112l125 39q-2 -31 15.5 -49t52.5 -18q36 0 57.5 21.5t21.5 54.5q0 27 -17 43t-46 16q-31 0 -45 -14l-100 71l96 131q-257 25 -405 194.5t-148 428.5q-3 172 63.5 333t180.5 279.5t271.5 188.5
t328.5 67z" />
    <glyph glyph-name="Egrave" unicode="&#xc8;" horiz-adv-x="1218" 
d="M31 0l254 1434h1013l-45 -246h-755l-60 -332h674l-43 -246h-674l-65 -364h760l-46 -246h-1013zM512 1860h328l92 -287h-227z" />
    <glyph glyph-name="Eacute" unicode="&#xc9;" horiz-adv-x="1218" 
d="M31 0l254 1434h1013l-45 -246h-755l-60 -332h674l-43 -246h-674l-65 -364h760l-46 -246h-1013zM700 1573l193 287h332l-293 -287h-232z" />
    <glyph glyph-name="Ecircumflex" unicode="&#xca;" horiz-adv-x="1218" 
d="M31 0l254 1434h1013l-45 -246h-755l-60 -332h674l-43 -246h-674l-65 -364h760l-46 -246h-1013zM485 1573l258 287h234l153 -287h-212l-87 125l-131 -125h-215z" />
    <glyph glyph-name="Edieresis" unicode="&#xcb;" horiz-adv-x="1218" 
d="M31 0l254 1434h1013l-45 -246h-755l-60 -332h674l-43 -246h-674l-65 -364h760l-46 -246h-1013zM653 1872q62 0 103 -41t41 -102q0 -67 -49.5 -118.5t-116.5 -51.5q-61 0 -102.5 42.5t-41.5 104.5q0 66 50 116t116 50zM1057 1872q61 0 102 -43t41 -105q0 -66 -50 -115.5
t-116 -49.5q-61 0 -102 41.5t-41 101.5q0 64 50 117t116 53z" />
    <glyph glyph-name="Igrave" unicode="&#xcc;" horiz-adv-x="493" 
d="M31 0l254 1434h256l-254 -1434h-256zM125 1860h328l92 -287h-228z" />
    <glyph glyph-name="Iacute" unicode="&#xcd;" horiz-adv-x="493" 
d="M31 0l254 1434h256l-254 -1434h-256zM313 1573l193 287h332l-293 -287h-232z" />
    <glyph glyph-name="Icircumflex" unicode="&#xce;" horiz-adv-x="493" 
d="M31 0l254 1434h256l-254 -1434h-256zM98 1573l258 287h234l153 -287h-213l-86 125l-131 -125h-215z" />
    <glyph glyph-name="Idieresis" unicode="&#xcf;" horiz-adv-x="493" 
d="M31 0l254 1434h256l-254 -1434h-256zM266 1872q62 0 103 -41t41 -102q0 -67 -49.5 -118.5t-116.5 -51.5q-61 0 -102.5 42.5t-41.5 104.5q0 66 50 116t116 50zM670 1872q61 0 102 -43t41 -105q0 -66 -50 -115.5t-116 -49.5q-61 0 -102 41.5t-41 101.5q0 64 50 117t116 53z
" />
    <glyph glyph-name="Eth" unicode="&#xd0;" horiz-adv-x="1464" 
d="M18 612l37 209h152l108 613h523q174 0 307.5 -77t204.5 -211t71 -302q2 -132 -37 -259.5t-113 -233t-172 -186t-220 -124t-250 -41.5h-568l109 612h-152zM362 256h273q138 -4 261.5 78.5t194.5 215.5t68 273q0 159 -94.5 257t-253.5 98h-285l-63 -357h295l-35 -209h-297z
" />
    <glyph glyph-name="Ntilde" unicode="&#xd1;" horiz-adv-x="1499" 
d="M31 0l254 1434h305l512 -1059l188 1059h256l-254 -1434h-288l-523 1079l-194 -1079h-256zM848 1849q63 0 137 -41q57 -32 98 -32q74 0 121 90l137 -105q-46 -92 -116 -139t-154 -47q-67 0 -145 43q-55 31 -90 31q-68 0 -115 -86l-143 100q52 99 118.5 142.5t151.5 43.5z
" />
    <glyph glyph-name="Ograve" unicode="&#xd2;" horiz-adv-x="1644" 
d="M973 1464q282 0 456.5 -173.5t174.5 -440.5q4 -170 -64.5 -333.5t-183.5 -285t-273 -194t-325 -68.5q-190 0 -336.5 79t-225.5 218t-79 314q-2 114 28.5 227t86.5 210.5t136.5 181.5t175 143t205.5 91.5t224 30.5zM772 215q114 -3 222.5 48t186.5 136t124.5 198t44.5 228
q0 176 -109 285t-287 109q-114 3 -223.5 -49.5t-188 -138t-125.5 -199t-44 -228.5q0 -175 108 -282t291 -107zM694 1860h328l92 -287h-227z" />
    <glyph glyph-name="Oacute" unicode="&#xd3;" horiz-adv-x="1644" 
d="M973 1464q282 0 456.5 -173.5t174.5 -440.5q4 -170 -64.5 -333.5t-183.5 -285t-273 -194t-325 -68.5q-190 0 -336.5 79t-225.5 218t-79 314q-2 114 28.5 227t86.5 210.5t136.5 181.5t175 143t205.5 91.5t224 30.5zM772 215q114 -3 222.5 48t186.5 136t124.5 198t44.5 228
q0 176 -109 285t-287 109q-114 3 -223.5 -49.5t-188 -138t-125.5 -199t-44 -228.5q0 -175 108 -282t291 -107zM883 1573l192 287h332l-293 -287h-231z" />
    <glyph glyph-name="Ocircumflex" unicode="&#xd4;" horiz-adv-x="1644" 
d="M973 1464q282 0 456.5 -173.5t174.5 -440.5q4 -170 -64.5 -333.5t-183.5 -285t-273 -194t-325 -68.5q-190 0 -336.5 79t-225.5 218t-79 314q-2 114 28.5 227t86.5 210.5t136.5 181.5t175 143t205.5 91.5t224 30.5zM772 215q114 -3 222.5 48t186.5 136t124.5 198t44.5 228
q0 176 -109 285t-287 109q-114 3 -223.5 -49.5t-188 -138t-125.5 -199t-44 -228.5q0 -175 108 -282t291 -107zM668 1573l258 287h233l154 -287h-213l-86 125l-131 -125h-215z" />
    <glyph glyph-name="Otilde" unicode="&#xd5;" horiz-adv-x="1644" 
d="M973 1464q282 0 456.5 -173.5t174.5 -440.5q4 -170 -64.5 -333.5t-183.5 -285t-273 -194t-325 -68.5q-190 0 -336.5 79t-225.5 218t-79 314q-2 114 28.5 227t86.5 210.5t136.5 181.5t175 143t205.5 91.5t224 30.5zM772 215q114 -3 222.5 48t186.5 136t124.5 198t44.5 228
q0 176 -109 285t-287 109q-114 3 -223.5 -49.5t-188 -138t-125.5 -199t-44 -228.5q0 -175 108 -282t291 -107zM913 1849q64 0 138 -41q57 -32 98 -32q74 0 121 90l137 -105q-46 -92 -116 -139t-154 -47q-68 0 -146 43q-55 31 -90 31q-68 0 -115 -86l-143 100
q52 99 118.5 142.5t151.5 43.5z" />
    <glyph glyph-name="Odieresis" unicode="&#xd6;" horiz-adv-x="1644" 
d="M973 1464q282 0 456.5 -173.5t174.5 -440.5q4 -170 -64.5 -333.5t-183.5 -285t-273 -194t-325 -68.5q-190 0 -336.5 79t-225.5 218t-79 314q-2 114 28.5 227t86.5 210.5t136.5 181.5t175 143t205.5 91.5t224 30.5zM772 215q114 -3 222.5 48t186.5 136t124.5 198t44.5 228
q0 176 -109 285t-287 109q-114 3 -223.5 -49.5t-188 -138t-125.5 -199t-44 -228.5q0 -175 108 -282t291 -107zM836 1872q62 0 102.5 -41t40.5 -102q0 -67 -49.5 -118.5t-116.5 -51.5q-61 0 -102 42.5t-41 104.5q0 66 50 116t116 50zM1239 1872q61 0 102 -43t41 -105
q0 -66 -49.5 -115.5t-115.5 -49.5q-61 0 -102.5 41.5t-41.5 101.5q0 64 50 117t116 53z" />
    <glyph glyph-name="multiply" unicode="&#xd7;" 
d="M94 414l385 321l-241 307l202 168l242 -307l367 307l153 -190l-368 -309l245 -314l-202 -170l-246 316l-383 -320z" />
    <glyph glyph-name="Oslash" unicode="&#xd8;" horiz-adv-x="1644" 
d="M973 1464q193 0 336 -82l129 146l164 -144l-127 -141q129 -163 129 -393q4 -170 -64.5 -333.5t-183.5 -285t-273 -194t-325 -68.5q-194 0 -346 82l-129 -143l-164 143l125 142q-127 160 -127 387q-2 114 28.5 227t86.5 210.5t136.5 181.5t175 143t205.5 91.5t224 30.5z
M426 395l704 791q-79 33 -176 33q-114 3 -223.5 -49.5t-188 -138t-125.5 -199t-44 -228.5q0 -120 53 -209zM772 215q114 -3 222.5 48t186.5 136t124.5 198t44.5 228q0 125 -56 217l-706 -792q84 -35 184 -35z" />
    <glyph glyph-name="Ugrave" unicode="&#xd9;" horiz-adv-x="1404" 
d="M119 571l155 863h256l-155 -871q-8 -36 -8 -86q0 -125 72.5 -193.5t205.5 -68.5q160 0 269.5 96t138.5 262l151 861h256l-151 -873q-46 -263 -237 -427.5t-454 -164.5q-234 0 -371.5 132.5t-137.5 347.5q0 44 10 122zM588 1860h327l93 -287h-228z" />
    <glyph glyph-name="Uacute" unicode="&#xda;" horiz-adv-x="1404" 
d="M119 571l155 863h256l-155 -871q-8 -36 -8 -86q0 -125 72.5 -193.5t205.5 -68.5q160 0 269.5 96t138.5 262l151 861h256l-151 -873q-46 -263 -237 -427.5t-454 -164.5q-234 0 -371.5 132.5t-137.5 347.5q0 44 10 122zM776 1573l193 287h331l-292 -287h-232z" />
    <glyph glyph-name="Ucircumflex" unicode="&#xdb;" horiz-adv-x="1404" 
d="M119 571l155 863h256l-155 -871q-8 -36 -8 -86q0 -125 72.5 -193.5t205.5 -68.5q160 0 269.5 96t138.5 262l151 861h256l-151 -873q-46 -263 -237 -427.5t-454 -164.5q-234 0 -371.5 132.5t-137.5 347.5q0 44 10 122zM561 1573l258 287h234l153 -287h-213l-86 125
l-131 -125h-215z" />
    <glyph glyph-name="Udieresis" unicode="&#xdc;" horiz-adv-x="1404" 
d="M119 571l155 863h256l-155 -871q-8 -36 -8 -86q0 -125 72.5 -193.5t205.5 -68.5q160 0 269.5 96t138.5 262l151 861h256l-151 -873q-46 -263 -237 -427.5t-454 -164.5q-234 0 -371.5 132.5t-137.5 347.5q0 44 10 122zM729 1872q61 0 102 -41t41 -102q0 -67 -49 -118.5
t-116 -51.5q-61 0 -102.5 42.5t-41.5 104.5q0 66 50 116t116 50zM1133 1872q61 0 102 -43t41 -105q0 -66 -50 -115.5t-116 -49.5q-61 0 -102 41.5t-41 101.5q0 64 50 117t116 53z" />
    <glyph glyph-name="Yacute" unicode="&#xdd;" horiz-adv-x="1376" 
d="M190 1434h277l268 -609l482 609h301l-695 -873l-98 -561h-256l100 569zM750 1573l192 287h332l-293 -287h-231z" />
    <glyph glyph-name="Thorn" unicode="&#xde;" horiz-adv-x="1269" 
d="M31 0l254 1434h256l-47 -267h372q183 0 287 -97.5t104 -260.5q0 -55 -8 -94q-34 -193 -174 -314q-137 -116 -350 -116h-387l-51 -285h-256zM381 530h358q105 0 172 51t84 144q4 46 4 47q0 73 -46 111.5t-136 38.5h-366z" />
    <glyph glyph-name="germandbls" unicode="&#xdf;" horiz-adv-x="1163" 
d="M20 0l189 1073q36 207 168.5 325t345.5 118q161 0 260.5 -85.5t99.5 -224.5q0 -162 -147 -291l-96 -86q-17 -17 -17 -26q0 -10 9.5 -19t39.5 -28l46 -31q95 -68 136.5 -134.5t41.5 -162.5q0 -198 -130.5 -328.5t-328.5 -130.5q-79 0 -151 20t-119 56l116 195
q62 -45 144 -45q94 0 158.5 61.5t64.5 149.5q0 39 -23 77q-19 31 -46.5 53t-100.5 70q-60 39 -89.5 78t-29.5 88q0 48 23 86q17 28 96 107l61 59q46 46 65 81t19 71q0 44 -35.5 71t-99.5 27q-90 0 -150 -59.5t-79 -159.5l-185 -1055h-256z" />
    <glyph glyph-name="agrave" unicode="&#xe0;" horiz-adv-x="1193" 
d="M61 512q37 216 191.5 366t347.5 150q202 0 301 -141l19 108h256l-179 -995h-254l17 92q-132 -123 -320 -123q-178 0 -283.5 118.5t-105.5 307.5q0 45 10 117zM522 219q134 0 224 103t90 243q0 98 -57 156.5t-154 58.5q-135 0 -226.5 -103.5t-91.5 -246.5
q0 -94 58.5 -152.5t156.5 -58.5zM371 1438h329l93 -287h-228z" />
    <glyph glyph-name="aacute" unicode="&#xe1;" horiz-adv-x="1193" 
d="M61 512q37 216 191.5 366t347.5 150q202 0 301 -141l19 108h256l-179 -995h-254l17 92q-132 -123 -320 -123q-178 0 -283.5 118.5t-105.5 307.5q0 45 10 117zM522 219q134 0 224 103t90 243q0 98 -57 156.5t-154 58.5q-135 0 -226.5 -103.5t-91.5 -246.5
q0 -94 58.5 -152.5t156.5 -58.5zM555 1151l193 287h333l-295 -287h-231z" />
    <glyph glyph-name="acircumflex" unicode="&#xe2;" horiz-adv-x="1193" 
d="M61 512q37 216 191.5 366t347.5 150q202 0 301 -141l19 108h256l-179 -995h-254l17 92q-132 -123 -320 -123q-178 0 -283.5 118.5t-105.5 307.5q0 45 10 117zM522 219q134 0 224 103t90 243q0 98 -57 156.5t-154 58.5q-135 0 -226.5 -103.5t-91.5 -246.5
q0 -94 58.5 -152.5t156.5 -58.5zM338 1151l258 287h235l154 -287h-215l-86 127l-129 -127h-217z" />
    <glyph glyph-name="atilde" unicode="&#xe3;" horiz-adv-x="1193" 
d="M61 512q37 216 191.5 366t347.5 150q202 0 301 -141l19 108h256l-179 -995h-254l17 92q-132 -123 -320 -123q-178 0 -283.5 118.5t-105.5 307.5q0 45 10 117zM522 219q134 0 224 103t90 243q0 98 -57 156.5t-154 58.5q-135 0 -226.5 -103.5t-91.5 -246.5
q0 -94 58.5 -152.5t156.5 -58.5zM590 1430q69 0 143 -41q56 -29 84 -29q57 0 117 84l137 -113q-40 -84 -109 -129t-151 -45q-62 0 -137 43q-1 0 -10.5 5t-20.5 10t-25.5 9.5t-25.5 4.5q-68 0 -121 -84l-135 104q47 92 114 136.5t140 44.5z" />
    <glyph glyph-name="adieresis" unicode="&#xe4;" horiz-adv-x="1193" 
d="M61 512q37 216 191.5 366t347.5 150q202 0 301 -141l19 108h256l-179 -995h-254l17 92q-132 -123 -320 -123q-178 0 -283.5 118.5t-105.5 307.5q0 45 10 117zM522 219q134 0 224 103t90 243q0 98 -57 156.5t-154 58.5q-135 0 -226.5 -103.5t-91.5 -246.5
q0 -94 58.5 -152.5t156.5 -58.5zM520 1444q61 0 101.5 -39.5t40.5 -99.5q0 -67 -49 -116.5t-117 -49.5q-60 0 -99 40.5t-39 100.5q0 68 47.5 116t114.5 48zM903 1444q63 0 102 -38.5t39 -100.5q0 -64 -48 -115t-113 -51q-61 0 -100.5 40.5t-39.5 102.5q0 66 47 114t113 48z
" />
    <glyph glyph-name="aring" unicode="&#xe5;" horiz-adv-x="1193" 
d="M61 512q37 216 191.5 366t347.5 150q202 0 301 -141l19 108h256l-179 -995h-254l17 92q-132 -123 -320 -123q-178 0 -283.5 118.5t-105.5 307.5q0 45 10 117zM522 219q134 0 224 103t90 243q0 98 -57 156.5t-154 58.5q-135 0 -226.5 -103.5t-91.5 -246.5
q0 -94 58.5 -152.5t156.5 -58.5zM715 1499q79 0 133.5 -55t54.5 -135q0 -89 -69 -155.5t-154 -66.5q-79 0 -133.5 55.5t-54.5 133.5q0 87 68 155t155 68zM690 1221q33 0 57.5 22.5t24.5 56.5q0 29 -19 47.5t-46 18.5q-36 0 -60 -22.5t-24 -57.5q0 -27 19 -46t48 -19z" />
    <glyph glyph-name="ae" unicode="&#xe6;" horiz-adv-x="1691" 
d="M20 276q34 187 211 269t441 82l8 41q4 20 4 34q0 54 -39 83.5t-113 29.5q-90 0 -147 -53.5t-68 -145.5l-229 27q14 121 83 210t168.5 132t217.5 43q241 0 315 -151q155 149 367 149q179 0 282 -102t103 -275q0 -62 -16 -137l-19 -84h-706q2 -109 62 -171t165 -62
q94 0 168.5 52t103.5 138l224 -39q-45 -165 -194.5 -271t-328.5 -106q-123 0 -215.5 51t-144.5 144q-65 -90 -165.5 -142.5t-221.5 -52.5q-153 0 -236.5 72.5t-83.5 183.5q0 5 4 51zM926 625h473q7 82 -47 133t-146 51q-91 0 -165 -49t-115 -135zM391 197q88 0 153.5 58.5
t88.5 156.5l4 20q-208 3 -293 -45q-82 -46 -82 -104q0 -41 33.5 -63.5t95.5 -22.5z" />
    <glyph glyph-name="ccedilla" unicode="&#xe7;" horiz-adv-x="1103" 
d="M61 514q41 220 200.5 366t377.5 146q177 0 283.5 -94.5t111.5 -249.5l-235 -72q2 78 -47.5 124t-135.5 46q-126 0 -214.5 -102t-88.5 -238q0 -105 55.5 -166t153.5 -61q97 0 175.5 59t103.5 152l231 -64q-46 -157 -176 -266q-128 -107 -295 -125l-43 -57q68 -2 113 -48.5
t45 -115.5q0 -39 -14.5 -77.5t-42 -72.5t-75.5 -55.5t-108 -21.5q-82 0 -135 44.5t-49 110.5l133 41q-5 -29 12 -47t49 -18q35 0 59.5 23t24.5 55q0 25 -15 40t-44 15q-27 0 -47 -14l-94 77l86 125q-170 25 -267.5 140t-97.5 288q0 41 10 113z" />
    <glyph glyph-name="egrave" unicode="&#xe8;" horiz-adv-x="1091" 
d="M61 506q40 225 202.5 372.5t377.5 147.5q179 0 282 -103t103 -276q0 -52 -14 -135l-15 -84h-708q1 -110 61 -171.5t166 -61.5q88 0 159.5 50t102.5 132l223 -49q-52 -156 -198 -260q-144 -99 -318 -99q-199 0 -316.5 118t-117.5 308q0 43 10 111zM332 625h475
q8 79 -46 131.5t-151 52.5q-90 0 -162.5 -48.5t-115.5 -135.5zM362 1438h330l92 -287h-227z" />
    <glyph glyph-name="eacute" unicode="&#xe9;" horiz-adv-x="1091" 
d="M61 506q40 225 202.5 372.5t377.5 147.5q179 0 282 -103t103 -276q0 -52 -14 -135l-15 -84h-708q1 -110 61 -171.5t166 -61.5q88 0 159.5 50t102.5 132l223 -49q-52 -156 -198 -260q-144 -99 -318 -99q-199 0 -316.5 118t-117.5 308q0 43 10 111zM332 625h475
q8 79 -46 131.5t-151 52.5q-90 0 -162.5 -48.5t-115.5 -135.5zM547 1151l192 287h334l-295 -287h-231z" />
    <glyph glyph-name="ecircumflex" unicode="&#xea;" horiz-adv-x="1091" 
d="M61 506q40 225 202.5 372.5t377.5 147.5q179 0 282 -103t103 -276q0 -52 -14 -135l-15 -84h-708q1 -110 61 -171.5t166 -61.5q88 0 159.5 50t102.5 132l223 -49q-52 -156 -198 -260q-144 -99 -318 -99q-199 0 -316.5 118t-117.5 308q0 43 10 111zM332 625h475
q8 79 -46 131.5t-151 52.5q-90 0 -162.5 -48.5t-115.5 -135.5zM330 1151l258 287h235l154 -287h-215l-86 127l-129 -127h-217z" />
    <glyph glyph-name="edieresis" unicode="&#xeb;" horiz-adv-x="1091" 
d="M61 506q40 225 202.5 372.5t377.5 147.5q179 0 282 -103t103 -276q0 -52 -14 -135l-15 -84h-708q1 -110 61 -171.5t166 -61.5q88 0 159.5 50t102.5 132l223 -49q-52 -156 -198 -260q-144 -99 -318 -99q-199 0 -316.5 118t-117.5 308q0 43 10 111zM332 625h475
q8 79 -46 131.5t-151 52.5q-90 0 -162.5 -48.5t-115.5 -135.5zM512 1444q61 0 101 -39.5t40 -99.5q0 -67 -49 -116.5t-117 -49.5q-60 0 -98.5 40.5t-38.5 100.5q0 68 47.5 116t114.5 48zM895 1444q63 0 102 -38.5t39 -100.5q0 -64 -48.5 -115t-113.5 -51q-61 0 -100 40.5
t-39 102.5q0 66 47 114t113 48z" />
    <glyph glyph-name="igrave" unicode="&#xec;" horiz-adv-x="468" 
d="M131 1438h299l31 -287h-215zM18 0l177 995h256l-177 -995h-256z" />
    <glyph glyph-name="iacute" unicode="&#xed;" horiz-adv-x="468" 
d="M233 1151l152 287h313l-239 -287h-226zM18 0l177 995h256l-177 -995h-256z" />
    <glyph glyph-name="icircumflex" unicode="&#xee;" horiz-adv-x="468" 
d="M70 1151l202 287h267l92 -287h-199l-53 123l-107 -123h-202zM18 0l177 995h256l-177 -995h-256z" />
    <glyph glyph-name="idieresis" unicode="&#xef;" horiz-adv-x="468" 
d="M203 1444q61 0 101 -39.5t40 -99.5q0 -67 -48.5 -116.5t-115.5 -49.5q-61 0 -100 40t-39 101q0 68 47.5 116t114.5 48zM563 1444q61 0 101.5 -39.5t40.5 -99.5q0 -67 -48.5 -116.5t-115.5 -49.5q-61 0 -100.5 40.5t-39.5 102.5q0 66 47.5 114t114.5 48zM18 0l177 995h256
l-177 -995h-256z" />
    <glyph glyph-name="eth" unicode="&#xf0;" horiz-adv-x="1171" 
d="M61 510q37 217 203 360.5t387 143.5q138 0 221 -80q-14 113 -112 250l-238 -92l-51 155l172 66q-66 60 -115 94l170 156q90 -76 174 -166l215 82l50 -152l-158 -61q162 -229 162 -508q0 -85 -21 -211q-21 -123 -76.5 -229.5t-135 -183.5t-184.5 -121t-220 -44
q-205 0 -329 120.5t-124 311.5q0 41 10 109zM526 215q123 0 212 87t106 224q2 6 2 31q0 100 -59.5 161.5t-157.5 61.5q-117 0 -205 -82q-90 -81 -111 -202q-6 -30 -6 -58q0 -100 60 -161.5t159 -61.5z" />
    <glyph glyph-name="ntilde" unicode="&#xf1;" horiz-adv-x="1107" 
d="M18 0l177 995h256l-15 -82q121 115 293 115q145 0 225 -80t80 -221q0 -33 -10 -98l-113 -629h-256l105 590q8 44 8 67q0 142 -143 142q-92 0 -160.5 -65t-91.5 -175l-99 -559h-256zM582 1430q69 0 143 -41q56 -29 84 -29q57 0 117 84l137 -113q-40 -84 -109 -129
t-151 -45q-62 0 -137 43q-1 0 -10.5 5t-20.5 10t-25.5 9.5t-25.5 4.5q-68 0 -121 -84l-135 104q47 92 114 136.5t140 44.5z" />
    <glyph glyph-name="ograve" unicode="&#xf2;" horiz-adv-x="1153" 
d="M61 510q37 222 204.5 369t391.5 147q204 0 324.5 -121.5t120.5 -314.5q0 -39 -10 -107q-37 -221 -204 -367.5t-388 -146.5q-205 0 -327 120.5t-122 311.5q0 41 10 109zM526 215q87 0 161.5 49.5t116.5 128t42 164.5q0 100 -59.5 161.5t-157.5 61.5q-131 0 -226.5 -104
t-95.5 -240q0 -98 60.5 -159.5t158.5 -61.5zM385 1438h330l92 -287h-227z" />
    <glyph glyph-name="oacute" unicode="&#xf3;" horiz-adv-x="1153" 
d="M61 510q37 222 204.5 369t391.5 147q204 0 324.5 -121.5t120.5 -314.5q0 -39 -10 -107q-37 -221 -204 -367.5t-388 -146.5q-205 0 -327 120.5t-122 311.5q0 41 10 109zM526 215q87 0 161.5 49.5t116.5 128t42 164.5q0 100 -59.5 161.5t-157.5 61.5q-131 0 -226.5 -104
t-95.5 -240q0 -98 60.5 -159.5t158.5 -61.5zM569 1151l193 287h334l-295 -287h-232z" />
    <glyph glyph-name="ocircumflex" unicode="&#xf4;" horiz-adv-x="1153" 
d="M61 510q37 222 204.5 369t391.5 147q204 0 324.5 -121.5t120.5 -314.5q0 -39 -10 -107q-37 -221 -204 -367.5t-388 -146.5q-205 0 -327 120.5t-122 311.5q0 41 10 109zM526 215q87 0 161.5 49.5t116.5 128t42 164.5q0 100 -59.5 161.5t-157.5 61.5q-131 0 -226.5 -104
t-95.5 -240q0 -98 60.5 -159.5t158.5 -61.5zM352 1151l258 287h236l153 -287h-215l-86 127l-129 -127h-217z" />
    <glyph glyph-name="otilde" unicode="&#xf5;" horiz-adv-x="1153" 
d="M61 510q37 222 204.5 369t391.5 147q204 0 324.5 -121.5t120.5 -314.5q0 -39 -10 -107q-37 -221 -204 -367.5t-388 -146.5q-205 0 -327 120.5t-122 311.5q0 41 10 109zM526 215q87 0 161.5 49.5t116.5 128t42 164.5q0 100 -59.5 161.5t-157.5 61.5q-131 0 -226.5 -104
t-95.5 -240q0 -98 60.5 -159.5t158.5 -61.5zM604 1430q70 0 144 -41q56 -29 83 -29q57 0 117 84l137 -113q-40 -84 -109 -129t-151 -45q-62 0 -137 43q-1 0 -10.5 5t-20.5 10t-25.5 9.5t-25.5 4.5q-68 0 -121 -84l-135 104q47 92 114 136.5t140 44.5z" />
    <glyph glyph-name="odieresis" unicode="&#xf6;" horiz-adv-x="1153" 
d="M61 510q37 222 204.5 369t391.5 147q204 0 324.5 -121.5t120.5 -314.5q0 -39 -10 -107q-37 -221 -204 -367.5t-388 -146.5q-205 0 -327 120.5t-122 311.5q0 41 10 109zM526 215q87 0 161.5 49.5t116.5 128t42 164.5q0 100 -59.5 161.5t-157.5 61.5q-131 0 -226.5 -104
t-95.5 -240q0 -98 60.5 -159.5t158.5 -61.5zM535 1444q61 0 101 -39.5t40 -99.5q0 -67 -49 -116.5t-117 -49.5q-60 0 -98.5 40.5t-38.5 100.5q0 68 47.5 116t114.5 48zM918 1444q63 0 102 -38.5t39 -100.5q0 -64 -48.5 -115t-113.5 -51q-61 0 -100 40.5t-39 102.5
q0 66 47 114t113 48z" />
    <glyph glyph-name="divide" unicode="&#xf7;" 
d="M737 1319q63 0 105.5 -41.5t42.5 -103.5q0 -72 -51.5 -124.5t-118.5 -52.5t-109.5 42t-42.5 108q0 68 52.5 120t121.5 52zM80 598l41 242h1102l-43 -242h-1100zM582 444q63 0 105 -41.5t42 -103.5q0 -72 -51.5 -124t-118.5 -52t-109 41.5t-42 107.5q0 68 52.5 120
t121.5 52z" />
    <glyph glyph-name="oslash" unicode="&#xf8;" horiz-adv-x="1153" 
d="M49 35l86 96q-84 116 -84 270q0 41 10 109q37 222 204.5 369t391.5 147q137 0 232 -53l96 106l129 -118l-92 -103q80 -115 80 -268q0 -39 -10 -107q-37 -221 -204 -367.5t-388 -146.5q-127 0 -228 49l-94 -104zM324 342l383 426q-37 12 -78 12q-131 0 -226.5 -104
t-95.5 -240q0 -41 17 -94zM526 215q131 0 225.5 104t94.5 236q0 53 -15 90l-374 -420q38 -10 69 -10z" />
    <glyph glyph-name="ugrave" unicode="&#xf9;" horiz-adv-x="1107" 
d="M1090 995l-177 -995h-256l15 82q-121 -115 -293 -115q-145 0 -225 80t-80 221q0 34 10 99l113 628h256l-105 -589q-8 -44 -8 -68q0 -141 143 -141q92 0 160.5 64.5t91.5 174.5l99 559h256zM369 1438h329l93 -287h-228z" />
    <glyph glyph-name="uacute" unicode="&#xfa;" horiz-adv-x="1107" 
d="M1090 995l-177 -995h-256l15 82q-121 -115 -293 -115q-145 0 -225 80t-80 221q0 34 10 99l113 628h256l-105 -589q-8 -44 -8 -68q0 -141 143 -141q92 0 160.5 64.5t91.5 174.5l99 559h256zM553 1151l192 287h334l-295 -287h-231z" />
    <glyph glyph-name="ucircumflex" unicode="&#xfb;" horiz-adv-x="1107" 
d="M1090 995l-177 -995h-256l15 82q-121 -115 -293 -115q-145 0 -225 80t-80 221q0 34 10 99l113 628h256l-105 -589q-8 -44 -8 -68q0 -141 143 -141q92 0 160.5 64.5t91.5 174.5l99 559h256zM336 1151l258 287h235l154 -287h-215l-86 127l-129 -127h-217z" />
    <glyph glyph-name="udieresis" unicode="&#xfc;" horiz-adv-x="1107" 
d="M1090 995l-177 -995h-256l15 82q-121 -115 -293 -115q-145 0 -225 80t-80 221q0 34 10 99l113 628h256l-105 -589q-8 -44 -8 -68q0 -141 143 -141q92 0 160.5 64.5t91.5 174.5l99 559h256zM518 1444q61 0 101 -39.5t40 -99.5q0 -67 -48.5 -116.5t-116.5 -49.5
q-60 0 -99 40.5t-39 100.5q0 68 47.5 116t114.5 48zM901 1444q63 0 102 -38.5t39 -100.5q0 -64 -48 -115t-113 -51q-61 0 -100.5 40.5t-39.5 102.5q0 66 47 114t113 48z" />
    <glyph glyph-name="yacute" unicode="&#xfd;" horiz-adv-x="1116" 
d="M-51 -63l246 20q-9 -46 -9 -63q0 -74 49 -117t132 -43q116 0 198.5 75.5t102.5 202.5l20 121q-123 -117 -295 -117q-145 0 -225 81t-80 222q0 34 10 99l99 577h254l-97 -540q-6 -35 -6 -66q0 -143 150 -143q98 0 167 69t89 189l88 491h256l-174 -981q-40 -222 -200 -364
t-376 -142q-187 0 -299 90.5t-112 243.5q0 42 12 95zM549 1151l192 287h334l-295 -287h-231z" />
    <glyph glyph-name="thorn" unicode="&#xfe;" horiz-adv-x="1196" 
d="M-61 -459l333 1893h256l-92 -529q129 123 318 123q175 0 283 -120t108 -306q0 -60 -10 -115q-37 -218 -192 -368t-347 -150q-201 0 -301 142l-100 -570h-256zM569 215q132 0 225 102.5t93 241.5q0 101 -58 162t-157 61q-119 0 -207 -88q-90 -87 -105 -223q-2 -8 -2 -35
q0 -100 57.5 -160.5t153.5 -60.5z" />
    <glyph glyph-name="ydieresis" unicode="&#xff;" horiz-adv-x="1116" 
d="M-51 -63l246 20q-9 -46 -9 -63q0 -74 49 -117t132 -43q116 0 198.5 75.5t102.5 202.5l20 121q-123 -117 -295 -117q-145 0 -225 81t-80 222q0 34 10 99l99 577h254l-97 -540q-6 -35 -6 -66q0 -143 150 -143q98 0 167 69t89 189l88 491h256l-174 -981q-40 -222 -200 -364
t-376 -142q-187 0 -299 90.5t-112 243.5q0 42 12 95zM514 1444q61 0 101 -39.5t40 -99.5q0 -67 -49 -116.5t-117 -49.5q-60 0 -98.5 40.5t-38.5 100.5q0 68 47.5 116t114.5 48zM897 1444q63 0 102 -38.5t39 -100.5q0 -64 -48 -115t-113 -51q-61 0 -100.5 40.5t-39.5 102.5
q0 66 47 114t113 48z" />
    <glyph glyph-name="Amacron" unicode="&#x100;" horiz-adv-x="1517" 
d="M-63 0l833 1434h303l332 -1434h-270l-82 360h-621l-209 -360h-286zM573 606h424l-118 527zM645 1595l35 199h614l-34 -199h-615z" />
    <glyph glyph-name="amacron" unicode="&#x101;" horiz-adv-x="1193" 
d="M61 512q37 216 191.5 366t347.5 150q202 0 301 -141l19 108h256l-179 -995h-254l17 92q-132 -123 -320 -123q-178 0 -283.5 118.5t-105.5 307.5q0 45 10 117zM522 219q134 0 224 103t90 243q0 98 -57 156.5t-154 58.5q-135 0 -226.5 -103.5t-91.5 -246.5
q0 -94 58.5 -152.5t156.5 -58.5zM440 1196l37 199h492l-37 -199h-492z" />
    <glyph glyph-name="Abreve" unicode="&#x102;" horiz-adv-x="1517" 
d="M-63 0l833 1434h303l332 -1434h-270l-82 360h-621l-209 -360h-286zM573 606h424l-118 527zM664 1829v31h182q-2 -54 26.5 -85.5t79.5 -31.5q55 0 93.5 31t56.5 86h182q-31 -130 -122.5 -208.5t-217.5 -78.5q-123 0 -201.5 71t-78.5 185z" />
    <glyph glyph-name="abreve" unicode="&#x103;" horiz-adv-x="1193" 
d="M61 512q37 216 191.5 366t347.5 150q202 0 301 -141l19 108h256l-179 -995h-254l17 92q-132 -123 -320 -123q-178 0 -283.5 118.5t-105.5 307.5q0 45 10 117zM522 219q134 0 224 103t90 243q0 98 -57 156.5t-154 58.5q-135 0 -226.5 -103.5t-91.5 -246.5
q0 -94 58.5 -152.5t156.5 -58.5zM418 1409v29h182q-2 -54 27 -85.5t80 -31.5q55 0 93 31t56 86h182q-31 -130 -122.5 -208.5t-217.5 -78.5q-122 0 -201 71.5t-79 186.5z" />
    <glyph glyph-name="Aogonek" unicode="&#x104;" horiz-adv-x="1517" 
d="M-63 0l833 1434h303l332 -1434q-62 -23 -109 -62.5t-47 -80.5q0 -73 97 -76l-29 -164q-124 0 -196 50.5t-72 142.5q0 114 114 190h-28l-82 360h-621l-209 -360h-286zM573 606h424l-118 527z" />
    <glyph glyph-name="aogonek" unicode="&#x105;" horiz-adv-x="1193" 
d="M61 512q37 216 191.5 366t347.5 150q202 0 301 -141l19 108h256l-179 -995q-59 -21 -106 -61t-47 -82q0 -73 94 -76l-29 -164q-123 0 -194.5 50.5t-71.5 142.5q0 114 113 190h-13l17 92q-132 -123 -320 -123q-178 0 -283.5 118.5t-105.5 307.5q0 45 10 117zM522 219
q134 0 224 103t90 243q0 98 -57 156.5t-154 58.5q-135 0 -226.5 -103.5t-91.5 -246.5q0 -94 58.5 -152.5t156.5 -58.5z" />
    <glyph glyph-name="Cacute" unicode="&#x106;" horiz-adv-x="1583" 
d="M965 1464q244 0 392.5 -134.5t151.5 -348.5l-239 -63q0 140 -87.5 220.5t-240.5 80.5q-114 3 -221 -48t-183 -135.5t-120.5 -197t-42.5 -228.5q0 -181 106.5 -288t290.5 -107q111 0 214.5 47t179.5 133t106 193l237 -72q-46 -159 -158 -284t-266 -194t-323 -69
q-295 0 -468 173t-173 454q-3 172 63.5 333t180.5 279.5t271.5 188.5t328.5 67zM870 1573l193 287h332l-293 -287h-232z" />
    <glyph glyph-name="cacute" unicode="&#x107;" horiz-adv-x="1103" 
d="M61 514q41 220 200.5 366t377.5 146q177 0 283.5 -94.5t111.5 -249.5l-235 -72q2 78 -47.5 124t-135.5 46q-116 0 -204 -90.5t-97 -214.5q-2 -8 -2 -35q0 -105 55.5 -166t153.5 -61q97 0 175.5 59t103.5 152l231 -64q-51 -171 -198 -284q-145 -109 -330 -109
q-208 0 -330.5 120.5t-122.5 313.5q0 41 10 113zM545 1151l192 287h334l-295 -287h-231z" />
    <glyph glyph-name="Ccircumflex" unicode="&#x108;" horiz-adv-x="1583" 
d="M965 1464q244 0 392.5 -134.5t151.5 -348.5l-239 -63q0 140 -87.5 220.5t-240.5 80.5q-114 3 -221 -48t-183 -135.5t-120.5 -197t-42.5 -228.5q0 -181 106.5 -288t290.5 -107q111 0 214.5 47t179.5 133t106 193l237 -72q-46 -159 -158 -284t-266 -194t-323 -69
q-295 0 -468 173t-173 454q-3 172 63.5 333t180.5 279.5t271.5 188.5t328.5 67zM655 1573l258 287h234l153 -287h-213l-86 125l-131 -125h-215z" />
    <glyph glyph-name="ccircumflex" unicode="&#x109;" horiz-adv-x="1103" 
d="M61 514q41 220 200.5 366t377.5 146q177 0 283.5 -94.5t111.5 -249.5l-235 -72q2 78 -47.5 124t-135.5 46q-116 0 -204 -90.5t-97 -214.5q-2 -8 -2 -35q0 -105 55.5 -166t153.5 -61q97 0 175.5 59t103.5 152l231 -64q-51 -171 -198 -284q-145 -109 -330 -109
q-208 0 -330.5 120.5t-122.5 313.5q0 41 10 113zM328 1151l258 287h235l154 -287h-215l-86 127l-129 -127h-217z" />
    <glyph glyph-name="Cdotaccent" unicode="&#x10a;" horiz-adv-x="1583" 
d="M965 1464q244 0 392.5 -134.5t151.5 -348.5l-239 -63q0 140 -87.5 220.5t-240.5 80.5q-114 3 -221 -48t-183 -135.5t-120.5 -197t-42.5 -228.5q0 -181 106.5 -288t290.5 -107q111 0 214.5 47t179.5 133t106 193l237 -72q-46 -159 -158 -284t-266 -194t-323 -69
q-295 0 -468 173t-173 454q-3 172 63.5 333t180.5 279.5t271.5 188.5t328.5 67zM1022 1868q61 0 102 -42t41 -104q0 -61 -49.5 -110t-114.5 -49q-61 0 -102 40.5t-41 102.5q0 66 49 114t115 48z" />
    <glyph glyph-name="cdotaccent" unicode="&#x10b;" horiz-adv-x="1103" 
d="M61 514q41 220 200.5 366t377.5 146q177 0 283.5 -94.5t111.5 -249.5l-235 -72q2 78 -47.5 124t-135.5 46q-116 0 -204 -90.5t-97 -214.5q-2 -8 -2 -35q0 -105 55.5 -166t153.5 -61q97 0 175.5 59t103.5 152l231 -64q-51 -171 -198 -284q-145 -109 -330 -109
q-208 0 -330.5 120.5t-122.5 313.5q0 41 10 113zM700 1456q65 0 107.5 -42.5t42.5 -106.5t-51 -116t-117 -52t-109 43t-43 106q0 67 51 117.5t119 50.5z" />
    <glyph glyph-name="Ccaron" unicode="&#x10c;" horiz-adv-x="1583" 
d="M965 1464q244 0 392.5 -134.5t151.5 -348.5l-239 -63q0 140 -87.5 220.5t-240.5 80.5q-114 3 -221 -48t-183 -135.5t-120.5 -197t-42.5 -228.5q0 -181 106.5 -288t290.5 -107q111 0 214.5 47t179.5 133t106 193l237 -72q-46 -159 -158 -284t-266 -194t-323 -69
q-295 0 -468 173t-173 454q-3 172 63.5 333t180.5 279.5t271.5 188.5t328.5 67zM717 1860h215l86 -127l129 127h217l-258 -287h-236z" />
    <glyph glyph-name="ccaron" unicode="&#x10d;" horiz-adv-x="1103" 
d="M61 514q41 220 200.5 366t377.5 146q177 0 283.5 -94.5t111.5 -249.5l-235 -72q2 78 -47.5 124t-135.5 46q-116 0 -204 -90.5t-97 -214.5q-2 -8 -2 -35q0 -105 55.5 -166t153.5 -61q97 0 175.5 59t103.5 152l231 -64q-51 -171 -198 -284q-145 -109 -330 -109
q-208 0 -330.5 120.5t-122.5 313.5q0 41 10 113zM389 1438h215l86 -127l131 127h213l-254 -287h-235z" />
    <glyph glyph-name="Dcaron" unicode="&#x10e;" horiz-adv-x="1433" 
d="M31 0l254 1434h522q174 0 307.5 -77t205 -211t71.5 -302q3 -164 -60 -320.5t-169.5 -272.5t-255 -185t-308.5 -66h-567zM332 256h272q138 -4 261.5 78.5t194.5 215.5t68 273q0 159 -94.5 257t-253.5 98h-284zM592 1860h215l86 -127l129 127h217l-258 -287h-236z" />
    <glyph glyph-name="dcaron" unicode="&#x10f;" horiz-adv-x="1193" 
d="M61 512q37 216 191.5 366t347.5 150q202 0 301 -141l96 547h256l-254 -1434h-256l17 92q-132 -123 -320 -123q-178 0 -283.5 118.5t-105.5 307.5q0 45 10 117zM524 215q86 0 159 49.5t114 128.5t41 168q0 99 -57.5 160t-153.5 61q-132 0 -226 -103.5t-94 -242.5
q0 -99 59 -160t158 -61zM1276 1133l72 301h249l-145 -301h-176z" />
    <glyph glyph-name="Dcroat" unicode="&#x110;" horiz-adv-x="1464" 
d="M18 612l37 209h152l108 613h523q174 0 307.5 -77t204.5 -211t71 -302q2 -132 -37 -259.5t-113 -233t-172 -186t-220 -124t-250 -41.5h-568l109 612h-152zM362 256h273q138 -4 261.5 78.5t194.5 215.5t68 273q0 159 -94.5 257t-253.5 98h-285l-63 -357h295l-35 -209h-297z
" />
    <glyph glyph-name="dslash" unicode="&#x111;" horiz-adv-x="1230" 
d="M61 512q37 216 191.5 366t347.5 150q202 0 301 -141l41 237h-287l35 185h285l22 125h256l-22 -125h123l-35 -185h-121l-199 -1124h-256l17 92q-132 -123 -320 -123q-178 0 -283.5 118.5t-105.5 307.5q0 45 10 117zM524 215q86 0 159 49.5t114 128.5t41 168
q0 99 -57.5 160t-153.5 61q-132 0 -226 -103.5t-94 -242.5q0 -99 59 -160t158 -61z" />
    <glyph glyph-name="Emacron" unicode="&#x112;" horiz-adv-x="1218" 
d="M31 0l254 1434h1013l-45 -246h-755l-60 -332h674l-43 -246h-674l-65 -364h760l-46 -246h-1013zM516 1595l35 199h614l-35 -199h-614z" />
    <glyph glyph-name="emacron" unicode="&#x113;" horiz-adv-x="1091" 
d="M61 506q40 225 202.5 372.5t377.5 147.5q179 0 282 -103t103 -276q0 -52 -14 -135l-15 -84h-708q1 -110 61 -171.5t166 -61.5q88 0 159.5 50t102.5 132l223 -49q-52 -156 -198 -260q-144 -99 -318 -99q-199 0 -316.5 118t-117.5 308q0 43 10 111zM332 625h475
q8 79 -46 131.5t-151 52.5q-90 0 -162.5 -48.5t-115.5 -135.5zM432 1196l37 199h492l-37 -199h-492z" />
    <glyph glyph-name="Ebreve" unicode="&#x114;" horiz-adv-x="1218" 
d="M31 0l254 1434h1013l-45 -246h-755l-60 -332h674l-43 -246h-674l-65 -364h760l-46 -246h-1013zM535 1829v31h182q-2 -54 26.5 -85.5t79.5 -31.5q55 0 93.5 31t56.5 86h182q-31 -130 -122.5 -208.5t-217.5 -78.5q-123 0 -201.5 71t-78.5 185z" />
    <glyph glyph-name="ebreve" unicode="&#x115;" horiz-adv-x="1091" 
d="M61 506q40 225 202.5 372.5t377.5 147.5q179 0 282 -103t103 -276q0 -52 -14 -135l-15 -84h-708q1 -110 61 -171.5t166 -61.5q88 0 159.5 50t102.5 132l223 -49q-52 -156 -198 -260q-144 -99 -318 -99q-199 0 -316.5 118t-117.5 308q0 43 10 111zM332 625h475
q8 79 -46 131.5t-151 52.5q-90 0 -162.5 -48.5t-115.5 -135.5zM410 1409v29h182q-2 -54 26.5 -85.5t79.5 -31.5q55 0 93.5 31t56.5 86h182q-31 -130 -122.5 -208.5t-217.5 -78.5q-122 0 -201 71.5t-79 186.5z" />
    <glyph glyph-name="Edotaccent" unicode="&#x116;" horiz-adv-x="1218" 
d="M31 0l254 1434h1013l-45 -246h-755l-60 -332h674l-43 -246h-674l-65 -364h760l-46 -246h-1013zM852 1868q61 0 102 -42t41 -104q0 -61 -49.5 -110t-114.5 -49q-61 0 -102 40.5t-41 102.5q0 66 49 114t115 48z" />
    <glyph glyph-name="edotaccent" unicode="&#x117;" horiz-adv-x="1091" 
d="M61 506q40 225 202.5 372.5t377.5 147.5q179 0 282 -103t103 -276q0 -52 -14 -135l-15 -84h-708q1 -110 61 -171.5t166 -61.5q88 0 159.5 50t102.5 132l223 -49q-52 -156 -198 -260q-144 -99 -318 -99q-199 0 -316.5 118t-117.5 308q0 43 10 111zM332 625h475
q8 79 -46 131.5t-151 52.5q-90 0 -162.5 -48.5t-115.5 -135.5zM702 1456q65 0 107.5 -42.5t42.5 -106.5t-51 -116t-117 -52t-109 43t-43 106q0 67 51 117.5t119 50.5z" />
    <glyph glyph-name="Eogonek" unicode="&#x118;" horiz-adv-x="1218" 
d="M31 0l254 1434h1013l-45 -246h-755l-60 -332h674l-43 -246h-674l-65 -364h760l-46 -246q-62 -22 -108.5 -62t-46.5 -81q0 -37 23 -56t73 -20l-29 -164q-124 0 -196 50.5t-72 142.5q0 113 115 190h-772z" />
    <glyph glyph-name="eogonek" unicode="&#x119;" horiz-adv-x="1091" 
d="M61 506q40 225 202.5 372.5t377.5 147.5q179 0 282 -103t103 -276q0 -52 -14 -135l-15 -84h-708q1 -110 61 -171.5t166 -61.5q88 0 159.5 50t102.5 132l223 -49q-38 -115 -126.5 -200.5t-208.5 -127.5q-62 -26 -107 -64.5t-45 -78.5q0 -73 94 -76l-28 -164
q-124 0 -195.5 50.5t-71.5 142.5q0 95 82 165q-160 26 -252 139.5t-92 280.5q0 43 10 111zM332 625h475q8 79 -46 131.5t-151 52.5q-90 0 -162.5 -48.5t-115.5 -135.5z" />
    <glyph glyph-name="Ecaron" unicode="&#x11a;" horiz-adv-x="1218" 
d="M31 0l254 1434h1013l-45 -246h-755l-60 -332h674l-43 -246h-674l-65 -364h760l-46 -246h-1013zM547 1860h215l86 -127l129 127h217l-258 -287h-236z" />
    <glyph glyph-name="ecaron" unicode="&#x11b;" horiz-adv-x="1091" 
d="M61 506q40 225 202.5 372.5t377.5 147.5q179 0 282 -103t103 -276q0 -52 -14 -135l-15 -84h-708q1 -110 61 -171.5t166 -61.5q88 0 159.5 50t102.5 132l223 -49q-52 -156 -198 -260q-144 -99 -318 -99q-199 0 -316.5 118t-117.5 308q0 43 10 111zM332 625h475
q8 79 -46 131.5t-151 52.5q-90 0 -162.5 -48.5t-115.5 -135.5zM391 1438h215l86 -127l131 127h213l-254 -287h-235z" />
    <glyph glyph-name="Gcircumflex" unicode="&#x11c;" horiz-adv-x="1562" 
d="M975 1464q247 0 397.5 -133t153.5 -348l-248 -65q-5 141 -89.5 221t-232.5 80q-155 3 -290.5 -81.5t-213.5 -227t-75 -302.5q0 -183 105.5 -288t291.5 -105q122 0 234 57t184 156h-352l41 231h616l-117 -659h-227l29 160q-87 -90 -204.5 -140.5t-256.5 -50.5
q-178 0 -316 78.5t-213 217t-75 315.5q-3 175 64.5 339.5t182 285t275.5 192t336 67.5zM668 1573l258 287h233l154 -287h-213l-86 125l-131 -125h-215z" />
    <glyph glyph-name="gcircumflex" unicode="&#x11d;" horiz-adv-x="1169" 
d="M-20 -57l243 18q-4 -46 -4 -51q0 -81 51 -129.5t142 -48.5q119 0 202.5 80t108.5 219l18 104q-120 -108 -284 -108q-180 0 -291 115t-111 298q0 32 13 105q34 195 187.5 335t342.5 140q184 0 276 -133l19 108h256l-170 -968q-40 -232 -203 -375.5t-385 -143.5
q-190 0 -306 95.5t-116 251.5q0 24 11 88zM520 266q122 0 207.5 90t85.5 217q0 91 -55.5 146t-147.5 55q-124 0 -210.5 -92.5t-86.5 -214.5q0 -92 55.5 -146.5t151.5 -54.5zM287 1151l258 287h235l154 -287h-215l-86 127l-129 -127h-217z" />
    <glyph glyph-name="Gbreve" unicode="&#x11e;" horiz-adv-x="1562" 
d="M975 1464q247 0 397.5 -133t153.5 -348l-248 -65q-5 141 -89.5 221t-232.5 80q-155 3 -290.5 -81.5t-213.5 -227t-75 -302.5q0 -183 105.5 -288t291.5 -105q122 0 234 57t184 156h-352l41 231h616l-117 -659h-227l29 160q-87 -90 -204.5 -140.5t-256.5 -50.5
q-178 0 -316 78.5t-213 217t-75 315.5q-3 175 64.5 339.5t182 285t275.5 192t336 67.5zM717 1829v31h182q-2 -54 27 -85.5t80 -31.5q55 0 93 31t56 86h182q-31 -130 -122.5 -208.5t-217.5 -78.5q-123 0 -201.5 71t-78.5 185z" />
    <glyph glyph-name="gbreve" unicode="&#x11f;" horiz-adv-x="1169" 
d="M-20 -57l243 18q-4 -46 -4 -51q0 -81 51 -129.5t142 -48.5q119 0 202.5 80t108.5 219l18 104q-120 -108 -284 -108q-180 0 -291 115t-111 298q0 32 13 105q34 195 187.5 335t342.5 140q184 0 276 -133l19 108h256l-170 -968q-40 -232 -203 -375.5t-385 -143.5
q-190 0 -306 95.5t-116 251.5q0 24 11 88zM520 266q122 0 207.5 90t85.5 217q0 91 -55.5 146t-147.5 55q-124 0 -210.5 -92.5t-86.5 -214.5q0 -92 55.5 -146.5t151.5 -54.5zM367 1409v29h182q-2 -54 26.5 -85.5t79.5 -31.5q55 0 93.5 31t56.5 86h182q-31 -130 -122.5 -208.5
t-217.5 -78.5q-122 0 -201 71.5t-79 186.5z" />
    <glyph glyph-name="Gdotaccent" unicode="&#x120;" horiz-adv-x="1562" 
d="M975 1464q247 0 397.5 -133t153.5 -348l-248 -65q-5 141 -89.5 221t-232.5 80q-155 3 -290.5 -81.5t-213.5 -227t-75 -302.5q0 -183 105.5 -288t291.5 -105q122 0 234 57t184 156h-352l41 231h616l-117 -659h-227l29 160q-87 -90 -204.5 -140.5t-256.5 -50.5
q-178 0 -316 78.5t-213 217t-75 315.5q-3 175 64.5 339.5t182 285t275.5 192t336 67.5zM1034 1868q61 0 102.5 -42t41.5 -104q0 -61 -49.5 -110t-114.5 -49q-62 0 -103 41t-41 102q0 66 49 114t115 48z" />
    <glyph glyph-name="gdotaccent" unicode="&#x121;" horiz-adv-x="1169" 
d="M-20 -57l243 18q-4 -46 -4 -51q0 -81 51 -129.5t142 -48.5q119 0 202.5 80t108.5 219l18 104q-120 -108 -284 -108q-180 0 -291 115t-111 298q0 32 13 105q34 195 187.5 335t342.5 140q184 0 276 -133l19 108h256l-170 -968q-40 -232 -203 -375.5t-385 -143.5
q-190 0 -306 95.5t-116 251.5q0 24 11 88zM520 266q122 0 207.5 90t85.5 217q0 91 -55.5 146t-147.5 55q-124 0 -210.5 -92.5t-86.5 -214.5q0 -92 55.5 -146.5t151.5 -54.5zM659 1456q65 0 107.5 -42.5t42.5 -106.5t-50.5 -116t-117.5 -52q-66 0 -109 43t-43 106
q0 67 51 117.5t119 50.5z" />
    <glyph glyph-name="uni0122" unicode="&#x122;" horiz-adv-x="1562" 
d="M975 1464q247 0 397.5 -133t153.5 -348l-248 -65q-5 141 -89.5 221t-232.5 80q-155 3 -290.5 -81.5t-213.5 -227t-75 -302.5q0 -183 105.5 -288t291.5 -105q122 0 234 57t184 156h-352l41 231h616l-117 -659h-227l29 160q-87 -90 -204.5 -140.5t-256.5 -50.5
q-178 0 -316 78.5t-213 217t-75 315.5q-3 175 64.5 339.5t182 285t275.5 192t336 67.5zM694 -115q61 0 97 -39.5t36 -107.5q0 -109 -55.5 -195t-146.5 -118l-31 92q69 26 104 98q-6 -2 -24 -2q-56 0 -91.5 35.5t-35.5 91.5q0 61 43 103t104 42z" />
    <glyph glyph-name="uni0123" unicode="&#x123;" horiz-adv-x="1169" 
d="M-20 -57l243 18q-4 -46 -4 -51q0 -81 51 -129.5t142 -48.5q119 0 202.5 80t108.5 219l18 104q-120 -108 -284 -108q-180 0 -291 115t-111 298q0 32 13 105q34 195 187.5 335t342.5 140q184 0 276 -133l19 108h256l-170 -968q-40 -232 -203 -375.5t-385 -143.5
q-190 0 -306 95.5t-116 251.5q0 24 11 88zM520 266q122 0 207.5 90t85.5 217q0 91 -55.5 146t-147.5 55q-124 0 -210.5 -92.5t-86.5 -214.5q0 -92 55.5 -146.5t151.5 -54.5zM713 1595l30 -92q-72 -28 -102 -98q4 2 23 2q55 0 91 -35.5t36 -89.5q0 -62 -43.5 -104.5
t-104.5 -42.5t-97 40.5t-36 106.5q0 106 56.5 193.5t146.5 119.5z" />
    <glyph glyph-name="Hcircumflex" unicode="&#x124;" horiz-adv-x="1447" 
d="M31 0l254 1434h256l-103 -578h699l102 578h256l-254 -1434h-256l109 610h-699l-108 -610h-256zM573 1573l258 287h234l154 -287h-213l-86 125l-132 -125h-215z" />
    <glyph glyph-name="hcircumflex" unicode="&#x125;" horiz-adv-x="1107" 
d="M18 0l254 1434h256l-92 -521q121 115 293 115q145 0 225 -80t80 -221q0 -33 -10 -98l-113 -629h-256l105 590q8 31 8 67q0 142 -143 142q-92 0 -159.5 -64t-90.5 -174l-101 -561h-256zM92 1573l258 287h234l153 -287h-213l-86 125l-131 -125h-215z" />
    <glyph glyph-name="Hbar" unicode="&#x126;" horiz-adv-x="1538" 
d="M61 0l187 1047h-144l39 208h142l30 179h256l-30 -179h698l31 179h256l-31 -179h145l-38 -208h-144l-186 -1047h-256l108 610h-698l-109 -610h-256zM469 856h698l33 191h-698z" />
    <glyph glyph-name="hbar" unicode="&#x127;" horiz-adv-x="1128" 
d="M39 0l199 1124h-113l35 185h110l23 125h256l-23 -125h297l-35 -185h-294l-37 -211q121 115 293 115q145 0 225 -80t80 -221q0 -27 -11 -98l-112 -629h-256l98 543q14 80 14 114q0 142 -143 142q-92 0 -159.5 -64t-90.5 -174l-100 -561h-256z" />
    <glyph glyph-name="Itilde" unicode="&#x128;" horiz-adv-x="493" 
d="M31 0l254 1434h256l-254 -1434h-256zM344 1849q63 0 137 -41q57 -32 99 -32q73 0 120 90l138 -105q-46 -92 -116.5 -139t-154.5 -47q-67 0 -145 43q-55 31 -90 31q-68 0 -115 -86l-143 100q52 99 118.5 142.5t151.5 43.5z" />
    <glyph glyph-name="itilde" unicode="&#x129;" horiz-adv-x="468" 
d="M254 1430q68 0 135 -39q47 -27 74 -27q25 0 45.5 16.5t52.5 59.5l135 -103q-47 -93 -103 -136.5t-128 -43.5q-34 0 -59 8t-66 29q-47 31 -90 31q-49 0 -103 -78l-131 100q55 99 112 141t126 42zM18 0l177 995h256l-177 -995h-256z" />
    <glyph glyph-name="Imacron" unicode="&#x12a;" horiz-adv-x="493" 
d="M31 0l254 1434h256l-254 -1434h-256zM129 1595l35 199h614l-35 -199h-614z" />
    <glyph glyph-name="imacron" unicode="&#x12b;" horiz-adv-x="468" 
d="M18 0l177 995h256l-177 -995h-256zM115 1196l37 199h491l-37 -199h-491z" />
    <glyph glyph-name="Ibreve" unicode="&#x12c;" horiz-adv-x="493" 
d="M31 0l254 1434h256l-254 -1434h-256zM147 1829v31h183q-2 -54 26.5 -85.5t79.5 -31.5q55 0 93.5 31t56.5 86h182q-31 -130 -122.5 -208.5t-217.5 -78.5q-123 0 -202 71t-79 185z" />
    <glyph glyph-name="ibreve" unicode="&#x12d;" horiz-adv-x="468" 
d="M119 1403l2 35h182q-1 -55 20 -86t60 -31q44 0 79 31.5t48 85.5h180q-30 -130 -116 -208.5t-203 -78.5t-184.5 66t-67.5 186zM18 0l177 995h256l-177 -995h-256z" />
    <glyph glyph-name="Iogonek" unicode="&#x12e;" horiz-adv-x="493" 
d="M45 0h-14l254 1434h256l-254 -1434q-62 -23 -109 -62.5t-47 -80.5q0 -37 23 -56t73 -20l-28 -164q-124 0 -196.5 50.5t-72.5 142.5q0 113 115 190z" />
    <glyph glyph-name="iogonek" unicode="&#x12f;" horiz-adv-x="468" 
d="M385 1456q65 0 107.5 -42.5t42.5 -106.5t-50.5 -116t-117.5 -52q-66 0 -109 43t-43 106q0 67 51 117.5t119 50.5zM33 0h-15l177 995h256l-177 -995q-59 -21 -106 -61t-47 -82q0 -73 94 -76l-29 -164q-123 0 -194.5 50.5t-71.5 142.5q0 114 113 190z" />
    <glyph glyph-name="Idot" unicode="&#x130;" horiz-adv-x="493" 
d="M31 0l254 1434h256l-254 -1434h-256zM465 1868q61 0 102 -42t41 -104q0 -61 -49.5 -110t-114.5 -49q-62 0 -102.5 40.5t-40.5 102.5q0 66 49 114t115 48z" />
    <glyph glyph-name="dotlessi" unicode="&#x131;" horiz-adv-x="468" 
d="M18 0l177 995h256l-177 -995h-256z" />
    <glyph glyph-name="IJ" unicode="&#x132;" horiz-adv-x="1689" 
d="M31 0l254 1434h256l-254 -1434h-256zM555 606l248 25q-37 -107 -37 -193q0 -112 65 -167.5t173 -55.5q125 0 212.5 76t110.5 209l164 934h256l-166 -947q-44 -244 -199 -381t-381 -137q-135 0 -242.5 45.5t-174 142t-66.5 232.5q0 99 37 217z" />
    <glyph glyph-name="ij" unicode="&#x133;" horiz-adv-x="1013" 
d="M18 0l177 995h256l-177 -995h-256zM385 1456q65 0 107.5 -42.5t42.5 -106.5t-50.5 -116t-117.5 -52q-66 0 -109 43t-43 106q0 67 51 117.5t119 50.5zM115 -182l219 18q-4 -48 18.5 -72t65.5 -24q49 0 80 28t39 78l202 1149h256l-207 -1151q-30 -157 -130 -246.5
t-252 -89.5q-134 0 -213.5 69.5t-79.5 186.5q0 42 2 54zM932 1456q65 0 107 -42.5t42 -106.5t-50.5 -116t-117.5 -52q-65 0 -108 42.5t-43 106.5q0 67 51 117.5t119 50.5z" />
    <glyph glyph-name="Jcircumflex" unicode="&#x134;" horiz-adv-x="1196" 
d="M61 606l248 25q-37 -107 -37 -193q0 -112 65 -167.5t173 -55.5q125 0 213 76t111 209l163 934h256l-166 -947q-44 -245 -198 -381q-155 -137 -381 -137q-135 0 -242.5 45.5t-174 142t-66.5 232.5q0 102 36 217zM825 1573l258 287h234l153 -287h-213l-86 125l-131 -125
h-215z" />
    <glyph glyph-name="jcircumflex" unicode="&#x135;" horiz-adv-x="491" 
d="M72 1151l202 287h267l92 -287h-201l-53 123l-107 -123h-200zM-408 -182l220 18q-4 -48 18.5 -72t65.5 -24q49 0 79.5 28t38.5 78l203 1149h256l-207 -1151q-30 -157 -130.5 -246.5t-252.5 -89.5q-134 0 -213.5 69.5t-79.5 186.5q0 42 2 54z" />
    <glyph glyph-name="uni0136" unicode="&#x136;" horiz-adv-x="1370" 
d="M31 -2l254 1436h252l-103 -584l711 584h366l-763 -627l495 -809h-299l-395 645l-178 -147l-88 -498h-252zM569 -115q61 0 97 -39.5t36 -107.5q0 -109 -55.5 -195t-146.5 -118l-31 92q69 26 104 98q-6 -2 -24 -2q-55 0 -91 35.5t-36 91.5q0 61 43 103t104 42z" />
    <glyph glyph-name="uni0137" unicode="&#x137;" horiz-adv-x="1075" 
d="M18 0l254 1434h256l-137 -770l387 331h344l-491 -422l332 -573h-287l-238 408l-108 -93l-56 -315h-256zM408 -115q61 0 97 -39.5t36 -107.5q0 -108 -56 -194.5t-147 -118.5l-31 92q70 27 105 98q-6 -2 -25 -2q-55 0 -91 35.5t-36 91.5q0 61 43.5 103t104.5 42z" />
    <glyph glyph-name="kgreenlandic" unicode="&#x138;" horiz-adv-x="1075" 
d="M18 0l177 995h256l-60 -342l395 342h336l-491 -422l332 -573h-304l-233 397l-96 -82l-56 -315h-256z" />
    <glyph glyph-name="Lacute" unicode="&#x139;" horiz-adv-x="1163" 
d="M31 0l254 1434h256l-211 -1188h753l-43 -246h-1009zM348 1573l193 287h331l-292 -287h-232z" />
    <glyph glyph-name="lacute" unicode="&#x13a;" horiz-adv-x="468" 
d="M18 0l254 1434h256l-254 -1434h-256zM309 1573l193 287h332l-293 -287h-232z" />
    <glyph glyph-name="uni013B" unicode="&#x13b;" horiz-adv-x="1163" 
d="M31 0l254 1434h256l-211 -1188h753l-43 -246h-1009zM496 -115q61 0 97 -39.5t36 -107.5q0 -108 -56 -194.5t-147 -118.5l-31 92q70 27 105 98q-6 -2 -25 -2q-55 0 -91 35.5t-36 91.5q0 61 43.5 103t104.5 42z" />
    <glyph glyph-name="uni013C" unicode="&#x13c;" horiz-adv-x="468" 
d="M18 0l254 1434h256l-254 -1434h-256zM104 -115q62 0 98 -40t36 -107q0 -108 -56 -194.5t-147 -118.5l-31 92q70 27 105 98q-6 -2 -25 -2q-56 0 -91.5 35.5t-35.5 91.5q0 61 43 103t104 42z" />
    <glyph glyph-name="Lcaron" unicode="&#x13d;" horiz-adv-x="1163" 
d="M31 0l254 1434h256l-211 -1188h753l-43 -246h-1009zM594 1133l72 301h249l-145 -301h-176z" />
    <glyph glyph-name="lcaron" unicode="&#x13e;" horiz-adv-x="468" 
d="M18 0l254 1434h256l-254 -1434h-256zM551 1133l72 301h249l-145 -301h-176z" />
    <glyph glyph-name="Ldot" unicode="&#x13f;" horiz-adv-x="1163" 
d="M31 0l254 1434h256l-211 -1188h753l-43 -246h-1009zM899 971q63 0 105.5 -42t42.5 -104q0 -72 -51.5 -124t-118.5 -52t-109.5 42t-42.5 108q0 68 52.5 120t121.5 52z" />
    <glyph glyph-name="ldot" unicode="&#x140;" horiz-adv-x="784" 
d="M18 0l254 1434h256l-254 -1434h-256zM686 889q63 0 105.5 -42t42.5 -104q0 -72 -51.5 -124t-118.5 -52t-109.5 42t-42.5 108q0 68 52.5 120t121.5 52z" />
    <glyph glyph-name="Lslash" unicode="&#x141;" horiz-adv-x="1234" 
d="M2 649l236 115l118 670h256l-94 -533l301 148l84 -177l-428 -208l-74 -418h754l-43 -246h-1010l93 526l-107 -53z" />
    <glyph glyph-name="lslash" unicode="&#x142;" horiz-adv-x="714" 
d="M-10 637l237 141l117 656h256l-86 -486l90 53l98 -165l-233 -140l-123 -696h-256l92 526l-94 -57z" />
    <glyph glyph-name="Nacute" unicode="&#x143;" horiz-adv-x="1499" 
d="M31 0l254 1434h305l512 -1059l188 1059h256l-254 -1434h-288l-523 1079l-194 -1079h-256zM817 1573l193 287h331l-292 -287h-232z" />
    <glyph glyph-name="nacute" unicode="&#x144;" horiz-adv-x="1107" 
d="M18 0l177 995h256l-15 -82q121 115 293 115q145 0 225 -80t80 -221q0 -33 -10 -98l-113 -629h-256l105 590q8 44 8 67q0 142 -143 142q-92 0 -160.5 -65t-91.5 -175l-99 -559h-256zM547 1151l192 287h334l-295 -287h-231z" />
    <glyph glyph-name="uni0145" unicode="&#x145;" horiz-adv-x="1499" 
d="M31 0l254 1434h305l512 -1059l188 1059h256l-254 -1434h-288l-523 1079l-194 -1079h-256zM612 -115q61 0 97 -39.5t36 -107.5q0 -109 -55.5 -195t-146.5 -118l-31 92q69 26 104 98q-6 -2 -24 -2q-56 0 -91.5 35.5t-35.5 91.5q0 61 43 103t104 42z" />
    <glyph glyph-name="uni0146" unicode="&#x146;" horiz-adv-x="1107" 
d="M18 0l177 995h256l-15 -82q121 115 293 115q145 0 225 -80t80 -221q0 -33 -10 -98l-113 -629h-256l105 590q8 44 8 67q0 142 -143 142q-92 0 -160.5 -65t-91.5 -175l-99 -559h-256zM420 -115q61 0 97 -39.5t36 -107.5q0 -108 -56 -194.5t-147 -118.5l-31 92q70 27 105 98
q-6 -2 -25 -2q-55 0 -91 35.5t-36 91.5q0 61 43.5 103t104.5 42z" />
    <glyph glyph-name="Ncaron" unicode="&#x147;" horiz-adv-x="1499" 
d="M31 0l254 1434h305l512 -1059l188 1059h256l-254 -1434h-288l-523 1079l-194 -1079h-256zM664 1860h215l86 -127l129 127h217l-258 -287h-236z" />
    <glyph glyph-name="ncaron" unicode="&#x148;" horiz-adv-x="1107" 
d="M18 0l177 995h256l-15 -82q121 115 293 115q145 0 225 -80t80 -221q0 -33 -10 -98l-113 -629h-256l105 590q8 44 8 67q0 142 -143 142q-92 0 -160.5 -65t-91.5 -175l-99 -559h-256zM391 1438h215l86 -127l131 127h213l-254 -287h-235z" />
    <glyph glyph-name="napostrophe" unicode="&#x149;" horiz-adv-x="1107" 
d="M18 0l177 995h256l-15 -82q121 115 293 115q145 0 225 -80t80 -221q0 -33 -10 -98l-113 -629h-256l105 590q8 44 8 67q0 142 -143 142q-92 0 -160.5 -65t-91.5 -175l-99 -559h-256zM96 1133l72 301h250l-146 -301h-176z" />
    <glyph glyph-name="Eng" unicode="&#x14a;" horiz-adv-x="1499" 
d="M31 0l254 1434h305l512 -1059l188 1059h256l-276 -1551q-27 -121 -113 -207q-83 -86 -211 -86q-95 0 -201 56l121 204q24 -12 60 -12q79 0 100 88l4 19l-549 1134l-194 -1079h-256z" />
    <glyph glyph-name="eng" unicode="&#x14b;" horiz-adv-x="1107" 
d="M18 0l177 995h256l-15 -82q121 115 293 115q145 0 225 -80t80 -221q0 -33 -10 -98l-135 -746q-24 -119 -109 -207q-83 -86 -213 -86q-94 0 -200 56l112 204q35 -12 62 -12q39 0 66 24t34 66l109 594q18 108 18 135q0 142 -143 142q-92 0 -160.5 -65t-91.5 -175l-99 -559
h-256z" />
    <glyph glyph-name="Omacron" unicode="&#x14c;" horiz-adv-x="1644" 
d="M973 1464q282 0 456.5 -173.5t174.5 -440.5q4 -170 -64.5 -333.5t-183.5 -285t-273 -194t-325 -68.5q-190 0 -336.5 79t-225.5 218t-79 314q-2 114 28.5 227t86.5 210.5t136.5 181.5t175 143t205.5 91.5t224 30.5zM772 215q114 -3 222.5 48t186.5 136t124.5 198t44.5 228
q0 176 -109 285t-287 109q-114 3 -223.5 -49.5t-188 -138t-125.5 -199t-44 -228.5q0 -175 108 -282t291 -107zM698 1595l35 199h615l-35 -199h-615z" />
    <glyph glyph-name="omacron" unicode="&#x14d;" horiz-adv-x="1153" 
d="M61 510q37 222 204.5 369t391.5 147q204 0 324.5 -121.5t120.5 -314.5q0 -39 -10 -107q-37 -221 -204 -367.5t-388 -146.5q-205 0 -327 120.5t-122 311.5q0 41 10 109zM526 215q87 0 161.5 49.5t116.5 128t42 164.5q0 100 -59.5 161.5t-157.5 61.5q-131 0 -226.5 -104
t-95.5 -240q0 -98 60.5 -159.5t158.5 -61.5zM455 1196l37 199h491l-37 -199h-491z" />
    <glyph glyph-name="Obreve" unicode="&#x14e;" horiz-adv-x="1644" 
d="M973 1464q282 0 456.5 -173.5t174.5 -440.5q4 -170 -64.5 -333.5t-183.5 -285t-273 -194t-325 -68.5q-190 0 -336.5 79t-225.5 218t-79 314q-2 114 28.5 227t86.5 210.5t136.5 181.5t175 143t205.5 91.5t224 30.5zM772 215q114 -3 222.5 48t186.5 136t124.5 198t44.5 228
q0 176 -109 285t-287 109q-114 3 -223.5 -49.5t-188 -138t-125.5 -199t-44 -228.5q0 -175 108 -282t291 -107zM717 1829v31h182q-2 -54 27 -85.5t80 -31.5q55 0 93 31t56 86h182q-31 -130 -122.5 -208.5t-217.5 -78.5q-123 0 -201.5 71t-78.5 185z" />
    <glyph glyph-name="obreve" unicode="&#x14f;" horiz-adv-x="1153" 
d="M61 510q37 222 204.5 369t391.5 147q204 0 324.5 -121.5t120.5 -314.5q0 -39 -10 -107q-37 -221 -204 -367.5t-388 -146.5q-205 0 -327 120.5t-122 311.5q0 41 10 109zM526 215q87 0 161.5 49.5t116.5 128t42 164.5q0 100 -59.5 161.5t-157.5 61.5q-131 0 -226.5 -104
t-95.5 -240q0 -98 60.5 -159.5t158.5 -61.5zM432 1409v29h182q-2 -54 27 -85.5t80 -31.5q55 0 93 31t56 86h183q-31 -130 -122.5 -208.5t-217.5 -78.5q-123 0 -202 71.5t-79 186.5z" />
    <glyph glyph-name="Ohungarumlaut" unicode="&#x150;" horiz-adv-x="1644" 
d="M973 1464q282 0 456.5 -173.5t174.5 -440.5q4 -170 -64.5 -333.5t-183.5 -285t-273 -194t-325 -68.5q-190 0 -336.5 79t-225.5 218t-79 314q-2 114 28.5 227t86.5 210.5t136.5 181.5t175 143t205.5 91.5t224 30.5zM772 215q114 -3 222.5 48t186.5 136t124.5 198t44.5 228
q0 176 -109 285t-287 109q-114 3 -223.5 -49.5t-188 -138t-125.5 -199t-44 -228.5q0 -175 108 -282t291 -107zM735 1573l139 287h287l-241 -287h-185zM1087 1573l140 287h289l-244 -287h-185z" />
    <glyph glyph-name="ohungarumlaut" unicode="&#x151;" horiz-adv-x="1153" 
d="M61 510q37 222 204.5 369t391.5 147q204 0 324.5 -121.5t120.5 -314.5q0 -39 -10 -107q-37 -221 -204 -367.5t-388 -146.5q-205 0 -327 120.5t-122 311.5q0 41 10 109zM526 215q87 0 161.5 49.5t116.5 128t42 164.5q0 100 -59.5 161.5t-157.5 61.5q-131 0 -226.5 -104
t-95.5 -240q0 -98 60.5 -159.5t158.5 -61.5zM418 1151l153 287h289l-264 -287h-178zM768 1151l154 287h288l-264 -287h-178z" />
    <glyph glyph-name="OE" unicode="&#x152;" horiz-adv-x="2394" 
d="M131 739q23 148 99.5 282.5t187 232t253.5 154t294 54.5q159 0 276 -55t186 -156l33 183h1014l-45 -246h-756l-59 -332h674l-43 -246h-674l-66 -364h760l-45 -246h-1014l27 150q-193 -181 -471 -181q-291 0 -468 175t-177 450q0 65 14 145zM770 215q155 -4 289.5 83.5
t210.5 229.5t73 297q0 178 -104.5 286t-280.5 108q-210 0 -373.5 -147.5t-197.5 -366.5q-10 -62 -10 -99q0 -178 106 -284q107 -107 287 -107z" />
    <glyph glyph-name="oe" unicode="&#x153;" horiz-adv-x="1871" 
d="M59 502q21 145 108 266t219 190.5t280 67.5q116 0 204 -47t140 -133q171 180 413 180q177 0 280 -103t103 -276q0 -52 -14 -135l-14 -84h-709q0 -110 60 -171.5t169 -61.5q90 0 163 53.5t102 140.5l223 -43q-45 -164 -194.5 -270.5t-329.5 -106.5q-123 0 -216.5 47
t-148.5 134q-167 -181 -405 -181q-202 0 -322.5 119t-120.5 307q0 39 10 107zM1116 625h469q2 6 2 22q0 70 -51 115t-137 45q-90 0 -165 -48.5t-118 -133.5zM522 215q117 0 205 82q95 85 115 205q4 32 4 57q0 99 -58 160t-155 61q-133 0 -229.5 -102.5t-96.5 -241.5
q0 -100 58.5 -160.5t156.5 -60.5z" />
    <glyph glyph-name="Racute" unicode="&#x154;" horiz-adv-x="1286" 
d="M31 0l254 1434h633q183 0 286 -97.5t103 -263.5q0 -175 -92.5 -305.5t-249.5 -185.5l174 -584h-275l-159 553h-320l-98 -551h-256zM428 797h363q118 0 189 66t71 175q0 72 -47.5 111t-135.5 39h-370zM707 1573l192 287h332l-293 -287h-231z" />
    <glyph glyph-name="racute" unicode="&#x155;" horiz-adv-x="948" 
d="M18 0l177 995h256l-15 -82q107 113 258 113q121 0 187.5 -68t66.5 -202q0 -74 -14 -140l-256 -38q16 66 16 100q0 115 -112 115q-76 0 -132 -65t-79 -187l-97 -541h-256zM489 1151l193 287h334l-295 -287h-232z" />
    <glyph glyph-name="uni0156" unicode="&#x156;" horiz-adv-x="1286" 
d="M31 0l254 1434h633q183 0 286 -97.5t103 -263.5q0 -175 -92.5 -305.5t-249.5 -185.5l174 -584h-275l-159 553h-320l-98 -551h-256zM428 797h363q118 0 189 66t71 175q0 72 -47.5 111t-135.5 39h-370zM518 -115q61 0 97 -39.5t36 -107.5q0 -109 -55.5 -195t-146.5 -118
l-31 92q69 26 104 98q-6 -2 -24 -2q-56 0 -91.5 35.5t-35.5 91.5q0 61 43 103t104 42z" />
    <glyph glyph-name="uni0157" unicode="&#x157;" horiz-adv-x="948" 
d="M18 0l177 995h256l-15 -82q107 113 258 113q121 0 187.5 -68t66.5 -202q0 -74 -14 -140l-256 -38q16 66 16 100q0 115 -112 115q-76 0 -132 -65t-79 -187l-97 -541h-256zM111 -115q61 0 97 -39.5t36 -107.5q0 -108 -56 -194.5t-147 -118.5l-31 92q70 27 105 98
q-6 -2 -25 -2q-56 0 -91.5 35.5t-35.5 91.5q0 61 43.5 103t104.5 42z" />
    <glyph glyph-name="Rcaron" unicode="&#x158;" horiz-adv-x="1286" 
d="M31 0l254 1434h633q183 0 286 -97.5t103 -263.5q0 -175 -92.5 -305.5t-249.5 -185.5l174 -584h-275l-159 553h-320l-98 -551h-256zM428 797h363q118 0 189 66t71 175q0 72 -47.5 111t-135.5 39h-370zM553 1860h215l86 -127l129 127h217l-258 -287h-235z" />
    <glyph glyph-name="rcaron" unicode="&#x159;" horiz-adv-x="948" 
d="M18 0l177 995h256l-15 -82q107 113 258 113q121 0 187.5 -68t66.5 -202q0 -74 -14 -140l-256 -38q16 66 16 100q0 115 -112 115q-76 0 -132 -65t-79 -187l-97 -541h-256zM334 1438h215l86 -127l131 127h213l-254 -287h-236z" />
    <glyph glyph-name="Sacute" unicode="&#x15a;" horiz-adv-x="1273" 
d="M43 479l258 76q4 -161 81.5 -245.5t217.5 -84.5q148 0 248 68q100 69 100 174q0 70 -65.5 108.5t-218.5 57.5q-224 25 -335.5 113t-111.5 245q0 107 46.5 197.5t126 150.5t184 93.5t221.5 33.5q205 0 336 -114t143 -299l-264 -86q-10 117 -73 180t-169 63
q-119 0 -199 -51q-84 -53 -84 -141q0 -57 53 -88.5t177 -44.5q506 -52 506 -373q0 -157 -86.5 -282t-232.5 -192t-322 -67q-248 0 -392 138q-142 139 -145 370zM702 1573l193 287h332l-293 -287h-232z" />
    <glyph glyph-name="sacute" unicode="&#x15b;" horiz-adv-x="956" 
d="M18 340l240 35q6 -172 176 -172q88 0 142.5 36t54.5 87v4q0 63 -158 73q-159 12 -245.5 84.5t-86.5 190.5v6q0 145 122.5 244.5t295.5 99.5q139 0 233 -80.5t111 -214.5l-217 -55q-14 115 -139 115q-63 0 -107 -26t-45 -67v-2q0 -25 26 -38t93 -19q177 -13 271 -86
t94 -195v-4q0 -167 -134 -277t-329 -110q-173 0 -282.5 102.5t-115.5 268.5zM465 1151l192 287h334l-295 -287h-231z" />
    <glyph glyph-name="Scircumflex" unicode="&#x15c;" horiz-adv-x="1273" 
d="M43 479l258 76q4 -161 81.5 -245.5t217.5 -84.5q148 0 248 68q100 69 100 174q0 70 -65.5 108.5t-218.5 57.5q-224 25 -335.5 113t-111.5 245q0 107 46.5 197.5t126 150.5t184 93.5t221.5 33.5q205 0 336 -114t143 -299l-264 -86q-10 117 -73 180t-169 63
q-119 0 -199 -51q-84 -53 -84 -141q0 -57 53 -88.5t177 -44.5q506 -52 506 -373q0 -157 -86.5 -282t-232.5 -192t-322 -67q-248 0 -392 138q-142 139 -145 370zM487 1573l258 287h234l154 -287h-213l-86 125l-132 -125h-215z" />
    <glyph glyph-name="scircumflex" unicode="&#x15d;" horiz-adv-x="956" 
d="M18 340l240 35q6 -172 176 -172q88 0 142.5 36t54.5 87v4q0 63 -158 73q-159 12 -245.5 84.5t-86.5 190.5v6q0 145 122.5 244.5t295.5 99.5q139 0 233 -80.5t111 -214.5l-217 -55q-14 115 -139 115q-63 0 -107 -26t-45 -67v-2q0 -25 26 -38t93 -19q177 -13 271 -86
t94 -195v-4q0 -167 -134 -277t-329 -110q-173 0 -282.5 102.5t-115.5 268.5zM248 1151l258 287h235l154 -287h-215l-86 127l-129 -127h-217z" />
    <glyph glyph-name="Scedilla" unicode="&#x15e;" horiz-adv-x="1273" 
d="M43 479l258 76q4 -161 81.5 -245.5t217.5 -84.5q148 0 248 68q100 69 100 174q0 70 -65.5 108.5t-218.5 57.5q-447 53 -447 358q0 107 46.5 197.5t126 150.5t184 93.5t221.5 33.5q205 0 336 -114t143 -299l-264 -86q-10 117 -73 180t-169 63q-119 0 -199 -51
q-84 -53 -84 -141q0 -57 53 -88.5t177 -44.5q253 -26 379.5 -118t126.5 -255q0 -146 -76.5 -265t-206 -189t-289.5 -85l-51 -69q64 -2 113 -51t49 -121q0 -89 -63.5 -150t-164.5 -61q-85 0 -138.5 45t-49.5 112l125 39q-2 -31 15.5 -49t52.5 -18q36 0 57.5 21.5t21.5 54.5
q0 27 -17 43t-46 16q-31 0 -45 -14l-100 71l98 133q-214 20 -336 154t-127 350z" />
    <glyph glyph-name="scedilla" unicode="&#x15f;" horiz-adv-x="956" 
d="M18 340l240 35q6 -172 176 -172q88 0 142.5 36t54.5 87v4q-2 32 -36.5 49.5t-121.5 23.5q-160 13 -246 85t-86 190v6q0 146 121.5 245t296.5 99q139 0 233 -80.5t111 -214.5l-217 -55q-14 115 -139 115q-63 0 -107 -26t-45 -67v-2q0 -25 26 -38t93 -19q171 -13 265 -82.5
t100 -185.5v-17q0 -152 -116.5 -261t-289.5 -124l-45 -59q68 -2 113 -48.5t45 -115.5q0 -39 -14.5 -77.5t-42 -72.5t-75.5 -55.5t-108 -21.5q-82 0 -135 44.5t-49 110.5l133 41q-5 -29 12 -47t49 -18q35 0 59.5 23t24.5 55q0 25 -15 40t-44 15q-27 0 -47 -14l-94 77l88 129
q-137 25 -221.5 123t-88.5 240z" />
    <glyph glyph-name="Scaron" unicode="&#x160;" horiz-adv-x="1273" 
d="M43 479l258 76q4 -161 81.5 -245.5t217.5 -84.5q148 0 248 68q100 69 100 174q0 70 -65.5 108.5t-218.5 57.5q-224 25 -335.5 113t-111.5 245q0 107 46.5 197.5t126 150.5t184 93.5t221.5 33.5q205 0 336 -114t143 -299l-264 -86q-10 117 -73 180t-169 63
q-119 0 -199 -51q-84 -53 -84 -141q0 -57 53 -88.5t177 -44.5q506 -52 506 -373q0 -157 -86.5 -282t-232.5 -192t-322 -67q-248 0 -392 138q-142 139 -145 370zM549 1860h215l86 -127l129 127h217l-258 -287h-236z" />
    <glyph glyph-name="scaron" unicode="&#x161;" horiz-adv-x="956" 
d="M18 340l240 35q6 -172 176 -172q88 0 142.5 36t54.5 87v4q0 63 -158 73q-159 12 -245.5 84.5t-86.5 190.5v6q0 145 122.5 244.5t295.5 99.5q139 0 233 -80.5t111 -214.5l-217 -55q-14 115 -139 115q-63 0 -107 -26t-45 -67v-2q0 -25 26 -38t93 -19q177 -13 271 -86
t94 -195v-4q0 -167 -134 -277t-329 -110q-173 0 -282.5 102.5t-115.5 268.5zM309 1438h215l86 -127l131 127h213l-254 -287h-235z" />
    <glyph glyph-name="uni0162" unicode="&#x162;" horiz-adv-x="1259" 
d="M158 1188l43 246h1188l-43 -246h-467l-209 -1188h-47l-70 -96q64 -2 113 -51t49 -121q0 -89 -63.5 -150t-164.5 -61q-85 0 -138.5 45t-49.5 112l125 39q-2 -31 15.5 -49t52.5 -18q36 0 57.5 21.5t21.5 54.5q0 27 -17 43t-46 16q-31 0 -45 -14l-101 71l117 158h-65
l209 1188h-465z" />
    <glyph glyph-name="uni0163" unicode="&#x163;" horiz-adv-x="1013" 
d="M80 774l39 221h162l51 287h256l-49 -287h473l-37 -221h-475l-72 -397q-8 -41 -8 -70q0 -106 115 -106q67 0 113.5 54.5t53.5 145.5l240 -39q-23 -162 -123.5 -266t-243.5 -123l-45 -61q68 -2 113 -48.5t45 -115.5q0 -39 -14 -77.5t-42 -72.5t-75.5 -55.5t-107.5 -21.5
q-82 0 -135.5 44.5t-49.5 110.5l133 41q-4 -29 13 -47t49 -18q35 0 59.5 23t24.5 55q0 25 -15.5 40t-44.5 15q-27 0 -47 -14l-94 77l88 127q-129 20 -198.5 96t-69.5 199q0 52 8 88l74 416h-164z" />
    <glyph glyph-name="Tcaron" unicode="&#x164;" horiz-adv-x="1259" 
d="M158 1188l43 246h1188l-43 -246h-467l-209 -1188h-256l209 1188h-465zM549 1860h215l86 -127l129 127h217l-258 -287h-236z" />
    <glyph glyph-name="tcaron" unicode="&#x165;" horiz-adv-x="1013" 
d="M80 774l39 221h162l51 287h256l-49 -287h473l-37 -221h-475l-76 -430q-4 -16 -4 -37q0 -106 115 -106q67 0 113.5 54.5t53.5 145.5l240 -39q-24 -179 -143 -286t-281 -107q-169 0 -262.5 79.5t-93.5 221.5q0 52 8 88l74 416h-164zM641 1155l72 301h250l-146 -301h-176z
" />
    <glyph glyph-name="Tbar" unicode="&#x166;" horiz-adv-x="1259" 
d="M158 1188l43 246h1188l-43 -246h-467l-74 -420h223l-37 -209h-223l-98 -559h-256l98 559h-221l37 209h221l74 420h-465z" />
    <glyph glyph-name="tbar" unicode="&#x167;" horiz-adv-x="1013" 
d="M70 473l30 178h121l23 123h-164l39 221h162l51 287h256l-49 -287h473l-37 -221h-475l-23 -123h258l-30 -178h-259l-22 -129q-4 -16 -4 -37q0 -106 115 -106q67 0 113.5 54.5t53.5 145.5l240 -39q-24 -179 -143 -286t-281 -107q-169 0 -262.5 79.5t-93.5 221.5q0 52 8 88
l20 115h-120z" />
    <glyph glyph-name="Utilde" unicode="&#x168;" horiz-adv-x="1404" 
d="M119 571l155 863h256l-155 -871q-8 -36 -8 -86q0 -125 72.5 -193.5t205.5 -68.5q160 0 269.5 96t138.5 262l151 861h256l-151 -873q-46 -263 -237 -427.5t-454 -164.5q-234 0 -371.5 132.5t-137.5 347.5q0 44 10 122zM807 1849q63 0 137 -41q57 -32 98 -32q74 0 121 90
l137 -105q-46 -92 -116 -139t-154 -47q-67 0 -145 43q-55 31 -90 31q-68 0 -115 -86l-143 100q52 99 118.5 142.5t151.5 43.5z" />
    <glyph glyph-name="utilde" unicode="&#x169;" horiz-adv-x="1107" 
d="M1090 995l-177 -995h-256l15 82q-121 -115 -293 -115q-145 0 -225 80t-80 221q0 34 10 99l113 628h256l-105 -589q-8 -44 -8 -68q0 -141 143 -141q92 0 160.5 64.5t91.5 174.5l99 559h256zM588 1430q69 0 143 -41q56 -29 84 -29q57 0 117 84l137 -113q-40 -84 -109 -129
t-151 -45q-62 0 -137 43q-1 0 -10.5 5t-20.5 10t-25.5 9.5t-25.5 4.5q-68 0 -121 -84l-135 104q47 92 114 136.5t140 44.5z" />
    <glyph glyph-name="Umacron" unicode="&#x16a;" horiz-adv-x="1404" 
d="M119 571l155 863h256l-155 -871q-8 -36 -8 -86q0 -125 72.5 -193.5t205.5 -68.5q160 0 269.5 96t138.5 262l151 861h256l-151 -873q-46 -263 -237 -427.5t-454 -164.5q-234 0 -371.5 132.5t-137.5 347.5q0 44 10 122zM592 1595l35 199h614l-35 -199h-614z" />
    <glyph glyph-name="umacron" unicode="&#x16b;" horiz-adv-x="1107" 
d="M1090 995l-177 -995h-256l15 82q-121 -115 -293 -115q-145 0 -225 80t-80 221q0 34 10 99l113 628h256l-105 -589q-8 -44 -8 -68q0 -141 143 -141q92 0 160.5 64.5t91.5 174.5l99 559h256zM438 1196l37 199h492l-37 -199h-492z" />
    <glyph glyph-name="Ubreve" unicode="&#x16c;" horiz-adv-x="1404" 
d="M119 571l155 863h256l-155 -871q-8 -36 -8 -86q0 -125 72.5 -193.5t205.5 -68.5q160 0 269.5 96t138.5 262l151 861h256l-151 -873q-46 -263 -237 -427.5t-454 -164.5q-234 0 -371.5 132.5t-137.5 347.5q0 44 10 122zM610 1829v31h183q-2 -54 26.5 -85.5t79.5 -31.5
q55 0 93.5 31t56.5 86h182q-31 -130 -122.5 -208.5t-217.5 -78.5q-123 0 -202 71t-79 185z" />
    <glyph glyph-name="ubreve" unicode="&#x16d;" horiz-adv-x="1107" 
d="M1090 995l-177 -995h-256l15 82q-121 -115 -293 -115q-145 0 -225 80t-80 221q0 34 10 99l113 628h256l-105 -589q-8 -44 -8 -68q0 -141 143 -141q92 0 160.5 64.5t91.5 174.5l99 559h256zM416 1409v29h182q-2 -54 27 -85.5t80 -31.5q55 0 93 31t56 86h182
q-31 -130 -122.5 -208.5t-217.5 -78.5q-122 0 -201 71.5t-79 186.5z" />
    <glyph glyph-name="Uring" unicode="&#x16e;" horiz-adv-x="1404" 
d="M119 571l155 863h256l-155 -871q-8 -36 -8 -86q0 -125 72.5 -193.5t205.5 -68.5q160 0 269.5 96t138.5 262l151 861h256l-151 -873q-46 -263 -237 -427.5t-454 -164.5q-234 0 -371.5 132.5t-137.5 347.5q0 44 10 122zM934 1931q79 0 133.5 -56t54.5 -136q0 -89 -69 -155
t-154 -66q-79 0 -133.5 55t-54.5 135q0 87 67 155t156 68zM907 1651q36 0 60 22.5t24 57.5q0 29 -19 48t-48 19q-32 0 -57 -24t-25 -56q0 -29 19 -48t46 -19z" />
    <glyph glyph-name="uring" unicode="&#x16f;" horiz-adv-x="1107" 
d="M1090 995l-177 -995h-256l15 82q-121 -115 -293 -115q-145 0 -225 80t-80 221q0 34 10 99l113 628h256l-105 -589q-8 -44 -8 -68q0 -141 143 -141q92 0 160.5 64.5t91.5 174.5l99 559h256zM713 1499q79 0 133.5 -55t54.5 -135q0 -89 -69 -155.5t-154 -66.5
q-79 0 -134 55.5t-55 133.5q0 86 68.5 154.5t155.5 68.5zM688 1221q33 0 57.5 22.5t24.5 56.5q0 29 -19 47.5t-46 18.5q-36 0 -60 -22.5t-24 -57.5q0 -27 19 -46t48 -19z" />
    <glyph glyph-name="Uhungarumlaut" unicode="&#x170;" horiz-adv-x="1404" 
d="M119 571l155 863h256l-155 -871q-8 -36 -8 -86q0 -125 72.5 -193.5t205.5 -68.5q160 0 269.5 96t138.5 262l151 861h256l-151 -873q-46 -263 -237 -427.5t-454 -164.5q-234 0 -371.5 132.5t-137.5 347.5q0 44 10 122zM629 1573l139 287h287l-242 -287h-184zM981 1573
l139 287h289l-244 -287h-184z" />
    <glyph glyph-name="uhungarumlaut" unicode="&#x171;" horiz-adv-x="1107" 
d="M1090 995l-177 -995h-256l15 82q-121 -115 -293 -115q-145 0 -225 80t-80 221q0 34 10 99l113 628h256l-105 -589q-8 -44 -8 -68q0 -141 143 -141q92 0 160.5 64.5t91.5 174.5l99 559h256zM401 1151l154 287h289l-264 -287h-179zM752 1151l153 287h289l-264 -287h-178z
" />
    <glyph glyph-name="Uogonek" unicode="&#x172;" horiz-adv-x="1404" 
d="M119 571l155 863h256l-155 -871q-8 -36 -8 -86q0 -125 72.5 -193.5t205.5 -68.5q160 0 269.5 96t138.5 262l151 861h256l-151 -873q-37 -209 -165.5 -358t-318.5 -205q-60 -22 -105.5 -61.5t-45.5 -79.5q0 -37 23 -56t73 -20l-29 -164q-124 0 -196 50.5t-72 142.5t78 161
q-206 20 -324 148t-118 330q0 44 10 122z" />
    <glyph glyph-name="uogonek" unicode="&#x173;" horiz-adv-x="1107" 
d="M84 367l113 628h256l-105 -589q-8 -31 -8 -68q0 -141 143 -141q92 0 160.5 64.5t91.5 174.5l99 559h256l-177 -995h-2q-59 -21 -106 -61t-47 -82q0 -73 94 -76l-29 -164q-123 0 -194.5 50.5t-71.5 142.5q0 114 113 190h-13l15 82q-121 -115 -293 -115q-145 0 -225 80
t-80 221q0 34 10 99z" />
    <glyph glyph-name="Wcircumflex" unicode="&#x174;" horiz-adv-x="1923" 
d="M190 1434h256l78 -1057l463 1057h273l90 -1061l450 1061h264l-622 -1434h-307l-80 1014l-441 -1014h-309zM821 1573l258 287h234l153 -287h-213l-86 125l-131 -125h-215z" />
    <glyph glyph-name="wcircumflex" unicode="&#x175;" horiz-adv-x="1562" 
d="M129 995h246l71 -637l302 637h233l78 -635l293 635h258l-486 -995h-247l-76 610l-285 -610h-256zM555 1151l258 287h236l153 -287h-215l-86 127l-129 -127h-217z" />
    <glyph glyph-name="Ycircumflex" unicode="&#x176;" horiz-adv-x="1376" 
d="M190 1434h277l268 -609l482 609h301l-695 -873l-98 -561h-256l100 569zM535 1573l258 287h233l154 -287h-213l-86 125l-131 -125h-215z" />
    <glyph glyph-name="ycircumflex" unicode="&#x177;" horiz-adv-x="1116" 
d="M-51 -63l246 20q-9 -46 -9 -63q0 -74 49 -117t132 -43q116 0 198.5 75.5t102.5 202.5l20 121q-123 -117 -295 -117q-145 0 -225 81t-80 222q0 34 10 99l99 577h254l-97 -540q-6 -35 -6 -66q0 -143 150 -143q98 0 167 69t89 189l88 491h256l-174 -981q-40 -222 -200 -364
t-376 -142q-187 0 -299 90.5t-112 243.5q0 42 12 95zM332 1151l258 287h235l154 -287h-215l-86 127l-129 -127h-217z" />
    <glyph glyph-name="Ydieresis" unicode="&#x178;" horiz-adv-x="1376" 
d="M190 1434h277l268 -609l482 609h301l-695 -873l-98 -561h-256l100 569zM702 1872q62 0 103 -41t41 -102q0 -67 -49.5 -118.5t-116.5 -51.5q-61 0 -102 42.5t-41 104.5q0 66 49.5 116t115.5 50zM1106 1872q61 0 102 -43t41 -105q0 -66 -50 -115.5t-116 -49.5
q-61 0 -102 41.5t-41 101.5q0 64 50 117t116 53z" />
    <glyph glyph-name="Zacute" unicode="&#x179;" horiz-adv-x="1288" 
d="M-14 0l45 246h-4l962 942h-792l43 246h1138l-43 -246h2l-968 -942h798l-43 -246h-1138zM700 1573l193 287h332l-293 -287h-232z" />
    <glyph glyph-name="zacute" unicode="&#x17a;" horiz-adv-x="937" 
d="M-23 0l39 221l584 553h-485l39 221h807l-39 -221l-586 -553h487l-39 -221h-807zM461 1151l192 287h334l-295 -287h-231z" />
    <glyph glyph-name="Zdotaccent" unicode="&#x17b;" horiz-adv-x="1288" 
d="M-14 0l45 246h-4l962 942h-792l43 246h1138l-43 -246h2l-968 -942h798l-43 -246h-1138zM852 1868q61 0 102 -42t41 -104q0 -61 -49.5 -110t-114.5 -49q-61 0 -102 40.5t-41 102.5q0 66 49 114t115 48z" />
    <glyph glyph-name="zdotaccent" unicode="&#x17c;" horiz-adv-x="937" 
d="M-23 0l39 221l584 553h-485l39 221h807l-39 -221l-586 -553h487l-39 -221h-807zM616 1456q65 0 107.5 -42.5t42.5 -106.5t-51 -116t-117 -52t-109 43t-43 106q0 67 51 117.5t119 50.5z" />
    <glyph glyph-name="Zcaron" unicode="&#x17d;" horiz-adv-x="1288" 
d="M-14 0l45 246h-4l962 942h-792l43 246h1138l-43 -246h2l-968 -942h798l-43 -246h-1138zM547 1860h215l86 -127l129 127h217l-258 -287h-236z" />
    <glyph glyph-name="zcaron" unicode="&#x17e;" horiz-adv-x="937" 
d="M-23 0l39 221l584 553h-485l39 221h807l-39 -221l-586 -553h487l-39 -221h-807zM305 1438h215l86 -127l131 127h213l-254 -287h-235z" />
    <glyph glyph-name="longs" unicode="&#x17f;" horiz-adv-x="659" 
d="M80 774l39 221h162l12 74q30 176 151 285q123 108 301 108q152 0 238 -79t86 -214q0 -37 -2 -47l-238 -47q1 7 2 16.5t2 16t1 10.5q0 55 -29.5 85t-79.5 30q-67 0 -114.5 -41.5t-59.5 -110.5l-193 -1085h-256l138 778h-160z" />
    <glyph glyph-name="florin" unicode="&#x192;" horiz-adv-x="1034" 
d="M-100 -244l170 158q24 -47 84 -47q57 0 96 35t51 98l135 774h-266l2 221h303l17 95q31 169 141 270.5t270 101.5q87 0 151 -33t95 -86l-170 -157q-24 47 -84 47q-56 0 -95.5 -34t-49.5 -95l-19 -109h285l-2 -221h-322l-135 -764q-31 -169 -141.5 -270.5t-270.5 -101.5
q-87 0 -150.5 32.5t-94.5 85.5z" />
    <glyph glyph-name="uni01B5" unicode="&#x1b5;" horiz-adv-x="1288" 
d="M-14 0l45 246h-4l374 366h-184l39 209h358l375 367h-792l43 246h1138l-43 -246h2l-376 -367h186l-37 -209h-365l-376 -366h798l-43 -246h-1138z" />
    <glyph glyph-name="uni01B6" unicode="&#x1b6;" horiz-adv-x="937" 
d="M-23 0l39 221l199 189h-113l31 178h270l197 186h-485l39 221h807l-39 -221l-197 -186h111l-33 -178h-268l-199 -189h487l-39 -221h-807z" />
    <glyph glyph-name="AEacute" unicode="&#x1fc;" horiz-adv-x="2091" 
d="M-63 0l1132 1434h1102l-43 -246h-758l-59 -332h674l-43 -246h-674l-66 -364h760l-45 -246h-1014l64 360h-449l-285 -360h-296zM713 606h297l86 484zM1528 1573l192 287h332l-293 -287h-231z" />
    <glyph glyph-name="aeacute" unicode="&#x1fd;" horiz-adv-x="1691" 
d="M20 276q34 187 211 269t441 82l8 41q4 20 4 34q0 54 -39 83.5t-113 29.5q-90 0 -147 -53.5t-68 -145.5l-229 27q14 121 83 210t168.5 132t217.5 43q241 0 315 -151q155 149 367 149q179 0 282 -102t103 -275q0 -62 -16 -137l-19 -84h-706q2 -109 62 -171t165 -62
q94 0 168.5 52t103.5 138l224 -39q-45 -165 -194.5 -271t-328.5 -106q-123 0 -215.5 51t-144.5 144q-65 -90 -165.5 -142.5t-221.5 -52.5q-153 0 -236.5 72.5t-83.5 183.5q0 5 4 51zM926 625h473q7 82 -47 133t-146 51q-91 0 -165 -49t-115 -135zM391 197q88 0 153.5 58.5
t88.5 156.5l4 20q-208 3 -293 -45q-82 -46 -82 -104q0 -41 33.5 -63.5t95.5 -22.5zM797 1151l192 287h334l-295 -287h-231z" />
    <glyph glyph-name="Oslashacute" unicode="&#x1fe;" horiz-adv-x="1644" 
d="M973 1464q193 0 336 -82l129 146l164 -144l-127 -141q129 -163 129 -393q4 -170 -64.5 -333.5t-183.5 -285t-273 -194t-325 -68.5q-194 0 -346 82l-129 -143l-164 143l125 142q-127 160 -127 387q-2 114 28.5 227t86.5 210.5t136.5 181.5t175 143t205.5 91.5t224 30.5z
M426 395l704 791q-79 33 -176 33q-114 3 -223.5 -49.5t-188 -138t-125.5 -199t-44 -228.5q0 -120 53 -209zM772 215q114 -3 222.5 48t186.5 136t124.5 198t44.5 228q0 125 -56 217l-706 -792q84 -35 184 -35zM883 1573l192 287h332l-293 -287h-231z" />
    <glyph glyph-name="oslashacute" unicode="&#x1ff;" horiz-adv-x="1153" 
d="M49 35l86 96q-84 116 -84 270q0 41 10 109q37 222 204.5 369t391.5 147q137 0 232 -53l96 106l129 -118l-92 -103q80 -115 80 -268q0 -39 -10 -107q-37 -221 -204 -367.5t-388 -146.5q-127 0 -228 49l-94 -104zM324 342l383 426q-37 12 -78 12q-131 0 -226.5 -104
t-95.5 -240q0 -41 17 -94zM526 215q131 0 225.5 104t94.5 236q0 53 -15 90l-374 -420q38 -10 69 -10zM569 1151l193 287h334l-295 -287h-232z" />
    <glyph glyph-name="uni0218" unicode="&#x218;" horiz-adv-x="1273" 
d="M43 479l258 76q4 -161 81.5 -245.5t217.5 -84.5q148 0 248 68q100 69 100 174q0 70 -65.5 108.5t-218.5 57.5q-224 25 -335.5 113t-111.5 245q0 107 46.5 197.5t126 150.5t184 93.5t221.5 33.5q205 0 336 -114t143 -299l-264 -86q-10 117 -73 180t-169 63
q-119 0 -199 -51q-84 -53 -84 -141q0 -57 53 -88.5t177 -44.5q506 -52 506 -373q0 -157 -86.5 -282t-232.5 -192t-322 -67q-248 0 -392 138q-142 139 -145 370zM543 -115q61 0 97 -39.5t36 -107.5q0 -108 -56 -194.5t-147 -118.5l-31 92q70 27 105 98q-6 -2 -25 -2
q-56 0 -91.5 35.5t-35.5 91.5q0 61 43.5 103t104.5 42z" />
    <glyph glyph-name="uni0219" unicode="&#x219;" horiz-adv-x="956" 
d="M18 340l240 35q6 -172 176 -172q88 0 142.5 36t54.5 87v4q0 63 -158 73q-159 12 -245.5 84.5t-86.5 190.5v6q0 145 122.5 244.5t295.5 99.5q139 0 233 -80.5t111 -214.5l-217 -55q-14 115 -139 115q-63 0 -107 -26t-45 -67v-2q0 -25 26 -38t93 -19q177 -13 271 -86
t94 -195v-4q0 -167 -134 -277t-329 -110q-173 0 -282.5 102.5t-115.5 268.5zM371 -115q61 0 97 -39.5t36 -107.5q0 -108 -56 -194.5t-147 -118.5l-31 92q70 27 105 98q-6 -2 -25 -2q-56 0 -91.5 35.5t-35.5 91.5q0 61 43.5 103t104.5 42z" />
    <glyph glyph-name="uni021A" unicode="&#x21a;" horiz-adv-x="1259" 
d="M158 1188l43 246h1188l-43 -246h-467l-209 -1188h-256l209 1188h-465zM498 -115q61 0 97 -39.5t36 -107.5q0 -108 -56 -194.5t-147 -118.5l-31 92q70 27 105 98q-6 -2 -25 -2q-55 0 -91 35.5t-36 91.5q0 61 43.5 103t104.5 42z" />
    <glyph glyph-name="uni021B" unicode="&#x21b;" horiz-adv-x="1013" 
d="M80 774l39 221h162l51 287h256l-49 -287h473l-37 -221h-475l-76 -430q-4 -16 -4 -37q0 -106 115 -106q67 0 113.5 54.5t53.5 145.5l240 -39q-24 -179 -143 -286t-281 -107q-169 0 -262.5 79.5t-93.5 221.5q0 52 8 88l74 416h-164zM473 -115q61 0 97 -39.5t36 -107.5
q0 -108 -56 -194.5t-147 -118.5l-30 92q69 26 104 98q-6 -2 -24 -2q-55 0 -91 35.5t-36 91.5q0 61 43 103t104 42z" />
    <glyph glyph-name="uni0237" unicode="&#x237;" horiz-adv-x="491" 
d="M-408 -182l220 18q-4 -48 18.5 -72t65.5 -24q49 0 79.5 28t38.5 78l203 1149h256l-207 -1151q-30 -157 -130.5 -246.5t-252.5 -89.5q-134 0 -213.5 69.5t-79.5 186.5q0 42 2 54z" />
    <glyph glyph-name="uni02BB" unicode="&#x2bb;" horiz-adv-x="348" 
d="M90 967l27 104q2 -2 14 -2q69 0 125 34.5t82 96.5q-6 -2 -25 -2q-67 0 -109 41t-42 104q0 72 51.5 121t120.5 49q72 0 113.5 -47t41.5 -125q0 -155 -97.5 -267.5t-237.5 -112.5q-34 0 -64 6z" />
    <glyph glyph-name="circumflex" unicode="&#x2c6;" horiz-adv-x="1105" 
d="M326 1151l258 287h235l154 -287h-215l-86 127l-129 -127h-217z" />
    <glyph glyph-name="caron" unicode="&#x2c7;" horiz-adv-x="1105" 
d="M391 1438h215l86 -127l131 127h213l-254 -287h-235z" />
    <glyph glyph-name="breve" unicode="&#x2d8;" horiz-adv-x="1105" 
d="M393 1409v29h182q-2 -54 27 -85.5t80 -31.5q55 0 93 31t56 86h183q-31 -130 -122.5 -208.5t-217.5 -78.5q-123 0 -202 71.5t-79 186.5z" />
    <glyph glyph-name="dotaccent" unicode="&#x2d9;" horiz-adv-x="1105" 
d="M688 1456q65 0 107.5 -42.5t42.5 -106.5t-51 -116t-117 -52t-109 43t-43 106q0 67 51 117.5t119 50.5z" />
    <glyph glyph-name="ring" unicode="&#x2da;" horiz-adv-x="1105" 
d="M705 1499q79 0 133.5 -55t54.5 -135q0 -89 -69 -155.5t-154 -66.5q-79 0 -134 55.5t-55 133.5q0 86 68.5 154.5t155.5 68.5zM680 1221q33 0 57.5 22.5t24.5 56.5q0 29 -19.5 47.5t-46.5 18.5q-36 0 -60 -22.5t-24 -57.5q0 -27 19.5 -46t48.5 -19z" />
    <glyph glyph-name="ogonek" unicode="&#x2db;" horiz-adv-x="1105" 
d="M451 41l159 -41q-59 -21 -106 -61t-47 -82q0 -73 94 -76l-29 -164q-123 0 -194.5 50.5t-71.5 142.5q0 79 53.5 139t141.5 92z" />
    <glyph glyph-name="tilde" unicode="&#x2dc;" horiz-adv-x="1105" 
d="M559 1430q69 0 143 -41q56 -29 84 -29q57 0 117 84l137 -113q-40 -84 -109 -129t-151 -45q-62 0 -137 43q-1 0 -10.5 5t-20.5 10t-25.5 9.5t-25.5 4.5q-68 0 -121 -84l-135 104q47 92 114 136.5t140 44.5z" />
    <glyph glyph-name="hungarumlaut" unicode="&#x2dd;" horiz-adv-x="1105" 
d="M285 1151l153 287h289l-264 -287h-178zM635 1151l153 287h289l-264 -287h-178z" />
    <glyph glyph-name="gravecomb" unicode="&#x300;" horiz-adv-x="0" 
d="M-309 1438h329l93 -287h-228z" />
    <glyph glyph-name="acutecomb" unicode="&#x301;" horiz-adv-x="0" 
d="M-360 1151l192 287h334l-295 -287h-231z" />
    <glyph glyph-name="uni0302" unicode="&#x302;" horiz-adv-x="0" 
d="M-532 1151l258 287h235l154 -287h-215l-86 127l-129 -127h-217z" />
    <glyph glyph-name="tildecomb" unicode="&#x303;" horiz-adv-x="0" 
d="M-336 1430q69 0 143 -41q56 -29 84 -29q57 0 117 84l137 -113q-40 -84 -109 -129t-151 -45q-62 0 -137 43q-1 0 -10.5 5t-20.5 10t-25.5 9.5t-25.5 4.5q-68 0 -121 -84l-135 104q47 92 114 136.5t140 44.5z" />
    <glyph glyph-name="uni0304" unicode="&#x304;" horiz-adv-x="0" 
d="M-369 1196l37 199h492l-37 -199h-492z" />
    <glyph glyph-name="uni0306" unicode="&#x306;" horiz-adv-x="0" 
d="M-455 1409v29h183q-2 -54 26.5 -85.5t79.5 -31.5q55 0 93.5 31t56.5 86h182q-31 -130 -122.5 -208.5t-217.5 -78.5q-123 0 -202 71.5t-79 186.5z" />
    <glyph glyph-name="uni0307" unicode="&#x307;" horiz-adv-x="0" 
d="M-10 1456q65 0 107 -42.5t42 -106.5t-50.5 -116t-117.5 -52q-65 0 -108 42.5t-43 106.5q0 67 51 117.5t119 50.5z" />
    <glyph glyph-name="uni0308" unicode="&#x308;" horiz-adv-x="0" 
d="M-385 1444q61 0 101 -39.5t40 -99.5q0 -67 -49 -116.5t-117 -49.5q-60 0 -98.5 40.5t-38.5 100.5q0 68 47.5 116t114.5 48zM-2 1444q63 0 102 -38.5t39 -100.5q0 -64 -48.5 -115t-113.5 -51q-61 0 -100 40.5t-39 102.5q0 66 47 114t113 48z" />
    <glyph glyph-name="uni030A" unicode="&#x30a;" horiz-adv-x="0" 
d="M-49 1499q79 0 133.5 -55t54.5 -135q0 -89 -69 -155.5t-154 -66.5q-79 0 -133.5 55.5t-54.5 133.5q0 87 68 155t155 68zM-74 1221q33 0 57.5 22.5t24.5 56.5q0 29 -19 47.5t-46 18.5q-36 0 -60 -22.5t-24 -57.5q0 -27 19 -46t48 -19z" />
    <glyph glyph-name="uni030B" unicode="&#x30b;" horiz-adv-x="0" 
d="M-627 1151l154 287h289l-265 -287h-178zM-276 1151l153 287h289l-264 -287h-178z" />
    <glyph glyph-name="uni030C" unicode="&#x30c;" horiz-adv-x="0" 
d="M-469 1438h215l86 -127l131 127h213l-254 -287h-235z" />
    <glyph glyph-name="uni0312" unicode="&#x312;" horiz-adv-x="0" 
d="M57 1595l31 -92q-72 -28 -102 -98q4 2 22 2q55 0 91 -35.5t36 -89.5q0 -62 -43 -104.5t-104 -42.5t-97 40.5t-36 106.5q0 106 56 193.5t146 119.5z" />
    <glyph glyph-name="uni0313" unicode="&#x313;" horiz-adv-x="0" 
d="M-158 1133l72 301h250l-146 -301h-176z" />
    <glyph glyph-name="uni0326" unicode="&#x326;" horiz-adv-x="0" 
d="M-272 -115q61 0 97 -39.5t36 -107.5q0 -108 -56 -194.5t-147 -118.5l-31 92q70 27 105 98q-6 -2 -25 -2q-55 0 -91 35.5t-36 91.5q0 61 43.5 103t104.5 42z" />
    <glyph glyph-name="uni0327" unicode="&#x327;" horiz-adv-x="0" 
d="M-561 -324l133 41q-5 -29 12 -47t49 -18q35 0 59.5 23t24.5 55q0 25 -15 40t-44 15q-27 0 -47 -14l-94 77l121 175l133 -23l-66 -88q68 -2 113 -48.5t45 -115.5q0 -39 -14.5 -77.5t-42 -72.5t-75.5 -55.5t-108 -21.5q-82 0 -135 44.5t-49 110.5z" />
    <glyph glyph-name="uni0328" unicode="&#x328;" horiz-adv-x="0" 
d="M-248 41l160 -41q-59 -21 -106.5 -61.5t-47.5 -81.5q0 -73 95 -76l-29 -164q-123 0 -194.5 50.5t-71.5 142.5q0 79 53 139t141 92z" />
    <glyph glyph-name="uni0394" unicode="&#x394;" horiz-adv-x="1464" 
d="M-63 0l813 1434h288l314 -1434h-1415zM365 246h661l-180 854z" />
    <glyph glyph-name="uni03A9" unicode="&#x3a9;" horiz-adv-x="1634" 
d="M4 0l43 246h232q-152 158 -152 405q0 65 12 135q18 128 88.5 250.5t176.5 218t251 152.5t299 55q151 0 274.5 -48t203 -130t122.5 -190.5t43 -231.5q0 -64 -12 -131q-59 -309 -295 -485h201l-43 -246h-619l43 246l7 37q173 34 292 159q120 129 150 303q8 41 8 101
q0 169 -102.5 271t-284.5 102q-205 0 -358 -130.5t-191 -322.5q-8 -44 -8 -104q0 -143 73.5 -242t209.5 -137l-4 -37l-21 -121l-8 -47l-14 -78h-617z" />
    <glyph glyph-name="uni03BC" unicode="&#x3bc;" horiz-adv-x="1110" 
d="M-59 -438l256 1433h258l-99 -551q-14 -71 -14 -106q0 -141 143 -141q92 0 160.5 64.5t91.5 174.5l99 559h256l-177 -995h-256l15 82q-121 -115 -293 -115q-61 0 -107 15l-73 -420h-260z" />
    <glyph glyph-name="pi" unicode="&#x3c0;" horiz-adv-x="1267" 
d="M80 778l39 217h1206l-39 -217h-223l-84 -483q-4 -28 -4 -29q0 -65 61 -65q29 0 64 14l39 -207q-109 -31 -181 -31q-109 0 -169 58t-60 158q0 29 6 67l90 518h-293l-137 -778h-239l139 778h-215z" />
    <glyph glyph-name="Wgrave" unicode="&#x1e80;" horiz-adv-x="1923" 
d="M190 1434h256l78 -1057l463 1057h273l90 -1061l450 1061h264l-622 -1434h-307l-80 1014l-441 -1014h-309zM848 1860h328l92 -287h-228z" />
    <glyph glyph-name="wgrave" unicode="&#x1e81;" horiz-adv-x="1562" 
d="M129 995h246l71 -637l302 637h233l78 -635l293 635h258l-486 -995h-247l-76 610l-285 -610h-256zM588 1438h330l92 -287h-228z" />
    <glyph glyph-name="Wacute" unicode="&#x1e82;" horiz-adv-x="1923" 
d="M190 1434h256l78 -1057l463 1057h273l90 -1061l450 1061h264l-622 -1434h-307l-80 1014l-441 -1014h-309zM1036 1573l193 287h332l-293 -287h-232z" />
    <glyph glyph-name="wacute" unicode="&#x1e83;" horiz-adv-x="1562" 
d="M129 995h246l71 -637l302 637h233l78 -635l293 635h258l-486 -995h-247l-76 610l-285 -610h-256zM772 1151l193 287h333l-294 -287h-232z" />
    <glyph glyph-name="Wdieresis" unicode="&#x1e84;" horiz-adv-x="1923" 
d="M190 1434h256l78 -1057l463 1057h273l90 -1061l450 1061h264l-622 -1434h-307l-80 1014l-441 -1014h-309zM989 1872q62 0 103 -41t41 -102q0 -67 -49.5 -118.5t-116.5 -51.5q-61 0 -102.5 42.5t-41.5 104.5q0 66 50 116t116 50zM1393 1872q61 0 102 -43t41 -105
q0 -66 -50 -115.5t-116 -49.5q-61 0 -102 41.5t-41 101.5q0 64 50 117t116 53z" />
    <glyph glyph-name="wdieresis" unicode="&#x1e85;" horiz-adv-x="1562" 
d="M129 995h246l71 -637l302 637h233l78 -635l293 635h258l-486 -995h-247l-76 610l-285 -610h-256zM737 1444q61 0 101.5 -39.5t40.5 -99.5q0 -67 -49 -116.5t-117 -49.5q-60 0 -99 40.5t-39 100.5q0 68 47.5 116t114.5 48zM1120 1444q63 0 102.5 -38.5t39.5 -100.5
q0 -64 -48.5 -115t-113.5 -51q-61 0 -100 40.5t-39 102.5q0 66 46.5 114t112.5 48z" />
    <glyph glyph-name="uni1E8A" unicode="&#x1e8a;" horiz-adv-x="1447" 
d="M-63 0l653 721l-400 713h299l293 -527l480 527h327l-674 -736l394 -698h-305l-285 506l-455 -506h-327zM930 1868q61 0 102 -42t41 -104q0 -61 -49.5 -110t-114.5 -49q-61 0 -102 40.5t-41 102.5q0 66 49 114t115 48z" />
    <glyph glyph-name="uni1E8B" unicode="&#x1e8b;" horiz-adv-x="1085" 
d="M-59 0l452 508l-266 487h285l159 -290l258 290h316l-455 -510l266 -485h-284l-158 287l-256 -287h-317zM676 1456q65 0 107 -42.5t42 -106.5t-50.5 -116t-117.5 -52q-65 0 -108 42.5t-43 106.5q0 67 51 117.5t119 50.5z" />
    <glyph glyph-name="uni1E9E" unicode="&#x1e9e;" horiz-adv-x="1554" 
d="M35 0l147 862q46 277 249 435.5t505 158.5q259 0 463 -70l-275 -450q158 -38 255.5 -149t97.5 -271q0 -239 -153.5 -392t-397.5 -153q-208 0 -334.5 104t-151.5 287l246 72q8 -101 70.5 -159t169.5 -58q128 0 206 79.5t78 205.5q0 132 -112 195.5t-338 68.5l264 432
q-34 12 -121 12q-194 0 -315 -94t-152 -266l-145 -850h-256z" />
    <glyph glyph-name="Ygrave" unicode="&#x1ef2;" horiz-adv-x="1376" 
d="M190 1434h277l268 -609l482 609h301l-695 -873l-98 -561h-256l100 569zM561 1860h328l92 -287h-227z" />
    <glyph glyph-name="ygrave" unicode="&#x1ef3;" horiz-adv-x="1116" 
d="M-51 -63l246 20q-9 -46 -9 -63q0 -74 49 -117t132 -43q116 0 198.5 75.5t102.5 202.5l20 121q-123 -117 -295 -117q-145 0 -225 81t-80 222q0 34 10 99l99 577h254l-97 -540q-6 -35 -6 -66q0 -143 150 -143q98 0 167 69t89 189l88 491h256l-174 -981q-40 -222 -200 -364
t-376 -142q-187 0 -299 90.5t-112 243.5q0 42 12 95zM365 1438h329l92 -287h-227z" />
    <glyph glyph-name="endash" unicode="&#x2013;" horiz-adv-x="1214" 
d="M94 492l43 245h1024l-43 -245h-1024z" />
    <glyph glyph-name="emdash" unicode="&#x2014;" horiz-adv-x="2033" 
d="M94 492l43 245h1843l-43 -245h-1843z" />
    <glyph glyph-name="quoteleft" unicode="&#x2018;" horiz-adv-x="458" 
d="M567 1446l-26 -105h-15q-69 0 -124.5 -33.5t-84.5 -95.5q6 2 27 2q67 0 109.5 -41.5t42.5 -103.5q0 -72 -51.5 -122t-120.5 -50q-73 0 -115.5 47t-42.5 125q0 156 99.5 269.5t238.5 113.5q33 0 63 -6z" />
    <glyph glyph-name="quoteright" unicode="&#x2019;" horiz-adv-x="460" 
d="M131 903l27 105h14q69 0 124.5 33.5t84.5 95.5q-6 -2 -27 -2q-67 0 -109 41.5t-42 103.5q0 72 51.5 122t120.5 50q73 0 115 -46.5t42 -125.5q0 -156 -99 -269.5t-238 -113.5q-34 0 -64 6z" />
    <glyph glyph-name="quotesinglbase" unicode="&#x201a;" horiz-adv-x="460" 
d="M-72 -244l27 105h14q69 0 124.5 33.5t84.5 95.5q-6 -2 -26 -2q-67 0 -109.5 41.5t-42.5 103.5q0 72 51.5 122t120.5 50q73 0 115.5 -47t42.5 -125q0 -156 -99.5 -269.5t-238.5 -113.5q-34 0 -64 6z" />
    <glyph glyph-name="quotedblleft" unicode="&#x201c;" horiz-adv-x="856" 
d="M567 1446l-26 -105h-15q-69 0 -124.5 -33.5t-84.5 -95.5q6 2 27 2q67 0 109.5 -41.5t42.5 -103.5q0 -72 -51.5 -122t-120.5 -50q-73 0 -115.5 47t-42.5 125q0 156 99.5 269.5t238.5 113.5q33 0 63 -6zM965 1446l-27 -105h-14q-69 0 -124.5 -33.5t-84.5 -95.5q6 2 26 2
q67 0 109.5 -41.5t42.5 -103.5q0 -72 -51.5 -122t-120.5 -50q-73 0 -115.5 47t-42.5 125q0 156 99.5 269.5t238.5 113.5q34 0 64 -6z" />
    <glyph glyph-name="quotedblright" unicode="&#x201d;" horiz-adv-x="868" 
d="M539 903l26 105h15q69 0 124 33.5t84 95.5q-6 -2 -26 -2q-67 0 -109.5 41.5t-42.5 103.5q0 72 51.5 122t120.5 50q73 0 115.5 -47t42.5 -125q0 -156 -99.5 -269.5t-238.5 -113.5q-33 0 -63 6zM131 903l27 105h14q69 0 124.5 33.5t84.5 95.5q-6 -2 -27 -2q-67 0 -109 41.5
t-42 103.5q0 72 51.5 122t120.5 50q73 0 115 -46.5t42 -125.5q0 -156 -99 -269.5t-238 -113.5q-34 0 -64 6z" />
    <glyph glyph-name="quotedblbase" unicode="&#x201e;" horiz-adv-x="868" 
d="M336 -244l26 105h15q69 0 124.5 33.5t84.5 95.5q-6 -2 -27 -2q-67 0 -109 41.5t-42 103.5q0 72 51.5 122t120.5 50q73 0 115 -46.5t42 -125.5q0 -156 -99.5 -269.5t-238.5 -113.5q-33 0 -63 6zM-72 -244l27 105h14q69 0 124.5 33.5t84.5 95.5q-6 -2 -26 -2
q-67 0 -109.5 41.5t-42.5 103.5q0 72 51.5 122t120.5 50q73 0 115.5 -47t42.5 -125q0 -156 -99.5 -269.5t-238.5 -113.5q-34 0 -64 6z" />
    <glyph glyph-name="dagger" unicode="&#x2020;" horiz-adv-x="645" 
d="M162 1075l31 172h174l32 187h181l-33 -187h172l-31 -172h-172l-63 -358h-181l64 358h-174z" />
    <glyph glyph-name="daggerdbl" unicode="&#x2021;" horiz-adv-x="647" 
d="M104 756l31 172h176l25 147h-172l29 172h174l32 187h181l-33 -187h174l-31 -172h-174l-27 -147h175l-31 -172h-174l-33 -191h-178l33 191h-177z" />
    <glyph glyph-name="bullet" unicode="&#x2022;" horiz-adv-x="761" 
d="M449 1049q126 0 210 -85t84 -206q0 -144 -103.5 -248t-236.5 -104t-219 83q-84 87 -84 216q0 134 106 239t243 105z" />
    <glyph glyph-name="ellipsis" unicode="&#x2026;" horiz-adv-x="1261" 
d="M584 305q63 0 105 -41.5t42 -103.5q0 -72 -51.5 -124t-118.5 -52t-109 41.5t-42 107.5q0 68 52.5 120t121.5 52zM993 305q63 0 105.5 -41.5t42.5 -103.5q0 -72 -51.5 -124t-118.5 -52t-109.5 41.5t-42.5 107.5q0 68 52.5 120t121.5 52zM172 305q63 0 105 -41.5t42 -103.5
q0 -72 -51 -124t-118 -52t-109.5 41.5t-42.5 107.5q0 68 52.5 120t121.5 52z" />
    <glyph glyph-name="perthousand" unicode="&#x2030;" horiz-adv-x="1957" 
d="M543 1448q117 0 193.5 -72.5t76.5 -181.5q0 -142 -108.5 -251t-247.5 -109q-118 0 -194.5 72.5t-76.5 183.5q0 141 109.5 249.5t247.5 108.5zM63 0l1262 1434h203l-1262 -1434h-203zM473 997q68 0 120 51.5t52 118.5q0 51 -33 85t-84 34q-68 0 -120 -51.5t-52 -120.5
q0 -51 33 -84t84 -33zM1126 600q137 0 217 -96q107 96 236 96q116 0 192 -72.5t76 -181.5q0 -142 -108.5 -251t-247.5 -109q-140 0 -213 98q-107 -98 -238 -98q-116 0 -192 73.5t-76 184.5q0 142 107 249t247 107zM1057 150q68 0 120 51.5t52 120.5q0 50 -34 83t-85 33
q-68 0 -119 -51t-51 -121q0 -51 33 -83.5t84 -32.5zM1507 150q68 0 121 52t53 120q0 50 -33.5 83t-84.5 33q-68 0 -120 -51.5t-52 -120.5q0 -51 32.5 -83.5t83.5 -32.5z" />
    <glyph glyph-name="guilsinglleft" unicode="&#x2039;" horiz-adv-x="618" 
d="M66 535l292 378h275l-307 -397l174 -360h-252z" />
    <glyph glyph-name="guilsinglright" unicode="&#x203a;" horiz-adv-x="620" 
d="M-2 154l309 397l-174 360h252l182 -379l-293 -378h-276z" />
    <glyph glyph-name="fraction" unicode="&#x2044;" horiz-adv-x="428" 
d="M-479 0l1261 1434h203l-1261 -1434h-203z" />
    <glyph glyph-name="uni2070" unicode="&#x2070;" horiz-adv-x="892" 
d="M637 1616q148 0 224.5 -93.5t76.5 -256.5q1 -94 -19.5 -185t-60.5 -168.5t-95 -136.5t-127.5 -92t-152.5 -31q-150 0 -226.5 92t-76.5 256q-1 120 31 231.5t90 197.5t146 137t190 49zM498 829q81 0 142.5 67t90.5 162.5t29 198.5q0 90 -35.5 136.5t-101.5 46.5
q-83 0 -145.5 -65.5t-92 -161t-29.5 -199.5q0 -91 37 -138t105 -47z" />
    <glyph glyph-name="uni2074" unicode="&#x2074;" horiz-adv-x="837" 
d="M121 846l24 139l560 610h145l-105 -587h123l-28 -162h-123l-31 -176h-174l31 176h-422zM362 1008h209l52 282z" />
    <glyph glyph-name="uni2075" unicode="&#x2075;" horiz-adv-x="831" 
d="M147 989l181 19q-6 -27 -6 -52q0 -66 38.5 -101.5t110.5 -35.5q86 0 140.5 54.5t54.5 134.5q0 56 -36.5 88t-101.5 32q-94 0 -159 -65l-154 43l143 491h545l-29 -165h-389l-55 -175q61 25 131 25q130 0 205.5 -68t75.5 -184q0 -161 -112 -270t-277 -109q-146 0 -230 73
t-84 191q0 43 8 74z" />
    <glyph glyph-name="uni2076" unicode="&#x2076;" horiz-adv-x="845" 
d="M623 1616q133 0 205.5 -66t72.5 -178q0 -35 -2 -45l-178 -22q4 36 4 38q0 113 -113 113q-83 0 -143.5 -65t-97.5 -179q89 74 211 74q123 0 198.5 -71t75.5 -187q0 -158 -116.5 -266.5t-282.5 -108.5q-136 0 -217.5 86.5t-81.5 243.5q-2 118 31.5 233t93 205t148.5 144
t192 51zM477 819q86 0 144.5 55.5t58.5 135.5q0 57 -38.5 92t-104.5 35q-78 0 -136.5 -56.5t-58.5 -134.5q0 -58 36.5 -92.5t98.5 -34.5z" />
    <glyph glyph-name="uni2077" unicode="&#x2077;" horiz-adv-x="770" 
d="M225 1432l31 165h649l-28 -165q-137 -137 -261 -347q-119 -199 -180 -413h-178q50 195 156 397q110 210 237 363h-426z" />
    <glyph glyph-name="uni2078" unicode="&#x2078;" horiz-adv-x="872" 
d="M332 1180q-64 58 -64 141q0 127 106 212t255 85q124 0 201 -64.5t77 -167.5q0 -140 -125 -217q95 -69 95 -182q0 -96 -56.5 -173t-149.5 -119t-202 -42q-146 0 -230.5 69t-84.5 185q0 88 46.5 159t131.5 114zM567 1239q73 0 121.5 38t48.5 95q0 45 -34.5 71.5t-94.5 26.5
q-73 0 -121.5 -39.5t-48.5 -95.5q0 -43 35 -69.5t94 -26.5zM492 811q88 0 145 45.5t57 118.5q0 54 -42 86.5t-111 32.5q-88 0 -146.5 -47.5t-58.5 -120.5q0 -54 41.5 -84.5t114.5 -30.5z" />
    <glyph glyph-name="uni2079" unicode="&#x2079;" horiz-adv-x="845" 
d="M172 942l178 23q-4 -36 -4 -39q0 -111 113 -111q83 0 144.5 65.5t98.5 180.5q-94 -76 -213 -76q-123 0 -198.5 70.5t-75.5 185.5q0 158 116.5 266.5t282.5 108.5q136 0 217.5 -86.5t81.5 -241.5q1 -118 -32.5 -233t-93 -205.5t-148.5 -145t-190 -51.5q-133 0 -206 66
t-73 178q0 35 2 45zM535 1133q78 0 135 57q59 59 59 133q0 58 -36 93.5t-101 35.5q-84 0 -142.5 -56t-58.5 -136q0 -57 39 -92t105 -35z" />
    <glyph glyph-name="uni2080" unicode="&#x2080;" horiz-adv-x="892" 
d="M487 770q148 0 224.5 -93.5t76.5 -256.5q2 -158 -53.5 -299t-162 -229t-238.5 -85q-150 0 -226.5 92.5t-76.5 256.5q-2 161 52.5 301.5t161 228t242.5 84.5zM348 -16q81 0 142.5 67t90.5 162.5t29 198.5q0 90 -35 136t-102 46q-63 0 -114.5 -38t-84 -100t-50 -136.5
t-17.5 -151.5q0 -91 36.5 -137.5t104.5 -46.5z" />
    <glyph glyph-name="uni2081" unicode="&#x2081;" horiz-adv-x="532" 
d="M37 434l26 144q91 0 148.5 46.5t71.5 127.5h176l-164 -926h-172l106 608h-192z" />
    <glyph glyph-name="uni2082" unicode="&#x2082;" horiz-adv-x="825" 
d="M-39 -174l14 84q17 103 78 176q60 72 123 109q50 29 186 92q110 52 156.5 97t46.5 118q0 102 -123 102q-55 0 -97 -22t-65 -57t-33 -74t-7 -78l-181 18q-2 69 23 135t73 121t127.5 89t178.5 34q130 0 206 -66.5t76 -177.5q0 -223 -241 -354q-16 -9 -92 -47
q-82 -40 -126 -68.5t-73 -64.5h446l-28 -166h-668z" />
    <glyph glyph-name="uni2083" unicode="&#x2083;" horiz-adv-x="847" 
d="M4 117l182 35q-6 -27 -6 -54q0 -58 36.5 -90.5t107.5 -32.5q88 0 141 44t53 116q0 50 -39 77.5t-112 27.5h-84l28 159h84q77 1 117.5 33.5t40.5 87.5q0 41 -31.5 63.5t-91.5 22.5q-69 0 -111.5 -37.5t-50.5 -91.5l-170 23q24 121 121 196.5t242 75.5q132 0 202 -59
t70 -158q0 -133 -119 -219q93 -63 93 -176q0 -66 -28.5 -129t-79.5 -113.5t-130.5 -81.5t-173.5 -31q-143 0 -220 68.5t-77 181.5q0 32 6 62z" />
    <glyph glyph-name="uni2084" unicode="&#x2084;" horiz-adv-x="837" 
d="M-29 2l25 139l559 611h145l-104 -588h123l-29 -162h-123l-30 -176h-175l31 176h-422zM213 164h209l51 282z" />
    <glyph glyph-name="uni2085" unicode="&#x2085;" horiz-adv-x="831" 
d="M-2 143l180 19q-6 -27 -6 -51q0 -66 39 -102t111 -36q86 0 140 54.5t54 134.5q0 56 -36 88.5t-101 32.5q-94 0 -160 -66l-153 43l143 492h545l-29 -166h-389l-55 -174q59 24 131 24q130 0 205 -68t75 -184q0 -161 -112 -270t-277 -109q-146 0 -229.5 73.5t-83.5 191.5
q0 42 8 73z" />
    <glyph glyph-name="uni2086" unicode="&#x2086;" horiz-adv-x="845" 
d="M473 770q133 0 206 -66t73 -178q0 -35 -2 -45l-179 -22q4 36 4 39q0 112 -112 112q-83 0 -144 -64.5t-98 -178.5q88 73 211 73t199 -71.5t76 -186.5q0 -158 -117 -266.5t-283 -108.5q-136 0 -217.5 86.5t-81.5 243.5q-2 118 31.5 233t93 205t148.5 144t192 51zM328 -27
q86 0 144 55.5t58 135.5q0 57 -38.5 92t-104.5 35q-78 0 -136 -56.5t-58 -134.5q0 -58 36.5 -92.5t98.5 -34.5z" />
    <glyph glyph-name="uni2087" unicode="&#x2087;" horiz-adv-x="770" 
d="M76 586l30 166h650l-29 -166q-136 -136 -260 -346q-119 -198 -180 -414h-178q51 199 155 397q108 206 238 363h-426z" />
    <glyph glyph-name="uni2088" unicode="&#x2088;" horiz-adv-x="872" 
d="M182 330q-63 57 -63 141q0 127 105.5 212t254.5 85q124 0 201.5 -64t77.5 -167q0 -68 -32.5 -124.5t-92.5 -93.5q94 -69 94 -182q0 -96 -56.5 -173t-149.5 -119t-202 -42q-146 0 -230.5 69t-84.5 185q0 88 46.5 159t131.5 114zM418 389q73 0 121.5 38t48.5 95
q0 45 -35 72t-94 27q-73 0 -121.5 -40t-48.5 -96q0 -43 35 -69.5t94 -26.5zM342 -39q89 0 146 45.5t57 118.5q0 54 -42.5 86.5t-111.5 32.5q-88 0 -146.5 -47.5t-58.5 -120.5q0 -54 41.5 -84.5t114.5 -30.5z" />
    <glyph glyph-name="uni2089" unicode="&#x2089;" horiz-adv-x="845" 
d="M23 96l178 23q-4 -36 -4 -39q0 -111 112 -111q83 0 145 65.5t99 180.5q-94 -76 -213 -76q-123 0 -198.5 70.5t-75.5 185.5q0 158 116.5 266.5t282.5 108.5q136 0 217.5 -86.5t81.5 -241.5q2 -159 -55 -305t-166.5 -240t-243.5 -90q-133 0 -206 66t-73 178q0 30 3 45z
M385 287q78 0 135 57q60 60 60 133q0 58 -36.5 93.5t-101.5 35.5q-84 0 -142 -56t-58 -136q0 -57 38.5 -92t104.5 -35z" />
    <glyph glyph-name="Euro" unicode="&#x20ac;" horiz-adv-x="1675" 
d="M51 442l35 197h127q5 81 23 156h-123l34 196h158q105 215 305 344t447 129q244 0 393 -134.5t152 -348.5l-240 -63q0 140 -87.5 220.5t-240.5 80.5q-131 0 -245 -60t-195 -168h434l-86 -196h-448q-24 -83 -27 -156h407l-86 -197h-292q43 -109 137.5 -168t230.5 -59
q111 0 214.5 47t179.5 133t106 193l238 -72q-46 -159 -158 -284t-266.5 -194t-323.5 -69q-250 0 -416 127t-211 346h-176z" />
    <glyph glyph-name="trademark" unicode="&#x2122;" horiz-adv-x="1630" 
d="M201 1298l24 136h604l-24 -136h-232l-102 -581h-139l100 581h-231zM797 717l127 717h166l139 -553l332 553h176l-127 -717h-142l80 446l-270 -446h-148l-112 448l-80 -448h-141z" />
    <glyph glyph-name="uni2153" unicode="&#x2153;" horiz-adv-x="1933" 
d="M158 1116l26 144q91 0 148 46.5t71 127.5h177l-164 -926h-172l106 608h-192zM158 0l1261 1434h203l-1262 -1434h-202zM1120 291l183 35q-7 -32 -7 -54q0 -58 36.5 -90t107.5 -32q88 0 141 43.5t53 115.5q0 50 -39 77.5t-112 27.5h-84l28 159h84q77 1 117.5 33.5
t40.5 87.5q0 41 -31.5 63.5t-91.5 22.5q-69 0 -111.5 -37.5t-50.5 -91.5l-170 23q24 121 121 196.5t242 75.5q132 0 202 -59t70 -158q0 -134 -118 -219q92 -62 92 -176q0 -66 -28.5 -129t-79.5 -113.5t-130.5 -81t-173.5 -30.5q-143 0 -220 68t-77 181q0 32 6 62z" />
    <glyph glyph-name="uni2154" unicode="&#x2154;" horiz-adv-x="2193" 
d="M82 508l14 84q17 103 78 176q60 72 123 109q50 29 186 92q110 52 156.5 97t46.5 118q0 102 -123 102q-55 0 -97.5 -22t-65.5 -57t-33 -74.5t-7 -77.5l-180 18q-2 69 23 135t73 121t127.5 89t178.5 34q130 0 206 -66.5t76 -177.5q0 -223 -241 -354q-8 -5 -93 -47
q-81 -40 -125 -68.5t-73 -64.5h446l-28 -166h-668zM418 0l1261 1434h203l-1261 -1434h-203zM1380 291l183 35q-7 -32 -7 -54q0 -58 36.5 -90t107.5 -32q88 0 141 43.5t53 115.5q0 50 -39 77.5t-112 27.5h-84l29 159h84q77 1 117 33.5t40 87.5q0 41 -31.5 63.5t-91.5 22.5
q-69 0 -111 -37.5t-50 -91.5l-170 23q24 121 120.5 196.5t241.5 75.5q132 0 202 -59t70 -158q0 -134 -118 -219q92 -62 92 -176q0 -66 -28.5 -129t-79.5 -113.5t-130.5 -81t-173.5 -30.5q-143 0 -220 68t-77 181q0 32 6 62z" />
    <glyph glyph-name="uni215F" unicode="&#x215f;" horiz-adv-x="1064" 
d="M158 1116l26 144q91 0 148 46.5t71 127.5h177l-164 -926h-172l106 608h-192zM158 0l1261 1434h203l-1262 -1434h-202z" />
    <glyph glyph-name="arrowleft" unicode="&#x2190;" horiz-adv-x="1286" 
d="M1229 506h-733l274 -275l-152 -155l-538 538l534 539l156 -156l-276 -276l735 2v-217z" />
    <glyph glyph-name="arrowup" unicode="&#x2191;" horiz-adv-x="1193" 
d="M86 651l537 539l538 -537l-151 -153l-281 276v-735h-215v731l-274 -274z" />
    <glyph glyph-name="arrowright" unicode="&#x2192;" horiz-adv-x="1286" 
d="M98 506v217l736 -2l-277 276l156 156l534 -539l-538 -538l-152 155l274 275h-733z" />
    <glyph glyph-name="arrowdown" unicode="&#x2193;" horiz-adv-x="1193" 
d="M74 578l153 153l275 -274v731h215v-735l280 276l152 -154l-539 -536z" />
    <glyph glyph-name="uni2196" unicode="&#x2196;" horiz-adv-x="1136" 
d="M1047 322l-154 -152l-518 516v-387h-217v760l757 2v-217l-389 -2z" />
    <glyph glyph-name="uni2197" unicode="&#x2197;" horiz-adv-x="1011" 
d="M29 322l520 520l-389 2v217l758 -2v-760h-218v387l-518 -516z" />
    <glyph glyph-name="uni2198" unicode="&#x2198;" horiz-adv-x="1136" 
d="M131 909l154 152l518 -516v387h217v-760l-758 -2v217l389 2z" />
    <glyph glyph-name="uni2199" unicode="&#x2199;" horiz-adv-x="1011" 
d="M1024 909l-520 -520l389 -2v-217l-758 2v760h217v-387l518 516z" />
    <glyph glyph-name="uni21A9" unicode="&#x21a9;" horiz-adv-x="1255" 
d="M80 612l502 504l155 -151l-243 -246h344q92 1 154.5 63.5t62.5 153.5q0 89 -60.5 151.5t-150.5 63.5v213q178 -3 300 -127t122 -301q0 -175 -126 -302.5t-302 -127.5h-342l243 -244l-153 -153z" />
    <glyph glyph-name="uni21AA" unicode="&#x21aa;" horiz-adv-x="1368" 
d="M1329 612l-506 -503l-153 153l243 244h-342q-176 0 -302 127.5t-126 302.5q0 177 122 301t300 127v-213q-90 -1 -150.5 -63.5t-60.5 -151.5q0 -91 62.5 -153.5t154.5 -63.5h344l-243 246l155 151z" />
    <glyph glyph-name="uni21B0" unicode="&#x21b0;" horiz-adv-x="1325" 
d="M1180 725v-721h-215v506l-471 2l274 -279l-154 -153l-534 538l536 537l154 -154l-274 -274z" />
    <glyph glyph-name="uni21B1" unicode="&#x21b1;" horiz-adv-x="1236" 
d="M98 723l684 2l-274 274l154 154l536 -537l-534 -538l-154 153l274 279l-471 -2v-506h-215v721z" />
    <glyph glyph-name="uni21B2" unicode="&#x21b2;" horiz-adv-x="1236" 
d="M1180 506l-684 -2l274 -275l-154 -153l-536 536l534 539l154 -154l-274 -278l471 2v506h215v-721z" />
    <glyph glyph-name="uni21B3" unicode="&#x21b3;" horiz-adv-x="1327" 
d="M188 506v721h215v-506l471 -2l-274 278l154 154l534 -539l-536 -536l-154 153l274 275z" />
    <glyph glyph-name="uni21B4" unicode="&#x21b4;" horiz-adv-x="1316" 
d="M188 1016v213h666l2 -701l274 275l154 -154l-536 -538l-539 534l153 156l279 -275l-2 490h-451z" />
    <glyph glyph-name="partialdiff" unicode="&#x2202;" 
d="M68 485q37 202 194 333.5t359 131.5q111 0 195.5 -39t127.5 -102l4 98q0 312 -221 312q-120 0 -195.5 -69t-99.5 -185l-248 65q43 191 189 313q145 121 362 121q229 0 351 -144.5t122 -414.5q0 -117 -26 -274q-52 -311 -228 -486q-176 -176 -426 -176q-209 0 -339 119
t-130 305q0 51 9 92zM553 215q122 0 217.5 90t95.5 205v10q0 95 -60.5 153t-162.5 58q-124 0 -219 -80q-93 -81 -102 -198q-3 -9 -3 -27q0 -93 64.5 -152t169.5 -59z" />
    <glyph glyph-name="emptyset" unicode="&#x2205;" 
d="M135 344l92 92q-84 131 -84 281q-3 133 67 252.5t189 190t252 67.5q151 0 279 -84l94 94l147 -147l-94 -95q84 -128 84 -278q3 -133 -67.5 -252.5t-190 -190t-252.5 -67.5q-150 0 -278 84l-92 -92zM389 600l383 383q-58 25 -121 25q-118 0 -202 -84q-82 -82 -82 -207
q0 -59 22 -117zM651 426q124 0 206.5 83t82.5 208q0 58 -22 119l-386 -385q58 -25 119 -25z" />
    <glyph glyph-name="uni2206" unicode="&#x2206;" horiz-adv-x="1249" 
d="M-55 0l852 1434l321 -1434h-1173zM352 246h447l-115 581z" />
    <glyph glyph-name="product" unicode="&#x220f;" 
d="M2 0l254 1434h993l-254 -1434h-256l211 1188h-481l-211 -1188h-256z" />
    <glyph glyph-name="summation" unicode="&#x2211;" 
d="M12 0l37 217l551 502l-373 498l39 217h1024l-47 -256h-635l355 -461l-514 -461h632l-45 -256h-1024z" />
    <glyph glyph-name="minus" unicode="&#x2212;" 
d="M117 590l45 256h1024l-45 -256h-1024z" />
    <glyph glyph-name="uni2219" unicode="&#x2219;" 
d="M670 883q63 0 105 -42t42 -104q0 -72 -51.5 -124t-118.5 -52t-109 42t-42 108q0 68 52.5 120t121.5 52z" />
    <glyph glyph-name="radical" unicode="&#x221a;" 
d="M55 590l45 256h308l90 -518l583 1106h281l-776 -1434h-299l-92 590h-140z" />
    <glyph glyph-name="infinity" unicode="&#x221e;" 
d="M434 995q133 0 242 -151q85 79 154.5 115t138.5 36q109 0 174 -62t65 -165q0 -135 -100.5 -232.5t-235.5 -97.5q-71 0 -125.5 36.5t-113.5 117.5q-170 -154 -295 -154q-108 0 -173 63.5t-65 164.5q0 134 99 231.5t235 97.5zM369 612q40 0 78.5 23.5t103.5 81.5
q-44 57 -75.5 80.5t-72.5 23.5q-50 0 -86 -36t-36 -89q0 -37 25 -60.5t63 -23.5zM903 612q52 0 88.5 36t36.5 89q0 37 -25.5 60.5t-64.5 23.5q-41 0 -84 -24t-100 -80q70 -105 149 -105z" />
    <glyph glyph-name="integral" unicode="&#x222b;" horiz-adv-x="860" 
d="M-131 -418l106 131q17 -26 76 -26q63 0 107.5 38.5t54.5 104.5l231 1315q26 147 119.5 233t227.5 86q139 0 192 -75l-106 -132q-19 27 -78 27q-61 0 -105 -39t-55 -102l-231 -1317q-26 -147 -118.5 -232.5t-226.5 -85.5q-66 0 -117 20.5t-77 53.5z" />
    <glyph glyph-name="approxequal" unicode="&#x2248;" 
d="M383 627q66 0 122 -13.5t136 -44.5q71 -25 102 -33t66 -8q53 0 98 28t101 91l174 -168q-93 -105 -180.5 -151.5t-188.5 -46.5q-120 0 -268 59q-48 16 -62 20q-59 17 -90 17q-53 0 -98 -28t-102 -93l-156 172q91 107 172 153t174 46zM467 1161q66 0 122.5 -13t135.5 -44
q71 -25 102 -33t66 -8q53 0 98 28t101 91l174 -168q-93 -105 -181 -152t-188 -47q-120 0 -268 59q-1 0 -10 3.5t-22.5 8.5t-29.5 9q-56 16 -90 16q-53 0 -98.5 -28t-102.5 -92l-155 172q91 107 171.5 152.5t174.5 45.5z" />
    <glyph glyph-name="notequal" unicode="&#x2260;" 
d="M70 328l45 256h309l172 266h-434l45 256h553l162 254l206 -117l-88 -137h191l-45 -256h-309l-170 -266h432l-45 -256h-551l-166 -260l-207 118l90 142h-190z" />
    <glyph glyph-name="lessequal" unicode="&#x2264;" 
d="M164 879l51 282v4l1088 385l-52 -286l-700 -248l612 -266l-51 -285zM27 109l43 245h1024l-43 -245h-1024z" />
    <glyph glyph-name="greaterequal" unicode="&#x2265;" 
d="M96 467l49 285l701 247l-613 267l52 286l950 -413l-51 -285zM31 104l45 256h1024l-45 -256h-1024z" />
    <glyph glyph-name="uni2460" unicode="&#x2460;" horiz-adv-x="1697" 
d="M889 1464q148 3 287.5 -57t241 -161t161.5 -240.5t57 -288.5q3 -148 -57 -287.5t-161.5 -241t-241 -162t-287.5 -57.5q-148 -3 -287.5 57.5t-241 162t-162 241t-57.5 287.5q-3 148 57.5 287.5t162 241t241 161.5t287.5 57zM887 115q120 -2 232 47t194 131t130 194t46 230
q2 117 -46.5 229t-130 194.5t-194 131.5t-231.5 47q-118 2 -229.5 -47t-192.5 -131.5t-129 -194.5t-45 -229q-4 -158 77.5 -298.5t221 -223.5t297.5 -80zM674 844v123q78 0 120 39t42 108h147v-788h-145v518h-164z" />
    <glyph glyph-name="uni2461" unicode="&#x2461;" horiz-adv-x="1697" 
d="M889 1464q148 3 287.5 -57t241 -161t161.5 -240.5t57 -288.5q3 -148 -57 -287.5t-161.5 -241t-241 -162t-287.5 -57.5q-148 -3 -287.5 57.5t-241 162t-162 241t-57.5 287.5q-3 148 57.5 287.5t162 241t241 161.5t287.5 57zM887 115q120 -2 232 47t194 131t130 194t46 230
q2 117 -46.5 229t-130 194.5t-194 131.5t-231.5 47q-118 2 -229.5 -47t-192.5 -131.5t-129 -194.5t-45 -229q-4 -158 77.5 -298.5t221 -223.5t297.5 -80zM897 1122q124 0 200.5 -70.5t76.5 -183.5q-2 -48 -14 -86t-27.5 -63.5t-48 -52.5t-57.5 -43t-75 -45
q-51 -29 -72.5 -42.5t-44 -33.5t-34.5 -43h377v-142h-568v70q2 52 15.5 93t31.5 69t52 55t64.5 44.5t82.5 43.5q95 48 131.5 82t36.5 88q0 56 -33.5 87.5t-93.5 31.5q-70 0 -103.5 -37.5t-33.5 -101.5q0 -25 8 -56l-160 11q-6 24 -6 55q0 107 72 188q73 82 223 82z" />
    <glyph glyph-name="uni2462" unicode="&#x2462;" horiz-adv-x="1697" 
d="M889 1464q148 3 287.5 -57t241 -161t161.5 -240.5t57 -288.5q3 -148 -57 -287.5t-161.5 -241t-241 -162t-287.5 -57.5q-148 -3 -287.5 57.5t-241 162t-162 241t-57.5 287.5q-3 148 57.5 287.5t162 241t241 161.5t287.5 57zM887 115q120 -2 232 47t194 131t130 194t46 230
q2 117 -46.5 229t-130 194.5t-194 131.5t-231.5 47q-118 2 -229.5 -47t-192.5 -131.5t-129 -194.5t-45 -229q-4 -158 77.5 -298.5t221 -223.5t297.5 -80zM586 575l153 25q-5 -69 31.5 -109t110.5 -40q69 0 108 32t39 88q0 51 -38 80t-107 29h-72v135h68q58 0 89 24t31 64
q0 42 -30.5 65t-87.5 23q-59 0 -90 -32.5t-31 -79.5l-146 24q0 100 72 163.5t193 63.5q127 0 197.5 -57.5t70.5 -150.5q0 -99 -72 -162q113 -66 113 -189q0 -112 -83.5 -187t-225.5 -75q-138 0 -218 75.5t-75 190.5z" />
    <glyph glyph-name="uni2463" unicode="&#x2463;" horiz-adv-x="1697" 
d="M889 1464q148 3 287.5 -57t241 -161t161.5 -240.5t57 -288.5q3 -148 -57 -287.5t-161.5 -241t-241 -162t-287.5 -57.5q-148 -3 -287.5 57.5t-241 162t-162 241t-57.5 287.5q-3 148 57.5 287.5t162 241t241 161.5t287.5 57zM887 115q120 -2 232 47t194 131t130 194t46 230
q2 117 -46.5 229t-130 194.5t-194 131.5t-231.5 47q-118 2 -229.5 -47t-192.5 -131.5t-129 -194.5t-45 -229q-4 -158 77.5 -298.5t221 -223.5t297.5 -80zM549 475v123l385 516h123v-500h104v-139h-104v-149h-148v149h-360zM729 614h180v244z" />
    <glyph glyph-name="uni2464" unicode="&#x2464;" horiz-adv-x="1697" 
d="M889 1464q148 3 287.5 -57t241 -161t161.5 -240.5t57 -288.5q3 -148 -57 -287.5t-161.5 -241t-241 -162t-287.5 -57.5q-148 -3 -287.5 57.5t-241 162t-162 241t-57.5 287.5q-3 148 57.5 287.5t162 241t241 161.5t287.5 57zM887 115q120 -2 232 47t194 131t130 194t46 230
q2 117 -46.5 229t-130 194.5t-194 131.5t-231.5 47q-118 2 -229.5 -47t-192.5 -131.5t-129 -194.5t-45 -229q-4 -158 77.5 -298.5t221 -223.5t297.5 -80zM592 600l149 21q-2 -76 38 -120t114 -44q67 0 103 36.5t36 98.5q0 60 -37 95.5t-100 35.5q-87 0 -127 -55l-135 37
l47 415h465v-141h-332l-20 -152q52 25 114 25q123 0 199 -72t76 -188q0 -123 -79.5 -199t-209.5 -76q-143 0 -224.5 79.5t-76.5 203.5z" />
    <glyph glyph-name="uni2465" unicode="&#x2465;" horiz-adv-x="1697" 
d="M889 1464q148 3 287.5 -57t241 -161t161.5 -240.5t57 -288.5q3 -148 -57 -287.5t-161.5 -241t-241 -162t-287.5 -57.5q-148 -3 -287.5 57.5t-241 162t-162 241t-57.5 287.5q-3 148 57.5 287.5t162 241t241 161.5t287.5 57zM887 115q120 -2 232 47t194 131t130 194t46 230
q2 117 -46.5 229t-130 194.5t-194 131.5t-231.5 47q-118 2 -229.5 -47t-192.5 -131.5t-129 -194.5t-45 -229q-4 -158 77.5 -298.5t221 -223.5t297.5 -80zM889 1128q122 0 194.5 -66.5t77.5 -176.5l-147 -27q-2 62 -33 97.5t-92 35.5q-140 0 -164 -213q71 68 180 68
q117 0 191.5 -73.5t74.5 -190.5q0 -118 -84.5 -196.5t-212.5 -78.5q-141 0 -222 99t-81 276q0 215 82.5 330.5t235.5 115.5zM879 446q66 0 106.5 39t40.5 101q0 60 -41 97.5t-104 37.5q-61 0 -100.5 -38.5t-39.5 -96.5q0 -60 39 -100t99 -40z" />
    <glyph glyph-name="uni2466" unicode="&#x2466;" horiz-adv-x="1697" 
d="M889 1464q148 3 287.5 -57t241 -161t161.5 -240.5t57 -288.5q3 -148 -57 -287.5t-161.5 -241t-241 -162t-287.5 -57.5q-148 -3 -287.5 57.5t-241 162t-162 241t-57.5 287.5q-3 148 57.5 287.5t162 241t241 161.5t287.5 57zM887 115q120 -2 232 47t194 131t130 194t46 230
q2 117 -46.5 229t-130 194.5t-194 131.5t-231.5 47q-118 2 -229.5 -47t-192.5 -131.5t-129 -194.5t-45 -229q-4 -158 77.5 -298.5t221 -223.5t297.5 -80zM608 971v141h555v-141q-96 -116 -172 -293q-75 -183 -90 -354h-149q15 170 75 340q65 178 152 307h-371z" />
    <glyph glyph-name="uni2467" unicode="&#x2467;" horiz-adv-x="1697" 
d="M889 1464q148 3 287.5 -57t241 -161t161.5 -240.5t57 -288.5q3 -148 -57 -287.5t-161.5 -241t-241 -162t-287.5 -57.5q-148 -3 -287.5 57.5t-241 162t-162 241t-57.5 287.5q-3 148 57.5 287.5t162 241t241 161.5t287.5 57zM887 115q120 -2 232 47t194 131t130 194t46 230
q2 117 -46.5 229t-130 194.5t-194 131.5t-231.5 47q-118 2 -229.5 -47t-192.5 -131.5t-129 -194.5t-45 -229q-4 -158 77.5 -298.5t221 -223.5t297.5 -80zM694 750q-76 58 -76 151q0 100 76 163.5t195 63.5t194.5 -63.5t75.5 -163.5q0 -93 -76 -151q54 -31 83.5 -80.5
t29.5 -110.5q0 -110 -85.5 -180t-221.5 -70q-135 0 -221 70t-86 180q0 127 112 191zM887 805q59 0 94 27.5t35 70.5q0 44 -36 72.5t-93 28.5q-55 0 -89 -28t-34 -73q0 -43 34 -70.5t89 -27.5zM889 440q69 0 110 33t41 88q0 54 -42 88.5t-109 34.5q-68 0 -110 -34t-42 -89
t41.5 -88t110.5 -33z" />
    <glyph glyph-name="uni2468" unicode="&#x2468;" horiz-adv-x="1697" 
d="M889 1464q148 3 287.5 -57t241 -161t161.5 -240.5t57 -288.5q3 -148 -57 -287.5t-161.5 -241t-241 -162t-287.5 -57.5q-148 -3 -287.5 57.5t-241 162t-162 241t-57.5 287.5q-3 148 57.5 287.5t162 241t241 161.5t287.5 57zM887 115q120 -2 232 47t194 131t130 194t46 230
q2 117 -46.5 229t-130 194.5t-194 131.5t-231.5 47q-118 2 -229.5 -47t-192.5 -131.5t-129 -194.5t-45 -229q-4 -158 77.5 -298.5t221 -223.5t297.5 -80zM897 1130q139 0 222 -97.5t83 -274.5q0 -215 -82.5 -331t-234.5 -116q-121 0 -194 67t-79 177l148 27q9 -136 125 -136
q140 0 164 216q-71 -68 -181 -68q-116 0 -191 73.5t-75 188.5q0 119 84 197q83 77 211 77zM893 717q62 0 101.5 38.5t39.5 98.5q0 58 -39 97.5t-100 39.5q-63 0 -105 -38.5t-42 -98.5t41 -98.5t104 -38.5z" />
    <glyph glyph-name="uni24B6" unicode="&#x24b6;" horiz-adv-x="1695" 
d="M887 1464q148 3 287.5 -57t241 -161t161.5 -240.5t57 -288.5q3 -148 -57 -287.5t-161.5 -241t-241 -162t-287.5 -57.5q-148 -3 -287.5 57.5t-241 162t-162 241t-57.5 287.5q-3 148 57.5 287.5t162 241t241 161.5t287.5 57zM885 115q120 -2 232 47t194 131t130 194t46 230
q2 117 -46.5 229t-130 194.5t-194 131.5t-231.5 47q-118 2 -229.5 -47t-192.5 -131.5t-129 -194.5t-45 -229q-4 -158 77.5 -298.5t221 -223.5t297.5 -80zM506 375l301 790h174l299 -790h-160l-73 196h-308l-73 -196h-160zM793 711h200l-100 266z" />
    <glyph glyph-name="uni24B7" unicode="&#x24b7;" horiz-adv-x="1699" 
d="M889 1464q148 3 287.5 -57t241 -161t161.5 -240.5t57 -288.5q3 -148 -57 -287.5t-161.5 -241t-241 -162t-287.5 -57.5q-148 -3 -287.5 57.5t-241 162t-162 241t-57.5 287.5q-3 148 57.5 287.5t162 241t241 161.5t287.5 57zM887 115q120 -2 232 47t194 131t130 194t46 230
q2 117 -46.5 229t-130 194.5t-194 131.5t-231.5 47q-118 2 -229.5 -47t-192.5 -131.5t-129 -194.5t-45 -229q-4 -158 77.5 -298.5t221 -223.5t297.5 -80zM625 322v796h362q101 0 162 -58.5t61 -150.5q0 -118 -84 -168q55 -29 85 -80t30 -114q0 -98 -64.5 -161.5
t-168.5 -63.5h-383zM772 799h197q47 0 73.5 25.5t26.5 68.5q0 38 -27 62t-75 24h-195v-180zM772 461h205q50 0 80 28t30 72q0 46 -29 75.5t-79 29.5h-207v-205z" />
    <glyph glyph-name="uni24B8" unicode="&#x24b8;" horiz-adv-x="1695" 
d="M887 1464q148 3 287.5 -57t241 -161t161.5 -240.5t57 -288.5q3 -148 -57 -287.5t-161.5 -241t-241 -162t-287.5 -57.5q-148 -3 -287.5 57.5t-241 162t-162 241t-57.5 287.5q-3 148 57.5 287.5t162 241t241 161.5t287.5 57zM885 115q120 -2 232 47t194 131t130 194t46 230
q2 117 -46.5 229t-130 194.5t-194 131.5t-231.5 47q-118 2 -229.5 -47t-192.5 -131.5t-129 -194.5t-45 -229q-4 -158 77.5 -298.5t221 -223.5t297.5 -80zM897 1133q132 0 224.5 -71.5t115.5 -189.5l-137 -47q-12 74 -66.5 117t-138.5 43q-107 0 -178 -74q-70 -73 -70 -180
q0 -125 70.5 -201.5t185.5 -76.5q92 0 157.5 53.5t72.5 140.5l147 -33q-15 -137 -121 -221q-106 -86 -250 -86q-184 0 -298.5 116.5t-114.5 293.5q0 179 111.5 297.5t289.5 118.5z" />
    <glyph glyph-name="uni24B9" unicode="&#x24b9;" horiz-adv-x="1699" 
d="M889 1464q148 3 287.5 -57t241 -161t161.5 -240.5t57 -288.5q3 -148 -57 -287.5t-161.5 -241t-241 -162t-287.5 -57.5q-148 -3 -287.5 57.5t-241 162t-162 241t-57.5 287.5q-3 148 57.5 287.5t162 241t241 161.5t287.5 57zM887 115q120 -2 232 47t194 131t130 194t46 230
q2 117 -46.5 229t-130 194.5t-194 131.5t-231.5 47q-118 2 -229.5 -47t-192.5 -131.5t-129 -194.5t-45 -229q-4 -158 77.5 -298.5t221 -223.5t297.5 -80zM616 319v795h302q165 0 272.5 -114.5t107.5 -282.5q0 -169 -107.5 -283.5t-272.5 -114.5h-302zM764 467h151
q100 0 165 70.5t65 179.5t-65 179.5t-165 70.5h-151v-500z" />
    <glyph glyph-name="uni24BA" unicode="&#x24ba;" horiz-adv-x="1695" 
d="M887 1464q148 3 287.5 -57t241 -161t161.5 -240.5t57 -288.5q3 -148 -57 -287.5t-161.5 -241t-241 -162t-287.5 -57.5q-148 -3 -287.5 57.5t-241 162t-162 241t-57.5 287.5q-3 148 57.5 287.5t162 241t241 161.5t287.5 57zM885 115q120 -2 232 47t194 131t130 194t46 230
q2 117 -46.5 229t-130 194.5t-194 131.5t-231.5 47q-118 2 -229.5 -47t-192.5 -131.5t-129 -194.5t-45 -229q-4 -158 77.5 -298.5t221 -223.5t297.5 -80zM608 324v788h561v-139h-413v-176h364v-142h-364v-192h413v-139h-561z" />
    <glyph glyph-name="uni24BB" unicode="&#x24bb;" horiz-adv-x="1695" 
d="M887 1464q148 3 287.5 -57t241 -161t161.5 -240.5t57 -288.5q3 -148 -57 -287.5t-161.5 -241t-241 -162t-287.5 -57.5q-148 -3 -287.5 57.5t-241 162t-162 241t-57.5 287.5q-3 148 57.5 287.5t162 241t241 161.5t287.5 57zM885 115q120 -2 232 47t194 131t130 194t46 230
q2 117 -46.5 229t-130 194.5t-194 131.5t-231.5 47q-118 2 -229.5 -47t-192.5 -131.5t-129 -194.5t-45 -229q-4 -158 77.5 -298.5t221 -223.5t297.5 -80zM618 324v788h558v-139h-412v-199h366v-139h-366v-311h-146z" />
    <glyph glyph-name="uni24BC" unicode="&#x24bc;" horiz-adv-x="1699" 
d="M889 1464q148 3 287.5 -57t241 -161t161.5 -240.5t57 -288.5q3 -148 -57 -287.5t-161.5 -241t-241 -162t-287.5 -57.5q-148 -3 -287.5 57.5t-241 162t-162 241t-57.5 287.5q-3 148 57.5 287.5t162 241t241 161.5t287.5 57zM887 115q120 -2 232 47t194 131t130 194t46 230
q2 117 -46.5 229t-130 194.5t-194 131.5t-231.5 47q-118 2 -229.5 -47t-192.5 -131.5t-129 -194.5t-45 -229q-4 -158 77.5 -298.5t221 -223.5t297.5 -80zM891 1133q136 0 229.5 -72t116.5 -191l-139 -47q-14 76 -68.5 120t-138.5 44q-109 0 -179.5 -73t-70.5 -183
q0 -123 71.5 -199.5t188.5 -76.5q63 0 115.5 27.5t81.5 74.5h-187v135h340v-368h-131v96q-91 -113 -254 -113q-164 0 -272.5 117.5t-108.5 294.5t114 295.5t292 118.5z" />
    <glyph glyph-name="uni24BD" unicode="&#x24bd;" horiz-adv-x="1695" 
d="M887 1464q148 3 287.5 -57t241 -161t161.5 -240.5t57 -288.5q3 -148 -57 -287.5t-161.5 -241t-241 -162t-287.5 -57.5q-148 -3 -287.5 57.5t-241 162t-162 241t-57.5 287.5q-3 148 57.5 287.5t162 241t241 161.5t287.5 57zM885 115q120 -2 232 47t194 131t130 194t46 230
q2 117 -46.5 229t-130 194.5t-194 131.5t-231.5 47q-118 2 -229.5 -47t-192.5 -131.5t-129 -194.5t-45 -229q-4 -158 77.5 -298.5t221 -223.5t297.5 -80zM551 322v792h147v-315h379v315h148v-792h-148v335h-379v-335h-147z" />
    <glyph glyph-name="uni24BE" unicode="&#x24be;" horiz-adv-x="1695" 
d="M887 1464q148 3 287.5 -57t241 -161t161.5 -240.5t57 -288.5q3 -148 -57 -287.5t-161.5 -241t-241 -162t-287.5 -57.5q-148 -3 -287.5 57.5t-241 162t-162 241t-57.5 287.5q-3 148 57.5 287.5t162 241t241 161.5t287.5 57zM885 115q120 -2 232 47t194 131t130 194t46 230
q2 117 -46.5 229t-130 194.5t-194 131.5t-231.5 47q-118 2 -229.5 -47t-192.5 -131.5t-129 -194.5t-45 -229q-4 -158 77.5 -298.5t221 -223.5t297.5 -80zM815 324v788h146v-788h-146z" />
    <glyph glyph-name="uni24BF" unicode="&#x24bf;" horiz-adv-x="1695" 
d="M887 1464q148 3 287.5 -57t241 -161t161.5 -240.5t57 -288.5q3 -148 -57 -287.5t-161.5 -241t-241 -162t-287.5 -57.5q-148 -3 -287.5 57.5t-241 162t-162 241t-57.5 287.5q-3 148 57.5 287.5t162 241t241 161.5t287.5 57zM885 115q120 -2 232 47t194 131t130 194t46 230
q2 117 -46.5 229t-130 194.5t-194 131.5t-231.5 47q-118 2 -229.5 -47t-192.5 -131.5t-129 -194.5t-45 -229q-4 -158 77.5 -298.5t221 -223.5t297.5 -80zM539 653l141 21q-4 -28 -4 -60q0 -87 41.5 -129.5t111.5 -42.5q67 0 107.5 40.5t40.5 111.5v518h145v-518
q0 -131 -81.5 -213t-211.5 -82t-212 74.5t-82 212.5q0 35 4 67z" />
    <glyph glyph-name="uni24C0" unicode="&#x24c0;" horiz-adv-x="1695" 
d="M887 1464q148 3 287.5 -57t241 -161t161.5 -240.5t57 -288.5q3 -148 -57 -287.5t-161.5 -241t-241 -162t-287.5 -57.5q-148 -3 -287.5 57.5t-241 162t-162 241t-57.5 287.5q-3 148 57.5 287.5t162 241t241 161.5t287.5 57zM885 115q120 -2 232 47t194 131t130 194t46 230
q2 117 -46.5 229t-130 194.5t-194 131.5t-231.5 47q-118 2 -229.5 -47t-192.5 -131.5t-129 -194.5t-45 -229q-4 -158 77.5 -298.5t221 -223.5t297.5 -80zM555 324v788h141v-326l340 326h199l-358 -344l352 -444h-187l-272 342l-74 -70v-272h-141z" />
    <glyph glyph-name="uni24C1" unicode="&#x24c1;" horiz-adv-x="1695" 
d="M887 1464q148 3 287.5 -57t241 -161t161.5 -240.5t57 -288.5q3 -148 -57 -287.5t-161.5 -241t-241 -162t-287.5 -57.5q-148 -3 -287.5 57.5t-241 162t-162 241t-57.5 287.5q-3 148 57.5 287.5t162 241t241 161.5t287.5 57zM885 115q120 -2 232 47t194 131t130 194t46 230
q2 117 -46.5 229t-130 194.5t-194 131.5t-231.5 47q-118 2 -229.5 -47t-192.5 -131.5t-129 -194.5t-45 -229q-4 -158 77.5 -298.5t221 -223.5t297.5 -80zM629 322v792h149v-651h414v-141h-563z" />
    <glyph glyph-name="uni24C2" unicode="&#x24c2;" horiz-adv-x="1695" 
d="M887 1464q148 3 287.5 -57t241 -161t161.5 -240.5t57 -288.5q3 -148 -57 -287.5t-161.5 -241t-241 -162t-287.5 -57.5q-148 -3 -287.5 57.5t-241 162t-162 241t-57.5 287.5q-3 148 57.5 287.5t162 241t241 161.5t287.5 57zM885 115q120 -2 232 47t194 131t130 194t46 230
q2 117 -46.5 229t-130 194.5t-194 131.5t-231.5 47q-118 2 -229.5 -47t-192.5 -131.5t-129 -194.5t-45 -229q-4 -158 77.5 -298.5t221 -223.5t297.5 -80zM500 324v790h176l211 -594l209 594h174v-790h-140v489l-174 -489h-139l-176 495l-2 -495h-139z" />
    <glyph glyph-name="uni24C3" unicode="&#x24c3;" horiz-adv-x="1695" 
d="M887 1464q148 3 287.5 -57t241 -161t161.5 -240.5t57 -288.5q3 -148 -57 -287.5t-161.5 -241t-241 -162t-287.5 -57.5q-148 -3 -287.5 57.5t-241 162t-162 241t-57.5 287.5q-3 148 57.5 287.5t162 241t241 161.5t287.5 57zM885 115q120 -2 232 47t194 131t130 194t46 230
q2 117 -46.5 229t-130 194.5t-194 131.5t-231.5 47q-118 2 -229.5 -47t-192.5 -131.5t-129 -194.5t-45 -229q-4 -158 77.5 -298.5t221 -223.5t297.5 -80zM543 324v788h186l352 -551v551h148v-788h-170l-369 577l-2 -577h-145z" />
    <glyph glyph-name="uni24C4" unicode="&#x24c4;" horiz-adv-x="1695" 
d="M887 1464q148 3 287.5 -57t241 -161t161.5 -240.5t57 -288.5q3 -148 -57 -287.5t-161.5 -241t-241 -162t-287.5 -57.5q-148 -3 -287.5 57.5t-241 162t-162 241t-57.5 287.5q-3 148 57.5 287.5t162 241t241 161.5t287.5 57zM885 115q120 -2 232 47t194 131t130 194t46 230
q2 117 -46.5 229t-130 194.5t-194 131.5t-231.5 47q-118 2 -229.5 -47t-192.5 -131.5t-129 -194.5t-45 -229q-4 -158 77.5 -298.5t221 -223.5t297.5 -80zM889 1130q175 0 289 -119t114 -296q0 -174 -114 -292t-289 -118q-177 0 -292.5 118t-115.5 292q0 177 115 296t293 119
zM891 455q109 0 179.5 73.5t70.5 186.5q0 115 -70.5 189.5t-179.5 74.5q-112 0 -184 -74t-72 -190q0 -113 72 -186.5t184 -73.5z" />
    <glyph glyph-name="uni24C5" unicode="&#x24c5;" horiz-adv-x="1695" 
d="M887 1464q148 3 287.5 -57t241 -161t161.5 -240.5t57 -288.5q3 -148 -57 -287.5t-161.5 -241t-241 -162t-287.5 -57.5q-148 -3 -287.5 57.5t-241 162t-162 241t-57.5 287.5q-3 148 57.5 287.5t162 241t241 161.5t287.5 57zM885 115q120 -2 232 47t194 131t130 194t46 230
q2 117 -46.5 229t-130 194.5t-194 131.5t-231.5 47q-118 2 -229.5 -47t-192.5 -131.5t-129 -194.5t-45 -229q-4 -158 77.5 -298.5t221 -223.5t297.5 -80zM629 322v792h352q117 0 185.5 -67.5t68.5 -178.5t-68.5 -178t-185.5 -67h-205v-301h-147zM776 764h197q114 0 114 104
q0 50 -29.5 77.5t-84.5 27.5h-197v-209z" />
    <glyph glyph-name="uni24C6" unicode="&#x24c6;" horiz-adv-x="1695" 
d="M887 1464q148 3 287.5 -57t241 -161t161.5 -240.5t57 -288.5q3 -148 -57 -287.5t-161.5 -241t-241 -162t-287.5 -57.5q-148 -3 -287.5 57.5t-241 162t-162 241t-57.5 287.5q-3 148 57.5 287.5t162 241t241 161.5t287.5 57zM885 115q150 0 278 67q-80 30 -133 148
q-74 -23 -139 -23q-177 0 -292.5 118t-115.5 292q0 176 115.5 294.5t292.5 118.5t291 -118.5t114 -294.5q0 -98 -38 -181t-107 -139q41 -96 111 -96q37 0 63 17t53 55q109 154 109 344q2 117 -46.5 229t-130 194.5t-194 131.5t-231.5 47q-118 2 -229.5 -47t-192.5 -131.5
t-129 -194.5t-45 -229q-4 -158 77.5 -298.5t221 -223.5t297.5 -80zM745 500q18 63 65 101t112 38q105 0 163 -94q58 70 58 172q0 115 -71.5 189.5t-180.5 74.5q-112 0 -184 -74t-72 -190q0 -145 110 -217zM891 457q41 0 84 12q-27 49 -55 49q-52 0 -58 -59q6 -2 29 -2z" />
    <glyph glyph-name="uni24C7" unicode="&#x24c7;" horiz-adv-x="1695" 
d="M887 1464q148 3 287.5 -57t241 -161t161.5 -240.5t57 -288.5q3 -148 -57 -287.5t-161.5 -241t-241 -162t-287.5 -57.5q-148 -3 -287.5 57.5t-241 162t-162 241t-57.5 287.5q-3 148 57.5 287.5t162 241t241 161.5t287.5 57zM885 115q120 -2 232 47t194 131t130 194t46 230
q2 117 -46.5 229t-130 194.5t-194 131.5t-231.5 47q-118 2 -229.5 -47t-192.5 -131.5t-129 -194.5t-45 -229q-4 -158 77.5 -298.5t221 -223.5t297.5 -80zM606 322v792h357q115 0 184.5 -68.5t69.5 -177.5q0 -81 -38 -139t-108 -88l154 -322h-162l-139 304h-172v-301h-146z
M752 764h200q56 0 86.5 26.5t30.5 77.5q0 50 -31 77.5t-86 27.5h-200v-209z" />
    <glyph glyph-name="uni24C8" unicode="&#x24c8;" horiz-adv-x="1695" 
d="M887 1464q148 3 287.5 -57t241 -161t161.5 -240.5t57 -288.5q3 -148 -57 -287.5t-161.5 -241t-241 -162t-287.5 -57.5q-148 -3 -287.5 57.5t-241 162t-162 241t-57.5 287.5q-3 148 57.5 287.5t162 241t241 161.5t287.5 57zM885 115q120 -2 232 47t194 131t130 194t46 230
q2 117 -46.5 229t-130 194.5t-194 131.5t-231.5 47q-118 2 -229.5 -47t-192.5 -131.5t-129 -194.5t-45 -229q-4 -158 77.5 -298.5t221 -223.5t297.5 -80zM555 582l143 51q19 -88 70 -134t129 -46q73 0 115.5 29t42.5 79q0 87 -176 107q-142 17 -210.5 76t-68.5 167
q0 97 81 159.5t204 62.5q112 0 193 -60.5t106 -163.5l-144 -59q-17 62 -58.5 98.5t-96.5 36.5q-57 0 -95 -22.5t-38 -55.5q0 -42 33.5 -64.5t111.5 -29.5q313 -24 313 -248q0 -117 -86 -188.5t-227 -71.5q-135 0 -225.5 74t-116.5 203z" />
    <glyph glyph-name="uni24C9" unicode="&#x24c9;" horiz-adv-x="1695" 
d="M887 1464q148 3 287.5 -57t241 -161t161.5 -240.5t57 -288.5q3 -148 -57 -287.5t-161.5 -241t-241 -162t-287.5 -57.5q-148 -3 -287.5 57.5t-241 162t-162 241t-57.5 287.5q-3 148 57.5 287.5t162 241t241 161.5t287.5 57zM885 115q120 -2 232 47t194 131t130 194t46 230
q2 117 -46.5 229t-130 194.5t-194 131.5t-231.5 47q-118 2 -229.5 -47t-192.5 -131.5t-129 -194.5t-45 -229q-4 -158 77.5 -298.5t221 -223.5t297.5 -80zM557 973v141h660v-141h-256v-651h-148v651h-256z" />
    <glyph glyph-name="uni24CA" unicode="&#x24ca;" horiz-adv-x="1695" 
d="M887 1464q148 3 287.5 -57t241 -161t161.5 -240.5t57 -288.5q3 -148 -57 -287.5t-161.5 -241t-241 -162t-287.5 -57.5q-148 -3 -287.5 57.5t-241 162t-162 241t-57.5 287.5q-3 148 57.5 287.5t162 241t241 161.5t287.5 57zM885 115q120 -2 232 47t194 131t130 194t46 230
q2 117 -46.5 229t-130 194.5t-194 131.5t-231.5 47q-118 2 -229.5 -47t-192.5 -131.5t-129 -194.5t-45 -229q-4 -158 77.5 -298.5t221 -223.5t297.5 -80zM555 635v477h150v-473q0 -88 49 -140.5t135 -52.5t134 51t48 142v473h148v-477q0 -148 -90.5 -240t-239.5 -92
q-151 0 -242.5 91.5t-91.5 240.5z" />
    <glyph glyph-name="uni24CB" unicode="&#x24cb;" horiz-adv-x="1695" 
d="M887 1464q148 3 287.5 -57t241 -161t161.5 -240.5t57 -288.5q3 -148 -57 -287.5t-161.5 -241t-241 -162t-287.5 -57.5q-148 -3 -287.5 57.5t-241 162t-162 241t-57.5 287.5q-3 148 57.5 287.5t162 241t241 161.5t287.5 57zM885 115q120 -2 232 47t194 131t130 194t46 230
q2 117 -46.5 229t-130 194.5t-194 131.5t-231.5 47q-118 2 -229.5 -47t-192.5 -131.5t-129 -194.5t-45 -229q-4 -158 77.5 -298.5t221 -223.5t297.5 -80zM508 1112h162l213 -600l211 600h163l-284 -790h-180z" />
    <glyph glyph-name="uni24CC" unicode="&#x24cc;" horiz-adv-x="1695" 
d="M887 1464q148 3 287.5 -57t241 -161t161.5 -240.5t57 -288.5q3 -148 -57 -287.5t-161.5 -241t-241 -162t-287.5 -57.5q-148 -3 -287.5 57.5t-241 162t-162 241t-57.5 287.5q-3 148 57.5 287.5t162 241t241 161.5t287.5 57zM885 115q120 -2 232 47t194 131t130 194t46 230
q2 117 -46.5 229t-130 194.5t-194 131.5t-231.5 47q-118 2 -229.5 -47t-192.5 -131.5t-129 -194.5t-45 -229q-4 -158 77.5 -298.5t221 -223.5t297.5 -80zM467 1114h141l99 -524l106 524h133l107 -524l100 524h139l-155 -790h-162l-94 481l-97 -481h-161z" />
    <glyph glyph-name="uni24CD" unicode="&#x24cd;" horiz-adv-x="1695" 
d="M887 1464q148 3 287.5 -57t241 -161t161.5 -240.5t57 -288.5q3 -148 -57 -287.5t-161.5 -241t-241 -162t-287.5 -57.5q-148 -3 -287.5 57.5t-241 162t-162 241t-57.5 287.5q-3 148 57.5 287.5t162 241t241 161.5t287.5 57zM885 115q120 -2 232 47t194 131t130 194t46 230
q2 117 -46.5 229t-130 194.5t-194 131.5t-231.5 47q-118 2 -229.5 -47t-192.5 -131.5t-129 -194.5t-45 -229q-4 -158 77.5 -298.5t221 -223.5t297.5 -80zM694 322h-194l291 397l-291 395h194l195 -264l192 264h195l-291 -395l291 -397h-195l-192 264z" />
    <glyph glyph-name="uni24CE" unicode="&#x24ce;" horiz-adv-x="1695" 
d="M887 1464q148 3 287.5 -57t241 -161t161.5 -240.5t57 -288.5q3 -148 -57 -287.5t-161.5 -241t-241 -162t-287.5 -57.5q-148 -3 -287.5 57.5t-241 162t-162 241t-57.5 287.5q-3 148 57.5 287.5t162 241t241 161.5t287.5 57zM885 115q120 -2 232 47t194 131t130 194t46 230
q2 117 -46.5 229t-130 194.5t-194 131.5t-231.5 47q-118 2 -229.5 -47t-192.5 -131.5t-129 -194.5t-45 -229q-4 -158 77.5 -298.5t221 -223.5t297.5 -80zM516 1114h166l201 -328l200 328h168l-295 -481v-311h-147v315z" />
    <glyph glyph-name="uni24CF" unicode="&#x24cf;" horiz-adv-x="1695" 
d="M887 1464q148 3 287.5 -57t241 -161t161.5 -240.5t57 -288.5q3 -148 -57 -287.5t-161.5 -241t-241 -162t-287.5 -57.5q-148 -3 -287.5 57.5t-241 162t-162 241t-57.5 287.5q-3 148 57.5 287.5t162 241t241 161.5t287.5 57zM885 115q120 -2 232 47t194 131t130 194t46 230
q2 117 -46.5 229t-130 194.5t-194 131.5t-231.5 47q-118 2 -229.5 -47t-192.5 -131.5t-129 -194.5t-45 -229q-4 -158 77.5 -298.5t221 -223.5t297.5 -80zM567 322v141l437 510h-437v141h633v-141l-440 -510h440v-141h-633z" />
    <glyph glyph-name="uni24EA" unicode="&#x24ea;" horiz-adv-x="1697" 
d="M889 1464q148 3 287.5 -57t241 -161t161.5 -240.5t57 -288.5q3 -148 -57 -287.5t-161.5 -241t-241 -162t-287.5 -57.5q-148 -3 -287.5 57.5t-241 162t-162 241t-57.5 287.5q-3 148 57.5 287.5t162 241t241 161.5t287.5 57zM887 115q120 -2 232 47t194 131t130 194t46 230
q2 117 -46.5 229t-130 194.5t-194 131.5t-231.5 47q-118 2 -229.5 -47t-192.5 -131.5t-129 -194.5t-45 -229q-4 -158 77.5 -298.5t221 -223.5t297.5 -80zM893 1137q156 0 233 -115q78 -116 78 -291q0 -191 -79 -303.5t-232 -112.5t-233 113t-80 303q0 185 80 295.5
t233 110.5zM893 465q79 0 120.5 67t41.5 199q0 122 -43 189t-119 67q-78 0 -121 -66t-43 -190q0 -132 42.5 -199t121.5 -67z" />
    <glyph glyph-name="uni258A" unicode="&#x258a;" horiz-adv-x="1159" 
d="M31 0l254 1434h921l-254 -1434h-921z" />
    <glyph glyph-name="lozenge" unicode="&#x25ca;" 
d="M84 717l539 717h307l293 -717l-539 -717h-307zM379 698l182 -452l369 489l-185 453z" />
    <glyph glyph-name="circle" unicode="&#x25cb;" horiz-adv-x="1695" 
d="M887 1464q148 3 287.5 -57t241 -161t161.5 -240.5t57 -288.5q3 -148 -57 -287.5t-161.5 -241t-241 -162t-287.5 -57.5q-148 -3 -287.5 57.5t-241 162t-162 241t-57.5 287.5q-3 148 57.5 287.5t162 241t241 161.5t287.5 57zM885 115q120 -2 232 47t194 131t130 194t46 230
q2 117 -46.5 229t-130 194.5t-194 131.5t-231.5 47q-118 2 -229.5 -47t-192.5 -131.5t-129 -194.5t-45 -229q-4 -158 77.5 -298.5t221 -223.5t297.5 -80z" />
    <glyph glyph-name="uni25D0" unicode="&#x25d0;" 
d="M635 1124q133 3 252.5 -67.5t190 -190t67.5 -252.5q3 -133 -67.5 -252.5t-190 -190t-252.5 -67.5q-133 -3 -252 67.5t-189 190t-67 252.5q-3 133 67 252.5t189 190t252 67.5zM645 125v94q159 3 271 114t112 281q0 168 -112 280t-271 118v92q-127 3 -241 -65t-181 -182.5
t-65 -242.5q-1 -96 38.5 -187t105.5 -157.5t157 -106.5t186 -38zM635 219q-164 0 -276.5 110.5t-112.5 284.5q0 172 113.5 285t275.5 113h8v-793h-8z" />
    <glyph glyph-name="smileface" unicode="&#x263a;" horiz-adv-x="1708" 
d="M893 1464q119 2 233 -35.5t207 -108t163.5 -163.5t108 -207t35.5 -233q3 -148 -57 -287.5t-161.5 -241t-241 -162t-287.5 -57.5q-148 -3 -287.5 57.5t-241 162t-162 241t-57.5 287.5q-3 148 57.5 287.5t162 241t241 161.5t287.5 57zM893 102q162 -4 306 80.5t229 228.5
t81 306q3 121 -47 235.5t-134 198t-199 133t-236 47.5q-121 2 -235.5 -47.5t-198.5 -133t-133.5 -198t-46.5 -235.5q-2 -97 29 -191t89 -170.5t134.5 -135t170.5 -89.5t191 -29zM664 969q51 0 87.5 -36.5t36.5 -90.5q0 -51 -36.5 -88t-87.5 -37t-89 37t-38 88q0 53 37.5 90
t89.5 37zM1122 969q54 0 90.5 -36.5t36.5 -90.5q0 -51 -38 -88t-89 -37t-88 37t-37 88q0 54 36.5 90.5t88.5 36.5z" />
    <glyph glyph-name="uni2713" unicode="&#x2713;" horiz-adv-x="1179" 
d="M61 510l175 100l223 -399l614 1223l195 -95l-693 -1339h-227z" />
    <glyph glyph-name="uni2B0F" unicode="&#x2b0f;" horiz-adv-x="1193" 
d="M74 324h450l2 489l-278 -274l-154 155l539 535l536 -539l-153 -153l-275 274l-2 -700h-665v213z" />
    <glyph glyph-name="uni2B10" unicode="&#x2b10;" horiz-adv-x="1193" 
d="M1182 1016h-451l-2 -490l279 275l153 -156l-538 -534l-537 538l154 154l274 -275l2 701h666v-213z" />
    <glyph glyph-name="uni2B11" unicode="&#x2b11;" horiz-adv-x="1316" 
d="M1190 324v-213h-666l-2 700l-274 -274l-154 153l537 539l538 -535l-153 -155l-279 274l2 -489h451z" />
    <glyph glyph-name="I.ss04" horiz-adv-x="1171" 
d="M-16 0l45 246h385l168 942h-389l45 246h1028l-45 -246h-383l-168 -942h385l-43 -246h-1028z" />
    <glyph glyph-name="Iacute.ss04" horiz-adv-x="1171" 
d="M-16 0l45 246h385l168 942h-389l45 246h1028l-45 -246h-383l-168 -942h385l-43 -246h-1028zM651 1573l193 287h332l-293 -287h-232z" />
    <glyph glyph-name="Ibreve.ss04" horiz-adv-x="1171" 
d="M-16 0l45 246h385l168 942h-389l45 246h1028l-45 -246h-383l-168 -942h385l-43 -246h-1028zM485 1829v31h183q-2 -54 26.5 -85.5t79.5 -31.5q55 0 93.5 31t56.5 86h182q-31 -130 -122.5 -208.5t-217.5 -78.5q-123 0 -202 71t-79 185z" />
    <glyph glyph-name="Icircumflex.ss04" horiz-adv-x="1171" 
d="M-16 0l45 246h385l168 942h-389l45 246h1028l-45 -246h-383l-168 -942h385l-43 -246h-1028zM436 1573l258 287h234l153 -287h-213l-86 125l-131 -125h-215z" />
    <glyph glyph-name="Idieresis.ss04" horiz-adv-x="1171" 
d="M-16 0l45 246h385l168 942h-389l45 246h1028l-45 -246h-383l-168 -942h385l-43 -246h-1028zM604 1872q62 0 103 -41t41 -102q0 -67 -49.5 -118.5t-116.5 -51.5q-61 0 -102.5 42.5t-41.5 104.5q0 66 50 116t116 50zM1008 1872q61 0 102 -43t41 -105q0 -66 -50 -115.5
t-116 -49.5q-61 0 -102 41.5t-41 101.5q0 64 50 117t116 53z" />
    <glyph glyph-name="Idotaccent.ss04" horiz-adv-x="1171" 
d="M-16 0l45 246h385l168 942h-389l45 246h1028l-45 -246h-383l-168 -942h385l-43 -246h-1028zM803 1868q61 0 102 -42t41 -104q0 -61 -49.5 -110t-114.5 -49q-62 0 -102.5 40.5t-40.5 102.5q0 66 49 114t115 48z" />
    <glyph glyph-name="Igrave.ss04" horiz-adv-x="1171" 
d="M-16 0l45 246h385l168 942h-389l45 246h1028l-45 -246h-383l-168 -942h385l-43 -246h-1028zM463 1860h328l92 -287h-228z" />
    <glyph glyph-name="Imacron.ss04" horiz-adv-x="1171" 
d="M-16 0l45 246h385l168 942h-389l45 246h1028l-45 -246h-383l-168 -942h385l-43 -246h-1028zM467 1595l35 199h614l-35 -199h-614z" />
    <glyph glyph-name="Iogonek.ss04" horiz-adv-x="1171" 
d="M-16 0l45 246h385l168 942h-389l45 246h1028l-45 -246h-383l-168 -942h385l-43 -246q-62 -23 -109 -62.5t-47 -80.5q0 -37 23 -56t73 -20l-28 -164q-124 0 -196.5 50.5t-72.5 142.5q0 113 115 190h-786z" />
    <glyph glyph-name="Itilde.ss04" horiz-adv-x="1171" 
d="M-16 0l45 246h385l168 942h-389l45 246h1028l-45 -246h-383l-168 -942h385l-43 -246h-1028zM682 1849q63 0 137 -41q57 -32 99 -32q73 0 120 90l138 -105q-46 -92 -116.5 -139t-154.5 -47q-67 0 -145 43q-55 31 -90 31q-68 0 -115 -86l-143 100q52 99 118.5 142.5
t151.5 43.5z" />
    <glyph glyph-name="i.loclTRK" horiz-adv-x="468" 
d="M18 0l177 995h256l-177 -995h-256zM385 1456q65 0 107.5 -42.5t42.5 -106.5t-50.5 -116t-117.5 -52q-66 0 -109 43t-43 106q0 67 51 117.5t119 50.5z" />
    <glyph glyph-name="i.ss01" horiz-adv-x="1046" 
d="M-14 0l39 227h323l96 541h-323l39 227h579l-39 -227l-96 -541h324l-41 -227h-901zM664 1456q65 0 107 -42.5t42 -106.5t-50.5 -116t-117.5 -52q-65 0 -108 42.5t-43 106.5q0 67 51 117.5t119 50.5z" />
    <glyph glyph-name="dotlessi.ss01" horiz-adv-x="1046" 
d="M-14 0l39 227h323l96 541h-323l39 227h579l-39 -227l-96 -541h324l-41 -227h-901z" />
    <glyph glyph-name="iacute.ss01" horiz-adv-x="1046" 
d="M-14 0l39 227h323l96 541h-323l39 227h579l-39 -227l-96 -541h324l-41 -227h-901zM508 1151l192 287h334l-295 -287h-231z" />
    <glyph glyph-name="ibreve.ss01" horiz-adv-x="1046" 
d="M-14 0l39 227h323l96 541h-323l39 227h579l-39 -227l-96 -541h324l-41 -227h-901zM371 1409v29h182q-2 -54 26.5 -85.5t79.5 -31.5q55 0 93.5 31t56.5 86h182q-31 -130 -122.5 -208.5t-217.5 -78.5q-122 0 -201 71.5t-79 186.5z" />
    <glyph glyph-name="icircumflex.ss01" horiz-adv-x="1046" 
d="M-14 0l39 227h323l96 541h-323l39 227h579l-39 -227l-96 -541h324l-41 -227h-901zM291 1151l258 287h235l154 -287h-215l-86 127l-129 -127h-217z" />
    <glyph glyph-name="idieresis.ss01" horiz-adv-x="1046" 
d="M-14 0l39 227h323l96 541h-323l39 227h579l-39 -227l-96 -541h324l-41 -227h-901zM473 1444q61 0 101 -39.5t40 -99.5q0 -67 -48.5 -116.5t-116.5 -49.5q-60 0 -99 40.5t-39 100.5q0 68 47.5 116t114.5 48zM856 1444q63 0 102 -38.5t39 -100.5q0 -64 -48 -115t-113 -51
q-61 0 -100.5 40.5t-39.5 102.5q0 66 47 114t113 48z" />
    <glyph glyph-name="i.loclTRK.ss01" horiz-adv-x="1046" 
d="M-14 0l39 227h323l96 541h-323l39 227h579l-39 -227l-96 -541h324l-41 -227h-901zM664 1456q65 0 107 -42.5t42 -106.5t-50.5 -116t-117.5 -52q-65 0 -108 42.5t-43 106.5q0 67 51 117.5t119 50.5z" />
    <glyph glyph-name="igrave.ss01" horiz-adv-x="1046" 
d="M-14 0l39 227h323l96 541h-323l39 227h579l-39 -227l-96 -541h324l-41 -227h-901zM324 1438h329l92 -287h-227z" />
    <glyph glyph-name="imacron.ss01" horiz-adv-x="1046" 
d="M-14 0l39 227h323l96 541h-323l39 227h579l-39 -227l-96 -541h324l-41 -227h-901zM393 1196l37 199h492l-37 -199h-492z" />
    <glyph glyph-name="iogonek.ss01" horiz-adv-x="1046" 
d="M664 1456q65 0 107 -42.5t42 -106.5t-50.5 -116t-117.5 -52q-65 0 -108 42.5t-43 106.5q0 67 51 117.5t119 50.5zM-14 0l39 227h323l96 541h-323l39 227h579l-135 -768h324l-41 -227q-59 -21 -106.5 -61.5t-47.5 -81.5q0 -73 94 -76l-28 -164q-124 0 -195.5 50.5
t-71.5 142.5q0 114 113 190h-659z" />
    <glyph glyph-name="itilde.ss01" horiz-adv-x="1046" 
d="M-14 0l39 227h323l96 541h-323l39 227h579l-39 -227l-96 -541h324l-41 -227h-901zM543 1430q69 0 143 -41q56 -29 84 -29q57 0 117 84l137 -113q-40 -84 -109 -129t-151 -45q-62 0 -137 43q-1 0 -10.5 5t-20.5 10t-25.5 9.5t-25.5 4.5q-68 0 -121 -84l-135 104
q47 92 114 136.5t140 44.5z" />
    <glyph glyph-name="j.ss01" horiz-adv-x="784" 
d="M-115 -182l219 18q-4 -48 18.5 -72t65.5 -24q47 0 77.5 28t41.5 78l162 922h-324l41 227h580l-207 -1151q-26 -155 -128 -245.5t-255 -90.5q-134 0 -213.5 69.5t-79.5 186.5q0 42 2 54zM705 1456q65 0 107 -42.5t42 -106.5t-51 -116t-117 -52t-108.5 42.5t-42.5 106.5
q0 67 51 117.5t119 50.5z" />
    <glyph glyph-name="uni0237.ss01" horiz-adv-x="784" 
d="M-115 -182l219 18q-4 -48 18.5 -72t65.5 -24q47 0 77.5 28t41.5 78l162 922h-324l41 227h580l-207 -1151q-26 -155 -128 -245.5t-255 -90.5q-134 0 -213.5 69.5t-79.5 186.5q0 42 2 54z" />
    <glyph glyph-name="jcircumflex.ss01" horiz-adv-x="784" 
d="M319 1151l205 287h267l92 -287h-201l-53 123l-107 -123h-203zM-115 -182l219 18q-4 -48 18.5 -72t65.5 -24q47 0 77.5 28t41.5 78l162 922h-324l41 227h580l-207 -1151q-26 -155 -128 -245.5t-255 -90.5q-134 0 -213.5 69.5t-79.5 186.5q0 42 2 54z" />
    <glyph glyph-name="l.ss01" horiz-adv-x="1060" 
d="M158 1212l39 222h467l-193 -1090q-4 -32 -4 -37q0 -106 115 -106q67 0 115 54.5t55 145.5l237 -39q-21 -178 -141.5 -285.5t-282.5 -107.5q-169 0 -262.5 80.5t-93.5 222.5q0 47 8 86l152 854h-211z" />
    <glyph glyph-name="lacute.ss01" horiz-adv-x="1060" 
d="M158 1212l39 222h467l-193 -1090q-4 -32 -4 -37q0 -106 115 -106q67 0 115 54.5t55 145.5l237 -39q-21 -178 -141.5 -285.5t-282.5 -107.5q-169 0 -262.5 80.5t-93.5 222.5q0 47 8 86l152 854h-211zM446 1573l193 287h332l-293 -287h-232z" />
    <glyph glyph-name="lcaron.ss01" horiz-adv-x="1060" 
d="M158 1212l39 222h467l-193 -1090q-4 -32 -4 -37q0 -106 115 -106q67 0 115 54.5t55 145.5l237 -39q-21 -178 -141.5 -285.5t-282.5 -107.5q-169 0 -262.5 80.5t-93.5 222.5q0 47 8 86l152 854h-211zM686 1133l72 301h250l-146 -301h-176z" />
    <glyph glyph-name="uni013C.ss01" horiz-adv-x="1060" 
d="M158 1212l39 222h467l-193 -1090q-4 -32 -4 -37q0 -106 115 -106q67 0 115 54.5t55 145.5l237 -39q-21 -178 -141.5 -285.5t-282.5 -107.5q-169 0 -262.5 80.5t-93.5 222.5q0 47 8 86l152 854h-211zM512 -115q61 0 97 -39.5t36 -107.5q0 -108 -56 -194.5t-147 -118.5
l-30 92q69 26 104 98q-6 -2 -24 -2q-56 0 -91.5 35.5t-35.5 91.5q0 61 43 103t104 42z" />
    <glyph glyph-name="ldot.ss01" horiz-adv-x="1107" 
d="M158 1212l39 222h467l-193 -1090q-4 -32 -4 -37q0 -106 115 -106q67 0 115 54.5t55 145.5l237 -39q-21 -178 -141.5 -285.5t-282.5 -107.5q-169 0 -262.5 80.5t-93.5 222.5q0 47 8 86l152 854h-211zM961 922q63 0 105 -42t42 -104q0 -72 -51.5 -124t-118.5 -52t-109.5 42
t-42.5 108q0 68 53 120t122 52z" />
    <glyph glyph-name="lslash.ss01" horiz-adv-x="1060" 
d="M63 637l228 135l78 440h-211l39 222h467l-86 -492l100 59l98 -165l-244 -146l-61 -346q-4 -32 -4 -37q0 -106 115 -106q67 0 115 54.5t55 145.5l237 -39q-21 -178 -141.5 -285.5t-282.5 -107.5q-169 0 -262.5 80.5t-93.5 222.5q0 50 8 86l29 160l-84 -49z" />
    <glyph glyph-name="a.ss02" horiz-adv-x="1191" 
d="M61 512q37 216 191.5 366t347.5 150q202 0 301 -141l19 108h256l-179 -995h-254l17 92q-132 -123 -320 -123q-178 0 -283.5 118.5t-105.5 307.5q0 45 10 117zM522 219q134 0 224 103t90 243q0 98 -57 156.5t-154 58.5q-135 0 -226.5 -103.5t-91.5 -246.5
q0 -94 58.5 -152.5t156.5 -58.5z" />
    <glyph glyph-name="aacute.ss02" horiz-adv-x="1193" 
d="M61 512q37 216 191.5 366t347.5 150q202 0 301 -141l19 108h256l-179 -995h-254l17 92q-132 -123 -320 -123q-178 0 -283.5 118.5t-105.5 307.5q0 45 10 117zM522 219q134 0 224 103t90 243q0 98 -57 156.5t-154 58.5q-135 0 -226.5 -103.5t-91.5 -246.5
q0 -94 58.5 -152.5t156.5 -58.5zM555 1151l193 287h333l-295 -287h-231z" />
    <glyph glyph-name="abreve.ss02" horiz-adv-x="1193" 
d="M61 512q37 216 191.5 366t347.5 150q202 0 301 -141l19 108h256l-179 -995h-254l17 92q-132 -123 -320 -123q-178 0 -283.5 118.5t-105.5 307.5q0 45 10 117zM522 219q134 0 224 103t90 243q0 98 -57 156.5t-154 58.5q-135 0 -226.5 -103.5t-91.5 -246.5
q0 -94 58.5 -152.5t156.5 -58.5zM418 1409v29h182q-2 -54 27 -85.5t80 -31.5q55 0 93 31t56 86h182q-31 -130 -122.5 -208.5t-217.5 -78.5q-122 0 -201 71.5t-79 186.5z" />
    <glyph glyph-name="acircumflex.ss02" horiz-adv-x="1193" 
d="M61 512q37 216 191.5 366t347.5 150q202 0 301 -141l19 108h256l-179 -995h-254l17 92q-132 -123 -320 -123q-178 0 -283.5 118.5t-105.5 307.5q0 45 10 117zM522 219q134 0 224 103t90 243q0 98 -57 156.5t-154 58.5q-135 0 -226.5 -103.5t-91.5 -246.5
q0 -94 58.5 -152.5t156.5 -58.5zM338 1151l258 287h235l154 -287h-215l-86 127l-129 -127h-217z" />
    <glyph glyph-name="adieresis.ss02" horiz-adv-x="1193" 
d="M61 512q37 216 191.5 366t347.5 150q202 0 301 -141l19 108h256l-179 -995h-254l17 92q-132 -123 -320 -123q-178 0 -283.5 118.5t-105.5 307.5q0 45 10 117zM522 219q134 0 224 103t90 243q0 98 -57 156.5t-154 58.5q-135 0 -226.5 -103.5t-91.5 -246.5
q0 -94 58.5 -152.5t156.5 -58.5zM520 1444q61 0 101.5 -39.5t40.5 -99.5q0 -67 -49 -116.5t-117 -49.5q-60 0 -99 40.5t-39 100.5q0 68 47.5 116t114.5 48zM903 1444q63 0 102 -38.5t39 -100.5q0 -64 -48 -115t-113 -51q-61 0 -100.5 40.5t-39.5 102.5q0 66 47 114t113 48z
" />
    <glyph glyph-name="agrave.ss02" horiz-adv-x="1193" 
d="M61 512q37 216 191.5 366t347.5 150q202 0 301 -141l19 108h256l-179 -995h-254l17 92q-132 -123 -320 -123q-178 0 -283.5 118.5t-105.5 307.5q0 45 10 117zM522 219q134 0 224 103t90 243q0 98 -57 156.5t-154 58.5q-135 0 -226.5 -103.5t-91.5 -246.5
q0 -94 58.5 -152.5t156.5 -58.5zM371 1438h329l93 -287h-228z" />
    <glyph glyph-name="amacron.ss02" horiz-adv-x="1193" 
d="M61 512q37 216 191.5 366t347.5 150q202 0 301 -141l19 108h256l-179 -995h-254l17 92q-132 -123 -320 -123q-178 0 -283.5 118.5t-105.5 307.5q0 45 10 117zM522 219q134 0 224 103t90 243q0 98 -57 156.5t-154 58.5q-135 0 -226.5 -103.5t-91.5 -246.5
q0 -94 58.5 -152.5t156.5 -58.5zM440 1196l37 199h492l-37 -199h-492z" />
    <glyph glyph-name="aogonek.ss02" horiz-adv-x="1193" 
d="M61 512q37 216 191.5 366t347.5 150q202 0 301 -141l19 108h256l-179 -995q-59 -21 -106 -61t-47 -82q0 -73 94 -76l-29 -164q-123 0 -194.5 50.5t-71.5 142.5q0 114 113 190h-13l17 92q-132 -123 -320 -123q-178 0 -283.5 118.5t-105.5 307.5q0 45 10 117zM522 219
q134 0 224 103t90 243q0 98 -57 156.5t-154 58.5q-135 0 -226.5 -103.5t-91.5 -246.5q0 -94 58.5 -152.5t156.5 -58.5z" />
    <glyph glyph-name="aring.ss02" horiz-adv-x="1193" 
d="M61 512q37 216 191.5 366t347.5 150q202 0 301 -141l19 108h256l-179 -995h-254l17 92q-132 -123 -320 -123q-178 0 -283.5 118.5t-105.5 307.5q0 45 10 117zM522 219q134 0 224 103t90 243q0 98 -57 156.5t-154 58.5q-135 0 -226.5 -103.5t-91.5 -246.5
q0 -94 58.5 -152.5t156.5 -58.5zM715 1499q79 0 133.5 -55t54.5 -135q0 -89 -69 -155.5t-154 -66.5q-79 0 -133.5 55.5t-54.5 133.5q0 87 68 155t155 68zM690 1221q33 0 57.5 22.5t24.5 56.5q0 29 -19 47.5t-46 18.5q-36 0 -60 -22.5t-24 -57.5q0 -27 19 -46t48 -19z" />
    <glyph glyph-name="atilde.ss02" horiz-adv-x="1193" 
d="M61 512q37 216 191.5 366t347.5 150q202 0 301 -141l19 108h256l-179 -995h-254l17 92q-132 -123 -320 -123q-178 0 -283.5 118.5t-105.5 307.5q0 45 10 117zM522 219q134 0 224 103t90 243q0 98 -57 156.5t-154 58.5q-135 0 -226.5 -103.5t-91.5 -246.5
q0 -94 58.5 -152.5t156.5 -58.5zM590 1430q69 0 143 -41q56 -29 84 -29q57 0 117 84l137 -113q-40 -84 -109 -129t-151 -45q-62 0 -137 43q-1 0 -10.5 5t-20.5 10t-25.5 9.5t-25.5 4.5q-68 0 -121 -84l-135 104q47 92 114 136.5t140 44.5z" />
    <glyph glyph-name="y.ss03" horiz-adv-x="1128" 
d="M72 -461l272 471l-225 985h254l149 -676l391 676h273l-842 -1456h-272z" />
    <glyph glyph-name="yacute.ss03" horiz-adv-x="1128" 
d="M72 -461l272 471l-225 985h254l149 -676l391 676h273l-842 -1456h-272zM557 1151l193 287h333l-295 -287h-231z" />
    <glyph glyph-name="ycircumflex.ss03" horiz-adv-x="1128" 
d="M72 -461l272 471l-225 985h254l149 -676l391 676h273l-842 -1456h-272zM340 1151l258 287h236l153 -287h-215l-86 127l-129 -127h-217z" />
    <glyph glyph-name="ydieresis.ss03" horiz-adv-x="1128" 
d="M72 -461l272 471l-225 985h254l149 -676l391 676h273l-842 -1456h-272zM522 1444q61 0 101.5 -39.5t40.5 -99.5q0 -67 -49 -116.5t-117 -49.5q-60 0 -99 40.5t-39 100.5q0 68 47.5 116t114.5 48zM905 1444q63 0 102.5 -38.5t39.5 -100.5q0 -64 -48.5 -115t-113.5 -51
q-61 0 -100.5 40.5t-39.5 102.5q0 66 47 114t113 48z" />
    <glyph glyph-name="ygrave.ss03" horiz-adv-x="1128" 
d="M72 -461l272 471l-225 985h254l149 -676l391 676h273l-842 -1456h-272zM373 1438h329l93 -287h-228z" />
    <glyph glyph-name="f_f.dlig" horiz-adv-x="1525" 
d="M80 774l39 221h162l12 74q30 176 151 285q123 108 301 108q170 0 252 -94q119 94 283 94q152 0 238 -79t86 -214q0 -37 -2 -47l-238 -47q4 36 4 43q0 55 -29 85t-79 30q-67 0 -115 -41.5t-60 -110.5l-14 -86h481l-39 -221h-483l-137 -778h-256l137 778h-278l-138 -778
h-256l138 778h-160zM537 995h278l10 60q9 49 9 63q0 55 -29.5 85t-79.5 30q-67 0 -114.5 -41.5t-59.5 -110.5z" />
    <glyph glyph-name="f_f_i.dlig" horiz-adv-x="1624" 
d="M80 774l39 221h162l12 74q30 176 151 285q123 108 301 108q166 0 254 -94q119 94 283 94q152 0 238 -79t86 -214q0 -37 -2 -47l-238 -47q4 36 4 43q0 55 -29 85t-79 30q-67 0 -115 -41.5t-60 -110.5l-14 -86h533l-176 -995h-256l137 774h-279l-137 -778h-256l137 778
h-280l-138 -778h-256l138 778h-160zM537 995h280l10 62l7 61q0 55 -29.5 85t-79.5 30q-67 0 -114.5 -41.5t-59.5 -110.5z" />
    <glyph glyph-name="f_f_j.dlig" horiz-adv-x="1642" 
d="M80 774l39 221h151l15 76q35 184 155 289.5t297 105.5q170 0 258 -98q119 94 281 94q152 0 237.5 -79t85.5 -214q0 -37 -2 -47l-237 -47q4 36 4 43q0 55 -29.5 85t-79.5 30q-67 0 -114.5 -41.5t-59.5 -110.5l-14 -86h557l-207 -1151q-30 -157 -130.5 -246.5t-252.5 -89.5
q-134 0 -213.5 69.5t-79.5 186.5q0 42 2 54l220 18q-4 -48 18.5 -72t65.5 -24q49 0 79.5 28t38.5 78l164 928h-303l-137 -778h-256l137 778h-281l-137 -774h-256l135 774h-151zM528 995h283l12 68q6 41 6 57q0 55 -30 84t-82 29q-67 0 -114.5 -41.5t-59.5 -110.5z" />
    <glyph glyph-name="f_f_l.dlig" horiz-adv-x="1619" 
d="M80 778l39 217h151l15 76q27 178 151 287q123 108 301 108q166 0 254 -94q119 94 283 94q160 0 254 -86.5t94 -230.5q0 -33 -6 -74l-193 -1075h-256l193 1075q1 9 2 19.5t1.5 16t0.5 9.5q0 55 -29.5 84t-81.5 29q-67 0 -114.5 -41.5t-59.5 -110.5l-14 -86h180l-39 -221
h-180l-137 -774h-256l135 778h-279l-137 -778h-256l137 778h-153zM528 995h281l10 62q8 36 8 63q0 55 -29 84t-81 29q-67 0 -114.5 -41.5t-59.5 -110.5z" />
    <glyph glyph-name="f_j.dlig" horiz-adv-x="1112" 
d="M80 774l39 221h162l12 74q30 176 151 285q123 108 301 108q152 0 238 -79t86 -214q0 -37 -2 -47l-238 -47q1 7 2 16.5t2 16t1 10.5q0 55 -29.5 85t-79.5 30q-67 0 -114.5 -41.5t-59.5 -110.5l-14 -86h557l-207 -1151q-30 -156 -130.5 -246t-252.5 -90q-134 0 -213.5 69.5
t-79.5 186.5q0 42 2 54l219 18q-4 -48 18.5 -72t65.5 -24q97 0 119 106l164 928h-303l-138 -778h-256l138 778h-160z" />
    <glyph glyph-name="f_l.dlig" horiz-adv-x="1083" 
d="M80 774l39 221h151l15 76q27 178 151 287q123 108 301 108q160 0 254 -86.5t94 -230.5q0 -33 -6 -74l-192 -1075h-256l192 1075q1 9 2 19.5t1.5 16t0.5 9.5q0 55 -29 84t-81 29q-67 0 -114.5 -41.5t-59.5 -110.5l-15 -86h181l-39 -221h-181l-137 -774h-256l135 774h-151z
" />
    <glyph glyph-name="fi.dlig" horiz-adv-x="1087" 
d="M80 774l39 221h162l12 74q30 176 151 285q123 108 301 108q152 0 238 -79t86 -214q0 -37 -2 -47l-238 -47q1 7 2 16.5t2 16t1 10.5q0 55 -29.5 85t-79.5 30q-67 0 -114.5 -41.5t-59.5 -110.5l-14 -86h532l-176 -995h-256l137 774h-278l-138 -778h-256l138 778h-160z" />
    <glyph glyph-name="fl.dlig" horiz-adv-x="1083" 
d="M80 774l39 221h151l15 76q27 178 151 287q123 108 301 108q160 0 254 -86.5t94 -230.5q0 -33 -6 -74l-192 -1075h-256l192 1075q1 9 2 19.5t1.5 16t0.5 9.5q0 55 -29 84t-81 29q-67 0 -114.5 -41.5t-59.5 -110.5l-15 -86h181l-39 -221h-181l-137 -774h-256l135 774h-151z
" />
    <glyph glyph-name="one.ss01" 
d="M33 0l45 244h364l125 708h-297l39 213q143 0 229.5 71.5t110.5 197.5h260l-211 -1190h365l-45 -244h-985z" />
    <glyph glyph-name="zero.tf" 
d="M776 1464q232 0 350.5 -141.5t118.5 -388.5q2 -186 -48 -362t-139 -311t-222.5 -215.5t-286.5 -76.5q-236 0 -355.5 142t-119.5 393q-2 147 29.5 289.5t94 264t147 214t196.5 144t235 48.5zM563 215q99 -3 181.5 58.5t134.5 163t80.5 224.5t27.5 248q0 152 -58 231
t-167 79q-99 4 -183 -57.5t-136.5 -162.5t-81.5 -224t-27 -247q0 -155 58 -234t171 -79z" />
    <glyph glyph-name="one.tf" 
d="M35 0l43 244h364l125 708h-297l39 213q143 0 229.5 71.5t110.5 197.5h260l-211 -1190h365l-43 -244h-985z" />
    <glyph glyph-name="two.tf" 
d="M23 0l22 127q27 155 109 256q85 108 180 164q109 65 258 133l104 49q137 67 204 141.5t67 178.5q0 81 -52 125.5t-145 44.5q-90 0 -158 -35t-104 -91t-52.5 -118t-13.5 -125l-266 29q-2 81 20.5 163.5t73 159t122 135.5t176 94t227.5 33q200 0 317 -102.5t117 -274.5
q0 -195 -105.5 -332t-314.5 -241l-88 -43q-151 -74 -220.5 -118.5t-113.5 -106.5h707l-43 -246h-1028z" />
    <glyph glyph-name="three.tf" 
d="M66 449l270 49q-12 -44 -12 -86q0 -93 58.5 -145t172.5 -52q142 0 232 72t90 190q0 81 -65.5 125.5t-184.5 44.5h-131l43 236l129 2q122 0 189 53t67 141q0 64 -53 102t-148 38q-111 0 -178 -59.5t-80 -149.5l-252 37q35 183 179.5 300t363.5 117q208 0 320 -91t112 -243
q0 -104 -49 -191.5t-138 -150.5q150 -99 150 -274q3 -152 -80.5 -279t-227.5 -198t-313 -68q-225 0 -350 107t-125 278q0 27 11 95z" />
    <glyph glyph-name="four.tf" 
d="M23 279l36 206l867 949h215l-162 -916h195l-44 -239h-192l-49 -279h-256l49 279h-659zM383 518h342l80 461z" />
    <glyph glyph-name="five.tf" 
d="M82 492l264 24q-10 -52 -10 -82q0 -104 62 -161.5t177 -57.5q132 0 218.5 78.5t97.5 202.5q2 6 2 28q0 89 -59 141t-162 52q-84 0 -144 -28t-114 -79l-228 68l222 756h841l-45 -246h-610l-86 -285q104 43 207 43q202 0 320 -105t118 -284q0 -57 -8 -98
q-37 -222 -196.5 -356t-387.5 -134q-229 0 -361 115t-132 293q0 52 14 115z" />
    <glyph glyph-name="six.tf" 
d="M809 1464q201 0 315.5 -104t114.5 -277q0 -35 -6 -69l-262 -33q4 28 4 63q0 175 -182 175q-132 0 -233 -107t-157 -287q150 125 340 125q189 0 305.5 -111t116.5 -288q3 -118 -46 -226.5t-133 -186t-197.5 -123t-235.5 -44.5q-208 0 -336.5 132.5t-128.5 373.5
q-1 122 21.5 244.5t66 233t108.5 205t143.5 163t177 106.5t204.5 35zM582 213q132 0 229.5 93t97.5 216q0 93 -64 151t-169 58q-125 0 -219.5 -91t-94.5 -220q0 -94 59 -150.5t161 -56.5z" />
    <glyph glyph-name="seven.tf" 
d="M236 1188l43 246h1007l-43 -246q-215 -209 -409 -535q-196 -329 -283 -653h-264q78 305 250 629q169 318 372 559h-673z" />
    <glyph glyph-name="eight.tf" 
d="M330 784q-105 92 -105 224q0 130 76.5 235t203 163t275.5 58q193 0 311.5 -98.5t118.5 -255.5q0 -109 -51.5 -196.5t-146.5 -145.5q72 -49 110.5 -122t38.5 -159q3 -146 -84 -267t-231 -187t-309 -64q-226 0 -360 106t-134 283q0 140 75.5 249.5t211.5 176.5zM684 874
q119 0 195.5 59.5t76.5 153.5q0 72 -56 116t-150 44q-118 0 -195.5 -62.5t-77.5 -158.5q0 -69 56.5 -110.5t150.5 -41.5zM565 201q144 0 234 75q94 76 94 193q0 87 -66.5 137.5t-181.5 50.5q-142 0 -238 -75.5t-96 -190.5q0 -88 68 -139t186 -51z" />
    <glyph glyph-name="nine.tf" 
d="M502 -31q-201 0 -315.5 104t-114.5 277q0 36 6 70l262 33q-4 -28 -4 -64q0 -174 182 -174q132 0 232.5 106.5t156.5 286.5q-150 -125 -340 -125q-188 0 -305 111t-117 289q-4 157 80.5 292t227 212t305.5 75q208 0 336.5 -132.5t128.5 -373.5q1 -122 -21.5 -244.5
t-66 -233t-108.5 -205t-143.5 -163t-177 -106.5t-204.5 -35zM729 1221q-132 0 -230 -93.5t-98 -216.5q0 -93 64.5 -151t169.5 -58q125 0 219 91.5t94 220.5q0 95 -58.5 151t-160.5 56z" />
    <glyph glyph-name="zero.zero" horiz-adv-x="1294" 
d="M803 1464q232 0 350.5 -141.5t118.5 -388.5q2 -186 -48 -362t-139.5 -311t-223 -215.5t-286.5 -76.5q-236 0 -355.5 142t-119.5 393q-2 184 49 359t141.5 309.5t225 215t287.5 76.5zM360 520l568 649q-56 50 -140 50q-99 4 -183 -57.5t-136.5 -162.5t-81.5 -224t-27 -247
v-8zM590 215q99 -3 181.5 58.5t134.5 163t80.5 224.5t27.5 248v29l-580 -662q55 -61 156 -61z" />
    <glyph glyph-name="zero.dnom" horiz-adv-x="892" 
d="M518 944q148 0 224.5 -93.5t76.5 -256.5q2 -158 -53.5 -298.5t-162 -228.5t-238.5 -85q-150 0 -227 92t-77 256q-1 120 31 231.5t90 197.5t146 136.5t190 48.5zM379 158q81 0 142.5 67t90.5 162.5t29 198.5q0 90 -35 136t-102 46q-63 0 -114.5 -38t-84 -100t-50 -136.5
t-17.5 -151.5q0 -91 36.5 -137.5t104.5 -46.5z" />
    <glyph glyph-name="one.dnom" horiz-adv-x="532" 
d="M68 608l26 144q91 0 148 46.5t71 127.5h176l-163 -926h-172l106 608h-192z" />
    <glyph glyph-name="two.dnom" horiz-adv-x="825" 
d="M-8 0l14 84q17 103 78 176q60 72 123 109q50 29 186 92q110 52 156.5 97t46.5 118q0 102 -123 102q-55 0 -97.5 -22t-65.5 -57t-33 -74.5t-7 -77.5l-180 18q-2 69 23 135t73 121t127.5 89t178.5 34q130 0 206 -66.5t76 -177.5q0 -222 -242 -354q-16 -9 -92 -47
q-81 -40 -125 -68.5t-73 -64.5h446l-29 -166h-667z" />
    <glyph glyph-name="three.dnom" horiz-adv-x="847" 
d="M35 291l182 35q-6 -27 -6 -54q0 -58 36 -90t107 -32q88 0 141.5 43.5t53.5 115.5q0 50 -39.5 77.5t-112.5 27.5h-84l29 159h84q77 1 117.5 33.5t40.5 87.5q0 41 -31.5 63.5t-91.5 22.5q-69 0 -111.5 -37.5t-50.5 -91.5l-170 23q24 121 121 196.5t242 75.5q132 0 202 -59
t70 -158q0 -133 -119 -219q92 -62 92 -176q0 -52 -17.5 -103.5t-52.5 -96.5t-83.5 -79.5t-115 -54.5t-142.5 -20q-143 0 -220 68t-77 181q0 32 6 62z" />
    <glyph glyph-name="four.dnom" horiz-adv-x="837" 
d="M2 176l25 139l559 611h145l-104 -588h123l-29 -162h-123l-31 -176h-174l31 176h-422zM244 338h209l51 283z" />
    <glyph glyph-name="five.dnom" horiz-adv-x="831" 
d="M29 317l180 19q-6 -27 -6 -51q0 -66 38.5 -102t110.5 -36q86 0 140.5 54.5t54.5 134.5q0 56 -36 88.5t-101 32.5q-94 0 -160 -66l-154 43l144 492h544l-28 -166h-389l-56 -174q59 24 131 24q130 0 205.5 -68t75.5 -184q0 -161 -112 -269.5t-277 -108.5q-146 0 -230 73
t-84 191q0 38 9 73z" />
    <glyph glyph-name="six.dnom" horiz-adv-x="845" 
d="M504 944q133 0 205.5 -66t72.5 -178q0 -35 -2 -45l-178 -22q4 36 4 39q0 112 -112 112q-83 0 -144 -64.5t-98 -178.5q88 73 211 73t198.5 -71t75.5 -187q0 -158 -116.5 -266t-282.5 -108q-136 0 -217.5 86t-81.5 243q-2 118 31.5 233t93 205t148.5 144t192 51zM358 147
q86 0 144.5 55.5t58.5 135.5q0 57 -38.5 92t-104.5 35q-78 0 -136.5 -56.5t-58.5 -134.5q0 -58 36.5 -92.5t98.5 -34.5z" />
    <glyph glyph-name="seven.dnom" horiz-adv-x="770" 
d="M106 760l31 166h649l-28 -166q-136 -136 -260 -346q-120 -201 -181 -414h-178q50 195 156 397q110 210 237 363h-426z" />
    <glyph glyph-name="eight.dnom" horiz-adv-x="872" 
d="M213 504q-63 57 -63 141q0 127 105.5 212t254.5 85q124 0 201 -64t77 -167q0 -68 -32 -124t-92 -93q94 -69 94 -183q0 -96 -56.5 -173t-149.5 -119t-202 -42q-146 0 -230.5 69t-84.5 185q0 88 46.5 159t131.5 114zM449 563q73 0 121 38t48 95q0 45 -35 72t-94 27
q-73 0 -121.5 -40t-48.5 -96q0 -43 35.5 -69.5t94.5 -26.5zM373 135q88 0 145 45.5t57 118.5q0 54 -42 86.5t-111 32.5q-88 0 -146.5 -47.5t-58.5 -120.5q0 -54 41.5 -84.5t114.5 -30.5z" />
    <glyph glyph-name="nine.dnom" horiz-adv-x="845" 
d="M53 270l178 23q-4 -36 -4 -39q0 -111 113 -111q83 0 145 65.5t99 180.5q-94 -76 -213 -76q-123 0 -199 70.5t-76 185.5q0 158 117 266.5t283 108.5q136 0 217.5 -86.5t81.5 -241.5q1 -94 -20 -187.5t-62 -174.5t-97 -143t-130.5 -96.5t-155.5 -32.5q-133 0 -206 65.5
t-73 177.5q0 35 2 45zM416 461q78 0 135 57q59 59 59 133q0 58 -36 93.5t-101 35.5q-84 0 -142.5 -56t-58.5 -136q0 -57 39 -92t105 -35z" />
    <glyph glyph-name="zero.numr" horiz-adv-x="892" 
d="M608 1452q148 0 224.5 -93.5t76.5 -256.5q2 -158 -53.5 -299t-162 -229t-238.5 -85q-150 0 -226.5 92.5t-76.5 256.5q-2 161 52.5 301.5t161 228t242.5 84.5zM469 666q81 0 142.5 67t90.5 162.5t29 198.5q0 90 -35 136t-102 46q-63 0 -114.5 -38t-84 -100t-50 -136.5
t-17.5 -151.5q0 -91 36.5 -137.5t104.5 -46.5z" />
    <glyph glyph-name="one.numr" horiz-adv-x="532" 
d="M158 1116l26 144q91 0 148 46.5t71 127.5h177l-164 -926h-172l106 608h-192z" />
    <glyph glyph-name="two.numr" horiz-adv-x="825" 
d="M82 508l14 84q17 103 78 176q60 72 123 109q50 29 186 92q110 52 156.5 97t46.5 118q0 102 -123 102q-55 0 -97.5 -22t-65.5 -57t-33 -74.5t-7 -77.5l-180 18q-2 69 23 135t73 121t127.5 89t178.5 34q130 0 206 -66.5t76 -177.5q0 -223 -241 -354q-8 -5 -93 -47
q-81 -40 -125 -68.5t-73 -64.5h446l-28 -166h-668z" />
    <glyph glyph-name="three.numr" horiz-adv-x="847" 
d="M125 799l182 35q-6 -27 -6 -54q0 -58 36 -90.5t107 -32.5q88 0 141.5 44t53.5 116q0 50 -39.5 77.5t-112.5 27.5h-84l29 159h84q77 1 117.5 33.5t40.5 87.5q0 41 -31.5 63.5t-91.5 22.5q-69 0 -111.5 -37.5t-50.5 -91.5l-170 23q24 121 121 196.5t242 75.5q132 0 202 -59
t70 -158q0 -133 -119 -219q92 -62 92 -176q0 -66 -28 -129t-79 -113.5t-130.5 -81.5t-173.5 -31q-143 0 -220 68.5t-77 181.5q0 32 6 62z" />
    <glyph glyph-name="four.numr" horiz-adv-x="837" 
d="M92 682l25 139l559 611h145l-104 -588h123l-29 -162h-123l-31 -176h-174l31 176h-422zM334 844h209l51 282z" />
    <glyph glyph-name="five.numr" horiz-adv-x="831" 
d="M119 825l180 19q-6 -27 -6 -51q0 -66 38.5 -102t110.5 -36q86 0 140.5 54.5t54.5 134.5q0 56 -36 88.5t-101 32.5q-94 0 -160 -66l-154 43l144 492h544l-28 -166h-389l-56 -174q59 24 131 24q130 0 205.5 -68t75.5 -184q0 -161 -112 -270t-277 -109q-146 0 -229.5 73.5
t-83.5 191.5q0 42 8 73z" />
    <glyph glyph-name="six.numr" horiz-adv-x="845" 
d="M594 1452q133 0 205.5 -66t72.5 -178q0 -35 -2 -45l-178 -22q4 36 4 39q0 112 -112 112q-83 0 -144 -64.5t-98 -178.5q88 73 211 73t198.5 -71t75.5 -187q0 -158 -116.5 -266.5t-282.5 -108.5q-136 0 -217.5 86.5t-81.5 243.5q-2 118 31.5 233t93 205t148.5 144t192 51z
M449 655q86 0 144 55.5t58 135.5q0 57 -38.5 92t-104.5 35q-78 0 -136.5 -56.5t-58.5 -134.5q0 -57 36.5 -92t99.5 -35z" />
    <glyph glyph-name="seven.numr" horiz-adv-x="770" 
d="M197 1268l30 166h650l-29 -166q-136 -136 -260 -346q-119 -198 -180 -414h-179q50 195 156 397q108 206 238 363h-426z" />
    <glyph glyph-name="eight.numr" horiz-adv-x="872" 
d="M303 1016q-63 57 -63 141q0 127 105.5 212t254.5 85q124 0 201.5 -64t77.5 -167q0 -140 -125 -217q94 -69 94 -183q0 -96 -56.5 -173t-149.5 -119t-202 -42q-146 0 -230.5 69t-84.5 185q0 88 46.5 159t131.5 114zM539 1075q73 0 121.5 38t48.5 95q0 45 -35 72t-94 27
q-73 0 -121.5 -40t-48.5 -96q0 -43 35 -69.5t94 -26.5zM463 647q89 0 146 45.5t57 118.5q0 54 -42.5 86.5t-111.5 32.5q-88 0 -146.5 -47.5t-58.5 -120.5q0 -54 41.5 -84.5t114.5 -30.5z" />
    <glyph glyph-name="nine.numr" horiz-adv-x="845" 
d="M143 778l179 23q-1 -7 -2 -16t-2 -14.5t-1 -8.5q0 -111 113 -111q83 0 145 65.5t99 180.5q-94 -76 -213 -76q-123 0 -199 70.5t-76 185.5q0 158 117 266.5t283 108.5q136 0 217.5 -86.5t81.5 -241.5q2 -159 -55 -305t-166.5 -240t-243.5 -90q-133 0 -206 66t-73 178
q0 35 2 45zM506 969q78 0 135 57q59 59 59 133q0 58 -36 93.5t-101 35.5q-84 0 -142.5 -56t-58.5 -136q0 -57 39 -92t105 -35z" />
    <glyph glyph-name="uni2081.ss01" horiz-adv-x="864" 
d="M4 -174l29 168h215l78 440h-193l27 144q91 0 148 46.5t71 127.5h176l-133 -758h231l-28 -168h-621z" />
    <glyph glyph-name="one.dnom.ss01" horiz-adv-x="864" 
d="M35 0l28 168h216l77 440h-192l26 144q91 0 148.5 46.5t71.5 127.5h176l-133 -758h231l-29 -168h-620z" />
    <glyph glyph-name="one.numr.ss01" horiz-adv-x="864" 
d="M125 508l29 168h215l77 440h-192l27 144q91 0 148 46.5t71 127.5h176l-133 -758h231l-29 -168h-620z" />
    <glyph glyph-name="uni00B9.ss01" horiz-adv-x="864" 
d="M158 700l28 168h215l78 441h-192l26 143q91 0 148 46.5t71 127.5h177l-134 -758h232l-29 -168h-620z" />
    <glyph glyph-name="exclamdown.case" horiz-adv-x="534" 
d="M397 1153q-63 0 -105 41.5t-42 103.5q0 72 51.5 124.5t118.5 52.5t109 -42t42 -108q0 -68 -52.5 -120t-121.5 -52zM53 2l180 1012h256l-180 -1012h-256z" />
    <glyph glyph-name="questiondown.case" horiz-adv-x="1087" 
d="M686 1128q-63 0 -105 42t-42 104q0 72 51.5 124t118.5 52t109 -42t42 -108q0 -68 -52.5 -120t-121.5 -52zM459 -31q-227 0 -330 109q-102 108 -102 256q2 89 22.5 155.5t65.5 121.5t98 95.5t141 94.5q84 51 122 90.5t48 97.5l6 31h269l-8 -43q-15 -101 -60 -168
q-39 -61 -84.5 -96t-134.5 -84l-51 -29q-82 -49 -120 -102t-38 -129q0 -71 49.5 -112.5t145.5 -41.5q132 0 208.5 96t73.5 226l256 -33q-4 -80 -26 -155t-68 -144.5t-111 -121.5t-161 -83t-211 -31z" />
    <glyph glyph-name="parenleft.case" horiz-adv-x="595" 
d="M584 1726l168 -151q-213 -233 -325 -519.5t-112 -598.5q0 -328 121 -647l-211 -103q-133 360 -133 731q0 360 126 692t366 596z" />
    <glyph glyph-name="parenright.case" horiz-adv-x="595" 
d="M90 -293l-168 152q213 233 324.5 519t111.5 599q0 331 -120 647l211 102q133 -360 133 -731q0 -360 -126 -692t-366 -596z" />
    <glyph glyph-name="braceleft.case" horiz-adv-x="745" 
d="M51 614l4 25l6 33l19 102l10 49q106 0 193 66q86 65 104 168l64 346q29 162 126 241.5t230 79.5q57 0 121 -18l-68 -199q-33 11 -55 11q-54 0 -96.5 -38t-55.5 -110l-59 -328q-18 -103 -85.5 -188.5t-168.5 -140.5q147 -88 147 -252q0 -31 -6 -66l-57 -327q-4 -20 -4 -41
q0 -53 28.5 -80t75.5 -27q28 0 58 10l-2 -198q-62 -21 -123 -21q-112 0 -183 63.5t-71 188.5q0 47 8 86l57 332q4 32 4 39q0 87 -61.5 140.5t-159.5 53.5z" />
    <glyph glyph-name="braceright.case" horiz-adv-x="745" 
d="M772 819l-4 -24l-6 -33l-19 -103l-10 -49q-106 0 -192 -65q-87 -66 -105 -168l-63 -346q-29 -162 -126.5 -242t-230.5 -80q-52 0 -120 19l67 198q30 -10 55 -10q54 0 96.5 37.5t55.5 109.5l59 328q19 103 86 189t168 141q-70 42 -108.5 106.5t-38.5 145.5q0 31 6 65
l57 328q4 20 4 41q0 53 -28.5 79.5t-75.5 26.5q-27 0 -57 -10l2 199q59 20 123 20q112 0 183 -63.5t71 -188.5q0 -42 -9 -86l-57 -331q-4 -32 -4 -39q0 -87 62 -141t159 -54z" />
    <glyph glyph-name="bracketleft.case" horiz-adv-x="589" 
d="M-20 -295l360 2024h436l-39 -209h-227l-281 -1606h228l-39 -209h-438z" />
    <glyph glyph-name="bracketright.case" horiz-adv-x="587" 
d="M686 1729l-360 -2024h-437l39 209h228l280 1606h-227l39 209h438z" />
    <glyph glyph-name="hyphen.case" horiz-adv-x="802" 
d="M111 594l43 246h614l-43 -246h-614z" />
    <glyph glyph-name="uni00AD.case" horiz-adv-x="802" 
d="M111 594l43 246h614l-43 -246h-614z" />
    <glyph glyph-name="endash.case" horiz-adv-x="1212" 
d="M111 594l43 246h1024l-43 -246h-1024z" />
    <glyph glyph-name="emdash.case" horiz-adv-x="2031" 
d="M111 594l43 246h1843l-43 -246h-1843z" />
    <glyph glyph-name="guillemotleft.case" horiz-adv-x="1064" 
d="M98 717l293 379h277l-310 -398l174 -360h-251zM541 717l293 379h276l-309 -398l174 -360h-252z" />
    <glyph glyph-name="guillemotright.case" horiz-adv-x="1062" 
d="M475 338l309 397l-174 361h252l182 -379l-292 -379h-277zM33 338l309 397l-174 361h252l182 -379l-293 -379h-276z" />
    <glyph glyph-name="guilsinglleft.case" horiz-adv-x="620" 
d="M98 719l293 379h275l-308 -398l174 -360h-251z" />
    <glyph glyph-name="guilsinglright.case" horiz-adv-x="620" 
d="M31 338l309 397l-174 361h252l182 -379l-293 -379h-276z" />
    <glyph glyph-name="at.case" horiz-adv-x="1675" 
d="M995 1460q288 0 464.5 -167.5t176.5 -432.5q0 -225 -108 -369.5t-295 -144.5q-79 0 -132.5 28.5t-72.5 78.5q-113 -107 -250 -107q-124 0 -189 70.5t-65 187.5q-1 78 30.5 160.5t86.5 149.5t135.5 109t167.5 40q66 0 113.5 -23t72.5 -61l21 68h143l-123 -480
q-3 -65 84 -65q106 0 160 100q58 101 58 248q0 210 -131 332.5t-361 122.5q-133 3 -263.5 -56.5t-226 -156.5t-153.5 -227.5t-55 -262.5q0 -205 138.5 -342t350.5 -137q105 0 195 32.5t143 92.5l113 -121q-85 -78 -204.5 -120t-258.5 -42q-185 0 -331 82.5t-227 227.5
t-81 327q-4 162 69 321.5t193 278.5t283 190.5t329 67.5zM821 498q99 0 169.5 86.5t70.5 183.5q0 65 -34 104t-99 39q-101 0 -171.5 -86t-70.5 -184q0 -64 35.5 -103.5t99.5 -39.5z" />
    <glyph glyph-name="uni0308.case" horiz-adv-x="0" 
d="M-334 1872q62 0 103 -41t41 -102q0 -67 -49.5 -118.5t-116.5 -51.5q-61 0 -102.5 42.5t-41.5 104.5q0 66 50 116t116 50zM70 1872q61 0 102 -43t41 -105q0 -66 -50 -115.5t-116 -49.5q-61 0 -102 41.5t-41 101.5q0 64 50 117t116 53z" />
    <glyph glyph-name="uni0307.case" horiz-adv-x="0" 
d="M72 1868q61 0 102 -42t41 -104q0 -61 -49.5 -110t-114.5 -49q-61 0 -102 40.5t-41 102.5q0 66 49 114t115 48z" />
    <glyph glyph-name="gravecomb.case" horiz-adv-x="0" 
d="M-231 1860h327l92 -287h-227z" />
    <glyph glyph-name="acutecomb.case" horiz-adv-x="0" 
d="M-285 1573l193 287h332l-293 -287h-232z" />
    <glyph glyph-name="uni030B.case" horiz-adv-x="0" 
d="M-541 1573l140 287h286l-241 -287h-185zM-188 1573l139 287h289l-244 -287h-184z" />
    <glyph glyph-name="uni0302.case" horiz-adv-x="0" 
d="M-457 1573l258 287h234l153 -287h-213l-86 125l-131 -125h-215z" />
    <glyph glyph-name="uni030C.case" horiz-adv-x="0" 
d="M-408 1860h215l87 -127l129 127h217l-258 -287h-236z" />
    <glyph glyph-name="uni0306.case" horiz-adv-x="0" 
d="M-381 1829v31h182q-2 -54 27 -85.5t80 -31.5q55 0 93 31t56 86h183q-31 -130 -122.5 -208.5t-217.5 -78.5q-123 0 -202 71t-79 185z" />
    <glyph glyph-name="uni030A.case" horiz-adv-x="0" 
d="M27 1931q79 0 133.5 -56t54.5 -136q0 -89 -69 -155t-154 -66q-79 0 -134 55t-55 135q0 87 67.5 155t156.5 68zM0 1651q36 0 60 22.5t24 57.5q0 29 -19.5 48t-48.5 19q-32 0 -57 -24t-25 -56q0 -29 19.5 -48t46.5 -19z" />
    <glyph glyph-name="tildecomb.case" horiz-adv-x="0" 
d="M-272 1849q63 0 137 -41q57 -32 98 -32q74 0 121 90l137 -105q-46 -92 -116 -139t-154 -47q-68 0 -146 43q-55 31 -90 31q-67 0 -114 -86l-144 100q52 99 119 142.5t152 43.5z" />
    <glyph glyph-name="uni0304.case" horiz-adv-x="0" 
d="M-420 1595l35 199h614l-34 -199h-615z" />
    <glyph glyph-name="uni0313.case" horiz-adv-x="0" 
d="M-158 1133l72 301h250l-146 -301h-176z" />
    <glyph glyph-name="uni0327.case" horiz-adv-x="0" 
d="M-555 -322l125 39q-2 -31 15.5 -49t52.5 -18t57 21.5t22 54.5q0 27 -17 43t-46 16q-31 0 -45 -14l-101 71l138 187l123 -29l-70 -96q64 -2 113 -51t49 -121q0 -89 -63.5 -150t-164.5 -61q-85 0 -138.5 45t-49.5 112z" />
    <glyph glyph-name="uni0328.case" horiz-adv-x="0" 
d="M-248 41l162 -41q-62 -23 -109 -62.5t-47 -80.5q0 -73 97 -76l-29 -164q-124 0 -196 50.5t-72 142.5q0 78 54 138t140 93z" />
    <glyph glyph-name="NULL" horiz-adv-x="0" 
 />
    </font>
</defs>
</svg>
